G04 #@! TF.GenerationSoftware,KiCad,Pcbnew,5.1.2-f72e74a~84~ubuntu18.04.1*
G04 #@! TF.CreationDate,2019-05-12T20:09:00+01:00*
G04 #@! TF.ProjectId,cutoff-hardware,6375746f-6666-42d6-9861-726477617265,1.1*
G04 #@! TF.SameCoordinates,Original*
G04 #@! TF.FileFunction,Soldermask,Bot*
G04 #@! TF.FilePolarity,Negative*
%FSLAX46Y46*%
G04 Gerber Fmt 4.6, Leading zero omitted, Abs format (unit mm)*
G04 Created by KiCad (PCBNEW 5.1.2-f72e74a~84~ubuntu18.04.1) date 2019-05-12 20:09:00*
%MOMM*%
%LPD*%
G04 APERTURE LIST*
%ADD10C,0.100000*%
G04 APERTURE END LIST*
D10*
G36*
X123501000Y-115301000D02*
G01*
X121699000Y-115301000D01*
X121699000Y-113499000D01*
X123501000Y-113499000D01*
X123501000Y-115301000D01*
X123501000Y-115301000D01*
G37*
G36*
X120170443Y-113505519D02*
G01*
X120236627Y-113512037D01*
X120406466Y-113563557D01*
X120562991Y-113647222D01*
X120598729Y-113676552D01*
X120700186Y-113759814D01*
X120783448Y-113861271D01*
X120812778Y-113897009D01*
X120896443Y-114053534D01*
X120947963Y-114223373D01*
X120965359Y-114400000D01*
X120947963Y-114576627D01*
X120896443Y-114746466D01*
X120812778Y-114902991D01*
X120783448Y-114938729D01*
X120700186Y-115040186D01*
X120598729Y-115123448D01*
X120562991Y-115152778D01*
X120406466Y-115236443D01*
X120236627Y-115287963D01*
X120170442Y-115294482D01*
X120104260Y-115301000D01*
X120015740Y-115301000D01*
X119949558Y-115294482D01*
X119883373Y-115287963D01*
X119713534Y-115236443D01*
X119557009Y-115152778D01*
X119521271Y-115123448D01*
X119419814Y-115040186D01*
X119336552Y-114938729D01*
X119307222Y-114902991D01*
X119223557Y-114746466D01*
X119172037Y-114576627D01*
X119154641Y-114400000D01*
X119172037Y-114223373D01*
X119223557Y-114053534D01*
X119307222Y-113897009D01*
X119336552Y-113861271D01*
X119419814Y-113759814D01*
X119521271Y-113676552D01*
X119557009Y-113647222D01*
X119713534Y-113563557D01*
X119883373Y-113512037D01*
X119949557Y-113505519D01*
X120015740Y-113499000D01*
X120104260Y-113499000D01*
X120170443Y-113505519D01*
X120170443Y-113505519D01*
G37*
G36*
X110010443Y-113505519D02*
G01*
X110076627Y-113512037D01*
X110246466Y-113563557D01*
X110402991Y-113647222D01*
X110438729Y-113676552D01*
X110540186Y-113759814D01*
X110623448Y-113861271D01*
X110652778Y-113897009D01*
X110736443Y-114053534D01*
X110787963Y-114223373D01*
X110805359Y-114400000D01*
X110787963Y-114576627D01*
X110736443Y-114746466D01*
X110652778Y-114902991D01*
X110623448Y-114938729D01*
X110540186Y-115040186D01*
X110438729Y-115123448D01*
X110402991Y-115152778D01*
X110246466Y-115236443D01*
X110076627Y-115287963D01*
X110010442Y-115294482D01*
X109944260Y-115301000D01*
X109855740Y-115301000D01*
X109789558Y-115294482D01*
X109723373Y-115287963D01*
X109553534Y-115236443D01*
X109397009Y-115152778D01*
X109361271Y-115123448D01*
X109259814Y-115040186D01*
X109176552Y-114938729D01*
X109147222Y-114902991D01*
X109063557Y-114746466D01*
X109012037Y-114576627D01*
X108994641Y-114400000D01*
X109012037Y-114223373D01*
X109063557Y-114053534D01*
X109147222Y-113897009D01*
X109176552Y-113861271D01*
X109259814Y-113759814D01*
X109361271Y-113676552D01*
X109397009Y-113647222D01*
X109553534Y-113563557D01*
X109723373Y-113512037D01*
X109789557Y-113505519D01*
X109855740Y-113499000D01*
X109944260Y-113499000D01*
X110010443Y-113505519D01*
X110010443Y-113505519D01*
G37*
G36*
X112550443Y-113505519D02*
G01*
X112616627Y-113512037D01*
X112786466Y-113563557D01*
X112942991Y-113647222D01*
X112978729Y-113676552D01*
X113080186Y-113759814D01*
X113163448Y-113861271D01*
X113192778Y-113897009D01*
X113276443Y-114053534D01*
X113327963Y-114223373D01*
X113345359Y-114400000D01*
X113327963Y-114576627D01*
X113276443Y-114746466D01*
X113192778Y-114902991D01*
X113163448Y-114938729D01*
X113080186Y-115040186D01*
X112978729Y-115123448D01*
X112942991Y-115152778D01*
X112786466Y-115236443D01*
X112616627Y-115287963D01*
X112550442Y-115294482D01*
X112484260Y-115301000D01*
X112395740Y-115301000D01*
X112329558Y-115294482D01*
X112263373Y-115287963D01*
X112093534Y-115236443D01*
X111937009Y-115152778D01*
X111901271Y-115123448D01*
X111799814Y-115040186D01*
X111716552Y-114938729D01*
X111687222Y-114902991D01*
X111603557Y-114746466D01*
X111552037Y-114576627D01*
X111534641Y-114400000D01*
X111552037Y-114223373D01*
X111603557Y-114053534D01*
X111687222Y-113897009D01*
X111716552Y-113861271D01*
X111799814Y-113759814D01*
X111901271Y-113676552D01*
X111937009Y-113647222D01*
X112093534Y-113563557D01*
X112263373Y-113512037D01*
X112329557Y-113505519D01*
X112395740Y-113499000D01*
X112484260Y-113499000D01*
X112550443Y-113505519D01*
X112550443Y-113505519D01*
G37*
G36*
X115090443Y-113505519D02*
G01*
X115156627Y-113512037D01*
X115326466Y-113563557D01*
X115482991Y-113647222D01*
X115518729Y-113676552D01*
X115620186Y-113759814D01*
X115703448Y-113861271D01*
X115732778Y-113897009D01*
X115816443Y-114053534D01*
X115867963Y-114223373D01*
X115885359Y-114400000D01*
X115867963Y-114576627D01*
X115816443Y-114746466D01*
X115732778Y-114902991D01*
X115703448Y-114938729D01*
X115620186Y-115040186D01*
X115518729Y-115123448D01*
X115482991Y-115152778D01*
X115326466Y-115236443D01*
X115156627Y-115287963D01*
X115090442Y-115294482D01*
X115024260Y-115301000D01*
X114935740Y-115301000D01*
X114869558Y-115294482D01*
X114803373Y-115287963D01*
X114633534Y-115236443D01*
X114477009Y-115152778D01*
X114441271Y-115123448D01*
X114339814Y-115040186D01*
X114256552Y-114938729D01*
X114227222Y-114902991D01*
X114143557Y-114746466D01*
X114092037Y-114576627D01*
X114074641Y-114400000D01*
X114092037Y-114223373D01*
X114143557Y-114053534D01*
X114227222Y-113897009D01*
X114256552Y-113861271D01*
X114339814Y-113759814D01*
X114441271Y-113676552D01*
X114477009Y-113647222D01*
X114633534Y-113563557D01*
X114803373Y-113512037D01*
X114869557Y-113505519D01*
X114935740Y-113499000D01*
X115024260Y-113499000D01*
X115090443Y-113505519D01*
X115090443Y-113505519D01*
G37*
G36*
X117630443Y-113505519D02*
G01*
X117696627Y-113512037D01*
X117866466Y-113563557D01*
X118022991Y-113647222D01*
X118058729Y-113676552D01*
X118160186Y-113759814D01*
X118243448Y-113861271D01*
X118272778Y-113897009D01*
X118356443Y-114053534D01*
X118407963Y-114223373D01*
X118425359Y-114400000D01*
X118407963Y-114576627D01*
X118356443Y-114746466D01*
X118272778Y-114902991D01*
X118243448Y-114938729D01*
X118160186Y-115040186D01*
X118058729Y-115123448D01*
X118022991Y-115152778D01*
X117866466Y-115236443D01*
X117696627Y-115287963D01*
X117630442Y-115294482D01*
X117564260Y-115301000D01*
X117475740Y-115301000D01*
X117409558Y-115294482D01*
X117343373Y-115287963D01*
X117173534Y-115236443D01*
X117017009Y-115152778D01*
X116981271Y-115123448D01*
X116879814Y-115040186D01*
X116796552Y-114938729D01*
X116767222Y-114902991D01*
X116683557Y-114746466D01*
X116632037Y-114576627D01*
X116614641Y-114400000D01*
X116632037Y-114223373D01*
X116683557Y-114053534D01*
X116767222Y-113897009D01*
X116796552Y-113861271D01*
X116879814Y-113759814D01*
X116981271Y-113676552D01*
X117017009Y-113647222D01*
X117173534Y-113563557D01*
X117343373Y-113512037D01*
X117409557Y-113505519D01*
X117475740Y-113499000D01*
X117564260Y-113499000D01*
X117630443Y-113505519D01*
X117630443Y-113505519D01*
G37*
G36*
X116484877Y-100781757D02*
G01*
X116948282Y-100873934D01*
X117539926Y-101119001D01*
X118072392Y-101474784D01*
X118525216Y-101927608D01*
X118880999Y-102460074D01*
X119126066Y-103051718D01*
X119179780Y-103321757D01*
X119251000Y-103679803D01*
X119251000Y-104320197D01*
X119188533Y-104634239D01*
X119126066Y-104948282D01*
X118880999Y-105539926D01*
X118525216Y-106072392D01*
X118072392Y-106525216D01*
X117539926Y-106880999D01*
X116948282Y-107126066D01*
X116634239Y-107188533D01*
X116320197Y-107251000D01*
X115679803Y-107251000D01*
X115365761Y-107188533D01*
X115051718Y-107126066D01*
X114460074Y-106880999D01*
X113927608Y-106525216D01*
X113474784Y-106072392D01*
X113119001Y-105539926D01*
X112873934Y-104948282D01*
X112811467Y-104634239D01*
X112749000Y-104320197D01*
X112749000Y-103679803D01*
X112820220Y-103321757D01*
X112873934Y-103051718D01*
X113119001Y-102460074D01*
X113474784Y-101927608D01*
X113927608Y-101474784D01*
X114460074Y-101119001D01*
X115051718Y-100873934D01*
X115515123Y-100781757D01*
X115679803Y-100749000D01*
X116320197Y-100749000D01*
X116484877Y-100781757D01*
X116484877Y-100781757D01*
G37*
G36*
X151484877Y-100781757D02*
G01*
X151948282Y-100873934D01*
X152539926Y-101119001D01*
X153072392Y-101474784D01*
X153525216Y-101927608D01*
X153880999Y-102460074D01*
X154126066Y-103051718D01*
X154179780Y-103321757D01*
X154251000Y-103679803D01*
X154251000Y-104320197D01*
X154188533Y-104634239D01*
X154126066Y-104948282D01*
X153880999Y-105539926D01*
X153525216Y-106072392D01*
X153072392Y-106525216D01*
X152539926Y-106880999D01*
X151948282Y-107126066D01*
X151634239Y-107188533D01*
X151320197Y-107251000D01*
X150679803Y-107251000D01*
X150365761Y-107188533D01*
X150051718Y-107126066D01*
X149460074Y-106880999D01*
X148927608Y-106525216D01*
X148474784Y-106072392D01*
X148119001Y-105539926D01*
X147873934Y-104948282D01*
X147811467Y-104634239D01*
X147749000Y-104320197D01*
X147749000Y-103679803D01*
X147820220Y-103321757D01*
X147873934Y-103051718D01*
X148119001Y-102460074D01*
X148474784Y-101927608D01*
X148927608Y-101474784D01*
X149460074Y-101119001D01*
X150051718Y-100873934D01*
X150515123Y-100781757D01*
X150679803Y-100749000D01*
X151320197Y-100749000D01*
X151484877Y-100781757D01*
X151484877Y-100781757D01*
G37*
G36*
X140237142Y-101758242D02*
G01*
X140385101Y-101819529D01*
X140518255Y-101908499D01*
X140631501Y-102021745D01*
X140720471Y-102154899D01*
X140781758Y-102302858D01*
X140813000Y-102459925D01*
X140813000Y-102620075D01*
X140781758Y-102777142D01*
X140720471Y-102925101D01*
X140631501Y-103058255D01*
X140518255Y-103171501D01*
X140385101Y-103260471D01*
X140237142Y-103321758D01*
X140080075Y-103353000D01*
X139919925Y-103353000D01*
X139762858Y-103321758D01*
X139614899Y-103260471D01*
X139481745Y-103171501D01*
X139368499Y-103058255D01*
X139279529Y-102925101D01*
X139218242Y-102777142D01*
X139187000Y-102620075D01*
X139187000Y-102459925D01*
X139218242Y-102302858D01*
X139279529Y-102154899D01*
X139368499Y-102021745D01*
X139481745Y-101908499D01*
X139614899Y-101819529D01*
X139762858Y-101758242D01*
X139919925Y-101727000D01*
X140080075Y-101727000D01*
X140237142Y-101758242D01*
X140237142Y-101758242D01*
G37*
G36*
X132617142Y-101758242D02*
G01*
X132765101Y-101819529D01*
X132898255Y-101908499D01*
X133011501Y-102021745D01*
X133100471Y-102154899D01*
X133161758Y-102302858D01*
X133193000Y-102459925D01*
X133193000Y-102620075D01*
X133161758Y-102777142D01*
X133100471Y-102925101D01*
X133011501Y-103058255D01*
X132898255Y-103171501D01*
X132765101Y-103260471D01*
X132617142Y-103321758D01*
X132460075Y-103353000D01*
X132299925Y-103353000D01*
X132142858Y-103321758D01*
X131994899Y-103260471D01*
X131861745Y-103171501D01*
X131748499Y-103058255D01*
X131659529Y-102925101D01*
X131598242Y-102777142D01*
X131567000Y-102620075D01*
X131567000Y-102459925D01*
X131598242Y-102302858D01*
X131659529Y-102154899D01*
X131748499Y-102021745D01*
X131861745Y-101908499D01*
X131994899Y-101819529D01*
X132142858Y-101758242D01*
X132299925Y-101727000D01*
X132460075Y-101727000D01*
X132617142Y-101758242D01*
X132617142Y-101758242D01*
G37*
G36*
X135157142Y-101758242D02*
G01*
X135305101Y-101819529D01*
X135438255Y-101908499D01*
X135551501Y-102021745D01*
X135640471Y-102154899D01*
X135701758Y-102302858D01*
X135733000Y-102459925D01*
X135733000Y-102620075D01*
X135701758Y-102777142D01*
X135640471Y-102925101D01*
X135551501Y-103058255D01*
X135438255Y-103171501D01*
X135305101Y-103260471D01*
X135157142Y-103321758D01*
X135000075Y-103353000D01*
X134839925Y-103353000D01*
X134682858Y-103321758D01*
X134534899Y-103260471D01*
X134401745Y-103171501D01*
X134288499Y-103058255D01*
X134199529Y-102925101D01*
X134138242Y-102777142D01*
X134107000Y-102620075D01*
X134107000Y-102459925D01*
X134138242Y-102302858D01*
X134199529Y-102154899D01*
X134288499Y-102021745D01*
X134401745Y-101908499D01*
X134534899Y-101819529D01*
X134682858Y-101758242D01*
X134839925Y-101727000D01*
X135000075Y-101727000D01*
X135157142Y-101758242D01*
X135157142Y-101758242D01*
G37*
G36*
X137697142Y-101758242D02*
G01*
X137845101Y-101819529D01*
X137978255Y-101908499D01*
X138091501Y-102021745D01*
X138180471Y-102154899D01*
X138241758Y-102302858D01*
X138273000Y-102459925D01*
X138273000Y-102620075D01*
X138241758Y-102777142D01*
X138180471Y-102925101D01*
X138091501Y-103058255D01*
X137978255Y-103171501D01*
X137845101Y-103260471D01*
X137697142Y-103321758D01*
X137540075Y-103353000D01*
X137379925Y-103353000D01*
X137222858Y-103321758D01*
X137074899Y-103260471D01*
X136941745Y-103171501D01*
X136828499Y-103058255D01*
X136739529Y-102925101D01*
X136678242Y-102777142D01*
X136647000Y-102620075D01*
X136647000Y-102459925D01*
X136678242Y-102302858D01*
X136739529Y-102154899D01*
X136828499Y-102021745D01*
X136941745Y-101908499D01*
X137074899Y-101819529D01*
X137222858Y-101758242D01*
X137379925Y-101727000D01*
X137540075Y-101727000D01*
X137697142Y-101758242D01*
X137697142Y-101758242D01*
G37*
G36*
X140813000Y-100813000D02*
G01*
X139187000Y-100813000D01*
X139187000Y-99187000D01*
X140813000Y-99187000D01*
X140813000Y-100813000D01*
X140813000Y-100813000D01*
G37*
G36*
X135157142Y-99218242D02*
G01*
X135305101Y-99279529D01*
X135438255Y-99368499D01*
X135551501Y-99481745D01*
X135640471Y-99614899D01*
X135701758Y-99762858D01*
X135733000Y-99919925D01*
X135733000Y-100080075D01*
X135701758Y-100237142D01*
X135640471Y-100385101D01*
X135551501Y-100518255D01*
X135438255Y-100631501D01*
X135305101Y-100720471D01*
X135157142Y-100781758D01*
X135000075Y-100813000D01*
X134839925Y-100813000D01*
X134682858Y-100781758D01*
X134534899Y-100720471D01*
X134401745Y-100631501D01*
X134288499Y-100518255D01*
X134199529Y-100385101D01*
X134138242Y-100237142D01*
X134107000Y-100080075D01*
X134107000Y-99919925D01*
X134138242Y-99762858D01*
X134199529Y-99614899D01*
X134288499Y-99481745D01*
X134401745Y-99368499D01*
X134534899Y-99279529D01*
X134682858Y-99218242D01*
X134839925Y-99187000D01*
X135000075Y-99187000D01*
X135157142Y-99218242D01*
X135157142Y-99218242D01*
G37*
G36*
X132617142Y-99218242D02*
G01*
X132765101Y-99279529D01*
X132898255Y-99368499D01*
X133011501Y-99481745D01*
X133100471Y-99614899D01*
X133161758Y-99762858D01*
X133193000Y-99919925D01*
X133193000Y-100080075D01*
X133161758Y-100237142D01*
X133100471Y-100385101D01*
X133011501Y-100518255D01*
X132898255Y-100631501D01*
X132765101Y-100720471D01*
X132617142Y-100781758D01*
X132460075Y-100813000D01*
X132299925Y-100813000D01*
X132142858Y-100781758D01*
X131994899Y-100720471D01*
X131861745Y-100631501D01*
X131748499Y-100518255D01*
X131659529Y-100385101D01*
X131598242Y-100237142D01*
X131567000Y-100080075D01*
X131567000Y-99919925D01*
X131598242Y-99762858D01*
X131659529Y-99614899D01*
X131748499Y-99481745D01*
X131861745Y-99368499D01*
X131994899Y-99279529D01*
X132142858Y-99218242D01*
X132299925Y-99187000D01*
X132460075Y-99187000D01*
X132617142Y-99218242D01*
X132617142Y-99218242D01*
G37*
G36*
X137697142Y-99218242D02*
G01*
X137845101Y-99279529D01*
X137978255Y-99368499D01*
X138091501Y-99481745D01*
X138180471Y-99614899D01*
X138241758Y-99762858D01*
X138273000Y-99919925D01*
X138273000Y-100080075D01*
X138241758Y-100237142D01*
X138180471Y-100385101D01*
X138091501Y-100518255D01*
X137978255Y-100631501D01*
X137845101Y-100720471D01*
X137697142Y-100781758D01*
X137540075Y-100813000D01*
X137379925Y-100813000D01*
X137222858Y-100781758D01*
X137074899Y-100720471D01*
X136941745Y-100631501D01*
X136828499Y-100518255D01*
X136739529Y-100385101D01*
X136678242Y-100237142D01*
X136647000Y-100080075D01*
X136647000Y-99919925D01*
X136678242Y-99762858D01*
X136739529Y-99614899D01*
X136828499Y-99481745D01*
X136941745Y-99368499D01*
X137074899Y-99279529D01*
X137222858Y-99218242D01*
X137379925Y-99187000D01*
X137540075Y-99187000D01*
X137697142Y-99218242D01*
X137697142Y-99218242D01*
G37*
G36*
X193110443Y-96005519D02*
G01*
X193176627Y-96012037D01*
X193346466Y-96063557D01*
X193502991Y-96147222D01*
X193538729Y-96176552D01*
X193640186Y-96259814D01*
X193723448Y-96361271D01*
X193752778Y-96397009D01*
X193836443Y-96553534D01*
X193887963Y-96723373D01*
X193905359Y-96900000D01*
X193887963Y-97076627D01*
X193836443Y-97246466D01*
X193752778Y-97402991D01*
X193723448Y-97438729D01*
X193640186Y-97540186D01*
X193538729Y-97623448D01*
X193502991Y-97652778D01*
X193346466Y-97736443D01*
X193176627Y-97787963D01*
X193110443Y-97794481D01*
X193044260Y-97801000D01*
X192955740Y-97801000D01*
X192889557Y-97794481D01*
X192823373Y-97787963D01*
X192653534Y-97736443D01*
X192497009Y-97652778D01*
X192461271Y-97623448D01*
X192359814Y-97540186D01*
X192276552Y-97438729D01*
X192247222Y-97402991D01*
X192163557Y-97246466D01*
X192112037Y-97076627D01*
X192094641Y-96900000D01*
X192112037Y-96723373D01*
X192163557Y-96553534D01*
X192247222Y-96397009D01*
X192276552Y-96361271D01*
X192359814Y-96259814D01*
X192461271Y-96176552D01*
X192497009Y-96147222D01*
X192653534Y-96063557D01*
X192823373Y-96012037D01*
X192889557Y-96005519D01*
X192955740Y-95999000D01*
X193044260Y-95999000D01*
X193110443Y-96005519D01*
X193110443Y-96005519D01*
G37*
G36*
X193110443Y-93465519D02*
G01*
X193176627Y-93472037D01*
X193346466Y-93523557D01*
X193502991Y-93607222D01*
X193538729Y-93636552D01*
X193640186Y-93719814D01*
X193723448Y-93821271D01*
X193752778Y-93857009D01*
X193836443Y-94013534D01*
X193887963Y-94183373D01*
X193905359Y-94360000D01*
X193887963Y-94536627D01*
X193836443Y-94706466D01*
X193752778Y-94862991D01*
X193723448Y-94898729D01*
X193640186Y-95000186D01*
X193538729Y-95083448D01*
X193502991Y-95112778D01*
X193346466Y-95196443D01*
X193176627Y-95247963D01*
X193110442Y-95254482D01*
X193044260Y-95261000D01*
X192955740Y-95261000D01*
X192889557Y-95254481D01*
X192823373Y-95247963D01*
X192653534Y-95196443D01*
X192497009Y-95112778D01*
X192461271Y-95083448D01*
X192359814Y-95000186D01*
X192276552Y-94898729D01*
X192247222Y-94862991D01*
X192163557Y-94706466D01*
X192112037Y-94536627D01*
X192094641Y-94360000D01*
X192112037Y-94183373D01*
X192163557Y-94013534D01*
X192247222Y-93857009D01*
X192276552Y-93821271D01*
X192359814Y-93719814D01*
X192461271Y-93636552D01*
X192497009Y-93607222D01*
X192653534Y-93523557D01*
X192823373Y-93472037D01*
X192889557Y-93465519D01*
X192955740Y-93459000D01*
X193044260Y-93459000D01*
X193110443Y-93465519D01*
X193110443Y-93465519D01*
G37*
G36*
X193110442Y-90925518D02*
G01*
X193176627Y-90932037D01*
X193346466Y-90983557D01*
X193346468Y-90983558D01*
X193377844Y-91000329D01*
X193502991Y-91067222D01*
X193538729Y-91096552D01*
X193640186Y-91179814D01*
X193712925Y-91268448D01*
X193752778Y-91317009D01*
X193836443Y-91473534D01*
X193887963Y-91643373D01*
X193905359Y-91820000D01*
X193887963Y-91996627D01*
X193836443Y-92166466D01*
X193752778Y-92322991D01*
X193723448Y-92358729D01*
X193640186Y-92460186D01*
X193538729Y-92543448D01*
X193502991Y-92572778D01*
X193346466Y-92656443D01*
X193176627Y-92707963D01*
X193110442Y-92714482D01*
X193044260Y-92721000D01*
X192955740Y-92721000D01*
X192889558Y-92714482D01*
X192823373Y-92707963D01*
X192653534Y-92656443D01*
X192497009Y-92572778D01*
X192461271Y-92543448D01*
X192359814Y-92460186D01*
X192276552Y-92358729D01*
X192247222Y-92322991D01*
X192163557Y-92166466D01*
X192112037Y-91996627D01*
X192094641Y-91820000D01*
X192112037Y-91643373D01*
X192163557Y-91473534D01*
X192247222Y-91317009D01*
X192287075Y-91268448D01*
X192359814Y-91179814D01*
X192461271Y-91096552D01*
X192497009Y-91067222D01*
X192622156Y-91000329D01*
X192653532Y-90983558D01*
X192653534Y-90983557D01*
X192823373Y-90932037D01*
X192889557Y-90925519D01*
X192955740Y-90919000D01*
X193044260Y-90919000D01*
X193110442Y-90925518D01*
X193110442Y-90925518D01*
G37*
G36*
X175634239Y-85811467D02*
G01*
X175948282Y-85873934D01*
X176539926Y-86119001D01*
X177072392Y-86474784D01*
X177525216Y-86927608D01*
X177880999Y-87460074D01*
X178126066Y-88051718D01*
X178126066Y-88051719D01*
X178251000Y-88679803D01*
X178251000Y-89320197D01*
X178223863Y-89456625D01*
X178126066Y-89948282D01*
X177880999Y-90539926D01*
X177633265Y-90910685D01*
X177528671Y-91067222D01*
X177525216Y-91072392D01*
X177072392Y-91525216D01*
X176539926Y-91880999D01*
X175948282Y-92126066D01*
X175745177Y-92166466D01*
X175320197Y-92251000D01*
X174679803Y-92251000D01*
X174254823Y-92166466D01*
X174051718Y-92126066D01*
X173460074Y-91880999D01*
X172927608Y-91525216D01*
X172474784Y-91072392D01*
X172471330Y-91067222D01*
X172366735Y-90910685D01*
X172119001Y-90539926D01*
X171873934Y-89948282D01*
X171776137Y-89456625D01*
X171749000Y-89320197D01*
X171749000Y-88679803D01*
X171873934Y-88051719D01*
X171873934Y-88051718D01*
X172119001Y-87460074D01*
X172474784Y-86927608D01*
X172927608Y-86474784D01*
X173460074Y-86119001D01*
X174051718Y-85873934D01*
X174365761Y-85811467D01*
X174679803Y-85749000D01*
X175320197Y-85749000D01*
X175634239Y-85811467D01*
X175634239Y-85811467D01*
G37*
G36*
X193110442Y-88385518D02*
G01*
X193176627Y-88392037D01*
X193346466Y-88443557D01*
X193502991Y-88527222D01*
X193529527Y-88549000D01*
X193640186Y-88639814D01*
X193699840Y-88712504D01*
X193752778Y-88777009D01*
X193836443Y-88933534D01*
X193887963Y-89103373D01*
X193905359Y-89280000D01*
X193887963Y-89456627D01*
X193836443Y-89626466D01*
X193752778Y-89782991D01*
X193723448Y-89818729D01*
X193640186Y-89920186D01*
X193538729Y-90003448D01*
X193502991Y-90032778D01*
X193346466Y-90116443D01*
X193176627Y-90167963D01*
X193110442Y-90174482D01*
X193044260Y-90181000D01*
X192955740Y-90181000D01*
X192889558Y-90174482D01*
X192823373Y-90167963D01*
X192653534Y-90116443D01*
X192497009Y-90032778D01*
X192461271Y-90003448D01*
X192359814Y-89920186D01*
X192276552Y-89818729D01*
X192247222Y-89782991D01*
X192163557Y-89626466D01*
X192112037Y-89456627D01*
X192094641Y-89280000D01*
X192112037Y-89103373D01*
X192163557Y-88933534D01*
X192247222Y-88777009D01*
X192300160Y-88712504D01*
X192359814Y-88639814D01*
X192470473Y-88549000D01*
X192497009Y-88527222D01*
X192653534Y-88443557D01*
X192823373Y-88392037D01*
X192889558Y-88385518D01*
X192955740Y-88379000D01*
X193044260Y-88379000D01*
X193110442Y-88385518D01*
X193110442Y-88385518D01*
G37*
G36*
X193110443Y-85845519D02*
G01*
X193176627Y-85852037D01*
X193346466Y-85903557D01*
X193502991Y-85987222D01*
X193538729Y-86016552D01*
X193640186Y-86099814D01*
X193722675Y-86200329D01*
X193752778Y-86237009D01*
X193836443Y-86393534D01*
X193887963Y-86563373D01*
X193905359Y-86740000D01*
X193887963Y-86916627D01*
X193836443Y-87086466D01*
X193752778Y-87242991D01*
X193740030Y-87258524D01*
X193640186Y-87380186D01*
X193542841Y-87460074D01*
X193502991Y-87492778D01*
X193346466Y-87576443D01*
X193176627Y-87627963D01*
X193110442Y-87634482D01*
X193044260Y-87641000D01*
X192955740Y-87641000D01*
X192889558Y-87634482D01*
X192823373Y-87627963D01*
X192653534Y-87576443D01*
X192497009Y-87492778D01*
X192457159Y-87460074D01*
X192359814Y-87380186D01*
X192259970Y-87258524D01*
X192247222Y-87242991D01*
X192163557Y-87086466D01*
X192112037Y-86916627D01*
X192094641Y-86740000D01*
X192112037Y-86563373D01*
X192163557Y-86393534D01*
X192247222Y-86237009D01*
X192277325Y-86200329D01*
X192359814Y-86099814D01*
X192461271Y-86016552D01*
X192497009Y-85987222D01*
X192653534Y-85903557D01*
X192823373Y-85852037D01*
X192889557Y-85845519D01*
X192955740Y-85839000D01*
X193044260Y-85839000D01*
X193110443Y-85845519D01*
X193110443Y-85845519D01*
G37*
G36*
X193901000Y-85101000D02*
G01*
X192099000Y-85101000D01*
X192099000Y-83299000D01*
X193901000Y-83299000D01*
X193901000Y-85101000D01*
X193901000Y-85101000D01*
G37*
G36*
X193110443Y-77385519D02*
G01*
X193176627Y-77392037D01*
X193346466Y-77443557D01*
X193502991Y-77527222D01*
X193538729Y-77556552D01*
X193640186Y-77639814D01*
X193723448Y-77741271D01*
X193752778Y-77777009D01*
X193836443Y-77933534D01*
X193887963Y-78103373D01*
X193905359Y-78280000D01*
X193887963Y-78456627D01*
X193836443Y-78626466D01*
X193752778Y-78782991D01*
X193723448Y-78818729D01*
X193640186Y-78920186D01*
X193538729Y-79003448D01*
X193502991Y-79032778D01*
X193346466Y-79116443D01*
X193176627Y-79167963D01*
X193110442Y-79174482D01*
X193044260Y-79181000D01*
X192955740Y-79181000D01*
X192889558Y-79174482D01*
X192823373Y-79167963D01*
X192653534Y-79116443D01*
X192497009Y-79032778D01*
X192461271Y-79003448D01*
X192359814Y-78920186D01*
X192276552Y-78818729D01*
X192247222Y-78782991D01*
X192163557Y-78626466D01*
X192112037Y-78456627D01*
X192094641Y-78280000D01*
X192112037Y-78103373D01*
X192163557Y-77933534D01*
X192247222Y-77777009D01*
X192276552Y-77741271D01*
X192359814Y-77639814D01*
X192461271Y-77556552D01*
X192497009Y-77527222D01*
X192653534Y-77443557D01*
X192823373Y-77392037D01*
X192889557Y-77385519D01*
X192955740Y-77379000D01*
X193044260Y-77379000D01*
X193110443Y-77385519D01*
X193110443Y-77385519D01*
G37*
G36*
X193110443Y-74845519D02*
G01*
X193176627Y-74852037D01*
X193346466Y-74903557D01*
X193502991Y-74987222D01*
X193538729Y-75016552D01*
X193640186Y-75099814D01*
X193723448Y-75201271D01*
X193752778Y-75237009D01*
X193836443Y-75393534D01*
X193887963Y-75563373D01*
X193905359Y-75740000D01*
X193887963Y-75916627D01*
X193836443Y-76086466D01*
X193752778Y-76242991D01*
X193723448Y-76278729D01*
X193640186Y-76380186D01*
X193538729Y-76463448D01*
X193502991Y-76492778D01*
X193346466Y-76576443D01*
X193176627Y-76627963D01*
X193110443Y-76634481D01*
X193044260Y-76641000D01*
X192955740Y-76641000D01*
X192889557Y-76634481D01*
X192823373Y-76627963D01*
X192653534Y-76576443D01*
X192497009Y-76492778D01*
X192461271Y-76463448D01*
X192359814Y-76380186D01*
X192276552Y-76278729D01*
X192247222Y-76242991D01*
X192163557Y-76086466D01*
X192112037Y-75916627D01*
X192094641Y-75740000D01*
X192112037Y-75563373D01*
X192163557Y-75393534D01*
X192247222Y-75237009D01*
X192276552Y-75201271D01*
X192359814Y-75099814D01*
X192461271Y-75016552D01*
X192497009Y-74987222D01*
X192653534Y-74903557D01*
X192823373Y-74852037D01*
X192889557Y-74845519D01*
X192955740Y-74839000D01*
X193044260Y-74839000D01*
X193110443Y-74845519D01*
X193110443Y-74845519D01*
G37*
G36*
X145901000Y-74901000D02*
G01*
X144099000Y-74901000D01*
X144099000Y-73099000D01*
X145901000Y-73099000D01*
X145901000Y-74901000D01*
X145901000Y-74901000D01*
G37*
G36*
X147650442Y-73105518D02*
G01*
X147716627Y-73112037D01*
X147886466Y-73163557D01*
X148042991Y-73247222D01*
X148078729Y-73276552D01*
X148180186Y-73359814D01*
X148263448Y-73461271D01*
X148292778Y-73497009D01*
X148376443Y-73653534D01*
X148427963Y-73823373D01*
X148445359Y-74000000D01*
X148427963Y-74176627D01*
X148376443Y-74346466D01*
X148292778Y-74502991D01*
X148263448Y-74538729D01*
X148180186Y-74640186D01*
X148078729Y-74723448D01*
X148042991Y-74752778D01*
X147886466Y-74836443D01*
X147716627Y-74887963D01*
X147650443Y-74894481D01*
X147584260Y-74901000D01*
X147495740Y-74901000D01*
X147429557Y-74894481D01*
X147363373Y-74887963D01*
X147193534Y-74836443D01*
X147037009Y-74752778D01*
X147001271Y-74723448D01*
X146899814Y-74640186D01*
X146816552Y-74538729D01*
X146787222Y-74502991D01*
X146703557Y-74346466D01*
X146652037Y-74176627D01*
X146634641Y-74000000D01*
X146652037Y-73823373D01*
X146703557Y-73653534D01*
X146787222Y-73497009D01*
X146816552Y-73461271D01*
X146899814Y-73359814D01*
X147001271Y-73276552D01*
X147037009Y-73247222D01*
X147193534Y-73163557D01*
X147363373Y-73112037D01*
X147429558Y-73105518D01*
X147495740Y-73099000D01*
X147584260Y-73099000D01*
X147650442Y-73105518D01*
X147650442Y-73105518D01*
G37*
G36*
X151726348Y-72716320D02*
G01*
X151726350Y-72716321D01*
X151726351Y-72716321D01*
X151867574Y-72774817D01*
X151867577Y-72774819D01*
X151994669Y-72859739D01*
X152102761Y-72967831D01*
X152187681Y-73094923D01*
X152187683Y-73094926D01*
X152216111Y-73163558D01*
X152246180Y-73236152D01*
X152276000Y-73386069D01*
X152276000Y-73538931D01*
X152253205Y-73653532D01*
X152246179Y-73688851D01*
X152187683Y-73830074D01*
X152187681Y-73830077D01*
X152102761Y-73957169D01*
X151994669Y-74065261D01*
X151867577Y-74150181D01*
X151867574Y-74150183D01*
X151726351Y-74208679D01*
X151726350Y-74208679D01*
X151726348Y-74208680D01*
X151576431Y-74238500D01*
X151423569Y-74238500D01*
X151273652Y-74208680D01*
X151273650Y-74208679D01*
X151273649Y-74208679D01*
X151132426Y-74150183D01*
X151132423Y-74150181D01*
X151005331Y-74065261D01*
X150897239Y-73957169D01*
X150812319Y-73830077D01*
X150812317Y-73830074D01*
X150753821Y-73688851D01*
X150746796Y-73653532D01*
X150724000Y-73538931D01*
X150724000Y-73386069D01*
X150753820Y-73236152D01*
X150783889Y-73163558D01*
X150812317Y-73094926D01*
X150812319Y-73094923D01*
X150897239Y-72967831D01*
X151005331Y-72859739D01*
X151132423Y-72774819D01*
X151132426Y-72774817D01*
X151273649Y-72716321D01*
X151273650Y-72716321D01*
X151273652Y-72716320D01*
X151423569Y-72686500D01*
X151576431Y-72686500D01*
X151726348Y-72716320D01*
X151726348Y-72716320D01*
G37*
G36*
X156726348Y-72716320D02*
G01*
X156726350Y-72716321D01*
X156726351Y-72716321D01*
X156867574Y-72774817D01*
X156867577Y-72774819D01*
X156994669Y-72859739D01*
X157102761Y-72967831D01*
X157187681Y-73094923D01*
X157187683Y-73094926D01*
X157216111Y-73163558D01*
X157246180Y-73236152D01*
X157276000Y-73386069D01*
X157276000Y-73538931D01*
X157253205Y-73653532D01*
X157246179Y-73688851D01*
X157187683Y-73830074D01*
X157187681Y-73830077D01*
X157102761Y-73957169D01*
X156994669Y-74065261D01*
X156867577Y-74150181D01*
X156867574Y-74150183D01*
X156726351Y-74208679D01*
X156726350Y-74208679D01*
X156726348Y-74208680D01*
X156576431Y-74238500D01*
X156423569Y-74238500D01*
X156273652Y-74208680D01*
X156273650Y-74208679D01*
X156273649Y-74208679D01*
X156132426Y-74150183D01*
X156132423Y-74150181D01*
X156005331Y-74065261D01*
X155897239Y-73957169D01*
X155812319Y-73830077D01*
X155812317Y-73830074D01*
X155753821Y-73688851D01*
X155746796Y-73653532D01*
X155724000Y-73538931D01*
X155724000Y-73386069D01*
X155753820Y-73236152D01*
X155783889Y-73163558D01*
X155812317Y-73094926D01*
X155812319Y-73094923D01*
X155897239Y-72967831D01*
X156005331Y-72859739D01*
X156132423Y-72774819D01*
X156132426Y-72774817D01*
X156273649Y-72716321D01*
X156273650Y-72716321D01*
X156273652Y-72716320D01*
X156423569Y-72686500D01*
X156576431Y-72686500D01*
X156726348Y-72716320D01*
X156726348Y-72716320D01*
G37*
G36*
X193901000Y-74101000D02*
G01*
X192099000Y-74101000D01*
X192099000Y-72299000D01*
X193901000Y-72299000D01*
X193901000Y-74101000D01*
X193901000Y-74101000D01*
G37*
G36*
X157627617Y-69770920D02*
G01*
X157718403Y-69798460D01*
X157750335Y-69808146D01*
X157863424Y-69868594D01*
X157962554Y-69949947D01*
X158043906Y-70049075D01*
X158104354Y-70162164D01*
X158114040Y-70194096D01*
X158141580Y-70284882D01*
X158151000Y-70380527D01*
X158151000Y-71144473D01*
X158141580Y-71240118D01*
X158114040Y-71330904D01*
X158104354Y-71362836D01*
X158043906Y-71475925D01*
X157962554Y-71575054D01*
X157863425Y-71656406D01*
X157750336Y-71716854D01*
X157718404Y-71726540D01*
X157627618Y-71754080D01*
X157500000Y-71766649D01*
X157372383Y-71754080D01*
X157281597Y-71726540D01*
X157249665Y-71716854D01*
X157136576Y-71656406D01*
X157037447Y-71575054D01*
X156956095Y-71475925D01*
X156895648Y-71362837D01*
X156895645Y-71362832D01*
X156858420Y-71240118D01*
X156849000Y-71144473D01*
X156849000Y-70380528D01*
X156858420Y-70284883D01*
X156895645Y-70162169D01*
X156895646Y-70162165D01*
X156956094Y-70049076D01*
X157037447Y-69949946D01*
X157136575Y-69868594D01*
X157249664Y-69808146D01*
X157281596Y-69798460D01*
X157372382Y-69770920D01*
X157500000Y-69758351D01*
X157627617Y-69770920D01*
X157627617Y-69770920D01*
G37*
G36*
X150627618Y-69770920D02*
G01*
X150718404Y-69798460D01*
X150750336Y-69808146D01*
X150863425Y-69868594D01*
X150962554Y-69949946D01*
X151043906Y-70049075D01*
X151104354Y-70162164D01*
X151114040Y-70194096D01*
X151141580Y-70284882D01*
X151151000Y-70380527D01*
X151151000Y-71144473D01*
X151141580Y-71240118D01*
X151114040Y-71330904D01*
X151104354Y-71362836D01*
X151043906Y-71475925D01*
X150962554Y-71575053D01*
X150863424Y-71656406D01*
X150750335Y-71716854D01*
X150718403Y-71726540D01*
X150627617Y-71754080D01*
X150500000Y-71766649D01*
X150372382Y-71754080D01*
X150281596Y-71726540D01*
X150249664Y-71716854D01*
X150136575Y-71656406D01*
X150037447Y-71575054D01*
X149956094Y-71475924D01*
X149895646Y-71362835D01*
X149885960Y-71330903D01*
X149858420Y-71240117D01*
X149849000Y-71144472D01*
X149849000Y-70380527D01*
X149858420Y-70284882D01*
X149895645Y-70162168D01*
X149920608Y-70115466D01*
X149956095Y-70049075D01*
X150037447Y-69949946D01*
X150136576Y-69868594D01*
X150249665Y-69808146D01*
X150281597Y-69798460D01*
X150372383Y-69770920D01*
X150500000Y-69758351D01*
X150627618Y-69770920D01*
X150627618Y-69770920D01*
G37*
M02*
