G04 #@! TF.GenerationSoftware,KiCad,Pcbnew,5.1.2-f72e74a~84~ubuntu18.04.1*
G04 #@! TF.CreationDate,2019-05-12T20:09:00+01:00*
G04 #@! TF.ProjectId,cutoff-hardware,6375746f-6666-42d6-9861-726477617265,1.1*
G04 #@! TF.SameCoordinates,Original*
G04 #@! TF.FileFunction,Legend,Bot*
G04 #@! TF.FilePolarity,Positive*
%FSLAX46Y46*%
G04 Gerber Fmt 4.6, Leading zero omitted, Abs format (unit mm)*
G04 Created by KiCad (PCBNEW 5.1.2-f72e74a~84~ubuntu18.04.1) date 2019-05-12 20:09:00*
%MOMM*%
%LPD*%
G04 APERTURE LIST*
%ADD10C,0.010000*%
G04 APERTURE END LIST*
D10*
G36*
X178366380Y-97026594D02*
G01*
X178172970Y-97075286D01*
X177999029Y-97161332D01*
X177848740Y-97281421D01*
X177726284Y-97432243D01*
X177635845Y-97610486D01*
X177583086Y-97803967D01*
X177571332Y-97999364D01*
X177601173Y-98187920D01*
X177668874Y-98364419D01*
X177770703Y-98523645D01*
X177902925Y-98660385D01*
X178061808Y-98769422D01*
X178243617Y-98845540D01*
X178346606Y-98870498D01*
X178435999Y-98885608D01*
X178504909Y-98891579D01*
X178571124Y-98887913D01*
X178652434Y-98874113D01*
X178718922Y-98860100D01*
X178906588Y-98796800D01*
X179074681Y-98694096D01*
X179219416Y-98555102D01*
X179337007Y-98382935D01*
X179365029Y-98328214D01*
X179398051Y-98255155D01*
X179418760Y-98193803D01*
X179429941Y-98129252D01*
X179434380Y-98046599D01*
X179434939Y-97954018D01*
X179426729Y-97784549D01*
X179399779Y-97645373D01*
X179349174Y-97523582D01*
X179270002Y-97406272D01*
X179192562Y-97317349D01*
X179048136Y-97185125D01*
X178897279Y-97093855D01*
X178731038Y-97039208D01*
X178575078Y-97018567D01*
X178366380Y-97026594D01*
X178366380Y-97026594D01*
G37*
X178366380Y-97026594D02*
X178172970Y-97075286D01*
X177999029Y-97161332D01*
X177848740Y-97281421D01*
X177726284Y-97432243D01*
X177635845Y-97610486D01*
X177583086Y-97803967D01*
X177571332Y-97999364D01*
X177601173Y-98187920D01*
X177668874Y-98364419D01*
X177770703Y-98523645D01*
X177902925Y-98660385D01*
X178061808Y-98769422D01*
X178243617Y-98845540D01*
X178346606Y-98870498D01*
X178435999Y-98885608D01*
X178504909Y-98891579D01*
X178571124Y-98887913D01*
X178652434Y-98874113D01*
X178718922Y-98860100D01*
X178906588Y-98796800D01*
X179074681Y-98694096D01*
X179219416Y-98555102D01*
X179337007Y-98382935D01*
X179365029Y-98328214D01*
X179398051Y-98255155D01*
X179418760Y-98193803D01*
X179429941Y-98129252D01*
X179434380Y-98046599D01*
X179434939Y-97954018D01*
X179426729Y-97784549D01*
X179399779Y-97645373D01*
X179349174Y-97523582D01*
X179270002Y-97406272D01*
X179192562Y-97317349D01*
X179048136Y-97185125D01*
X178897279Y-97093855D01*
X178731038Y-97039208D01*
X178575078Y-97018567D01*
X178366380Y-97026594D01*
G36*
X161371749Y-101939777D02*
G01*
X161371710Y-102410705D01*
X161371658Y-102838488D01*
X161371512Y-103225338D01*
X161371195Y-103573466D01*
X161370629Y-103885085D01*
X161369735Y-104162406D01*
X161368435Y-104407640D01*
X161366651Y-104623001D01*
X161364303Y-104810700D01*
X161361315Y-104972948D01*
X161357607Y-105111957D01*
X161353101Y-105229940D01*
X161347718Y-105329109D01*
X161341381Y-105411674D01*
X161334012Y-105479848D01*
X161325530Y-105535843D01*
X161315859Y-105581870D01*
X161304921Y-105620143D01*
X161292635Y-105652871D01*
X161278925Y-105682268D01*
X161263712Y-105710544D01*
X161246917Y-105739913D01*
X161236484Y-105758207D01*
X161167648Y-105880179D01*
X162891607Y-105880179D01*
X162891607Y-105687411D01*
X162893077Y-105600296D01*
X162896998Y-105533671D01*
X162902641Y-105497950D01*
X162905136Y-105494643D01*
X162928082Y-105508472D01*
X162973714Y-105544317D01*
X163019316Y-105583239D01*
X163128973Y-105665072D01*
X163268550Y-105747445D01*
X163423341Y-105822791D01*
X163578640Y-105883543D01*
X163640620Y-105902926D01*
X163778227Y-105932188D01*
X163944669Y-105952199D01*
X164124254Y-105962331D01*
X164301287Y-105961956D01*
X164460075Y-105950445D01*
X164535803Y-105938777D01*
X164813230Y-105862314D01*
X165068969Y-105746351D01*
X165301645Y-105591942D01*
X165509881Y-105400144D01*
X165692299Y-105172012D01*
X165826499Y-104949426D01*
X165936724Y-104714872D01*
X166021100Y-104475108D01*
X166081361Y-104221996D01*
X166119241Y-103947398D01*
X166136474Y-103643174D01*
X166137934Y-103487589D01*
X166133726Y-103373527D01*
X164468091Y-103373527D01*
X164467673Y-103560495D01*
X164461821Y-103736658D01*
X164450446Y-103891506D01*
X164433460Y-104014527D01*
X164428270Y-104039319D01*
X164364384Y-104254843D01*
X164280694Y-104429670D01*
X164176502Y-104564237D01*
X164051109Y-104658983D01*
X163903815Y-104714350D01*
X163733923Y-104730774D01*
X163540733Y-104708695D01*
X163413214Y-104677111D01*
X163314489Y-104640569D01*
X163205748Y-104588642D01*
X163124062Y-104541026D01*
X162982321Y-104447877D01*
X162982321Y-102137225D01*
X163117738Y-102049701D01*
X163275490Y-101967490D01*
X163444613Y-101913951D01*
X163615621Y-101889996D01*
X163779029Y-101896539D01*
X163925353Y-101934493D01*
X163989546Y-101965770D01*
X164105912Y-102052148D01*
X164204264Y-102166199D01*
X164286940Y-102312092D01*
X164356279Y-102493992D01*
X164414620Y-102716069D01*
X164417194Y-102727857D01*
X164437626Y-102852921D01*
X164452979Y-103009229D01*
X164463163Y-103186268D01*
X164468091Y-103373527D01*
X166133726Y-103373527D01*
X166122161Y-103060058D01*
X166078076Y-102666637D01*
X166005786Y-102307587D01*
X165905394Y-101983170D01*
X165777005Y-101693646D01*
X165620722Y-101439276D01*
X165436650Y-101220321D01*
X165224893Y-101037042D01*
X165134161Y-100974864D01*
X164931362Y-100862068D01*
X164723859Y-100782492D01*
X164502700Y-100733957D01*
X164258934Y-100714280D01*
X164073097Y-100716380D01*
X163812631Y-100738410D01*
X163586438Y-100782236D01*
X163387973Y-100849872D01*
X163210694Y-100943331D01*
X163112527Y-101012060D01*
X163053532Y-101056085D01*
X163009957Y-101086160D01*
X162993464Y-101095000D01*
X162990220Y-101073245D01*
X162987627Y-101011665D01*
X162985660Y-100915788D01*
X162984295Y-100791141D01*
X162983505Y-100643250D01*
X162983265Y-100477644D01*
X162983550Y-100299849D01*
X162984335Y-100115393D01*
X162985594Y-99929803D01*
X162987302Y-99748606D01*
X162989433Y-99577330D01*
X162991963Y-99421501D01*
X162994865Y-99286648D01*
X162998114Y-99178297D01*
X163001685Y-99101975D01*
X163002673Y-99087946D01*
X163017895Y-98946486D01*
X163041121Y-98835696D01*
X163076757Y-98741032D01*
X163129209Y-98647952D01*
X163141799Y-98628705D01*
X163190882Y-98555000D01*
X161372143Y-98555000D01*
X161371749Y-101939777D01*
X161371749Y-101939777D01*
G37*
X161371749Y-101939777D02*
X161371710Y-102410705D01*
X161371658Y-102838488D01*
X161371512Y-103225338D01*
X161371195Y-103573466D01*
X161370629Y-103885085D01*
X161369735Y-104162406D01*
X161368435Y-104407640D01*
X161366651Y-104623001D01*
X161364303Y-104810700D01*
X161361315Y-104972948D01*
X161357607Y-105111957D01*
X161353101Y-105229940D01*
X161347718Y-105329109D01*
X161341381Y-105411674D01*
X161334012Y-105479848D01*
X161325530Y-105535843D01*
X161315859Y-105581870D01*
X161304921Y-105620143D01*
X161292635Y-105652871D01*
X161278925Y-105682268D01*
X161263712Y-105710544D01*
X161246917Y-105739913D01*
X161236484Y-105758207D01*
X161167648Y-105880179D01*
X162891607Y-105880179D01*
X162891607Y-105687411D01*
X162893077Y-105600296D01*
X162896998Y-105533671D01*
X162902641Y-105497950D01*
X162905136Y-105494643D01*
X162928082Y-105508472D01*
X162973714Y-105544317D01*
X163019316Y-105583239D01*
X163128973Y-105665072D01*
X163268550Y-105747445D01*
X163423341Y-105822791D01*
X163578640Y-105883543D01*
X163640620Y-105902926D01*
X163778227Y-105932188D01*
X163944669Y-105952199D01*
X164124254Y-105962331D01*
X164301287Y-105961956D01*
X164460075Y-105950445D01*
X164535803Y-105938777D01*
X164813230Y-105862314D01*
X165068969Y-105746351D01*
X165301645Y-105591942D01*
X165509881Y-105400144D01*
X165692299Y-105172012D01*
X165826499Y-104949426D01*
X165936724Y-104714872D01*
X166021100Y-104475108D01*
X166081361Y-104221996D01*
X166119241Y-103947398D01*
X166136474Y-103643174D01*
X166137934Y-103487589D01*
X166133726Y-103373527D01*
X164468091Y-103373527D01*
X164467673Y-103560495D01*
X164461821Y-103736658D01*
X164450446Y-103891506D01*
X164433460Y-104014527D01*
X164428270Y-104039319D01*
X164364384Y-104254843D01*
X164280694Y-104429670D01*
X164176502Y-104564237D01*
X164051109Y-104658983D01*
X163903815Y-104714350D01*
X163733923Y-104730774D01*
X163540733Y-104708695D01*
X163413214Y-104677111D01*
X163314489Y-104640569D01*
X163205748Y-104588642D01*
X163124062Y-104541026D01*
X162982321Y-104447877D01*
X162982321Y-102137225D01*
X163117738Y-102049701D01*
X163275490Y-101967490D01*
X163444613Y-101913951D01*
X163615621Y-101889996D01*
X163779029Y-101896539D01*
X163925353Y-101934493D01*
X163989546Y-101965770D01*
X164105912Y-102052148D01*
X164204264Y-102166199D01*
X164286940Y-102312092D01*
X164356279Y-102493992D01*
X164414620Y-102716069D01*
X164417194Y-102727857D01*
X164437626Y-102852921D01*
X164452979Y-103009229D01*
X164463163Y-103186268D01*
X164468091Y-103373527D01*
X166133726Y-103373527D01*
X166122161Y-103060058D01*
X166078076Y-102666637D01*
X166005786Y-102307587D01*
X165905394Y-101983170D01*
X165777005Y-101693646D01*
X165620722Y-101439276D01*
X165436650Y-101220321D01*
X165224893Y-101037042D01*
X165134161Y-100974864D01*
X164931362Y-100862068D01*
X164723859Y-100782492D01*
X164502700Y-100733957D01*
X164258934Y-100714280D01*
X164073097Y-100716380D01*
X163812631Y-100738410D01*
X163586438Y-100782236D01*
X163387973Y-100849872D01*
X163210694Y-100943331D01*
X163112527Y-101012060D01*
X163053532Y-101056085D01*
X163009957Y-101086160D01*
X162993464Y-101095000D01*
X162990220Y-101073245D01*
X162987627Y-101011665D01*
X162985660Y-100915788D01*
X162984295Y-100791141D01*
X162983505Y-100643250D01*
X162983265Y-100477644D01*
X162983550Y-100299849D01*
X162984335Y-100115393D01*
X162985594Y-99929803D01*
X162987302Y-99748606D01*
X162989433Y-99577330D01*
X162991963Y-99421501D01*
X162994865Y-99286648D01*
X162998114Y-99178297D01*
X163001685Y-99101975D01*
X163002673Y-99087946D01*
X163017895Y-98946486D01*
X163041121Y-98835696D01*
X163076757Y-98741032D01*
X163129209Y-98647952D01*
X163141799Y-98628705D01*
X163190882Y-98555000D01*
X161372143Y-98555000D01*
X161371749Y-101939777D01*
G36*
X168428981Y-100722984D02*
G01*
X168123788Y-100763192D01*
X167852052Y-100830762D01*
X167612019Y-100926233D01*
X167401934Y-101050143D01*
X167246022Y-101177831D01*
X167107726Y-101326761D01*
X166999764Y-101487017D01*
X166913573Y-101672281D01*
X166882486Y-101758805D01*
X166856653Y-101837115D01*
X166834149Y-101909732D01*
X166814714Y-101980336D01*
X166798088Y-102052610D01*
X166784011Y-102130234D01*
X166772221Y-102216890D01*
X166762460Y-102316259D01*
X166754465Y-102432022D01*
X166747978Y-102567861D01*
X166742736Y-102727457D01*
X166738481Y-102914491D01*
X166734952Y-103132644D01*
X166731888Y-103385598D01*
X166729028Y-103677033D01*
X166726513Y-103963839D01*
X166723848Y-104277615D01*
X166721426Y-104549364D01*
X166718996Y-104782413D01*
X166716305Y-104980090D01*
X166713101Y-105145722D01*
X166709134Y-105282636D01*
X166704149Y-105394160D01*
X166697897Y-105483622D01*
X166690124Y-105554348D01*
X166680580Y-105609666D01*
X166669011Y-105652903D01*
X166655166Y-105687388D01*
X166638793Y-105716446D01*
X166619641Y-105743406D01*
X166597457Y-105771594D01*
X166588817Y-105782509D01*
X166557037Y-105828390D01*
X166542902Y-105859635D01*
X166542857Y-105860558D01*
X166564708Y-105864975D01*
X166626956Y-105869045D01*
X166724639Y-105872652D01*
X166852796Y-105875683D01*
X167006468Y-105878023D01*
X167180693Y-105879558D01*
X167370510Y-105880172D01*
X167392420Y-105880179D01*
X168241984Y-105880179D01*
X168248536Y-105687188D01*
X168255089Y-105494197D01*
X168379821Y-105596627D01*
X168575350Y-105732257D01*
X168796134Y-105842129D01*
X168969835Y-105902857D01*
X169108593Y-105932365D01*
X169276042Y-105952440D01*
X169456376Y-105962458D01*
X169633793Y-105961790D01*
X169792487Y-105949812D01*
X169865268Y-105938334D01*
X170146555Y-105862272D01*
X170400535Y-105752096D01*
X170625371Y-105609446D01*
X170819226Y-105435962D01*
X170980266Y-105233284D01*
X171106654Y-105003054D01*
X171195801Y-104749745D01*
X171220580Y-104636073D01*
X171235867Y-104511119D01*
X171243157Y-104360774D01*
X171244151Y-104292679D01*
X171244020Y-104286280D01*
X169717359Y-104286280D01*
X169698688Y-104437053D01*
X169642063Y-104565277D01*
X169544693Y-104677050D01*
X169534534Y-104685914D01*
X169437514Y-104755879D01*
X169333635Y-104801244D01*
X169211629Y-104825192D01*
X169060230Y-104830904D01*
X169023853Y-104830090D01*
X168915736Y-104824761D01*
X168835319Y-104813880D01*
X168764973Y-104793462D01*
X168687069Y-104759520D01*
X168665690Y-104749117D01*
X168543846Y-104677141D01*
X168449791Y-104591496D01*
X168424203Y-104560884D01*
X168334464Y-104447356D01*
X168334464Y-104053855D01*
X168335540Y-103895860D01*
X168338935Y-103779441D01*
X168344898Y-103700865D01*
X168353679Y-103656399D01*
X168361885Y-103643408D01*
X168393878Y-103637052D01*
X168461746Y-103631784D01*
X168556013Y-103628101D01*
X168667200Y-103626499D01*
X168685055Y-103626469D01*
X168927684Y-103637023D01*
X169133941Y-103669502D01*
X169307821Y-103725145D01*
X169453319Y-103805195D01*
X169563669Y-103899514D01*
X169653161Y-104015804D01*
X169702830Y-104142463D01*
X169717359Y-104286280D01*
X171244020Y-104286280D01*
X171240267Y-104104331D01*
X171223504Y-103945828D01*
X171190867Y-103802747D01*
X171139365Y-103660665D01*
X171091158Y-103555454D01*
X170973397Y-103364009D01*
X170816506Y-103187171D01*
X170625259Y-103028160D01*
X170404431Y-102890192D01*
X170158795Y-102776488D01*
X169893126Y-102690265D01*
X169763214Y-102660253D01*
X169489635Y-102615846D01*
X169191418Y-102586549D01*
X168887154Y-102573731D01*
X168632907Y-102577010D01*
X168307688Y-102590629D01*
X168322594Y-102472145D01*
X168361352Y-102272953D01*
X168423897Y-102110792D01*
X168511959Y-101984418D01*
X168627268Y-101892590D01*
X168771554Y-101834063D01*
X168946547Y-101807594D01*
X169153978Y-101811941D01*
X169230268Y-101819979D01*
X169513909Y-101870539D01*
X169788757Y-101952974D01*
X169978660Y-102029316D01*
X170069383Y-102068238D01*
X170146591Y-102099518D01*
X170199529Y-102118893D01*
X170214974Y-102123007D01*
X170234550Y-102104769D01*
X170268136Y-102046571D01*
X170316050Y-101947757D01*
X170378607Y-101807669D01*
X170456123Y-101625649D01*
X170469377Y-101593929D01*
X170529758Y-101448649D01*
X170583958Y-101317371D01*
X170629636Y-101205837D01*
X170664452Y-101119787D01*
X170686064Y-101064961D01*
X170692305Y-101047204D01*
X170672218Y-101037652D01*
X170619430Y-101027051D01*
X170562634Y-101019659D01*
X170502050Y-101010103D01*
X170406049Y-100991128D01*
X170283144Y-100964594D01*
X170141850Y-100932361D01*
X169990680Y-100896289D01*
X169933303Y-100882182D01*
X169722243Y-100830777D01*
X169546133Y-100790473D01*
X169396291Y-100759982D01*
X169264033Y-100738016D01*
X169140676Y-100723289D01*
X169017540Y-100714511D01*
X168885939Y-100710397D01*
X168769386Y-100709598D01*
X168428981Y-100722984D01*
X168428981Y-100722984D01*
G37*
X168428981Y-100722984D02*
X168123788Y-100763192D01*
X167852052Y-100830762D01*
X167612019Y-100926233D01*
X167401934Y-101050143D01*
X167246022Y-101177831D01*
X167107726Y-101326761D01*
X166999764Y-101487017D01*
X166913573Y-101672281D01*
X166882486Y-101758805D01*
X166856653Y-101837115D01*
X166834149Y-101909732D01*
X166814714Y-101980336D01*
X166798088Y-102052610D01*
X166784011Y-102130234D01*
X166772221Y-102216890D01*
X166762460Y-102316259D01*
X166754465Y-102432022D01*
X166747978Y-102567861D01*
X166742736Y-102727457D01*
X166738481Y-102914491D01*
X166734952Y-103132644D01*
X166731888Y-103385598D01*
X166729028Y-103677033D01*
X166726513Y-103963839D01*
X166723848Y-104277615D01*
X166721426Y-104549364D01*
X166718996Y-104782413D01*
X166716305Y-104980090D01*
X166713101Y-105145722D01*
X166709134Y-105282636D01*
X166704149Y-105394160D01*
X166697897Y-105483622D01*
X166690124Y-105554348D01*
X166680580Y-105609666D01*
X166669011Y-105652903D01*
X166655166Y-105687388D01*
X166638793Y-105716446D01*
X166619641Y-105743406D01*
X166597457Y-105771594D01*
X166588817Y-105782509D01*
X166557037Y-105828390D01*
X166542902Y-105859635D01*
X166542857Y-105860558D01*
X166564708Y-105864975D01*
X166626956Y-105869045D01*
X166724639Y-105872652D01*
X166852796Y-105875683D01*
X167006468Y-105878023D01*
X167180693Y-105879558D01*
X167370510Y-105880172D01*
X167392420Y-105880179D01*
X168241984Y-105880179D01*
X168248536Y-105687188D01*
X168255089Y-105494197D01*
X168379821Y-105596627D01*
X168575350Y-105732257D01*
X168796134Y-105842129D01*
X168969835Y-105902857D01*
X169108593Y-105932365D01*
X169276042Y-105952440D01*
X169456376Y-105962458D01*
X169633793Y-105961790D01*
X169792487Y-105949812D01*
X169865268Y-105938334D01*
X170146555Y-105862272D01*
X170400535Y-105752096D01*
X170625371Y-105609446D01*
X170819226Y-105435962D01*
X170980266Y-105233284D01*
X171106654Y-105003054D01*
X171195801Y-104749745D01*
X171220580Y-104636073D01*
X171235867Y-104511119D01*
X171243157Y-104360774D01*
X171244151Y-104292679D01*
X171244020Y-104286280D01*
X169717359Y-104286280D01*
X169698688Y-104437053D01*
X169642063Y-104565277D01*
X169544693Y-104677050D01*
X169534534Y-104685914D01*
X169437514Y-104755879D01*
X169333635Y-104801244D01*
X169211629Y-104825192D01*
X169060230Y-104830904D01*
X169023853Y-104830090D01*
X168915736Y-104824761D01*
X168835319Y-104813880D01*
X168764973Y-104793462D01*
X168687069Y-104759520D01*
X168665690Y-104749117D01*
X168543846Y-104677141D01*
X168449791Y-104591496D01*
X168424203Y-104560884D01*
X168334464Y-104447356D01*
X168334464Y-104053855D01*
X168335540Y-103895860D01*
X168338935Y-103779441D01*
X168344898Y-103700865D01*
X168353679Y-103656399D01*
X168361885Y-103643408D01*
X168393878Y-103637052D01*
X168461746Y-103631784D01*
X168556013Y-103628101D01*
X168667200Y-103626499D01*
X168685055Y-103626469D01*
X168927684Y-103637023D01*
X169133941Y-103669502D01*
X169307821Y-103725145D01*
X169453319Y-103805195D01*
X169563669Y-103899514D01*
X169653161Y-104015804D01*
X169702830Y-104142463D01*
X169717359Y-104286280D01*
X171244020Y-104286280D01*
X171240267Y-104104331D01*
X171223504Y-103945828D01*
X171190867Y-103802747D01*
X171139365Y-103660665D01*
X171091158Y-103555454D01*
X170973397Y-103364009D01*
X170816506Y-103187171D01*
X170625259Y-103028160D01*
X170404431Y-102890192D01*
X170158795Y-102776488D01*
X169893126Y-102690265D01*
X169763214Y-102660253D01*
X169489635Y-102615846D01*
X169191418Y-102586549D01*
X168887154Y-102573731D01*
X168632907Y-102577010D01*
X168307688Y-102590629D01*
X168322594Y-102472145D01*
X168361352Y-102272953D01*
X168423897Y-102110792D01*
X168511959Y-101984418D01*
X168627268Y-101892590D01*
X168771554Y-101834063D01*
X168946547Y-101807594D01*
X169153978Y-101811941D01*
X169230268Y-101819979D01*
X169513909Y-101870539D01*
X169788757Y-101952974D01*
X169978660Y-102029316D01*
X170069383Y-102068238D01*
X170146591Y-102099518D01*
X170199529Y-102118893D01*
X170214974Y-102123007D01*
X170234550Y-102104769D01*
X170268136Y-102046571D01*
X170316050Y-101947757D01*
X170378607Y-101807669D01*
X170456123Y-101625649D01*
X170469377Y-101593929D01*
X170529758Y-101448649D01*
X170583958Y-101317371D01*
X170629636Y-101205837D01*
X170664452Y-101119787D01*
X170686064Y-101064961D01*
X170692305Y-101047204D01*
X170672218Y-101037652D01*
X170619430Y-101027051D01*
X170562634Y-101019659D01*
X170502050Y-101010103D01*
X170406049Y-100991128D01*
X170283144Y-100964594D01*
X170141850Y-100932361D01*
X169990680Y-100896289D01*
X169933303Y-100882182D01*
X169722243Y-100830777D01*
X169546133Y-100790473D01*
X169396291Y-100759982D01*
X169264033Y-100738016D01*
X169140676Y-100723289D01*
X169017540Y-100714511D01*
X168885939Y-100710397D01*
X168769386Y-100709598D01*
X168428981Y-100722984D01*
G36*
X173140209Y-98879830D02*
G01*
X172818497Y-98922366D01*
X172489153Y-99003005D01*
X172148031Y-99122544D01*
X171790985Y-99281783D01*
X171768349Y-99292922D01*
X171652444Y-99349223D01*
X171548889Y-99397593D01*
X171465240Y-99434652D01*
X171409049Y-99457025D01*
X171389821Y-99462143D01*
X171351216Y-99472203D01*
X171341952Y-99480652D01*
X171352204Y-99501611D01*
X171384427Y-99554422D01*
X171434912Y-99633551D01*
X171499949Y-99733463D01*
X171575828Y-99848625D01*
X171658839Y-99973501D01*
X171745271Y-100102558D01*
X171831417Y-100230261D01*
X171913564Y-100351076D01*
X171988004Y-100459469D01*
X172051026Y-100549905D01*
X172098921Y-100616851D01*
X172127979Y-100654771D01*
X172131967Y-100659169D01*
X172152294Y-100649831D01*
X172197175Y-100615324D01*
X172258589Y-100562045D01*
X172290217Y-100532963D01*
X172484057Y-100381728D01*
X172698431Y-100270351D01*
X172930471Y-100199836D01*
X173177308Y-100171188D01*
X173316728Y-100173540D01*
X173560087Y-100208015D01*
X173779498Y-100280100D01*
X173975615Y-100390320D01*
X174149095Y-100539203D01*
X174300593Y-100727275D01*
X174430766Y-100955064D01*
X174505935Y-101129018D01*
X174594032Y-101401629D01*
X174658961Y-101697913D01*
X174700890Y-102010229D01*
X174719987Y-102330938D01*
X174716418Y-102652400D01*
X174690351Y-102966975D01*
X174641953Y-103267022D01*
X174571391Y-103544901D01*
X174478833Y-103792973D01*
X174446124Y-103861786D01*
X174309022Y-104090977D01*
X174147384Y-104284824D01*
X173963585Y-104441748D01*
X173759999Y-104560168D01*
X173538999Y-104638506D01*
X173302960Y-104675181D01*
X173219654Y-104677879D01*
X172975452Y-104655940D01*
X172733502Y-104590014D01*
X172496875Y-104481463D01*
X172268638Y-104331648D01*
X172085007Y-104174296D01*
X171991531Y-104084837D01*
X171627377Y-104682017D01*
X171536779Y-104831004D01*
X171453935Y-104968039D01*
X171381782Y-105088199D01*
X171323259Y-105186558D01*
X171281305Y-105258194D01*
X171258858Y-105298182D01*
X171255941Y-105304399D01*
X171272473Y-105323764D01*
X171323859Y-105358479D01*
X171403602Y-105405256D01*
X171505206Y-105460805D01*
X171622172Y-105521839D01*
X171748004Y-105585070D01*
X171876206Y-105647209D01*
X172000280Y-105704968D01*
X172113729Y-105755060D01*
X172210056Y-105794196D01*
X172257170Y-105811130D01*
X172525895Y-105887097D01*
X172802914Y-105937326D01*
X173099643Y-105963450D01*
X173354352Y-105968127D01*
X173490870Y-105965928D01*
X173622658Y-105961714D01*
X173738031Y-105956005D01*
X173825305Y-105949320D01*
X173853641Y-105945938D01*
X174132912Y-105888010D01*
X174417229Y-105797368D01*
X174693421Y-105679408D01*
X174948314Y-105539527D01*
X175104018Y-105433697D01*
X175359970Y-105216328D01*
X175597632Y-104962063D01*
X175812601Y-104677187D01*
X176000475Y-104367982D01*
X176156853Y-104040731D01*
X176244954Y-103805089D01*
X176345898Y-103436195D01*
X176413194Y-103045364D01*
X176446865Y-102641055D01*
X176446931Y-102231722D01*
X176413412Y-101825823D01*
X176346331Y-101431814D01*
X176245708Y-101058152D01*
X176238041Y-101034872D01*
X176111713Y-100709318D01*
X175957533Y-100412163D01*
X175770272Y-100134996D01*
X175544699Y-99869408D01*
X175456577Y-99778479D01*
X175183077Y-99529489D01*
X174901915Y-99323489D01*
X174608773Y-99158237D01*
X174299335Y-99031490D01*
X173969287Y-98941005D01*
X173777321Y-98905869D01*
X173458435Y-98874597D01*
X173140209Y-98879830D01*
X173140209Y-98879830D01*
G37*
X173140209Y-98879830D02*
X172818497Y-98922366D01*
X172489153Y-99003005D01*
X172148031Y-99122544D01*
X171790985Y-99281783D01*
X171768349Y-99292922D01*
X171652444Y-99349223D01*
X171548889Y-99397593D01*
X171465240Y-99434652D01*
X171409049Y-99457025D01*
X171389821Y-99462143D01*
X171351216Y-99472203D01*
X171341952Y-99480652D01*
X171352204Y-99501611D01*
X171384427Y-99554422D01*
X171434912Y-99633551D01*
X171499949Y-99733463D01*
X171575828Y-99848625D01*
X171658839Y-99973501D01*
X171745271Y-100102558D01*
X171831417Y-100230261D01*
X171913564Y-100351076D01*
X171988004Y-100459469D01*
X172051026Y-100549905D01*
X172098921Y-100616851D01*
X172127979Y-100654771D01*
X172131967Y-100659169D01*
X172152294Y-100649831D01*
X172197175Y-100615324D01*
X172258589Y-100562045D01*
X172290217Y-100532963D01*
X172484057Y-100381728D01*
X172698431Y-100270351D01*
X172930471Y-100199836D01*
X173177308Y-100171188D01*
X173316728Y-100173540D01*
X173560087Y-100208015D01*
X173779498Y-100280100D01*
X173975615Y-100390320D01*
X174149095Y-100539203D01*
X174300593Y-100727275D01*
X174430766Y-100955064D01*
X174505935Y-101129018D01*
X174594032Y-101401629D01*
X174658961Y-101697913D01*
X174700890Y-102010229D01*
X174719987Y-102330938D01*
X174716418Y-102652400D01*
X174690351Y-102966975D01*
X174641953Y-103267022D01*
X174571391Y-103544901D01*
X174478833Y-103792973D01*
X174446124Y-103861786D01*
X174309022Y-104090977D01*
X174147384Y-104284824D01*
X173963585Y-104441748D01*
X173759999Y-104560168D01*
X173538999Y-104638506D01*
X173302960Y-104675181D01*
X173219654Y-104677879D01*
X172975452Y-104655940D01*
X172733502Y-104590014D01*
X172496875Y-104481463D01*
X172268638Y-104331648D01*
X172085007Y-104174296D01*
X171991531Y-104084837D01*
X171627377Y-104682017D01*
X171536779Y-104831004D01*
X171453935Y-104968039D01*
X171381782Y-105088199D01*
X171323259Y-105186558D01*
X171281305Y-105258194D01*
X171258858Y-105298182D01*
X171255941Y-105304399D01*
X171272473Y-105323764D01*
X171323859Y-105358479D01*
X171403602Y-105405256D01*
X171505206Y-105460805D01*
X171622172Y-105521839D01*
X171748004Y-105585070D01*
X171876206Y-105647209D01*
X172000280Y-105704968D01*
X172113729Y-105755060D01*
X172210056Y-105794196D01*
X172257170Y-105811130D01*
X172525895Y-105887097D01*
X172802914Y-105937326D01*
X173099643Y-105963450D01*
X173354352Y-105968127D01*
X173490870Y-105965928D01*
X173622658Y-105961714D01*
X173738031Y-105956005D01*
X173825305Y-105949320D01*
X173853641Y-105945938D01*
X174132912Y-105888010D01*
X174417229Y-105797368D01*
X174693421Y-105679408D01*
X174948314Y-105539527D01*
X175104018Y-105433697D01*
X175359970Y-105216328D01*
X175597632Y-104962063D01*
X175812601Y-104677187D01*
X176000475Y-104367982D01*
X176156853Y-104040731D01*
X176244954Y-103805089D01*
X176345898Y-103436195D01*
X176413194Y-103045364D01*
X176446865Y-102641055D01*
X176446931Y-102231722D01*
X176413412Y-101825823D01*
X176346331Y-101431814D01*
X176245708Y-101058152D01*
X176238041Y-101034872D01*
X176111713Y-100709318D01*
X175957533Y-100412163D01*
X175770272Y-100134996D01*
X175544699Y-99869408D01*
X175456577Y-99778479D01*
X175183077Y-99529489D01*
X174901915Y-99323489D01*
X174608773Y-99158237D01*
X174299335Y-99031490D01*
X173969287Y-98941005D01*
X173777321Y-98905869D01*
X173458435Y-98874597D01*
X173140209Y-98879830D01*
G36*
X179719107Y-97955689D02*
G01*
X179697280Y-98184585D01*
X179633763Y-98400791D01*
X179531503Y-98599673D01*
X179393446Y-98776597D01*
X179222538Y-98926929D01*
X179027698Y-99043181D01*
X178814212Y-99122777D01*
X178599229Y-99160080D01*
X178386986Y-99157791D01*
X178181724Y-99118609D01*
X177987680Y-99045234D01*
X177809093Y-98940368D01*
X177650204Y-98806708D01*
X177515250Y-98646957D01*
X177408471Y-98463814D01*
X177334105Y-98259978D01*
X177296392Y-98038151D01*
X177292500Y-97937914D01*
X177292500Y-97761250D01*
X177188178Y-97761250D01*
X177115239Y-97766965D01*
X177061204Y-97790669D01*
X177006750Y-97838357D01*
X176929643Y-97915464D01*
X176929643Y-102318173D01*
X176929661Y-102844789D01*
X176929726Y-103327939D01*
X176929854Y-103769515D01*
X176930062Y-104171409D01*
X176930366Y-104535512D01*
X176930783Y-104863715D01*
X176931328Y-105157911D01*
X176932019Y-105419990D01*
X176932872Y-105651845D01*
X176933902Y-105855366D01*
X176935127Y-106032446D01*
X176936563Y-106184976D01*
X176938226Y-106314847D01*
X176940133Y-106423951D01*
X176942299Y-106514179D01*
X176944742Y-106587424D01*
X176947478Y-106645576D01*
X176950523Y-106690528D01*
X176953893Y-106724170D01*
X176957606Y-106748395D01*
X176961676Y-106765093D01*
X176966122Y-106776157D01*
X176968296Y-106779874D01*
X176976659Y-106793960D01*
X176983760Y-106806911D01*
X176991453Y-106818772D01*
X177001593Y-106829593D01*
X177016034Y-106839420D01*
X177036631Y-106848300D01*
X177065239Y-106856282D01*
X177103711Y-106863412D01*
X177153903Y-106869738D01*
X177217669Y-106875308D01*
X177296864Y-106880168D01*
X177393342Y-106884366D01*
X177508958Y-106887950D01*
X177645565Y-106890968D01*
X177805020Y-106893465D01*
X177989175Y-106895490D01*
X178199886Y-106897091D01*
X178439008Y-106898314D01*
X178708395Y-106899208D01*
X179009900Y-106899819D01*
X179345380Y-106900194D01*
X179716688Y-106900383D01*
X180125679Y-106900431D01*
X180574208Y-106900386D01*
X181064128Y-106900295D01*
X181597295Y-106900207D01*
X181674405Y-106900198D01*
X182210745Y-106900111D01*
X182703575Y-106899969D01*
X183154742Y-106899758D01*
X183566093Y-106899462D01*
X183939476Y-106899067D01*
X184276738Y-106898559D01*
X184579725Y-106897924D01*
X184850286Y-106897146D01*
X185090267Y-106896211D01*
X185301515Y-106895105D01*
X185485878Y-106893813D01*
X185645202Y-106892320D01*
X185781335Y-106890613D01*
X185896125Y-106888676D01*
X185991417Y-106886496D01*
X186069060Y-106884057D01*
X186130900Y-106881345D01*
X186178785Y-106878346D01*
X186214562Y-106875045D01*
X186240078Y-106871427D01*
X186257181Y-106867479D01*
X186265935Y-106864127D01*
X186282935Y-106856954D01*
X186298542Y-106851659D01*
X186312816Y-106846362D01*
X186325816Y-106839188D01*
X186337600Y-106828256D01*
X186348228Y-106811691D01*
X186357759Y-106787614D01*
X186366253Y-106754147D01*
X186373769Y-106709413D01*
X186380366Y-106651533D01*
X186386104Y-106578631D01*
X186391040Y-106488828D01*
X186395236Y-106380246D01*
X186398750Y-106251007D01*
X186401641Y-106099235D01*
X186403968Y-105923050D01*
X186405791Y-105720576D01*
X186407170Y-105489935D01*
X186408162Y-105229248D01*
X186408828Y-104936638D01*
X186409227Y-104610227D01*
X186409417Y-104248138D01*
X186409459Y-103848492D01*
X186409412Y-103409412D01*
X186409334Y-102929020D01*
X186409286Y-102405438D01*
X186409285Y-102320759D01*
X186409313Y-101792618D01*
X186409363Y-101307943D01*
X186409385Y-100864841D01*
X186409326Y-100461421D01*
X186409136Y-100095791D01*
X186408763Y-99766060D01*
X186408154Y-99470334D01*
X186407260Y-99206724D01*
X186406096Y-98985893D01*
X185797716Y-98985893D01*
X185717781Y-99102098D01*
X185695340Y-99133775D01*
X185675109Y-99161823D01*
X185656973Y-99188628D01*
X185640820Y-99216571D01*
X185626534Y-99248036D01*
X185614001Y-99285406D01*
X185603107Y-99331066D01*
X185593739Y-99387399D01*
X185585782Y-99456787D01*
X185579122Y-99541614D01*
X185573644Y-99644264D01*
X185569236Y-99767120D01*
X185565782Y-99912566D01*
X185563168Y-100082984D01*
X185561281Y-100280759D01*
X185560006Y-100508274D01*
X185559230Y-100767911D01*
X185558837Y-101062055D01*
X185558714Y-101393090D01*
X185558747Y-101763397D01*
X185558822Y-102175361D01*
X185558839Y-102421696D01*
X185558791Y-102857532D01*
X185558723Y-103250396D01*
X185558747Y-103602675D01*
X185558977Y-103916756D01*
X185559525Y-104195025D01*
X185560504Y-104439867D01*
X185562028Y-104653669D01*
X185564209Y-104838817D01*
X185567160Y-104997696D01*
X185570994Y-105132694D01*
X185575825Y-105246196D01*
X185581765Y-105340588D01*
X185588926Y-105418257D01*
X185597423Y-105481588D01*
X185607368Y-105532968D01*
X185618873Y-105574783D01*
X185632053Y-105609418D01*
X185647019Y-105639261D01*
X185663885Y-105666696D01*
X185682764Y-105694111D01*
X185703768Y-105723891D01*
X185716004Y-105741752D01*
X185793897Y-105857500D01*
X184726023Y-105857500D01*
X184478425Y-105857430D01*
X184272518Y-105857128D01*
X184104637Y-105856452D01*
X183971116Y-105855261D01*
X183868290Y-105853415D01*
X183792492Y-105850772D01*
X183740057Y-105847193D01*
X183707320Y-105842535D01*
X183690614Y-105836659D01*
X183686275Y-105829423D01*
X183690636Y-105820686D01*
X183693039Y-105817812D01*
X183743563Y-105743339D01*
X183795590Y-105637265D01*
X183843019Y-105512708D01*
X183859631Y-105459646D01*
X183868906Y-105423603D01*
X183876744Y-105381293D01*
X183883310Y-105328526D01*
X183888769Y-105261113D01*
X183893288Y-105174863D01*
X183897030Y-105065588D01*
X183900161Y-104929098D01*
X183902845Y-104761203D01*
X183905249Y-104557714D01*
X183907537Y-104314441D01*
X183908295Y-104224643D01*
X183910337Y-103973223D01*
X183911861Y-103763557D01*
X183912750Y-103592046D01*
X183912886Y-103455088D01*
X183912152Y-103349082D01*
X183910430Y-103270429D01*
X183907604Y-103215527D01*
X183903555Y-103180776D01*
X183898166Y-103162575D01*
X183891321Y-103157323D01*
X183882901Y-103161420D01*
X183873913Y-103170089D01*
X183853111Y-103196075D01*
X183808798Y-103254483D01*
X183744109Y-103341033D01*
X183662179Y-103451443D01*
X183566144Y-103581430D01*
X183459139Y-103726714D01*
X183344299Y-103883013D01*
X183224760Y-104046045D01*
X183103658Y-104211529D01*
X182984127Y-104375183D01*
X182869304Y-104532725D01*
X182762322Y-104679874D01*
X182666318Y-104812349D01*
X182584428Y-104925866D01*
X182519786Y-105016146D01*
X182475528Y-105078907D01*
X182466351Y-105092231D01*
X182420303Y-105166366D01*
X182366447Y-105262774D01*
X182315423Y-105362292D01*
X182308953Y-105375713D01*
X182265404Y-105472534D01*
X182240119Y-105547992D01*
X182228608Y-105619963D01*
X182226362Y-105704420D01*
X182227635Y-105857500D01*
X179908450Y-105857500D01*
X180091591Y-105669201D01*
X180185603Y-105568967D01*
X180286627Y-105455504D01*
X180379127Y-105346480D01*
X180420160Y-105295549D01*
X180481309Y-105216105D01*
X180561775Y-105109207D01*
X180659207Y-104978126D01*
X180771252Y-104826138D01*
X180895557Y-104656516D01*
X181029769Y-104472532D01*
X181171536Y-104277462D01*
X181318505Y-104074577D01*
X181468322Y-103867153D01*
X181618636Y-103658462D01*
X181767094Y-103451779D01*
X181911342Y-103250376D01*
X182049029Y-103057527D01*
X182177801Y-102876506D01*
X182295306Y-102710586D01*
X182399190Y-102563041D01*
X182487102Y-102437145D01*
X182556688Y-102336171D01*
X182605595Y-102263393D01*
X182631472Y-102222084D01*
X182635004Y-102213843D01*
X182619014Y-102191089D01*
X182577239Y-102136486D01*
X182512416Y-102053451D01*
X182427284Y-101945400D01*
X182324581Y-101815749D01*
X182207045Y-101667914D01*
X182077416Y-101505312D01*
X181938432Y-101331360D01*
X181792830Y-101149472D01*
X181643350Y-100963066D01*
X181523358Y-100813687D01*
X179492321Y-100813687D01*
X179480449Y-100839717D01*
X179451662Y-100884414D01*
X179449558Y-100887392D01*
X179411816Y-100947967D01*
X179372347Y-101021959D01*
X179364514Y-101038304D01*
X179357410Y-101055237D01*
X179351132Y-101075565D01*
X179345618Y-101102086D01*
X179340809Y-101137598D01*
X179336644Y-101184901D01*
X179333061Y-101246794D01*
X179330001Y-101326074D01*
X179327404Y-101425541D01*
X179325208Y-101547993D01*
X179323353Y-101696228D01*
X179321779Y-101873046D01*
X179320424Y-102081246D01*
X179319230Y-102323625D01*
X179318134Y-102602983D01*
X179317077Y-102922118D01*
X179316004Y-103281428D01*
X179314923Y-103653317D01*
X179314050Y-103982658D01*
X179313521Y-104272261D01*
X179313471Y-104524935D01*
X179314036Y-104743490D01*
X179315350Y-104930735D01*
X179317550Y-105089480D01*
X179320771Y-105222535D01*
X179325149Y-105332708D01*
X179330818Y-105422809D01*
X179337914Y-105495648D01*
X179346573Y-105554034D01*
X179356930Y-105600777D01*
X179369121Y-105638686D01*
X179383280Y-105670570D01*
X179399544Y-105699240D01*
X179418047Y-105727504D01*
X179435124Y-105752550D01*
X179469549Y-105805373D01*
X179489932Y-105840698D01*
X179492321Y-105847168D01*
X179470410Y-105849332D01*
X179407745Y-105851342D01*
X179308930Y-105853150D01*
X179178569Y-105854708D01*
X179021265Y-105855967D01*
X178841621Y-105856880D01*
X178644241Y-105857398D01*
X178505803Y-105857500D01*
X178294880Y-105857057D01*
X178100331Y-105855788D01*
X177926554Y-105853782D01*
X177777944Y-105851126D01*
X177658898Y-105847910D01*
X177573812Y-105844223D01*
X177527084Y-105840153D01*
X177519285Y-105837598D01*
X177534749Y-105807659D01*
X177550818Y-105791527D01*
X177577279Y-105757121D01*
X177611912Y-105696349D01*
X177635862Y-105647009D01*
X177689375Y-105528661D01*
X177695552Y-103164420D01*
X177701730Y-100800178D01*
X178597026Y-100800179D01*
X178793532Y-100800509D01*
X178975127Y-100801450D01*
X179136979Y-100802930D01*
X179274253Y-100804875D01*
X179382120Y-100807214D01*
X179455745Y-100809872D01*
X179490297Y-100812777D01*
X179492321Y-100813687D01*
X181523358Y-100813687D01*
X181492729Y-100775558D01*
X181343707Y-100590364D01*
X181199021Y-100410901D01*
X181061411Y-100240584D01*
X180933614Y-100082831D01*
X180818369Y-99941057D01*
X180718414Y-99818679D01*
X180636488Y-99719112D01*
X180602006Y-99677589D01*
X180428651Y-99475368D01*
X180274769Y-99308109D01*
X180136528Y-99171863D01*
X180010095Y-99062679D01*
X179991250Y-99047878D01*
X179911875Y-98986396D01*
X181048687Y-98986144D01*
X182185500Y-98985893D01*
X182174874Y-99082277D01*
X182181510Y-99197476D01*
X182224764Y-99334635D01*
X182305071Y-99494846D01*
X182396089Y-99640057D01*
X182428671Y-99685550D01*
X182485028Y-99760997D01*
X182561801Y-99862095D01*
X182655631Y-99984544D01*
X182763158Y-100124040D01*
X182881022Y-100276283D01*
X183005865Y-100436969D01*
X183134327Y-100601797D01*
X183263048Y-100766465D01*
X183388669Y-100926671D01*
X183507830Y-101078112D01*
X183617172Y-101216487D01*
X183713336Y-101337494D01*
X183792962Y-101436831D01*
X183852691Y-101510195D01*
X183889162Y-101553285D01*
X183895306Y-101559911D01*
X183901051Y-101543826D01*
X183905498Y-101482968D01*
X183908640Y-101377902D01*
X183910468Y-101229192D01*
X183910977Y-101037404D01*
X183910159Y-100803103D01*
X183908333Y-100562054D01*
X183905676Y-100296651D01*
X183902613Y-100072176D01*
X183898644Y-99884201D01*
X183893269Y-99728298D01*
X183885989Y-99600036D01*
X183876304Y-99494989D01*
X183863714Y-99408727D01*
X183847720Y-99336821D01*
X183827822Y-99274843D01*
X183803520Y-99218364D01*
X183774316Y-99162956D01*
X183744820Y-99112655D01*
X183668487Y-98985893D01*
X185797716Y-98985893D01*
X186406096Y-98985893D01*
X186406029Y-98973337D01*
X186404409Y-98768281D01*
X186402349Y-98589665D01*
X186399798Y-98435596D01*
X186396704Y-98304184D01*
X186393016Y-98193535D01*
X186388683Y-98101760D01*
X186383653Y-98026965D01*
X186377875Y-97967259D01*
X186371298Y-97920750D01*
X186363869Y-97885547D01*
X186355539Y-97859757D01*
X186346255Y-97841490D01*
X186335966Y-97828852D01*
X186324621Y-97819954D01*
X186312168Y-97812902D01*
X186298556Y-97805804D01*
X186286510Y-97798636D01*
X186275998Y-97793461D01*
X186259573Y-97788783D01*
X186235038Y-97784577D01*
X186200193Y-97780818D01*
X186152839Y-97777483D01*
X186090778Y-97774544D01*
X186011811Y-97771979D01*
X185913738Y-97769762D01*
X185794361Y-97767868D01*
X185651481Y-97766273D01*
X185482898Y-97764951D01*
X185286415Y-97763878D01*
X185059832Y-97763029D01*
X184800950Y-97762380D01*
X184507570Y-97761904D01*
X184177493Y-97761578D01*
X183808521Y-97761377D01*
X183398454Y-97761276D01*
X182974280Y-97761250D01*
X179719107Y-97761250D01*
X179719107Y-97955689D01*
X179719107Y-97955689D01*
G37*
X179719107Y-97955689D02*
X179697280Y-98184585D01*
X179633763Y-98400791D01*
X179531503Y-98599673D01*
X179393446Y-98776597D01*
X179222538Y-98926929D01*
X179027698Y-99043181D01*
X178814212Y-99122777D01*
X178599229Y-99160080D01*
X178386986Y-99157791D01*
X178181724Y-99118609D01*
X177987680Y-99045234D01*
X177809093Y-98940368D01*
X177650204Y-98806708D01*
X177515250Y-98646957D01*
X177408471Y-98463814D01*
X177334105Y-98259978D01*
X177296392Y-98038151D01*
X177292500Y-97937914D01*
X177292500Y-97761250D01*
X177188178Y-97761250D01*
X177115239Y-97766965D01*
X177061204Y-97790669D01*
X177006750Y-97838357D01*
X176929643Y-97915464D01*
X176929643Y-102318173D01*
X176929661Y-102844789D01*
X176929726Y-103327939D01*
X176929854Y-103769515D01*
X176930062Y-104171409D01*
X176930366Y-104535512D01*
X176930783Y-104863715D01*
X176931328Y-105157911D01*
X176932019Y-105419990D01*
X176932872Y-105651845D01*
X176933902Y-105855366D01*
X176935127Y-106032446D01*
X176936563Y-106184976D01*
X176938226Y-106314847D01*
X176940133Y-106423951D01*
X176942299Y-106514179D01*
X176944742Y-106587424D01*
X176947478Y-106645576D01*
X176950523Y-106690528D01*
X176953893Y-106724170D01*
X176957606Y-106748395D01*
X176961676Y-106765093D01*
X176966122Y-106776157D01*
X176968296Y-106779874D01*
X176976659Y-106793960D01*
X176983760Y-106806911D01*
X176991453Y-106818772D01*
X177001593Y-106829593D01*
X177016034Y-106839420D01*
X177036631Y-106848300D01*
X177065239Y-106856282D01*
X177103711Y-106863412D01*
X177153903Y-106869738D01*
X177217669Y-106875308D01*
X177296864Y-106880168D01*
X177393342Y-106884366D01*
X177508958Y-106887950D01*
X177645565Y-106890968D01*
X177805020Y-106893465D01*
X177989175Y-106895490D01*
X178199886Y-106897091D01*
X178439008Y-106898314D01*
X178708395Y-106899208D01*
X179009900Y-106899819D01*
X179345380Y-106900194D01*
X179716688Y-106900383D01*
X180125679Y-106900431D01*
X180574208Y-106900386D01*
X181064128Y-106900295D01*
X181597295Y-106900207D01*
X181674405Y-106900198D01*
X182210745Y-106900111D01*
X182703575Y-106899969D01*
X183154742Y-106899758D01*
X183566093Y-106899462D01*
X183939476Y-106899067D01*
X184276738Y-106898559D01*
X184579725Y-106897924D01*
X184850286Y-106897146D01*
X185090267Y-106896211D01*
X185301515Y-106895105D01*
X185485878Y-106893813D01*
X185645202Y-106892320D01*
X185781335Y-106890613D01*
X185896125Y-106888676D01*
X185991417Y-106886496D01*
X186069060Y-106884057D01*
X186130900Y-106881345D01*
X186178785Y-106878346D01*
X186214562Y-106875045D01*
X186240078Y-106871427D01*
X186257181Y-106867479D01*
X186265935Y-106864127D01*
X186282935Y-106856954D01*
X186298542Y-106851659D01*
X186312816Y-106846362D01*
X186325816Y-106839188D01*
X186337600Y-106828256D01*
X186348228Y-106811691D01*
X186357759Y-106787614D01*
X186366253Y-106754147D01*
X186373769Y-106709413D01*
X186380366Y-106651533D01*
X186386104Y-106578631D01*
X186391040Y-106488828D01*
X186395236Y-106380246D01*
X186398750Y-106251007D01*
X186401641Y-106099235D01*
X186403968Y-105923050D01*
X186405791Y-105720576D01*
X186407170Y-105489935D01*
X186408162Y-105229248D01*
X186408828Y-104936638D01*
X186409227Y-104610227D01*
X186409417Y-104248138D01*
X186409459Y-103848492D01*
X186409412Y-103409412D01*
X186409334Y-102929020D01*
X186409286Y-102405438D01*
X186409285Y-102320759D01*
X186409313Y-101792618D01*
X186409363Y-101307943D01*
X186409385Y-100864841D01*
X186409326Y-100461421D01*
X186409136Y-100095791D01*
X186408763Y-99766060D01*
X186408154Y-99470334D01*
X186407260Y-99206724D01*
X186406096Y-98985893D01*
X185797716Y-98985893D01*
X185717781Y-99102098D01*
X185695340Y-99133775D01*
X185675109Y-99161823D01*
X185656973Y-99188628D01*
X185640820Y-99216571D01*
X185626534Y-99248036D01*
X185614001Y-99285406D01*
X185603107Y-99331066D01*
X185593739Y-99387399D01*
X185585782Y-99456787D01*
X185579122Y-99541614D01*
X185573644Y-99644264D01*
X185569236Y-99767120D01*
X185565782Y-99912566D01*
X185563168Y-100082984D01*
X185561281Y-100280759D01*
X185560006Y-100508274D01*
X185559230Y-100767911D01*
X185558837Y-101062055D01*
X185558714Y-101393090D01*
X185558747Y-101763397D01*
X185558822Y-102175361D01*
X185558839Y-102421696D01*
X185558791Y-102857532D01*
X185558723Y-103250396D01*
X185558747Y-103602675D01*
X185558977Y-103916756D01*
X185559525Y-104195025D01*
X185560504Y-104439867D01*
X185562028Y-104653669D01*
X185564209Y-104838817D01*
X185567160Y-104997696D01*
X185570994Y-105132694D01*
X185575825Y-105246196D01*
X185581765Y-105340588D01*
X185588926Y-105418257D01*
X185597423Y-105481588D01*
X185607368Y-105532968D01*
X185618873Y-105574783D01*
X185632053Y-105609418D01*
X185647019Y-105639261D01*
X185663885Y-105666696D01*
X185682764Y-105694111D01*
X185703768Y-105723891D01*
X185716004Y-105741752D01*
X185793897Y-105857500D01*
X184726023Y-105857500D01*
X184478425Y-105857430D01*
X184272518Y-105857128D01*
X184104637Y-105856452D01*
X183971116Y-105855261D01*
X183868290Y-105853415D01*
X183792492Y-105850772D01*
X183740057Y-105847193D01*
X183707320Y-105842535D01*
X183690614Y-105836659D01*
X183686275Y-105829423D01*
X183690636Y-105820686D01*
X183693039Y-105817812D01*
X183743563Y-105743339D01*
X183795590Y-105637265D01*
X183843019Y-105512708D01*
X183859631Y-105459646D01*
X183868906Y-105423603D01*
X183876744Y-105381293D01*
X183883310Y-105328526D01*
X183888769Y-105261113D01*
X183893288Y-105174863D01*
X183897030Y-105065588D01*
X183900161Y-104929098D01*
X183902845Y-104761203D01*
X183905249Y-104557714D01*
X183907537Y-104314441D01*
X183908295Y-104224643D01*
X183910337Y-103973223D01*
X183911861Y-103763557D01*
X183912750Y-103592046D01*
X183912886Y-103455088D01*
X183912152Y-103349082D01*
X183910430Y-103270429D01*
X183907604Y-103215527D01*
X183903555Y-103180776D01*
X183898166Y-103162575D01*
X183891321Y-103157323D01*
X183882901Y-103161420D01*
X183873913Y-103170089D01*
X183853111Y-103196075D01*
X183808798Y-103254483D01*
X183744109Y-103341033D01*
X183662179Y-103451443D01*
X183566144Y-103581430D01*
X183459139Y-103726714D01*
X183344299Y-103883013D01*
X183224760Y-104046045D01*
X183103658Y-104211529D01*
X182984127Y-104375183D01*
X182869304Y-104532725D01*
X182762322Y-104679874D01*
X182666318Y-104812349D01*
X182584428Y-104925866D01*
X182519786Y-105016146D01*
X182475528Y-105078907D01*
X182466351Y-105092231D01*
X182420303Y-105166366D01*
X182366447Y-105262774D01*
X182315423Y-105362292D01*
X182308953Y-105375713D01*
X182265404Y-105472534D01*
X182240119Y-105547992D01*
X182228608Y-105619963D01*
X182226362Y-105704420D01*
X182227635Y-105857500D01*
X179908450Y-105857500D01*
X180091591Y-105669201D01*
X180185603Y-105568967D01*
X180286627Y-105455504D01*
X180379127Y-105346480D01*
X180420160Y-105295549D01*
X180481309Y-105216105D01*
X180561775Y-105109207D01*
X180659207Y-104978126D01*
X180771252Y-104826138D01*
X180895557Y-104656516D01*
X181029769Y-104472532D01*
X181171536Y-104277462D01*
X181318505Y-104074577D01*
X181468322Y-103867153D01*
X181618636Y-103658462D01*
X181767094Y-103451779D01*
X181911342Y-103250376D01*
X182049029Y-103057527D01*
X182177801Y-102876506D01*
X182295306Y-102710586D01*
X182399190Y-102563041D01*
X182487102Y-102437145D01*
X182556688Y-102336171D01*
X182605595Y-102263393D01*
X182631472Y-102222084D01*
X182635004Y-102213843D01*
X182619014Y-102191089D01*
X182577239Y-102136486D01*
X182512416Y-102053451D01*
X182427284Y-101945400D01*
X182324581Y-101815749D01*
X182207045Y-101667914D01*
X182077416Y-101505312D01*
X181938432Y-101331360D01*
X181792830Y-101149472D01*
X181643350Y-100963066D01*
X181523358Y-100813687D01*
X179492321Y-100813687D01*
X179480449Y-100839717D01*
X179451662Y-100884414D01*
X179449558Y-100887392D01*
X179411816Y-100947967D01*
X179372347Y-101021959D01*
X179364514Y-101038304D01*
X179357410Y-101055237D01*
X179351132Y-101075565D01*
X179345618Y-101102086D01*
X179340809Y-101137598D01*
X179336644Y-101184901D01*
X179333061Y-101246794D01*
X179330001Y-101326074D01*
X179327404Y-101425541D01*
X179325208Y-101547993D01*
X179323353Y-101696228D01*
X179321779Y-101873046D01*
X179320424Y-102081246D01*
X179319230Y-102323625D01*
X179318134Y-102602983D01*
X179317077Y-102922118D01*
X179316004Y-103281428D01*
X179314923Y-103653317D01*
X179314050Y-103982658D01*
X179313521Y-104272261D01*
X179313471Y-104524935D01*
X179314036Y-104743490D01*
X179315350Y-104930735D01*
X179317550Y-105089480D01*
X179320771Y-105222535D01*
X179325149Y-105332708D01*
X179330818Y-105422809D01*
X179337914Y-105495648D01*
X179346573Y-105554034D01*
X179356930Y-105600777D01*
X179369121Y-105638686D01*
X179383280Y-105670570D01*
X179399544Y-105699240D01*
X179418047Y-105727504D01*
X179435124Y-105752550D01*
X179469549Y-105805373D01*
X179489932Y-105840698D01*
X179492321Y-105847168D01*
X179470410Y-105849332D01*
X179407745Y-105851342D01*
X179308930Y-105853150D01*
X179178569Y-105854708D01*
X179021265Y-105855967D01*
X178841621Y-105856880D01*
X178644241Y-105857398D01*
X178505803Y-105857500D01*
X178294880Y-105857057D01*
X178100331Y-105855788D01*
X177926554Y-105853782D01*
X177777944Y-105851126D01*
X177658898Y-105847910D01*
X177573812Y-105844223D01*
X177527084Y-105840153D01*
X177519285Y-105837598D01*
X177534749Y-105807659D01*
X177550818Y-105791527D01*
X177577279Y-105757121D01*
X177611912Y-105696349D01*
X177635862Y-105647009D01*
X177689375Y-105528661D01*
X177695552Y-103164420D01*
X177701730Y-100800178D01*
X178597026Y-100800179D01*
X178793532Y-100800509D01*
X178975127Y-100801450D01*
X179136979Y-100802930D01*
X179274253Y-100804875D01*
X179382120Y-100807214D01*
X179455745Y-100809872D01*
X179490297Y-100812777D01*
X179492321Y-100813687D01*
X181523358Y-100813687D01*
X181492729Y-100775558D01*
X181343707Y-100590364D01*
X181199021Y-100410901D01*
X181061411Y-100240584D01*
X180933614Y-100082831D01*
X180818369Y-99941057D01*
X180718414Y-99818679D01*
X180636488Y-99719112D01*
X180602006Y-99677589D01*
X180428651Y-99475368D01*
X180274769Y-99308109D01*
X180136528Y-99171863D01*
X180010095Y-99062679D01*
X179991250Y-99047878D01*
X179911875Y-98986396D01*
X181048687Y-98986144D01*
X182185500Y-98985893D01*
X182174874Y-99082277D01*
X182181510Y-99197476D01*
X182224764Y-99334635D01*
X182305071Y-99494846D01*
X182396089Y-99640057D01*
X182428671Y-99685550D01*
X182485028Y-99760997D01*
X182561801Y-99862095D01*
X182655631Y-99984544D01*
X182763158Y-100124040D01*
X182881022Y-100276283D01*
X183005865Y-100436969D01*
X183134327Y-100601797D01*
X183263048Y-100766465D01*
X183388669Y-100926671D01*
X183507830Y-101078112D01*
X183617172Y-101216487D01*
X183713336Y-101337494D01*
X183792962Y-101436831D01*
X183852691Y-101510195D01*
X183889162Y-101553285D01*
X183895306Y-101559911D01*
X183901051Y-101543826D01*
X183905498Y-101482968D01*
X183908640Y-101377902D01*
X183910468Y-101229192D01*
X183910977Y-101037404D01*
X183910159Y-100803103D01*
X183908333Y-100562054D01*
X183905676Y-100296651D01*
X183902613Y-100072176D01*
X183898644Y-99884201D01*
X183893269Y-99728298D01*
X183885989Y-99600036D01*
X183876304Y-99494989D01*
X183863714Y-99408727D01*
X183847720Y-99336821D01*
X183827822Y-99274843D01*
X183803520Y-99218364D01*
X183774316Y-99162956D01*
X183744820Y-99112655D01*
X183668487Y-98985893D01*
X185797716Y-98985893D01*
X186406096Y-98985893D01*
X186406029Y-98973337D01*
X186404409Y-98768281D01*
X186402349Y-98589665D01*
X186399798Y-98435596D01*
X186396704Y-98304184D01*
X186393016Y-98193535D01*
X186388683Y-98101760D01*
X186383653Y-98026965D01*
X186377875Y-97967259D01*
X186371298Y-97920750D01*
X186363869Y-97885547D01*
X186355539Y-97859757D01*
X186346255Y-97841490D01*
X186335966Y-97828852D01*
X186324621Y-97819954D01*
X186312168Y-97812902D01*
X186298556Y-97805804D01*
X186286510Y-97798636D01*
X186275998Y-97793461D01*
X186259573Y-97788783D01*
X186235038Y-97784577D01*
X186200193Y-97780818D01*
X186152839Y-97777483D01*
X186090778Y-97774544D01*
X186011811Y-97771979D01*
X185913738Y-97769762D01*
X185794361Y-97767868D01*
X185651481Y-97766273D01*
X185482898Y-97764951D01*
X185286415Y-97763878D01*
X185059832Y-97763029D01*
X184800950Y-97762380D01*
X184507570Y-97761904D01*
X184177493Y-97761578D01*
X183808521Y-97761377D01*
X183398454Y-97761276D01*
X182974280Y-97761250D01*
X179719107Y-97761250D01*
X179719107Y-97955689D01*
G36*
X161286738Y-107569374D02*
G01*
X161223701Y-107614058D01*
X161168035Y-107669724D01*
X161168035Y-108291357D01*
X161168181Y-108475936D01*
X161168870Y-108620660D01*
X161170483Y-108731032D01*
X161173400Y-108812553D01*
X161177998Y-108870726D01*
X161184659Y-108911054D01*
X161193762Y-108939037D01*
X161205686Y-108960180D01*
X161215039Y-108972745D01*
X161276775Y-109022112D01*
X161347663Y-109027470D01*
X161412454Y-108997196D01*
X161433863Y-108979323D01*
X161448174Y-108955582D01*
X161456806Y-108917352D01*
X161461178Y-108856010D01*
X161462710Y-108762937D01*
X161462857Y-108691035D01*
X161462857Y-108420179D01*
X162460714Y-108420179D01*
X162460714Y-108666584D01*
X162461746Y-108779259D01*
X162465874Y-108856695D01*
X162474649Y-108908985D01*
X162489618Y-108946221D01*
X162507717Y-108972745D01*
X162569799Y-109021973D01*
X162640008Y-109027802D01*
X162707221Y-108992812D01*
X162725572Y-108974470D01*
X162738532Y-108950154D01*
X162747081Y-108912278D01*
X162752195Y-108853255D01*
X162754851Y-108765499D01*
X162756029Y-108641423D01*
X162756166Y-108612946D01*
X162757138Y-108379169D01*
X162757639Y-108186505D01*
X162757476Y-108030712D01*
X162756455Y-107907548D01*
X162754383Y-107812770D01*
X162751067Y-107742136D01*
X162746313Y-107691403D01*
X162739929Y-107656329D01*
X162731720Y-107632670D01*
X162721493Y-107616186D01*
X162710178Y-107603750D01*
X162646171Y-107563971D01*
X162579417Y-107569374D01*
X162516380Y-107614058D01*
X162490871Y-107642887D01*
X162474611Y-107674732D01*
X162465539Y-107720085D01*
X162461594Y-107789443D01*
X162460715Y-107893299D01*
X162460714Y-107897541D01*
X162460714Y-108125357D01*
X161462857Y-108125357D01*
X161462857Y-107887232D01*
X161461839Y-107777528D01*
X161457749Y-107703453D01*
X161449035Y-107655304D01*
X161434145Y-107623378D01*
X161417500Y-107603750D01*
X161353493Y-107563971D01*
X161286738Y-107569374D01*
X161286738Y-107569374D01*
G37*
X161286738Y-107569374D02*
X161223701Y-107614058D01*
X161168035Y-107669724D01*
X161168035Y-108291357D01*
X161168181Y-108475936D01*
X161168870Y-108620660D01*
X161170483Y-108731032D01*
X161173400Y-108812553D01*
X161177998Y-108870726D01*
X161184659Y-108911054D01*
X161193762Y-108939037D01*
X161205686Y-108960180D01*
X161215039Y-108972745D01*
X161276775Y-109022112D01*
X161347663Y-109027470D01*
X161412454Y-108997196D01*
X161433863Y-108979323D01*
X161448174Y-108955582D01*
X161456806Y-108917352D01*
X161461178Y-108856010D01*
X161462710Y-108762937D01*
X161462857Y-108691035D01*
X161462857Y-108420179D01*
X162460714Y-108420179D01*
X162460714Y-108666584D01*
X162461746Y-108779259D01*
X162465874Y-108856695D01*
X162474649Y-108908985D01*
X162489618Y-108946221D01*
X162507717Y-108972745D01*
X162569799Y-109021973D01*
X162640008Y-109027802D01*
X162707221Y-108992812D01*
X162725572Y-108974470D01*
X162738532Y-108950154D01*
X162747081Y-108912278D01*
X162752195Y-108853255D01*
X162754851Y-108765499D01*
X162756029Y-108641423D01*
X162756166Y-108612946D01*
X162757138Y-108379169D01*
X162757639Y-108186505D01*
X162757476Y-108030712D01*
X162756455Y-107907548D01*
X162754383Y-107812770D01*
X162751067Y-107742136D01*
X162746313Y-107691403D01*
X162739929Y-107656329D01*
X162731720Y-107632670D01*
X162721493Y-107616186D01*
X162710178Y-107603750D01*
X162646171Y-107563971D01*
X162579417Y-107569374D01*
X162516380Y-107614058D01*
X162490871Y-107642887D01*
X162474611Y-107674732D01*
X162465539Y-107720085D01*
X162461594Y-107789443D01*
X162460715Y-107893299D01*
X162460714Y-107897541D01*
X162460714Y-108125357D01*
X161462857Y-108125357D01*
X161462857Y-107887232D01*
X161461839Y-107777528D01*
X161457749Y-107703453D01*
X161449035Y-107655304D01*
X161434145Y-107623378D01*
X161417500Y-107603750D01*
X161353493Y-107563971D01*
X161286738Y-107569374D01*
G36*
X163829557Y-107558587D02*
G01*
X163671439Y-107559347D01*
X163548712Y-107560937D01*
X163456394Y-107563622D01*
X163389501Y-107567667D01*
X163343052Y-107573337D01*
X163312063Y-107580897D01*
X163291552Y-107590612D01*
X163281626Y-107598080D01*
X163230109Y-107663442D01*
X163223877Y-107731305D01*
X163255713Y-107792954D01*
X163276532Y-107817589D01*
X163298935Y-107834387D01*
X163331403Y-107844847D01*
X163382414Y-107850472D01*
X163460450Y-107852760D01*
X163573990Y-107853212D01*
X163596289Y-107853214D01*
X163889464Y-107853214D01*
X163889464Y-108397500D01*
X163889657Y-108569059D01*
X163890534Y-108701066D01*
X163892542Y-108799322D01*
X163896126Y-108869633D01*
X163901733Y-108917800D01*
X163909809Y-108949628D01*
X163920802Y-108970919D01*
X163934821Y-108987143D01*
X164000981Y-109027011D01*
X164070046Y-109023869D01*
X164132680Y-108978382D01*
X164137282Y-108972745D01*
X164152263Y-108951435D01*
X164163677Y-108926502D01*
X164172006Y-108891886D01*
X164177733Y-108841530D01*
X164181341Y-108769375D01*
X164183314Y-108669363D01*
X164184134Y-108535435D01*
X164184285Y-108383102D01*
X164184285Y-107853214D01*
X164464253Y-107853214D01*
X164584398Y-107852401D01*
X164667575Y-107849233D01*
X164722157Y-107842616D01*
X164756514Y-107831456D01*
X164779020Y-107814661D01*
X164781753Y-107811741D01*
X164814614Y-107744967D01*
X164811708Y-107669477D01*
X164773928Y-107603750D01*
X164759318Y-107591001D01*
X164740480Y-107580892D01*
X164712392Y-107573117D01*
X164670030Y-107567372D01*
X164608370Y-107563351D01*
X164522388Y-107560749D01*
X164407062Y-107559259D01*
X164257368Y-107558576D01*
X164068282Y-107558396D01*
X164028048Y-107558393D01*
X163829557Y-107558587D01*
X163829557Y-107558587D01*
G37*
X163829557Y-107558587D02*
X163671439Y-107559347D01*
X163548712Y-107560937D01*
X163456394Y-107563622D01*
X163389501Y-107567667D01*
X163343052Y-107573337D01*
X163312063Y-107580897D01*
X163291552Y-107590612D01*
X163281626Y-107598080D01*
X163230109Y-107663442D01*
X163223877Y-107731305D01*
X163255713Y-107792954D01*
X163276532Y-107817589D01*
X163298935Y-107834387D01*
X163331403Y-107844847D01*
X163382414Y-107850472D01*
X163460450Y-107852760D01*
X163573990Y-107853212D01*
X163596289Y-107853214D01*
X163889464Y-107853214D01*
X163889464Y-108397500D01*
X163889657Y-108569059D01*
X163890534Y-108701066D01*
X163892542Y-108799322D01*
X163896126Y-108869633D01*
X163901733Y-108917800D01*
X163909809Y-108949628D01*
X163920802Y-108970919D01*
X163934821Y-108987143D01*
X164000981Y-109027011D01*
X164070046Y-109023869D01*
X164132680Y-108978382D01*
X164137282Y-108972745D01*
X164152263Y-108951435D01*
X164163677Y-108926502D01*
X164172006Y-108891886D01*
X164177733Y-108841530D01*
X164181341Y-108769375D01*
X164183314Y-108669363D01*
X164184134Y-108535435D01*
X164184285Y-108383102D01*
X164184285Y-107853214D01*
X164464253Y-107853214D01*
X164584398Y-107852401D01*
X164667575Y-107849233D01*
X164722157Y-107842616D01*
X164756514Y-107831456D01*
X164779020Y-107814661D01*
X164781753Y-107811741D01*
X164814614Y-107744967D01*
X164811708Y-107669477D01*
X164773928Y-107603750D01*
X164759318Y-107591001D01*
X164740480Y-107580892D01*
X164712392Y-107573117D01*
X164670030Y-107567372D01*
X164608370Y-107563351D01*
X164522388Y-107560749D01*
X164407062Y-107559259D01*
X164257368Y-107558576D01*
X164068282Y-107558396D01*
X164028048Y-107558393D01*
X163829557Y-107558587D01*
G36*
X165385373Y-107572074D02*
G01*
X165337735Y-107601746D01*
X165284196Y-107645100D01*
X165284196Y-108291062D01*
X165284367Y-108480015D01*
X165285097Y-108628881D01*
X165286715Y-108742932D01*
X165289549Y-108827436D01*
X165293928Y-108887663D01*
X165300179Y-108928885D01*
X165308631Y-108956370D01*
X165319612Y-108975390D01*
X165327399Y-108984762D01*
X165390557Y-109025931D01*
X165462477Y-109024252D01*
X165525478Y-108989147D01*
X165579018Y-108945793D01*
X165579018Y-107645100D01*
X165525478Y-107601746D01*
X165473805Y-107570210D01*
X165431607Y-107558393D01*
X165385373Y-107572074D01*
X165385373Y-107572074D01*
G37*
X165385373Y-107572074D02*
X165337735Y-107601746D01*
X165284196Y-107645100D01*
X165284196Y-108291062D01*
X165284367Y-108480015D01*
X165285097Y-108628881D01*
X165286715Y-108742932D01*
X165289549Y-108827436D01*
X165293928Y-108887663D01*
X165300179Y-108928885D01*
X165308631Y-108956370D01*
X165319612Y-108975390D01*
X165327399Y-108984762D01*
X165390557Y-109025931D01*
X165462477Y-109024252D01*
X165525478Y-108989147D01*
X165579018Y-108945793D01*
X165579018Y-107645100D01*
X165525478Y-107601746D01*
X165473805Y-107570210D01*
X165431607Y-107558393D01*
X165385373Y-107572074D01*
G36*
X166277235Y-107562345D02*
G01*
X166237881Y-107576409D01*
X166236362Y-107577097D01*
X166182920Y-107617881D01*
X166153475Y-107659832D01*
X166147713Y-107679501D01*
X166147998Y-107705637D01*
X166156105Y-107742868D01*
X166173812Y-107795828D01*
X166202896Y-107869145D01*
X166245133Y-107967451D01*
X166302300Y-108095376D01*
X166376174Y-108257552D01*
X166416836Y-108346193D01*
X166490261Y-108504435D01*
X166559189Y-108649957D01*
X166620988Y-108777437D01*
X166673029Y-108881556D01*
X166712679Y-108956993D01*
X166737309Y-108998428D01*
X166742183Y-109004152D01*
X166804542Y-109029402D01*
X166874980Y-109026020D01*
X166931472Y-108995310D01*
X166933774Y-108992812D01*
X166956246Y-108958792D01*
X166993942Y-108892528D01*
X167042214Y-108802549D01*
X167096412Y-108697386D01*
X167115890Y-108658633D01*
X167262918Y-108364140D01*
X167423177Y-108684049D01*
X167480379Y-108794583D01*
X167533449Y-108890444D01*
X167578051Y-108964293D01*
X167609850Y-109008793D01*
X167620627Y-109018229D01*
X167704394Y-109031009D01*
X167773516Y-109004152D01*
X167793849Y-108975449D01*
X167829034Y-108911658D01*
X167876201Y-108819056D01*
X167932480Y-108703920D01*
X167995001Y-108572526D01*
X168060893Y-108431152D01*
X168127286Y-108286074D01*
X168191310Y-108143570D01*
X168250094Y-108009917D01*
X168300768Y-107891391D01*
X168340462Y-107794269D01*
X168366305Y-107724829D01*
X168375428Y-107689347D01*
X168375335Y-107688062D01*
X168353139Y-107643414D01*
X168308774Y-107597940D01*
X168306161Y-107595962D01*
X168251634Y-107565140D01*
X168201199Y-107565438D01*
X168182296Y-107571249D01*
X168159261Y-107583807D01*
X168134800Y-107608511D01*
X168105978Y-107650484D01*
X168069860Y-107714852D01*
X168023512Y-107806740D01*
X167964001Y-107931271D01*
X167910333Y-108046223D01*
X167848588Y-108179472D01*
X167793260Y-108299300D01*
X167747223Y-108399448D01*
X167713350Y-108473655D01*
X167694518Y-108515661D01*
X167691771Y-108522232D01*
X167679418Y-108511490D01*
X167651027Y-108466513D01*
X167610375Y-108393865D01*
X167561241Y-108300111D01*
X167541689Y-108261429D01*
X167475455Y-108130812D01*
X167424376Y-108035688D01*
X167384260Y-107970529D01*
X167350916Y-107929802D01*
X167320151Y-107907978D01*
X167287775Y-107899526D01*
X167266676Y-107898571D01*
X167229458Y-107901869D01*
X167196844Y-107915509D01*
X167164438Y-107945111D01*
X167127844Y-107996293D01*
X167082666Y-108074675D01*
X167024508Y-108185877D01*
X166992420Y-108249135D01*
X166940372Y-108349952D01*
X166894976Y-108433557D01*
X166860240Y-108492897D01*
X166840167Y-108520916D01*
X166837437Y-108522083D01*
X166824474Y-108500031D01*
X166795451Y-108442770D01*
X166753275Y-108356293D01*
X166700852Y-108246593D01*
X166641089Y-108119663D01*
X166611691Y-108056616D01*
X166535212Y-107893907D01*
X166473628Y-107768706D01*
X166423742Y-107676928D01*
X166382357Y-107614487D01*
X166346276Y-107577300D01*
X166312301Y-107561281D01*
X166277235Y-107562345D01*
X166277235Y-107562345D01*
G37*
X166277235Y-107562345D02*
X166237881Y-107576409D01*
X166236362Y-107577097D01*
X166182920Y-107617881D01*
X166153475Y-107659832D01*
X166147713Y-107679501D01*
X166147998Y-107705637D01*
X166156105Y-107742868D01*
X166173812Y-107795828D01*
X166202896Y-107869145D01*
X166245133Y-107967451D01*
X166302300Y-108095376D01*
X166376174Y-108257552D01*
X166416836Y-108346193D01*
X166490261Y-108504435D01*
X166559189Y-108649957D01*
X166620988Y-108777437D01*
X166673029Y-108881556D01*
X166712679Y-108956993D01*
X166737309Y-108998428D01*
X166742183Y-109004152D01*
X166804542Y-109029402D01*
X166874980Y-109026020D01*
X166931472Y-108995310D01*
X166933774Y-108992812D01*
X166956246Y-108958792D01*
X166993942Y-108892528D01*
X167042214Y-108802549D01*
X167096412Y-108697386D01*
X167115890Y-108658633D01*
X167262918Y-108364140D01*
X167423177Y-108684049D01*
X167480379Y-108794583D01*
X167533449Y-108890444D01*
X167578051Y-108964293D01*
X167609850Y-109008793D01*
X167620627Y-109018229D01*
X167704394Y-109031009D01*
X167773516Y-109004152D01*
X167793849Y-108975449D01*
X167829034Y-108911658D01*
X167876201Y-108819056D01*
X167932480Y-108703920D01*
X167995001Y-108572526D01*
X168060893Y-108431152D01*
X168127286Y-108286074D01*
X168191310Y-108143570D01*
X168250094Y-108009917D01*
X168300768Y-107891391D01*
X168340462Y-107794269D01*
X168366305Y-107724829D01*
X168375428Y-107689347D01*
X168375335Y-107688062D01*
X168353139Y-107643414D01*
X168308774Y-107597940D01*
X168306161Y-107595962D01*
X168251634Y-107565140D01*
X168201199Y-107565438D01*
X168182296Y-107571249D01*
X168159261Y-107583807D01*
X168134800Y-107608511D01*
X168105978Y-107650484D01*
X168069860Y-107714852D01*
X168023512Y-107806740D01*
X167964001Y-107931271D01*
X167910333Y-108046223D01*
X167848588Y-108179472D01*
X167793260Y-108299300D01*
X167747223Y-108399448D01*
X167713350Y-108473655D01*
X167694518Y-108515661D01*
X167691771Y-108522232D01*
X167679418Y-108511490D01*
X167651027Y-108466513D01*
X167610375Y-108393865D01*
X167561241Y-108300111D01*
X167541689Y-108261429D01*
X167475455Y-108130812D01*
X167424376Y-108035688D01*
X167384260Y-107970529D01*
X167350916Y-107929802D01*
X167320151Y-107907978D01*
X167287775Y-107899526D01*
X167266676Y-107898571D01*
X167229458Y-107901869D01*
X167196844Y-107915509D01*
X167164438Y-107945111D01*
X167127844Y-107996293D01*
X167082666Y-108074675D01*
X167024508Y-108185877D01*
X166992420Y-108249135D01*
X166940372Y-108349952D01*
X166894976Y-108433557D01*
X166860240Y-108492897D01*
X166840167Y-108520916D01*
X166837437Y-108522083D01*
X166824474Y-108500031D01*
X166795451Y-108442770D01*
X166753275Y-108356293D01*
X166700852Y-108246593D01*
X166641089Y-108119663D01*
X166611691Y-108056616D01*
X166535212Y-107893907D01*
X166473628Y-107768706D01*
X166423742Y-107676928D01*
X166382357Y-107614487D01*
X166346276Y-107577300D01*
X166312301Y-107561281D01*
X166277235Y-107562345D01*
G36*
X171754290Y-107558811D02*
G01*
X171495179Y-107567572D01*
X171274794Y-107594140D01*
X171089501Y-107640105D01*
X170935665Y-107707060D01*
X170809654Y-107796593D01*
X170707833Y-107910296D01*
X170626569Y-108049759D01*
X170624970Y-108053160D01*
X170576471Y-108177979D01*
X170559191Y-108288523D01*
X170573195Y-108399774D01*
X170618552Y-108526710D01*
X170627154Y-108546026D01*
X170685814Y-108659083D01*
X170751740Y-108746442D01*
X170836826Y-108820704D01*
X170952966Y-108894468D01*
X170959713Y-108898319D01*
X171060816Y-108946885D01*
X171175091Y-108983156D01*
X171309879Y-109008383D01*
X171472525Y-109023816D01*
X171670371Y-109030708D01*
X171740273Y-109031307D01*
X172073136Y-109032500D01*
X172120139Y-108972745D01*
X172134082Y-108953096D01*
X172144959Y-108930150D01*
X172153149Y-108898406D01*
X172159033Y-108852359D01*
X172162989Y-108786510D01*
X172164279Y-108737679D01*
X171849643Y-108737679D01*
X171661040Y-108737679D01*
X171550675Y-108734451D01*
X171437379Y-108725958D01*
X171344395Y-108713980D01*
X171338782Y-108712971D01*
X171173630Y-108668665D01*
X171045530Y-108602099D01*
X170950430Y-108510184D01*
X170884277Y-108389832D01*
X170872773Y-108357935D01*
X170861498Y-108308257D01*
X170866380Y-108259177D01*
X170890133Y-108193884D01*
X170904451Y-108161809D01*
X170951338Y-108076574D01*
X171007829Y-108016776D01*
X171069985Y-107975134D01*
X171194488Y-107920945D01*
X171353826Y-107881692D01*
X171539447Y-107859089D01*
X171673884Y-107854114D01*
X171849643Y-107853214D01*
X171849643Y-108737679D01*
X172164279Y-108737679D01*
X172165398Y-108695355D01*
X172166639Y-108573392D01*
X172167092Y-108415118D01*
X172167143Y-108291357D01*
X172167143Y-107669724D01*
X172111477Y-107614058D01*
X172086772Y-107591495D01*
X172060059Y-107576043D01*
X172022756Y-107566375D01*
X171966277Y-107561164D01*
X171882042Y-107559082D01*
X171761465Y-107558801D01*
X171754290Y-107558811D01*
X171754290Y-107558811D01*
G37*
X171754290Y-107558811D02*
X171495179Y-107567572D01*
X171274794Y-107594140D01*
X171089501Y-107640105D01*
X170935665Y-107707060D01*
X170809654Y-107796593D01*
X170707833Y-107910296D01*
X170626569Y-108049759D01*
X170624970Y-108053160D01*
X170576471Y-108177979D01*
X170559191Y-108288523D01*
X170573195Y-108399774D01*
X170618552Y-108526710D01*
X170627154Y-108546026D01*
X170685814Y-108659083D01*
X170751740Y-108746442D01*
X170836826Y-108820704D01*
X170952966Y-108894468D01*
X170959713Y-108898319D01*
X171060816Y-108946885D01*
X171175091Y-108983156D01*
X171309879Y-109008383D01*
X171472525Y-109023816D01*
X171670371Y-109030708D01*
X171740273Y-109031307D01*
X172073136Y-109032500D01*
X172120139Y-108972745D01*
X172134082Y-108953096D01*
X172144959Y-108930150D01*
X172153149Y-108898406D01*
X172159033Y-108852359D01*
X172162989Y-108786510D01*
X172164279Y-108737679D01*
X171849643Y-108737679D01*
X171661040Y-108737679D01*
X171550675Y-108734451D01*
X171437379Y-108725958D01*
X171344395Y-108713980D01*
X171338782Y-108712971D01*
X171173630Y-108668665D01*
X171045530Y-108602099D01*
X170950430Y-108510184D01*
X170884277Y-108389832D01*
X170872773Y-108357935D01*
X170861498Y-108308257D01*
X170866380Y-108259177D01*
X170890133Y-108193884D01*
X170904451Y-108161809D01*
X170951338Y-108076574D01*
X171007829Y-108016776D01*
X171069985Y-107975134D01*
X171194488Y-107920945D01*
X171353826Y-107881692D01*
X171539447Y-107859089D01*
X171673884Y-107854114D01*
X171849643Y-107853214D01*
X171849643Y-108737679D01*
X172164279Y-108737679D01*
X172165398Y-108695355D01*
X172166639Y-108573392D01*
X172167092Y-108415118D01*
X172167143Y-108291357D01*
X172167143Y-107669724D01*
X172111477Y-107614058D01*
X172086772Y-107591495D01*
X172060059Y-107576043D01*
X172022756Y-107566375D01*
X171966277Y-107561164D01*
X171882042Y-107559082D01*
X171761465Y-107558801D01*
X171754290Y-107558811D01*
G36*
X173337257Y-107558780D02*
G01*
X173183858Y-107560617D01*
X173066305Y-107564911D01*
X172979844Y-107572672D01*
X172919720Y-107584910D01*
X172881180Y-107602635D01*
X172859468Y-107626856D01*
X172849830Y-107658582D01*
X172847512Y-107698823D01*
X172847500Y-107703575D01*
X172849512Y-107749091D01*
X172859025Y-107784269D01*
X172881249Y-107810528D01*
X172921398Y-107829289D01*
X172984684Y-107841973D01*
X173076318Y-107849999D01*
X173201513Y-107854789D01*
X173365481Y-107857761D01*
X173415737Y-107858420D01*
X173902053Y-107864554D01*
X173908855Y-107994955D01*
X173915656Y-108125357D01*
X173577861Y-108125357D01*
X173445893Y-108125844D01*
X173351663Y-108127903D01*
X173287555Y-108132432D01*
X173245956Y-108140330D01*
X173219250Y-108152495D01*
X173199822Y-108169825D01*
X173199698Y-108169963D01*
X173164463Y-108237501D01*
X173165737Y-108310498D01*
X173202716Y-108372725D01*
X173210035Y-108379121D01*
X173236010Y-108395605D01*
X173271603Y-108407073D01*
X173324747Y-108414388D01*
X173403372Y-108418415D01*
X173515410Y-108420017D01*
X173587066Y-108420179D01*
X173913393Y-108420179D01*
X173913393Y-108737679D01*
X173417979Y-108737679D01*
X173254414Y-108737965D01*
X173130203Y-108739134D01*
X173039345Y-108741654D01*
X172975840Y-108745992D01*
X172933687Y-108752614D01*
X172906884Y-108761987D01*
X172889431Y-108774579D01*
X172885033Y-108779152D01*
X172852560Y-108842526D01*
X172850184Y-108914624D01*
X172876825Y-108977135D01*
X172897903Y-108997196D01*
X172919830Y-109008240D01*
X172953805Y-109016785D01*
X173005202Y-109023129D01*
X173079395Y-109027572D01*
X173181759Y-109030413D01*
X173317667Y-109031952D01*
X173492495Y-109032487D01*
X173532020Y-109032500D01*
X173709776Y-109032384D01*
X173847758Y-109031742D01*
X173951544Y-109030134D01*
X174026717Y-109027121D01*
X174078859Y-109022263D01*
X174113549Y-109015121D01*
X174136370Y-109005254D01*
X174152903Y-108992223D01*
X174161973Y-108982866D01*
X174175626Y-108966294D01*
X174186292Y-108945764D01*
X174194340Y-108915893D01*
X174200136Y-108871298D01*
X174204047Y-108806594D01*
X174206443Y-108716397D01*
X174207690Y-108595324D01*
X174208156Y-108437990D01*
X174208214Y-108305568D01*
X174208071Y-108120012D01*
X174207394Y-107974342D01*
X174205808Y-107863088D01*
X174202939Y-107780778D01*
X174198413Y-107721943D01*
X174191856Y-107681111D01*
X174182894Y-107652812D01*
X174171153Y-107631575D01*
X174161211Y-107618148D01*
X174114208Y-107558393D01*
X173531257Y-107558393D01*
X173337257Y-107558780D01*
X173337257Y-107558780D01*
G37*
X173337257Y-107558780D02*
X173183858Y-107560617D01*
X173066305Y-107564911D01*
X172979844Y-107572672D01*
X172919720Y-107584910D01*
X172881180Y-107602635D01*
X172859468Y-107626856D01*
X172849830Y-107658582D01*
X172847512Y-107698823D01*
X172847500Y-107703575D01*
X172849512Y-107749091D01*
X172859025Y-107784269D01*
X172881249Y-107810528D01*
X172921398Y-107829289D01*
X172984684Y-107841973D01*
X173076318Y-107849999D01*
X173201513Y-107854789D01*
X173365481Y-107857761D01*
X173415737Y-107858420D01*
X173902053Y-107864554D01*
X173908855Y-107994955D01*
X173915656Y-108125357D01*
X173577861Y-108125357D01*
X173445893Y-108125844D01*
X173351663Y-108127903D01*
X173287555Y-108132432D01*
X173245956Y-108140330D01*
X173219250Y-108152495D01*
X173199822Y-108169825D01*
X173199698Y-108169963D01*
X173164463Y-108237501D01*
X173165737Y-108310498D01*
X173202716Y-108372725D01*
X173210035Y-108379121D01*
X173236010Y-108395605D01*
X173271603Y-108407073D01*
X173324747Y-108414388D01*
X173403372Y-108418415D01*
X173515410Y-108420017D01*
X173587066Y-108420179D01*
X173913393Y-108420179D01*
X173913393Y-108737679D01*
X173417979Y-108737679D01*
X173254414Y-108737965D01*
X173130203Y-108739134D01*
X173039345Y-108741654D01*
X172975840Y-108745992D01*
X172933687Y-108752614D01*
X172906884Y-108761987D01*
X172889431Y-108774579D01*
X172885033Y-108779152D01*
X172852560Y-108842526D01*
X172850184Y-108914624D01*
X172876825Y-108977135D01*
X172897903Y-108997196D01*
X172919830Y-109008240D01*
X172953805Y-109016785D01*
X173005202Y-109023129D01*
X173079395Y-109027572D01*
X173181759Y-109030413D01*
X173317667Y-109031952D01*
X173492495Y-109032487D01*
X173532020Y-109032500D01*
X173709776Y-109032384D01*
X173847758Y-109031742D01*
X173951544Y-109030134D01*
X174026717Y-109027121D01*
X174078859Y-109022263D01*
X174113549Y-109015121D01*
X174136370Y-109005254D01*
X174152903Y-108992223D01*
X174161973Y-108982866D01*
X174175626Y-108966294D01*
X174186292Y-108945764D01*
X174194340Y-108915893D01*
X174200136Y-108871298D01*
X174204047Y-108806594D01*
X174206443Y-108716397D01*
X174207690Y-108595324D01*
X174208156Y-108437990D01*
X174208214Y-108305568D01*
X174208071Y-108120012D01*
X174207394Y-107974342D01*
X174205808Y-107863088D01*
X174202939Y-107780778D01*
X174198413Y-107721943D01*
X174191856Y-107681111D01*
X174182894Y-107652812D01*
X174171153Y-107631575D01*
X174161211Y-107618148D01*
X174114208Y-107558393D01*
X173531257Y-107558393D01*
X173337257Y-107558780D01*
G36*
X176411835Y-107567195D02*
G01*
X176364493Y-107594967D01*
X176302592Y-107640385D01*
X176222923Y-107705589D01*
X176122280Y-107792717D01*
X175997452Y-107903910D01*
X175845232Y-108041307D01*
X175670982Y-108199276D01*
X175308125Y-108528327D01*
X175296785Y-108086665D01*
X175292691Y-107934634D01*
X175288742Y-107821417D01*
X175284062Y-107740480D01*
X175277779Y-107685293D01*
X175269018Y-107649322D01*
X175256906Y-107626035D01*
X175240569Y-107608899D01*
X175231907Y-107601698D01*
X175162537Y-107563623D01*
X175096527Y-107569190D01*
X175044164Y-107601717D01*
X174990625Y-107645042D01*
X174983966Y-108277759D01*
X174982123Y-108463841D01*
X174981185Y-108610021D01*
X174981477Y-108721751D01*
X174983323Y-108804482D01*
X174987050Y-108863666D01*
X174992980Y-108904753D01*
X175001440Y-108933196D01*
X175012753Y-108954445D01*
X175025300Y-108971488D01*
X175052444Y-109003095D01*
X175079453Y-109024046D01*
X175110070Y-109032088D01*
X175148043Y-109024965D01*
X175197118Y-109000426D01*
X175261040Y-108956214D01*
X175343555Y-108890076D01*
X175448410Y-108799759D01*
X175579351Y-108683008D01*
X175727678Y-108548859D01*
X176260625Y-108065429D01*
X176271964Y-108505647D01*
X176276065Y-108657401D01*
X176280025Y-108770354D01*
X176284721Y-108851052D01*
X176291033Y-108906041D01*
X176299837Y-108941865D01*
X176312012Y-108965070D01*
X176328437Y-108982201D01*
X176336843Y-108989183D01*
X176411134Y-109027534D01*
X176481332Y-109021749D01*
X176542461Y-108972745D01*
X176556445Y-108953030D01*
X176567344Y-108930006D01*
X176575541Y-108898149D01*
X176581420Y-108851935D01*
X176585364Y-108785840D01*
X176587756Y-108694339D01*
X176588979Y-108571911D01*
X176589418Y-108413029D01*
X176589464Y-108295446D01*
X176589317Y-108111533D01*
X176588619Y-107967452D01*
X176586987Y-107857680D01*
X176584039Y-107776693D01*
X176579389Y-107718968D01*
X176572657Y-107678981D01*
X176563457Y-107651207D01*
X176551406Y-107630123D01*
X176542461Y-107618148D01*
X176519786Y-107589780D01*
X176498595Y-107568362D01*
X176475678Y-107556032D01*
X176447828Y-107554930D01*
X176411835Y-107567195D01*
X176411835Y-107567195D01*
G37*
X176411835Y-107567195D02*
X176364493Y-107594967D01*
X176302592Y-107640385D01*
X176222923Y-107705589D01*
X176122280Y-107792717D01*
X175997452Y-107903910D01*
X175845232Y-108041307D01*
X175670982Y-108199276D01*
X175308125Y-108528327D01*
X175296785Y-108086665D01*
X175292691Y-107934634D01*
X175288742Y-107821417D01*
X175284062Y-107740480D01*
X175277779Y-107685293D01*
X175269018Y-107649322D01*
X175256906Y-107626035D01*
X175240569Y-107608899D01*
X175231907Y-107601698D01*
X175162537Y-107563623D01*
X175096527Y-107569190D01*
X175044164Y-107601717D01*
X174990625Y-107645042D01*
X174983966Y-108277759D01*
X174982123Y-108463841D01*
X174981185Y-108610021D01*
X174981477Y-108721751D01*
X174983323Y-108804482D01*
X174987050Y-108863666D01*
X174992980Y-108904753D01*
X175001440Y-108933196D01*
X175012753Y-108954445D01*
X175025300Y-108971488D01*
X175052444Y-109003095D01*
X175079453Y-109024046D01*
X175110070Y-109032088D01*
X175148043Y-109024965D01*
X175197118Y-109000426D01*
X175261040Y-108956214D01*
X175343555Y-108890076D01*
X175448410Y-108799759D01*
X175579351Y-108683008D01*
X175727678Y-108548859D01*
X176260625Y-108065429D01*
X176271964Y-108505647D01*
X176276065Y-108657401D01*
X176280025Y-108770354D01*
X176284721Y-108851052D01*
X176291033Y-108906041D01*
X176299837Y-108941865D01*
X176312012Y-108965070D01*
X176328437Y-108982201D01*
X176336843Y-108989183D01*
X176411134Y-109027534D01*
X176481332Y-109021749D01*
X176542461Y-108972745D01*
X176556445Y-108953030D01*
X176567344Y-108930006D01*
X176575541Y-108898149D01*
X176581420Y-108851935D01*
X176585364Y-108785840D01*
X176587756Y-108694339D01*
X176588979Y-108571911D01*
X176589418Y-108413029D01*
X176589464Y-108295446D01*
X176589317Y-108111533D01*
X176588619Y-107967452D01*
X176586987Y-107857680D01*
X176584039Y-107776693D01*
X176579389Y-107718968D01*
X176572657Y-107678981D01*
X176563457Y-107651207D01*
X176551406Y-107630123D01*
X176542461Y-107618148D01*
X176519786Y-107589780D01*
X176498595Y-107568362D01*
X176475678Y-107556032D01*
X176447828Y-107554930D01*
X176411835Y-107567195D01*
G36*
X177717573Y-107569506D02*
G01*
X177579928Y-107592602D01*
X177474214Y-107628505D01*
X177405440Y-107675778D01*
X177386699Y-107702748D01*
X177367641Y-107765475D01*
X177380466Y-107822222D01*
X177420953Y-107876035D01*
X177483862Y-107901210D01*
X177575143Y-107899165D01*
X177645744Y-107885526D01*
X177802626Y-107859540D01*
X177962954Y-107857070D01*
X178142409Y-107878163D01*
X178191978Y-107887100D01*
X178358843Y-107934146D01*
X178489386Y-108004129D01*
X178582176Y-108095856D01*
X178635781Y-108208134D01*
X178646868Y-108266182D01*
X178639611Y-108383953D01*
X178592759Y-108488150D01*
X178510582Y-108576742D01*
X178397349Y-108647698D01*
X178257329Y-108698987D01*
X178094791Y-108728579D01*
X177914005Y-108734443D01*
X177719238Y-108714548D01*
X177708241Y-108712672D01*
X177630774Y-108698243D01*
X177587822Y-108684306D01*
X177569205Y-108663626D01*
X177564744Y-108628970D01*
X177564643Y-108610618D01*
X177564643Y-108533571D01*
X177702205Y-108533571D01*
X177823682Y-108525250D01*
X177906581Y-108498732D01*
X177954814Y-108451689D01*
X177972296Y-108381790D01*
X177972510Y-108372667D01*
X177962281Y-108312922D01*
X177927208Y-108270261D01*
X177861930Y-108242029D01*
X177761090Y-108225571D01*
X177663415Y-108219520D01*
X177521451Y-108216048D01*
X177418477Y-108221346D01*
X177348247Y-108240893D01*
X177304514Y-108280173D01*
X177281030Y-108344666D01*
X177271549Y-108439854D01*
X177269821Y-108564875D01*
X177272652Y-108704423D01*
X177281167Y-108799347D01*
X177295406Y-108850024D01*
X177298169Y-108853993D01*
X177376350Y-108917316D01*
X177490975Y-108967462D01*
X177634780Y-109003362D01*
X177800496Y-109023944D01*
X177980858Y-109028137D01*
X178168598Y-109014869D01*
X178279018Y-108998572D01*
X178452208Y-108949551D01*
X178613174Y-108869410D01*
X178747944Y-108765398D01*
X178768428Y-108744609D01*
X178834981Y-108657213D01*
X178895031Y-108548898D01*
X178941564Y-108435340D01*
X178967563Y-108332217D01*
X178970696Y-108292611D01*
X178957356Y-108209994D01*
X178921900Y-108107203D01*
X178871131Y-107999006D01*
X178811852Y-107900169D01*
X178759479Y-107834152D01*
X178637026Y-107735952D01*
X178478732Y-107657792D01*
X178290269Y-107601439D01*
X178077310Y-107568663D01*
X177882143Y-107560654D01*
X177717573Y-107569506D01*
X177717573Y-107569506D01*
G37*
X177717573Y-107569506D02*
X177579928Y-107592602D01*
X177474214Y-107628505D01*
X177405440Y-107675778D01*
X177386699Y-107702748D01*
X177367641Y-107765475D01*
X177380466Y-107822222D01*
X177420953Y-107876035D01*
X177483862Y-107901210D01*
X177575143Y-107899165D01*
X177645744Y-107885526D01*
X177802626Y-107859540D01*
X177962954Y-107857070D01*
X178142409Y-107878163D01*
X178191978Y-107887100D01*
X178358843Y-107934146D01*
X178489386Y-108004129D01*
X178582176Y-108095856D01*
X178635781Y-108208134D01*
X178646868Y-108266182D01*
X178639611Y-108383953D01*
X178592759Y-108488150D01*
X178510582Y-108576742D01*
X178397349Y-108647698D01*
X178257329Y-108698987D01*
X178094791Y-108728579D01*
X177914005Y-108734443D01*
X177719238Y-108714548D01*
X177708241Y-108712672D01*
X177630774Y-108698243D01*
X177587822Y-108684306D01*
X177569205Y-108663626D01*
X177564744Y-108628970D01*
X177564643Y-108610618D01*
X177564643Y-108533571D01*
X177702205Y-108533571D01*
X177823682Y-108525250D01*
X177906581Y-108498732D01*
X177954814Y-108451689D01*
X177972296Y-108381790D01*
X177972510Y-108372667D01*
X177962281Y-108312922D01*
X177927208Y-108270261D01*
X177861930Y-108242029D01*
X177761090Y-108225571D01*
X177663415Y-108219520D01*
X177521451Y-108216048D01*
X177418477Y-108221346D01*
X177348247Y-108240893D01*
X177304514Y-108280173D01*
X177281030Y-108344666D01*
X177271549Y-108439854D01*
X177269821Y-108564875D01*
X177272652Y-108704423D01*
X177281167Y-108799347D01*
X177295406Y-108850024D01*
X177298169Y-108853993D01*
X177376350Y-108917316D01*
X177490975Y-108967462D01*
X177634780Y-109003362D01*
X177800496Y-109023944D01*
X177980858Y-109028137D01*
X178168598Y-109014869D01*
X178279018Y-108998572D01*
X178452208Y-108949551D01*
X178613174Y-108869410D01*
X178747944Y-108765398D01*
X178768428Y-108744609D01*
X178834981Y-108657213D01*
X178895031Y-108548898D01*
X178941564Y-108435340D01*
X178967563Y-108332217D01*
X178970696Y-108292611D01*
X178957356Y-108209994D01*
X178921900Y-108107203D01*
X178871131Y-107999006D01*
X178811852Y-107900169D01*
X178759479Y-107834152D01*
X178637026Y-107735952D01*
X178478732Y-107657792D01*
X178290269Y-107601439D01*
X178077310Y-107568663D01*
X177882143Y-107560654D01*
X177717573Y-107569506D01*
G36*
X179673750Y-107603750D02*
G01*
X179660529Y-107618964D01*
X179650159Y-107638591D01*
X179642293Y-107667888D01*
X179636587Y-107712113D01*
X179632697Y-107776524D01*
X179630278Y-107866378D01*
X179628984Y-107986934D01*
X179628472Y-108143448D01*
X179628393Y-108295446D01*
X179628533Y-108483978D01*
X179629182Y-108632410D01*
X179630686Y-108746001D01*
X179633389Y-108830009D01*
X179637636Y-108889690D01*
X179643772Y-108930302D01*
X179652141Y-108957104D01*
X179663089Y-108975353D01*
X179673750Y-108987143D01*
X179740051Y-109026680D01*
X179810696Y-109023131D01*
X179873904Y-108980011D01*
X179888427Y-108963177D01*
X179899777Y-108943644D01*
X179908345Y-108916015D01*
X179914522Y-108874889D01*
X179918698Y-108814868D01*
X179921265Y-108730551D01*
X179922612Y-108616540D01*
X179923132Y-108467434D01*
X179923214Y-108298623D01*
X179923214Y-107669724D01*
X179867548Y-107614058D01*
X179798934Y-107567225D01*
X179732377Y-107565538D01*
X179673750Y-107603750D01*
X179673750Y-107603750D01*
G37*
X179673750Y-107603750D02*
X179660529Y-107618964D01*
X179650159Y-107638591D01*
X179642293Y-107667888D01*
X179636587Y-107712113D01*
X179632697Y-107776524D01*
X179630278Y-107866378D01*
X179628984Y-107986934D01*
X179628472Y-108143448D01*
X179628393Y-108295446D01*
X179628533Y-108483978D01*
X179629182Y-108632410D01*
X179630686Y-108746001D01*
X179633389Y-108830009D01*
X179637636Y-108889690D01*
X179643772Y-108930302D01*
X179652141Y-108957104D01*
X179663089Y-108975353D01*
X179673750Y-108987143D01*
X179740051Y-109026680D01*
X179810696Y-109023131D01*
X179873904Y-108980011D01*
X179888427Y-108963177D01*
X179899777Y-108943644D01*
X179908345Y-108916015D01*
X179914522Y-108874889D01*
X179918698Y-108814868D01*
X179921265Y-108730551D01*
X179922612Y-108616540D01*
X179923132Y-108467434D01*
X179923214Y-108298623D01*
X179923214Y-107669724D01*
X179867548Y-107614058D01*
X179798934Y-107567225D01*
X179732377Y-107565538D01*
X179673750Y-107603750D01*
G36*
X181216366Y-107560973D02*
G01*
X181066068Y-107571480D01*
X180926283Y-107587891D01*
X180805137Y-107609587D01*
X180710754Y-107635950D01*
X180651261Y-107666364D01*
X180642129Y-107675317D01*
X180610375Y-107744788D01*
X180620004Y-107816108D01*
X180669257Y-107877127D01*
X180671607Y-107878875D01*
X180700577Y-107897676D01*
X180730819Y-107907562D01*
X180773001Y-107908763D01*
X180837792Y-107901507D01*
X180935861Y-107886024D01*
X180943750Y-107884721D01*
X181089877Y-107866769D01*
X181247534Y-107857913D01*
X181405656Y-107857827D01*
X181553180Y-107866185D01*
X181679040Y-107882659D01*
X181772172Y-107906923D01*
X181778291Y-107909362D01*
X181845855Y-107947217D01*
X181869593Y-107985527D01*
X181851010Y-108023204D01*
X181791611Y-108059160D01*
X181692901Y-108092306D01*
X181556385Y-108121554D01*
X181465357Y-108135636D01*
X181276138Y-108162723D01*
X181125645Y-108187484D01*
X181007466Y-108212063D01*
X180915191Y-108238605D01*
X180842410Y-108269253D01*
X180782710Y-108306152D01*
X180729682Y-108351445D01*
X180687069Y-108395923D01*
X180636514Y-108457895D01*
X180611635Y-108511184D01*
X180603854Y-108576839D01*
X180603571Y-108600883D01*
X180609415Y-108680671D01*
X180632771Y-108740030D01*
X180673193Y-108792716D01*
X180755344Y-108873254D01*
X180846952Y-108934674D01*
X180954824Y-108978979D01*
X181085765Y-109008172D01*
X181246584Y-109024256D01*
X181444086Y-109029233D01*
X181476696Y-109029149D01*
X181608401Y-109026419D01*
X181739015Y-109020216D01*
X181854301Y-109011430D01*
X181940020Y-109000950D01*
X181946953Y-108999747D01*
X182032179Y-108979558D01*
X182104467Y-108954055D01*
X182145390Y-108930739D01*
X182183474Y-108869229D01*
X182186125Y-108797602D01*
X182153295Y-108733771D01*
X182145950Y-108726553D01*
X182115588Y-108705107D01*
X182077618Y-108695867D01*
X182018852Y-108697440D01*
X181947512Y-108705613D01*
X181867797Y-108712914D01*
X181756049Y-108719074D01*
X181625592Y-108723544D01*
X181489746Y-108725776D01*
X181454018Y-108725923D01*
X181317666Y-108725373D01*
X181217876Y-108722726D01*
X181145868Y-108717063D01*
X181092860Y-108707466D01*
X181050073Y-108693017D01*
X181024360Y-108680982D01*
X180967857Y-108647565D01*
X180931833Y-108617301D01*
X180926568Y-108608722D01*
X180937675Y-108573296D01*
X180990477Y-108539001D01*
X181081316Y-108507394D01*
X181206532Y-108480031D01*
X181243424Y-108473936D01*
X181436118Y-108443670D01*
X181589904Y-108418373D01*
X181710717Y-108396206D01*
X181804495Y-108375330D01*
X181877171Y-108353907D01*
X181934683Y-108330099D01*
X181982965Y-108302068D01*
X182027953Y-108267975D01*
X182075583Y-108225982D01*
X182091611Y-108211259D01*
X182147806Y-108156314D01*
X182177552Y-108112781D01*
X182189189Y-108062965D01*
X182191071Y-108000189D01*
X182170351Y-107877085D01*
X182108429Y-107772491D01*
X182005659Y-107686745D01*
X181862398Y-107620184D01*
X181760178Y-107590329D01*
X181649083Y-107571047D01*
X181515999Y-107560139D01*
X181369052Y-107556987D01*
X181216366Y-107560973D01*
X181216366Y-107560973D01*
G37*
X181216366Y-107560973D02*
X181066068Y-107571480D01*
X180926283Y-107587891D01*
X180805137Y-107609587D01*
X180710754Y-107635950D01*
X180651261Y-107666364D01*
X180642129Y-107675317D01*
X180610375Y-107744788D01*
X180620004Y-107816108D01*
X180669257Y-107877127D01*
X180671607Y-107878875D01*
X180700577Y-107897676D01*
X180730819Y-107907562D01*
X180773001Y-107908763D01*
X180837792Y-107901507D01*
X180935861Y-107886024D01*
X180943750Y-107884721D01*
X181089877Y-107866769D01*
X181247534Y-107857913D01*
X181405656Y-107857827D01*
X181553180Y-107866185D01*
X181679040Y-107882659D01*
X181772172Y-107906923D01*
X181778291Y-107909362D01*
X181845855Y-107947217D01*
X181869593Y-107985527D01*
X181851010Y-108023204D01*
X181791611Y-108059160D01*
X181692901Y-108092306D01*
X181556385Y-108121554D01*
X181465357Y-108135636D01*
X181276138Y-108162723D01*
X181125645Y-108187484D01*
X181007466Y-108212063D01*
X180915191Y-108238605D01*
X180842410Y-108269253D01*
X180782710Y-108306152D01*
X180729682Y-108351445D01*
X180687069Y-108395923D01*
X180636514Y-108457895D01*
X180611635Y-108511184D01*
X180603854Y-108576839D01*
X180603571Y-108600883D01*
X180609415Y-108680671D01*
X180632771Y-108740030D01*
X180673193Y-108792716D01*
X180755344Y-108873254D01*
X180846952Y-108934674D01*
X180954824Y-108978979D01*
X181085765Y-109008172D01*
X181246584Y-109024256D01*
X181444086Y-109029233D01*
X181476696Y-109029149D01*
X181608401Y-109026419D01*
X181739015Y-109020216D01*
X181854301Y-109011430D01*
X181940020Y-109000950D01*
X181946953Y-108999747D01*
X182032179Y-108979558D01*
X182104467Y-108954055D01*
X182145390Y-108930739D01*
X182183474Y-108869229D01*
X182186125Y-108797602D01*
X182153295Y-108733771D01*
X182145950Y-108726553D01*
X182115588Y-108705107D01*
X182077618Y-108695867D01*
X182018852Y-108697440D01*
X181947512Y-108705613D01*
X181867797Y-108712914D01*
X181756049Y-108719074D01*
X181625592Y-108723544D01*
X181489746Y-108725776D01*
X181454018Y-108725923D01*
X181317666Y-108725373D01*
X181217876Y-108722726D01*
X181145868Y-108717063D01*
X181092860Y-108707466D01*
X181050073Y-108693017D01*
X181024360Y-108680982D01*
X180967857Y-108647565D01*
X180931833Y-108617301D01*
X180926568Y-108608722D01*
X180937675Y-108573296D01*
X180990477Y-108539001D01*
X181081316Y-108507394D01*
X181206532Y-108480031D01*
X181243424Y-108473936D01*
X181436118Y-108443670D01*
X181589904Y-108418373D01*
X181710717Y-108396206D01*
X181804495Y-108375330D01*
X181877171Y-108353907D01*
X181934683Y-108330099D01*
X181982965Y-108302068D01*
X182027953Y-108267975D01*
X182075583Y-108225982D01*
X182091611Y-108211259D01*
X182147806Y-108156314D01*
X182177552Y-108112781D01*
X182189189Y-108062965D01*
X182191071Y-108000189D01*
X182170351Y-107877085D01*
X182108429Y-107772491D01*
X182005659Y-107686745D01*
X181862398Y-107620184D01*
X181760178Y-107590329D01*
X181649083Y-107571047D01*
X181515999Y-107560139D01*
X181369052Y-107556987D01*
X181216366Y-107560973D01*
G36*
X183267666Y-107558552D02*
G01*
X183128230Y-107559300D01*
X183022983Y-107561040D01*
X182946344Y-107564177D01*
X182892730Y-107569113D01*
X182856557Y-107576253D01*
X182832241Y-107586001D01*
X182814201Y-107598761D01*
X182807669Y-107604633D01*
X182767942Y-107667027D01*
X182760789Y-107738718D01*
X182786923Y-107802364D01*
X182799007Y-107815227D01*
X182818552Y-107827698D01*
X182850023Y-107837320D01*
X182899256Y-107844559D01*
X182972086Y-107849883D01*
X183074349Y-107853762D01*
X183211882Y-107856664D01*
X183337623Y-107858429D01*
X183835268Y-107864554D01*
X183842069Y-107994955D01*
X183848870Y-108125357D01*
X183511075Y-108125357D01*
X183364426Y-108126622D01*
X183257064Y-108131914D01*
X183182957Y-108143478D01*
X183136069Y-108163558D01*
X183110367Y-108194398D01*
X183099816Y-108238244D01*
X183098214Y-108278937D01*
X183103193Y-108328868D01*
X183121984Y-108365660D01*
X183160367Y-108391235D01*
X183224120Y-108407516D01*
X183319024Y-108416426D01*
X183450858Y-108419887D01*
X183522814Y-108420179D01*
X183846607Y-108420179D01*
X183846607Y-108737679D01*
X183347678Y-108737679D01*
X183184133Y-108737906D01*
X183059837Y-108738929D01*
X182968686Y-108741256D01*
X182904572Y-108745395D01*
X182861390Y-108751857D01*
X182833033Y-108761148D01*
X182813395Y-108773779D01*
X182803393Y-108783036D01*
X182769082Y-108837063D01*
X182758035Y-108885089D01*
X182773809Y-108943751D01*
X182803393Y-108987143D01*
X182819176Y-109000803D01*
X182839551Y-109011410D01*
X182869998Y-109019348D01*
X182915997Y-109025003D01*
X182983030Y-109028759D01*
X183076578Y-109031000D01*
X183202120Y-109032111D01*
X183365138Y-109032476D01*
X183449732Y-109032500D01*
X183630888Y-109032340D01*
X183772168Y-109031602D01*
X183879052Y-109029904D01*
X183957022Y-109026859D01*
X184011559Y-109022083D01*
X184048142Y-109015192D01*
X184072253Y-109005801D01*
X184089373Y-108993525D01*
X184096071Y-108987143D01*
X184109328Y-108971882D01*
X184119719Y-108952193D01*
X184127591Y-108922801D01*
X184133293Y-108878430D01*
X184137172Y-108813803D01*
X184139577Y-108723644D01*
X184140856Y-108602678D01*
X184141355Y-108445628D01*
X184141428Y-108299400D01*
X184141361Y-108112134D01*
X184140890Y-107964928D01*
X184139613Y-107852482D01*
X184137129Y-107769499D01*
X184133036Y-107710680D01*
X184126931Y-107670727D01*
X184118412Y-107644341D01*
X184107078Y-107626225D01*
X184092525Y-107611080D01*
X184088940Y-107607703D01*
X184071541Y-107592755D01*
X184051325Y-107581180D01*
X184022684Y-107572545D01*
X183980009Y-107566422D01*
X183917695Y-107562379D01*
X183830132Y-107559986D01*
X183711713Y-107558811D01*
X183556831Y-107558425D01*
X183446877Y-107558393D01*
X183267666Y-107558552D01*
X183267666Y-107558552D01*
G37*
X183267666Y-107558552D02*
X183128230Y-107559300D01*
X183022983Y-107561040D01*
X182946344Y-107564177D01*
X182892730Y-107569113D01*
X182856557Y-107576253D01*
X182832241Y-107586001D01*
X182814201Y-107598761D01*
X182807669Y-107604633D01*
X182767942Y-107667027D01*
X182760789Y-107738718D01*
X182786923Y-107802364D01*
X182799007Y-107815227D01*
X182818552Y-107827698D01*
X182850023Y-107837320D01*
X182899256Y-107844559D01*
X182972086Y-107849883D01*
X183074349Y-107853762D01*
X183211882Y-107856664D01*
X183337623Y-107858429D01*
X183835268Y-107864554D01*
X183842069Y-107994955D01*
X183848870Y-108125357D01*
X183511075Y-108125357D01*
X183364426Y-108126622D01*
X183257064Y-108131914D01*
X183182957Y-108143478D01*
X183136069Y-108163558D01*
X183110367Y-108194398D01*
X183099816Y-108238244D01*
X183098214Y-108278937D01*
X183103193Y-108328868D01*
X183121984Y-108365660D01*
X183160367Y-108391235D01*
X183224120Y-108407516D01*
X183319024Y-108416426D01*
X183450858Y-108419887D01*
X183522814Y-108420179D01*
X183846607Y-108420179D01*
X183846607Y-108737679D01*
X183347678Y-108737679D01*
X183184133Y-108737906D01*
X183059837Y-108738929D01*
X182968686Y-108741256D01*
X182904572Y-108745395D01*
X182861390Y-108751857D01*
X182833033Y-108761148D01*
X182813395Y-108773779D01*
X182803393Y-108783036D01*
X182769082Y-108837063D01*
X182758035Y-108885089D01*
X182773809Y-108943751D01*
X182803393Y-108987143D01*
X182819176Y-109000803D01*
X182839551Y-109011410D01*
X182869998Y-109019348D01*
X182915997Y-109025003D01*
X182983030Y-109028759D01*
X183076578Y-109031000D01*
X183202120Y-109032111D01*
X183365138Y-109032476D01*
X183449732Y-109032500D01*
X183630888Y-109032340D01*
X183772168Y-109031602D01*
X183879052Y-109029904D01*
X183957022Y-109026859D01*
X184011559Y-109022083D01*
X184048142Y-109015192D01*
X184072253Y-109005801D01*
X184089373Y-108993525D01*
X184096071Y-108987143D01*
X184109328Y-108971882D01*
X184119719Y-108952193D01*
X184127591Y-108922801D01*
X184133293Y-108878430D01*
X184137172Y-108813803D01*
X184139577Y-108723644D01*
X184140856Y-108602678D01*
X184141355Y-108445628D01*
X184141428Y-108299400D01*
X184141361Y-108112134D01*
X184140890Y-107964928D01*
X184139613Y-107852482D01*
X184137129Y-107769499D01*
X184133036Y-107710680D01*
X184126931Y-107670727D01*
X184118412Y-107644341D01*
X184107078Y-107626225D01*
X184092525Y-107611080D01*
X184088940Y-107607703D01*
X184071541Y-107592755D01*
X184051325Y-107581180D01*
X184022684Y-107572545D01*
X183980009Y-107566422D01*
X183917695Y-107562379D01*
X183830132Y-107559986D01*
X183711713Y-107558811D01*
X183556831Y-107558425D01*
X183446877Y-107558393D01*
X183267666Y-107558552D01*
G36*
X186097397Y-107558391D02*
G01*
X186018080Y-107559197D01*
X185785669Y-107564805D01*
X185591026Y-107581462D01*
X185427516Y-107610957D01*
X185288506Y-107655074D01*
X185167361Y-107715602D01*
X185057449Y-107794327D01*
X185018191Y-107828525D01*
X184953069Y-107908542D01*
X184894348Y-108017123D01*
X184849089Y-108137480D01*
X184824355Y-108252824D01*
X184821785Y-108295446D01*
X184837890Y-108413599D01*
X184881047Y-108542659D01*
X184943524Y-108664819D01*
X185017587Y-108762269D01*
X185029617Y-108774027D01*
X185131519Y-108856671D01*
X185243108Y-108921186D01*
X185370818Y-108969260D01*
X185521082Y-109002584D01*
X185700334Y-109022849D01*
X185915007Y-109031746D01*
X186013337Y-109032500D01*
X186138360Y-109031898D01*
X186226282Y-109029381D01*
X186285353Y-109023881D01*
X186323820Y-109014332D01*
X186349932Y-108999666D01*
X186363928Y-108987143D01*
X186377149Y-108971929D01*
X186387520Y-108952302D01*
X186395385Y-108923005D01*
X186401091Y-108878780D01*
X186404981Y-108814369D01*
X186407400Y-108724514D01*
X186408694Y-108603959D01*
X186409206Y-108447444D01*
X186409285Y-108295446D01*
X186409785Y-108092717D01*
X186409677Y-107930768D01*
X186407748Y-107853214D01*
X186114464Y-107853214D01*
X186114464Y-108737679D01*
X185927366Y-108737507D01*
X185814784Y-108734278D01*
X185696872Y-108725960D01*
X185598493Y-108714325D01*
X185595500Y-108713846D01*
X185436500Y-108675404D01*
X185313174Y-108615533D01*
X185219363Y-108530335D01*
X185159757Y-108438091D01*
X185123030Y-108335766D01*
X185125878Y-108239686D01*
X185168502Y-108136696D01*
X185251874Y-108030153D01*
X185367406Y-107951204D01*
X185517577Y-107898433D01*
X185617939Y-107879758D01*
X185731863Y-107866643D01*
X185852605Y-107857150D01*
X185955301Y-107853204D01*
X185961384Y-107853185D01*
X186114464Y-107853214D01*
X186407748Y-107853214D01*
X186406549Y-107805059D01*
X186397986Y-107711048D01*
X186381578Y-107644197D01*
X186354910Y-107599963D01*
X186315571Y-107573806D01*
X186261148Y-107561186D01*
X186189227Y-107557561D01*
X186097397Y-107558391D01*
X186097397Y-107558391D01*
G37*
X186097397Y-107558391D02*
X186018080Y-107559197D01*
X185785669Y-107564805D01*
X185591026Y-107581462D01*
X185427516Y-107610957D01*
X185288506Y-107655074D01*
X185167361Y-107715602D01*
X185057449Y-107794327D01*
X185018191Y-107828525D01*
X184953069Y-107908542D01*
X184894348Y-108017123D01*
X184849089Y-108137480D01*
X184824355Y-108252824D01*
X184821785Y-108295446D01*
X184837890Y-108413599D01*
X184881047Y-108542659D01*
X184943524Y-108664819D01*
X185017587Y-108762269D01*
X185029617Y-108774027D01*
X185131519Y-108856671D01*
X185243108Y-108921186D01*
X185370818Y-108969260D01*
X185521082Y-109002584D01*
X185700334Y-109022849D01*
X185915007Y-109031746D01*
X186013337Y-109032500D01*
X186138360Y-109031898D01*
X186226282Y-109029381D01*
X186285353Y-109023881D01*
X186323820Y-109014332D01*
X186349932Y-108999666D01*
X186363928Y-108987143D01*
X186377149Y-108971929D01*
X186387520Y-108952302D01*
X186395385Y-108923005D01*
X186401091Y-108878780D01*
X186404981Y-108814369D01*
X186407400Y-108724514D01*
X186408694Y-108603959D01*
X186409206Y-108447444D01*
X186409285Y-108295446D01*
X186409785Y-108092717D01*
X186409677Y-107930768D01*
X186407748Y-107853214D01*
X186114464Y-107853214D01*
X186114464Y-108737679D01*
X185927366Y-108737507D01*
X185814784Y-108734278D01*
X185696872Y-108725960D01*
X185598493Y-108714325D01*
X185595500Y-108713846D01*
X185436500Y-108675404D01*
X185313174Y-108615533D01*
X185219363Y-108530335D01*
X185159757Y-108438091D01*
X185123030Y-108335766D01*
X185125878Y-108239686D01*
X185168502Y-108136696D01*
X185251874Y-108030153D01*
X185367406Y-107951204D01*
X185517577Y-107898433D01*
X185617939Y-107879758D01*
X185731863Y-107866643D01*
X185852605Y-107857150D01*
X185955301Y-107853204D01*
X185961384Y-107853185D01*
X186114464Y-107853214D01*
X186407748Y-107853214D01*
X186406549Y-107805059D01*
X186397986Y-107711048D01*
X186381578Y-107644197D01*
X186354910Y-107599963D01*
X186315571Y-107573806D01*
X186261148Y-107561186D01*
X186189227Y-107557561D01*
X186097397Y-107558391D01*
M02*
