G04 #@! TF.GenerationSoftware,KiCad,Pcbnew,5.1.2-f72e74a~84~ubuntu18.04.1*
G04 #@! TF.CreationDate,2019-05-12T20:09:00+01:00*
G04 #@! TF.ProjectId,cutoff-hardware,6375746f-6666-42d6-9861-726477617265,1.1*
G04 #@! TF.SameCoordinates,Original*
G04 #@! TF.FileFunction,Legend,Top*
G04 #@! TF.FilePolarity,Positive*
%FSLAX46Y46*%
G04 Gerber Fmt 4.6, Leading zero omitted, Abs format (unit mm)*
G04 Created by KiCad (PCBNEW 5.1.2-f72e74a~84~ubuntu18.04.1) date 2019-05-12 20:09:00*
%MOMM*%
%LPD*%
G04 APERTURE LIST*
%ADD10C,0.200000*%
%ADD11C,0.300000*%
%ADD12C,0.150000*%
%ADD13C,0.120000*%
%ADD14C,0.010000*%
G04 APERTURE END LIST*
D10*
X128957142Y-105842857D02*
X128957142Y-106700000D01*
X128900000Y-106871428D01*
X128785714Y-106985714D01*
X128614285Y-107042857D01*
X128500000Y-107042857D01*
X130100000Y-107042857D02*
X129528571Y-107042857D01*
X129528571Y-105842857D01*
X131185714Y-106928571D02*
X131128571Y-106985714D01*
X130957142Y-107042857D01*
X130842857Y-107042857D01*
X130671428Y-106985714D01*
X130557142Y-106871428D01*
X130500000Y-106757142D01*
X130442857Y-106528571D01*
X130442857Y-106357142D01*
X130500000Y-106128571D01*
X130557142Y-106014285D01*
X130671428Y-105900000D01*
X130842857Y-105842857D01*
X130957142Y-105842857D01*
X131128571Y-105900000D01*
X131185714Y-105957142D01*
X132042857Y-105842857D02*
X132042857Y-106700000D01*
X131985714Y-106871428D01*
X131871428Y-106985714D01*
X131700000Y-107042857D01*
X131585714Y-107042857D01*
X133185714Y-107042857D02*
X132614285Y-107042857D01*
X132614285Y-105842857D01*
X134271428Y-106928571D02*
X134214285Y-106985714D01*
X134042857Y-107042857D01*
X133928571Y-107042857D01*
X133757142Y-106985714D01*
X133642857Y-106871428D01*
X133585714Y-106757142D01*
X133528571Y-106528571D01*
X133528571Y-106357142D01*
X133585714Y-106128571D01*
X133642857Y-106014285D01*
X133757142Y-105900000D01*
X133928571Y-105842857D01*
X134042857Y-105842857D01*
X134214285Y-105900000D01*
X134271428Y-105957142D01*
X135128571Y-105842857D02*
X135128571Y-106700000D01*
X135071428Y-106871428D01*
X134957142Y-106985714D01*
X134785714Y-107042857D01*
X134671428Y-107042857D01*
X136271428Y-107042857D02*
X135700000Y-107042857D01*
X135700000Y-105842857D01*
X137357142Y-106928571D02*
X137300000Y-106985714D01*
X137128571Y-107042857D01*
X137014285Y-107042857D01*
X136842857Y-106985714D01*
X136728571Y-106871428D01*
X136671428Y-106757142D01*
X136614285Y-106528571D01*
X136614285Y-106357142D01*
X136671428Y-106128571D01*
X136728571Y-106014285D01*
X136842857Y-105900000D01*
X137014285Y-105842857D01*
X137128571Y-105842857D01*
X137300000Y-105900000D01*
X137357142Y-105957142D01*
X138214285Y-105842857D02*
X138214285Y-106700000D01*
X138157142Y-106871428D01*
X138042857Y-106985714D01*
X137871428Y-107042857D01*
X137757142Y-107042857D01*
X139357142Y-107042857D02*
X138785714Y-107042857D01*
X138785714Y-105842857D01*
X140442857Y-106928571D02*
X140385714Y-106985714D01*
X140214285Y-107042857D01*
X140100000Y-107042857D01*
X139928571Y-106985714D01*
X139814285Y-106871428D01*
X139757142Y-106757142D01*
X139700000Y-106528571D01*
X139700000Y-106357142D01*
X139757142Y-106128571D01*
X139814285Y-106014285D01*
X139928571Y-105900000D01*
X140100000Y-105842857D01*
X140214285Y-105842857D01*
X140385714Y-105900000D01*
X140442857Y-105957142D01*
D11*
X138957142Y-75550000D02*
X138814285Y-75478571D01*
X138600000Y-75478571D01*
X138385714Y-75550000D01*
X138242857Y-75692857D01*
X138171428Y-75835714D01*
X138100000Y-76121428D01*
X138100000Y-76335714D01*
X138171428Y-76621428D01*
X138242857Y-76764285D01*
X138385714Y-76907142D01*
X138600000Y-76978571D01*
X138742857Y-76978571D01*
X138957142Y-76907142D01*
X139028571Y-76835714D01*
X139028571Y-76335714D01*
X138742857Y-76335714D01*
X139671428Y-76978571D02*
X139671428Y-75478571D01*
X140528571Y-76978571D01*
X140528571Y-75478571D01*
X141242857Y-76978571D02*
X141242857Y-75478571D01*
X141600000Y-75478571D01*
X141814285Y-75550000D01*
X141957142Y-75692857D01*
X142028571Y-75835714D01*
X142100000Y-76121428D01*
X142100000Y-76335714D01*
X142028571Y-76621428D01*
X141957142Y-76764285D01*
X141814285Y-76907142D01*
X141600000Y-76978571D01*
X141242857Y-76978571D01*
X127671428Y-76407142D02*
X128814285Y-76407142D01*
X128242857Y-76978571D02*
X128242857Y-75835714D01*
X130171428Y-75478571D02*
X129885714Y-75478571D01*
X129742857Y-75550000D01*
X129671428Y-75621428D01*
X129528571Y-75835714D01*
X129457142Y-76121428D01*
X129457142Y-76692857D01*
X129528571Y-76835714D01*
X129600000Y-76907142D01*
X129742857Y-76978571D01*
X130028571Y-76978571D01*
X130171428Y-76907142D01*
X130242857Y-76835714D01*
X130314285Y-76692857D01*
X130314285Y-76335714D01*
X130242857Y-76192857D01*
X130171428Y-76121428D01*
X130028571Y-76050000D01*
X129742857Y-76050000D01*
X129600000Y-76121428D01*
X129528571Y-76192857D01*
X129457142Y-76335714D01*
X130742857Y-75478571D02*
X131242857Y-76978571D01*
X131742857Y-75478571D01*
D12*
X191661904Y-99528571D02*
X191804761Y-99576190D01*
X191852380Y-99623809D01*
X191900000Y-99719047D01*
X191900000Y-99861904D01*
X191852380Y-99957142D01*
X191804761Y-100004761D01*
X191709523Y-100052380D01*
X191328571Y-100052380D01*
X191328571Y-99052380D01*
X191661904Y-99052380D01*
X191757142Y-99100000D01*
X191804761Y-99147619D01*
X191852380Y-99242857D01*
X191852380Y-99338095D01*
X191804761Y-99433333D01*
X191757142Y-99480952D01*
X191661904Y-99528571D01*
X191328571Y-99528571D01*
X192280952Y-99766666D02*
X192757142Y-99766666D01*
X192185714Y-100052380D02*
X192519047Y-99052380D01*
X192852380Y-100052380D01*
X193042857Y-99052380D02*
X193614285Y-99052380D01*
X193328571Y-100052380D02*
X193328571Y-99052380D01*
X193804761Y-99052380D02*
X194376190Y-99052380D01*
X194090476Y-100052380D02*
X194090476Y-99052380D01*
X194709523Y-99671428D02*
X195471428Y-99671428D01*
X154404761Y-111828571D02*
X154738095Y-111828571D01*
X154880952Y-112352380D02*
X154404761Y-112352380D01*
X154404761Y-111352380D01*
X154880952Y-111352380D01*
X155261904Y-112304761D02*
X155404761Y-112352380D01*
X155642857Y-112352380D01*
X155738095Y-112304761D01*
X155785714Y-112257142D01*
X155833333Y-112161904D01*
X155833333Y-112066666D01*
X155785714Y-111971428D01*
X155738095Y-111923809D01*
X155642857Y-111876190D01*
X155452380Y-111828571D01*
X155357142Y-111780952D01*
X155309523Y-111733333D01*
X155261904Y-111638095D01*
X155261904Y-111542857D01*
X155309523Y-111447619D01*
X155357142Y-111400000D01*
X155452380Y-111352380D01*
X155690476Y-111352380D01*
X155833333Y-111400000D01*
X156833333Y-112257142D02*
X156785714Y-112304761D01*
X156642857Y-112352380D01*
X156547619Y-112352380D01*
X156404761Y-112304761D01*
X156309523Y-112209523D01*
X156261904Y-112114285D01*
X156214285Y-111923809D01*
X156214285Y-111780952D01*
X156261904Y-111590476D01*
X156309523Y-111495238D01*
X156404761Y-111400000D01*
X156547619Y-111352380D01*
X156642857Y-111352380D01*
X156785714Y-111400000D01*
X156833333Y-111447619D01*
X158547619Y-111400000D02*
X158452380Y-111352380D01*
X158309523Y-111352380D01*
X158166666Y-111400000D01*
X158071428Y-111495238D01*
X158023809Y-111590476D01*
X157976190Y-111780952D01*
X157976190Y-111923809D01*
X158023809Y-112114285D01*
X158071428Y-112209523D01*
X158166666Y-112304761D01*
X158309523Y-112352380D01*
X158404761Y-112352380D01*
X158547619Y-112304761D01*
X158595238Y-112257142D01*
X158595238Y-111923809D01*
X158404761Y-111923809D01*
X159023809Y-112352380D02*
X159023809Y-111352380D01*
X159595238Y-112352380D01*
X159595238Y-111352380D01*
X160071428Y-112352380D02*
X160071428Y-111352380D01*
X160309523Y-111352380D01*
X160452380Y-111400000D01*
X160547619Y-111495238D01*
X160595238Y-111590476D01*
X160642857Y-111780952D01*
X160642857Y-111923809D01*
X160595238Y-112114285D01*
X160547619Y-112209523D01*
X160452380Y-112304761D01*
X160309523Y-112352380D01*
X160071428Y-112352380D01*
X111160000Y-112602500D02*
X111160000Y-111602500D01*
X112527380Y-111792976D02*
X112051190Y-112126309D01*
X112527380Y-112364404D02*
X111527380Y-112364404D01*
X111527380Y-111983452D01*
X111575000Y-111888214D01*
X111622619Y-111840595D01*
X111717857Y-111792976D01*
X111860714Y-111792976D01*
X111955952Y-111840595D01*
X112003571Y-111888214D01*
X112051190Y-111983452D01*
X112051190Y-112364404D01*
X111160000Y-111602500D02*
X111160000Y-110697738D01*
X112003571Y-111364404D02*
X112003571Y-111031071D01*
X112527380Y-110888214D02*
X112527380Y-111364404D01*
X111527380Y-111364404D01*
X111527380Y-110888214D01*
X111160000Y-110697738D02*
X111160000Y-109745357D01*
X112479761Y-110507261D02*
X112527380Y-110364404D01*
X112527380Y-110126309D01*
X112479761Y-110031071D01*
X112432142Y-109983452D01*
X112336904Y-109935833D01*
X112241666Y-109935833D01*
X112146428Y-109983452D01*
X112098809Y-110031071D01*
X112051190Y-110126309D01*
X112003571Y-110316785D01*
X111955952Y-110412023D01*
X111908333Y-110459642D01*
X111813095Y-110507261D01*
X111717857Y-110507261D01*
X111622619Y-110459642D01*
X111575000Y-110412023D01*
X111527380Y-110316785D01*
X111527380Y-110078690D01*
X111575000Y-109935833D01*
X111160000Y-109745357D02*
X111160000Y-108840595D01*
X112003571Y-109507261D02*
X112003571Y-109173928D01*
X112527380Y-109031071D02*
X112527380Y-109507261D01*
X111527380Y-109507261D01*
X111527380Y-109031071D01*
X111160000Y-108840595D02*
X111160000Y-108078690D01*
X111527380Y-108745357D02*
X111527380Y-108173928D01*
X112527380Y-108459642D02*
X111527380Y-108459642D01*
X113796428Y-112364404D02*
X113796428Y-111602500D01*
X114177380Y-111983452D02*
X113415476Y-111983452D01*
X113177380Y-110650119D02*
X113177380Y-111126309D01*
X113653571Y-111173928D01*
X113605952Y-111126309D01*
X113558333Y-111031071D01*
X113558333Y-110792976D01*
X113605952Y-110697738D01*
X113653571Y-110650119D01*
X113748809Y-110602500D01*
X113986904Y-110602500D01*
X114082142Y-110650119D01*
X114129761Y-110697738D01*
X114177380Y-110792976D01*
X114177380Y-111031071D01*
X114129761Y-111126309D01*
X114082142Y-111173928D01*
X113177380Y-110316785D02*
X114177380Y-109983452D01*
X113177380Y-109650119D01*
X114875000Y-111840595D02*
X114827380Y-111935833D01*
X114827380Y-112078690D01*
X114875000Y-112221547D01*
X114970238Y-112316785D01*
X115065476Y-112364404D01*
X115255952Y-112412023D01*
X115398809Y-112412023D01*
X115589285Y-112364404D01*
X115684523Y-112316785D01*
X115779761Y-112221547D01*
X115827380Y-112078690D01*
X115827380Y-111983452D01*
X115779761Y-111840595D01*
X115732142Y-111792976D01*
X115398809Y-111792976D01*
X115398809Y-111983452D01*
X115827380Y-111364404D02*
X114827380Y-111364404D01*
X115827380Y-110792976D01*
X114827380Y-110792976D01*
X115827380Y-110316785D02*
X114827380Y-110316785D01*
X114827380Y-110078690D01*
X114875000Y-109935833D01*
X114970238Y-109840595D01*
X115065476Y-109792976D01*
X115255952Y-109745357D01*
X115398809Y-109745357D01*
X115589285Y-109792976D01*
X115684523Y-109840595D01*
X115779761Y-109935833D01*
X115827380Y-110078690D01*
X115827380Y-110316785D01*
X117477380Y-112364404D02*
X116477380Y-112364404D01*
X117191666Y-112031071D01*
X116477380Y-111697738D01*
X117477380Y-111697738D01*
X117477380Y-111221547D02*
X116477380Y-111221547D01*
X117429761Y-110792976D02*
X117477380Y-110650119D01*
X117477380Y-110412023D01*
X117429761Y-110316785D01*
X117382142Y-110269166D01*
X117286904Y-110221547D01*
X117191666Y-110221547D01*
X117096428Y-110269166D01*
X117048809Y-110316785D01*
X117001190Y-110412023D01*
X116953571Y-110602500D01*
X116905952Y-110697738D01*
X116858333Y-110745357D01*
X116763095Y-110792976D01*
X116667857Y-110792976D01*
X116572619Y-110745357D01*
X116525000Y-110697738D01*
X116477380Y-110602500D01*
X116477380Y-110364404D01*
X116525000Y-110221547D01*
X116477380Y-109602500D02*
X116477380Y-109412023D01*
X116525000Y-109316785D01*
X116620238Y-109221547D01*
X116810714Y-109173928D01*
X117144047Y-109173928D01*
X117334523Y-109221547D01*
X117429761Y-109316785D01*
X117477380Y-109412023D01*
X117477380Y-109602500D01*
X117429761Y-109697738D01*
X117334523Y-109792976D01*
X117144047Y-109840595D01*
X116810714Y-109840595D01*
X116620238Y-109792976D01*
X116525000Y-109697738D01*
X116477380Y-109602500D01*
X119079761Y-112412023D02*
X119127380Y-112269166D01*
X119127380Y-112031071D01*
X119079761Y-111935833D01*
X119032142Y-111888214D01*
X118936904Y-111840595D01*
X118841666Y-111840595D01*
X118746428Y-111888214D01*
X118698809Y-111935833D01*
X118651190Y-112031071D01*
X118603571Y-112221547D01*
X118555952Y-112316785D01*
X118508333Y-112364404D01*
X118413095Y-112412023D01*
X118317857Y-112412023D01*
X118222619Y-112364404D01*
X118175000Y-112316785D01*
X118127380Y-112221547D01*
X118127380Y-111983452D01*
X118175000Y-111840595D01*
X119032142Y-110840595D02*
X119079761Y-110888214D01*
X119127380Y-111031071D01*
X119127380Y-111126309D01*
X119079761Y-111269166D01*
X118984523Y-111364404D01*
X118889285Y-111412023D01*
X118698809Y-111459642D01*
X118555952Y-111459642D01*
X118365476Y-111412023D01*
X118270238Y-111364404D01*
X118175000Y-111269166D01*
X118127380Y-111126309D01*
X118127380Y-111031071D01*
X118175000Y-110888214D01*
X118222619Y-110840595D01*
X119127380Y-110412023D02*
X118127380Y-110412023D01*
X119127380Y-109840595D02*
X118555952Y-110269166D01*
X118127380Y-109840595D02*
X118698809Y-110412023D01*
X120777380Y-112364404D02*
X119777380Y-112364404D01*
X120491666Y-112031071D01*
X119777380Y-111697738D01*
X120777380Y-111697738D01*
X119777380Y-111031071D02*
X119777380Y-110840595D01*
X119825000Y-110745357D01*
X119920238Y-110650119D01*
X120110714Y-110602500D01*
X120444047Y-110602500D01*
X120634523Y-110650119D01*
X120729761Y-110745357D01*
X120777380Y-110840595D01*
X120777380Y-111031071D01*
X120729761Y-111126309D01*
X120634523Y-111221547D01*
X120444047Y-111269166D01*
X120110714Y-111269166D01*
X119920238Y-111221547D01*
X119825000Y-111126309D01*
X119777380Y-111031071D01*
X120729761Y-110221547D02*
X120777380Y-110078690D01*
X120777380Y-109840595D01*
X120729761Y-109745357D01*
X120682142Y-109697738D01*
X120586904Y-109650119D01*
X120491666Y-109650119D01*
X120396428Y-109697738D01*
X120348809Y-109745357D01*
X120301190Y-109840595D01*
X120253571Y-110031071D01*
X120205952Y-110126309D01*
X120158333Y-110173928D01*
X120063095Y-110221547D01*
X119967857Y-110221547D01*
X119872619Y-110173928D01*
X119825000Y-110126309D01*
X119777380Y-110031071D01*
X119777380Y-109792976D01*
X119825000Y-109650119D01*
X120777380Y-109221547D02*
X119777380Y-109221547D01*
D11*
X159847619Y-99265476D02*
X160561904Y-99265476D01*
X160204761Y-100515476D02*
X160204761Y-99265476D01*
X161454761Y-100455952D02*
X161335714Y-100515476D01*
X161097619Y-100515476D01*
X160978571Y-100455952D01*
X160919047Y-100336904D01*
X160919047Y-99860714D01*
X160978571Y-99741666D01*
X161097619Y-99682142D01*
X161335714Y-99682142D01*
X161454761Y-99741666D01*
X161514285Y-99860714D01*
X161514285Y-99979761D01*
X160919047Y-100098809D01*
X162585714Y-100515476D02*
X162585714Y-99860714D01*
X162526190Y-99741666D01*
X162407142Y-99682142D01*
X162169047Y-99682142D01*
X162050000Y-99741666D01*
X162585714Y-100455952D02*
X162466666Y-100515476D01*
X162169047Y-100515476D01*
X162050000Y-100455952D01*
X161990476Y-100336904D01*
X161990476Y-100217857D01*
X162050000Y-100098809D01*
X162169047Y-100039285D01*
X162466666Y-100039285D01*
X162585714Y-99979761D01*
X163180952Y-100515476D02*
X163180952Y-99682142D01*
X163180952Y-99801190D02*
X163240476Y-99741666D01*
X163359523Y-99682142D01*
X163538095Y-99682142D01*
X163657142Y-99741666D01*
X163716666Y-99860714D01*
X163716666Y-100515476D01*
X163716666Y-99860714D02*
X163776190Y-99741666D01*
X163895238Y-99682142D01*
X164073809Y-99682142D01*
X164192857Y-99741666D01*
X164252380Y-99860714D01*
X164252380Y-100515476D01*
X166514285Y-100396428D02*
X166454761Y-100455952D01*
X166276190Y-100515476D01*
X166157142Y-100515476D01*
X165978571Y-100455952D01*
X165859523Y-100336904D01*
X165800000Y-100217857D01*
X165740476Y-99979761D01*
X165740476Y-99801190D01*
X165800000Y-99563095D01*
X165859523Y-99444047D01*
X165978571Y-99325000D01*
X166157142Y-99265476D01*
X166276190Y-99265476D01*
X166454761Y-99325000D01*
X166514285Y-99384523D01*
X167228571Y-100515476D02*
X167109523Y-100455952D01*
X167050000Y-100396428D01*
X166990476Y-100277380D01*
X166990476Y-99920238D01*
X167050000Y-99801190D01*
X167109523Y-99741666D01*
X167228571Y-99682142D01*
X167407142Y-99682142D01*
X167526190Y-99741666D01*
X167585714Y-99801190D01*
X167645238Y-99920238D01*
X167645238Y-100277380D01*
X167585714Y-100396428D01*
X167526190Y-100455952D01*
X167407142Y-100515476D01*
X167228571Y-100515476D01*
X168180952Y-99682142D02*
X168180952Y-100515476D01*
X168180952Y-99801190D02*
X168240476Y-99741666D01*
X168359523Y-99682142D01*
X168538095Y-99682142D01*
X168657142Y-99741666D01*
X168716666Y-99860714D01*
X168716666Y-100515476D01*
X169847619Y-99682142D02*
X169847619Y-100694047D01*
X169788095Y-100813095D01*
X169728571Y-100872619D01*
X169609523Y-100932142D01*
X169430952Y-100932142D01*
X169311904Y-100872619D01*
X169847619Y-100455952D02*
X169728571Y-100515476D01*
X169490476Y-100515476D01*
X169371428Y-100455952D01*
X169311904Y-100396428D01*
X169252380Y-100277380D01*
X169252380Y-99920238D01*
X169311904Y-99801190D01*
X169371428Y-99741666D01*
X169490476Y-99682142D01*
X169728571Y-99682142D01*
X169847619Y-99741666D01*
X170621428Y-100515476D02*
X170502380Y-100455952D01*
X170442857Y-100396428D01*
X170383333Y-100277380D01*
X170383333Y-99920238D01*
X170442857Y-99801190D01*
X170502380Y-99741666D01*
X170621428Y-99682142D01*
X170800000Y-99682142D01*
X170919047Y-99741666D01*
X170978571Y-99801190D01*
X171038095Y-99920238D01*
X171038095Y-100277380D01*
X170978571Y-100396428D01*
X170919047Y-100455952D01*
X170800000Y-100515476D01*
X170621428Y-100515476D01*
X171573809Y-100396428D02*
X171633333Y-100455952D01*
X171573809Y-100515476D01*
X171514285Y-100455952D01*
X171573809Y-100396428D01*
X171573809Y-100515476D01*
X171573809Y-99741666D02*
X171633333Y-99801190D01*
X171573809Y-99860714D01*
X171514285Y-99801190D01*
X171573809Y-99741666D01*
X171573809Y-99860714D01*
X160264285Y-101500000D02*
X160145238Y-101440476D01*
X159966666Y-101440476D01*
X159788095Y-101500000D01*
X159669047Y-101619047D01*
X159609523Y-101738095D01*
X159550000Y-101976190D01*
X159550000Y-102154761D01*
X159609523Y-102392857D01*
X159669047Y-102511904D01*
X159788095Y-102630952D01*
X159966666Y-102690476D01*
X160085714Y-102690476D01*
X160264285Y-102630952D01*
X160323809Y-102571428D01*
X160323809Y-102154761D01*
X160085714Y-102154761D01*
X161335714Y-102630952D02*
X161216666Y-102690476D01*
X160978571Y-102690476D01*
X160859523Y-102630952D01*
X160800000Y-102511904D01*
X160800000Y-102035714D01*
X160859523Y-101916666D01*
X160978571Y-101857142D01*
X161216666Y-101857142D01*
X161335714Y-101916666D01*
X161395238Y-102035714D01*
X161395238Y-102154761D01*
X160800000Y-102273809D01*
X162109523Y-102690476D02*
X161990476Y-102630952D01*
X161930952Y-102571428D01*
X161871428Y-102452380D01*
X161871428Y-102095238D01*
X161930952Y-101976190D01*
X161990476Y-101916666D01*
X162109523Y-101857142D01*
X162288095Y-101857142D01*
X162407142Y-101916666D01*
X162466666Y-101976190D01*
X162526190Y-102095238D01*
X162526190Y-102452380D01*
X162466666Y-102571428D01*
X162407142Y-102630952D01*
X162288095Y-102690476D01*
X162109523Y-102690476D01*
X163061904Y-102690476D02*
X163061904Y-101857142D01*
X163061904Y-102095238D02*
X163121428Y-101976190D01*
X163180952Y-101916666D01*
X163300000Y-101857142D01*
X163419047Y-101857142D01*
X164371428Y-101857142D02*
X164371428Y-102869047D01*
X164311904Y-102988095D01*
X164252380Y-103047619D01*
X164133333Y-103107142D01*
X163954761Y-103107142D01*
X163835714Y-103047619D01*
X164371428Y-102630952D02*
X164252380Y-102690476D01*
X164014285Y-102690476D01*
X163895238Y-102630952D01*
X163835714Y-102571428D01*
X163776190Y-102452380D01*
X163776190Y-102095238D01*
X163835714Y-101976190D01*
X163895238Y-101916666D01*
X164014285Y-101857142D01*
X164252380Y-101857142D01*
X164371428Y-101916666D01*
X165442857Y-102630952D02*
X165323809Y-102690476D01*
X165085714Y-102690476D01*
X164966666Y-102630952D01*
X164907142Y-102511904D01*
X164907142Y-102035714D01*
X164966666Y-101916666D01*
X165085714Y-101857142D01*
X165323809Y-101857142D01*
X165442857Y-101916666D01*
X165502380Y-102035714D01*
X165502380Y-102154761D01*
X164907142Y-102273809D01*
X167407142Y-102035714D02*
X167585714Y-102095238D01*
X167645238Y-102154761D01*
X167704761Y-102273809D01*
X167704761Y-102452380D01*
X167645238Y-102571428D01*
X167585714Y-102630952D01*
X167466666Y-102690476D01*
X166990476Y-102690476D01*
X166990476Y-101440476D01*
X167407142Y-101440476D01*
X167526190Y-101500000D01*
X167585714Y-101559523D01*
X167645238Y-101678571D01*
X167645238Y-101797619D01*
X167585714Y-101916666D01*
X167526190Y-101976190D01*
X167407142Y-102035714D01*
X166990476Y-102035714D01*
X168240476Y-102690476D02*
X168240476Y-101857142D01*
X168240476Y-102095238D02*
X168300000Y-101976190D01*
X168359523Y-101916666D01*
X168478571Y-101857142D01*
X168597619Y-101857142D01*
X169192857Y-102690476D02*
X169073809Y-102630952D01*
X169014285Y-102571428D01*
X168954761Y-102452380D01*
X168954761Y-102095238D01*
X169014285Y-101976190D01*
X169073809Y-101916666D01*
X169192857Y-101857142D01*
X169371428Y-101857142D01*
X169490476Y-101916666D01*
X169550000Y-101976190D01*
X169609523Y-102095238D01*
X169609523Y-102452380D01*
X169550000Y-102571428D01*
X169490476Y-102630952D01*
X169371428Y-102690476D01*
X169192857Y-102690476D01*
X170026190Y-101857142D02*
X170264285Y-102690476D01*
X170502380Y-102095238D01*
X170740476Y-102690476D01*
X170978571Y-101857142D01*
X171454761Y-101857142D02*
X171454761Y-102690476D01*
X171454761Y-101976190D02*
X171514285Y-101916666D01*
X171633333Y-101857142D01*
X171811904Y-101857142D01*
X171930952Y-101916666D01*
X171990476Y-102035714D01*
X171990476Y-102690476D01*
X159728571Y-103615476D02*
X160442857Y-103615476D01*
X160085714Y-104865476D02*
X160085714Y-103615476D01*
X161038095Y-104865476D02*
X160919047Y-104805952D01*
X160859523Y-104746428D01*
X160800000Y-104627380D01*
X160800000Y-104270238D01*
X160859523Y-104151190D01*
X160919047Y-104091666D01*
X161038095Y-104032142D01*
X161216666Y-104032142D01*
X161335714Y-104091666D01*
X161395238Y-104151190D01*
X161454761Y-104270238D01*
X161454761Y-104627380D01*
X161395238Y-104746428D01*
X161335714Y-104805952D01*
X161216666Y-104865476D01*
X161038095Y-104865476D01*
X161990476Y-104865476D02*
X161990476Y-104032142D01*
X161990476Y-104151190D02*
X162050000Y-104091666D01*
X162169047Y-104032142D01*
X162347619Y-104032142D01*
X162466666Y-104091666D01*
X162526190Y-104210714D01*
X162526190Y-104865476D01*
X162526190Y-104210714D02*
X162585714Y-104091666D01*
X162704761Y-104032142D01*
X162883333Y-104032142D01*
X163002380Y-104091666D01*
X163061904Y-104210714D01*
X163061904Y-104865476D01*
X164609523Y-104865476D02*
X164609523Y-103615476D01*
X164907142Y-103615476D01*
X165085714Y-103675000D01*
X165204761Y-103794047D01*
X165264285Y-103913095D01*
X165323809Y-104151190D01*
X165323809Y-104329761D01*
X165264285Y-104567857D01*
X165204761Y-104686904D01*
X165085714Y-104805952D01*
X164907142Y-104865476D01*
X164609523Y-104865476D01*
X166395238Y-104865476D02*
X166395238Y-104210714D01*
X166335714Y-104091666D01*
X166216666Y-104032142D01*
X165978571Y-104032142D01*
X165859523Y-104091666D01*
X166395238Y-104805952D02*
X166276190Y-104865476D01*
X165978571Y-104865476D01*
X165859523Y-104805952D01*
X165800000Y-104686904D01*
X165800000Y-104567857D01*
X165859523Y-104448809D01*
X165978571Y-104389285D01*
X166276190Y-104389285D01*
X166395238Y-104329761D01*
X166990476Y-104865476D02*
X166990476Y-104032142D01*
X166990476Y-104270238D02*
X167050000Y-104151190D01*
X167109523Y-104091666D01*
X167228571Y-104032142D01*
X167347619Y-104032142D01*
X167942857Y-104865476D02*
X167823809Y-104805952D01*
X167764285Y-104686904D01*
X167764285Y-103615476D01*
X168419047Y-104865476D02*
X168419047Y-104032142D01*
X168419047Y-103615476D02*
X168359523Y-103675000D01*
X168419047Y-103734523D01*
X168478571Y-103675000D01*
X168419047Y-103615476D01*
X168419047Y-103734523D01*
X168954761Y-104805952D02*
X169073809Y-104865476D01*
X169311904Y-104865476D01*
X169430952Y-104805952D01*
X169490476Y-104686904D01*
X169490476Y-104627380D01*
X169430952Y-104508333D01*
X169311904Y-104448809D01*
X169133333Y-104448809D01*
X169014285Y-104389285D01*
X168954761Y-104270238D01*
X168954761Y-104210714D01*
X169014285Y-104091666D01*
X169133333Y-104032142D01*
X169311904Y-104032142D01*
X169430952Y-104091666D01*
X170204761Y-104865476D02*
X170085714Y-104805952D01*
X170026190Y-104746428D01*
X169966666Y-104627380D01*
X169966666Y-104270238D01*
X170026190Y-104151190D01*
X170085714Y-104091666D01*
X170204761Y-104032142D01*
X170383333Y-104032142D01*
X170502380Y-104091666D01*
X170561904Y-104151190D01*
X170621428Y-104270238D01*
X170621428Y-104627380D01*
X170561904Y-104746428D01*
X170502380Y-104805952D01*
X170383333Y-104865476D01*
X170204761Y-104865476D01*
X171157142Y-104032142D02*
X171157142Y-104865476D01*
X171157142Y-104151190D02*
X171216666Y-104091666D01*
X171335714Y-104032142D01*
X171514285Y-104032142D01*
X171633333Y-104091666D01*
X171692857Y-104210714D01*
X171692857Y-104865476D01*
X160145238Y-106683333D02*
X160740476Y-106683333D01*
X160026190Y-107040476D02*
X160442857Y-105790476D01*
X160859523Y-107040476D01*
X161811904Y-107040476D02*
X161811904Y-105790476D01*
X161811904Y-106980952D02*
X161692857Y-107040476D01*
X161454761Y-107040476D01*
X161335714Y-106980952D01*
X161276190Y-106921428D01*
X161216666Y-106802380D01*
X161216666Y-106445238D01*
X161276190Y-106326190D01*
X161335714Y-106266666D01*
X161454761Y-106207142D01*
X161692857Y-106207142D01*
X161811904Y-106266666D01*
X162942857Y-107040476D02*
X162942857Y-106385714D01*
X162883333Y-106266666D01*
X162764285Y-106207142D01*
X162526190Y-106207142D01*
X162407142Y-106266666D01*
X162942857Y-106980952D02*
X162823809Y-107040476D01*
X162526190Y-107040476D01*
X162407142Y-106980952D01*
X162347619Y-106861904D01*
X162347619Y-106742857D01*
X162407142Y-106623809D01*
X162526190Y-106564285D01*
X162823809Y-106564285D01*
X162942857Y-106504761D01*
X163538095Y-107040476D02*
X163538095Y-106207142D01*
X163538095Y-106326190D02*
X163597619Y-106266666D01*
X163716666Y-106207142D01*
X163895238Y-106207142D01*
X164014285Y-106266666D01*
X164073809Y-106385714D01*
X164073809Y-107040476D01*
X164073809Y-106385714D02*
X164133333Y-106266666D01*
X164252380Y-106207142D01*
X164430952Y-106207142D01*
X164550000Y-106266666D01*
X164609523Y-106385714D01*
X164609523Y-107040476D01*
X166157142Y-107040476D02*
X166157142Y-105790476D01*
X166573809Y-106683333D01*
X166990476Y-105790476D01*
X166990476Y-107040476D01*
X168061904Y-106980952D02*
X167942857Y-107040476D01*
X167704761Y-107040476D01*
X167585714Y-106980952D01*
X167526190Y-106861904D01*
X167526190Y-106385714D01*
X167585714Y-106266666D01*
X167704761Y-106207142D01*
X167942857Y-106207142D01*
X168061904Y-106266666D01*
X168121428Y-106385714D01*
X168121428Y-106504761D01*
X167526190Y-106623809D01*
X168835714Y-107040476D02*
X168716666Y-106980952D01*
X168657142Y-106861904D01*
X168657142Y-105790476D01*
X169192857Y-106207142D02*
X169490476Y-107040476D01*
X169788095Y-106207142D01*
X170264285Y-107040476D02*
X170264285Y-106207142D01*
X170264285Y-105790476D02*
X170204761Y-105850000D01*
X170264285Y-105909523D01*
X170323809Y-105850000D01*
X170264285Y-105790476D01*
X170264285Y-105909523D01*
X170859523Y-106207142D02*
X170859523Y-107040476D01*
X170859523Y-106326190D02*
X170919047Y-106266666D01*
X171038095Y-106207142D01*
X171216666Y-106207142D01*
X171335714Y-106266666D01*
X171395238Y-106385714D01*
X171395238Y-107040476D01*
X160651190Y-109215476D02*
X160234523Y-108620238D01*
X159936904Y-109215476D02*
X159936904Y-107965476D01*
X160413095Y-107965476D01*
X160532142Y-108025000D01*
X160591666Y-108084523D01*
X160651190Y-108203571D01*
X160651190Y-108382142D01*
X160591666Y-108501190D01*
X160532142Y-108560714D01*
X160413095Y-108620238D01*
X159936904Y-108620238D01*
X161186904Y-109215476D02*
X161186904Y-107965476D01*
X161722619Y-109215476D02*
X161722619Y-108560714D01*
X161663095Y-108441666D01*
X161544047Y-108382142D01*
X161365476Y-108382142D01*
X161246428Y-108441666D01*
X161186904Y-108501190D01*
X162198809Y-108382142D02*
X162496428Y-109215476D01*
X162794047Y-108382142D02*
X162496428Y-109215476D01*
X162377380Y-109513095D01*
X162317857Y-109572619D01*
X162198809Y-109632142D01*
X163210714Y-109155952D02*
X163329761Y-109215476D01*
X163567857Y-109215476D01*
X163686904Y-109155952D01*
X163746428Y-109036904D01*
X163746428Y-108977380D01*
X163686904Y-108858333D01*
X163567857Y-108798809D01*
X163389285Y-108798809D01*
X163270238Y-108739285D01*
X163210714Y-108620238D01*
X163210714Y-108560714D01*
X163270238Y-108441666D01*
X163389285Y-108382142D01*
X163567857Y-108382142D01*
X163686904Y-108441666D01*
X165055952Y-107965476D02*
X165770238Y-107965476D01*
X165413095Y-109215476D02*
X165413095Y-107965476D01*
X166186904Y-109215476D02*
X166186904Y-107965476D01*
X166722619Y-109215476D02*
X166722619Y-108560714D01*
X166663095Y-108441666D01*
X166544047Y-108382142D01*
X166365476Y-108382142D01*
X166246428Y-108441666D01*
X166186904Y-108501190D01*
X167496428Y-109215476D02*
X167377380Y-109155952D01*
X167317857Y-109096428D01*
X167258333Y-108977380D01*
X167258333Y-108620238D01*
X167317857Y-108501190D01*
X167377380Y-108441666D01*
X167496428Y-108382142D01*
X167675000Y-108382142D01*
X167794047Y-108441666D01*
X167853571Y-108501190D01*
X167913095Y-108620238D01*
X167913095Y-108977380D01*
X167853571Y-109096428D01*
X167794047Y-109155952D01*
X167675000Y-109215476D01*
X167496428Y-109215476D01*
X168448809Y-109215476D02*
X168448809Y-108382142D01*
X168448809Y-108501190D02*
X168508333Y-108441666D01*
X168627380Y-108382142D01*
X168805952Y-108382142D01*
X168925000Y-108441666D01*
X168984523Y-108560714D01*
X168984523Y-109215476D01*
X168984523Y-108560714D02*
X169044047Y-108441666D01*
X169163095Y-108382142D01*
X169341666Y-108382142D01*
X169460714Y-108441666D01*
X169520238Y-108560714D01*
X169520238Y-109215476D01*
X170651190Y-109215476D02*
X170651190Y-108560714D01*
X170591666Y-108441666D01*
X170472619Y-108382142D01*
X170234523Y-108382142D01*
X170115476Y-108441666D01*
X170651190Y-109155952D02*
X170532142Y-109215476D01*
X170234523Y-109215476D01*
X170115476Y-109155952D01*
X170055952Y-109036904D01*
X170055952Y-108917857D01*
X170115476Y-108798809D01*
X170234523Y-108739285D01*
X170532142Y-108739285D01*
X170651190Y-108679761D01*
X171186904Y-109155952D02*
X171305952Y-109215476D01*
X171544047Y-109215476D01*
X171663095Y-109155952D01*
X171722619Y-109036904D01*
X171722619Y-108977380D01*
X171663095Y-108858333D01*
X171544047Y-108798809D01*
X171365476Y-108798809D01*
X171246428Y-108739285D01*
X171186904Y-108620238D01*
X171186904Y-108560714D01*
X171246428Y-108441666D01*
X171365476Y-108382142D01*
X171544047Y-108382142D01*
X171663095Y-108441666D01*
D13*
X141524000Y-98730000D02*
X141524000Y-104064000D01*
X141524000Y-104064000D02*
X130856000Y-104064000D01*
X130856000Y-104064000D02*
X130856000Y-98730000D01*
X130856000Y-98730000D02*
X130856000Y-98730000D01*
X141016000Y-101270000D02*
X138730000Y-101270000D01*
X138730000Y-101270000D02*
X138730000Y-98984000D01*
X138730000Y-98984000D02*
X138730000Y-98984000D01*
X142100000Y-98400000D02*
X142100000Y-127600000D01*
X142100000Y-127600000D02*
X126650000Y-127600000D01*
X126650000Y-127600000D02*
X126650000Y-98400000D01*
X126650000Y-98400000D02*
X142100000Y-98400000D01*
X142100000Y-98400000D02*
X142100000Y-98400000D01*
X130856000Y-98730000D02*
X141524000Y-98730000D01*
X141524000Y-98730000D02*
X141524000Y-98730000D01*
X122750000Y-87250000D02*
X127600000Y-87250000D01*
X122750000Y-84750000D02*
X127600000Y-84750000D01*
X122750000Y-84750000D02*
X122750000Y-87250000D01*
X176950000Y-72600000D02*
X176950000Y-77450000D01*
X179450000Y-72600000D02*
X179450000Y-77450000D01*
X179450000Y-72600000D02*
X176950000Y-72600000D01*
X153058578Y-89710000D02*
X152541422Y-89710000D01*
X153058578Y-88290000D02*
X152541422Y-88290000D01*
X166035000Y-79000000D02*
X166035000Y-76715000D01*
X166035000Y-76715000D02*
X164565000Y-76715000D01*
X164565000Y-76715000D02*
X164565000Y-79000000D01*
D12*
X115875000Y-86925000D02*
X115875000Y-86975000D01*
X120025000Y-86925000D02*
X120025000Y-87070000D01*
X120025000Y-92075000D02*
X120025000Y-91930000D01*
X115875000Y-92075000D02*
X115875000Y-91930000D01*
X115875000Y-86925000D02*
X120025000Y-86925000D01*
X115875000Y-92075000D02*
X120025000Y-92075000D01*
X115875000Y-86975000D02*
X114475000Y-86975000D01*
D13*
X145090000Y-80962779D02*
X145090000Y-80637221D01*
X146110000Y-80962779D02*
X146110000Y-80637221D01*
X111800000Y-83250000D02*
X111800000Y-71750000D01*
X112450000Y-83900000D02*
X115200000Y-83900000D01*
X124600000Y-71750000D02*
X124600000Y-83250000D01*
X112450000Y-71100000D02*
X115200000Y-71100000D01*
X121200000Y-83900000D02*
X123950000Y-83900000D01*
X121200000Y-71100000D02*
X123950000Y-71100000D01*
X112450000Y-83900000D02*
G75*
G02X111800000Y-83250000I0J650000D01*
G01*
X124600000Y-83250000D02*
G75*
G02X123950000Y-83900000I-650000J0D01*
G01*
X123950000Y-71100000D02*
G75*
G02X124600000Y-71750000I0J-650000D01*
G01*
X111800000Y-71750000D02*
G75*
G02X112450000Y-71100000I650000J0D01*
G01*
X148690000Y-80962779D02*
X148690000Y-80637221D01*
X149710000Y-80962779D02*
X149710000Y-80637221D01*
X129837221Y-82310000D02*
X130162779Y-82310000D01*
X129837221Y-81290000D02*
X130162779Y-81290000D01*
X171190000Y-78362779D02*
X171190000Y-78037221D01*
X172210000Y-78362779D02*
X172210000Y-78037221D01*
X185910000Y-83837221D02*
X185910000Y-84162779D01*
X184890000Y-83837221D02*
X184890000Y-84162779D01*
X190710000Y-84162779D02*
X190710000Y-83837221D01*
X189690000Y-84162779D02*
X189690000Y-83837221D01*
X139362779Y-86110000D02*
X139037221Y-86110000D01*
X139362779Y-85090000D02*
X139037221Y-85090000D01*
X141090000Y-80962779D02*
X141090000Y-80637221D01*
X142110000Y-80962779D02*
X142110000Y-80637221D01*
X139375279Y-89310000D02*
X139049721Y-89310000D01*
X139375279Y-88290000D02*
X139049721Y-88290000D01*
X143710000Y-101362779D02*
X143710000Y-101037221D01*
X142690000Y-101362779D02*
X142690000Y-101037221D01*
X128200000Y-87990000D02*
X123990000Y-87990000D01*
X123990000Y-87990000D02*
X123990000Y-91010000D01*
X123990000Y-91010000D02*
X128200000Y-91010000D01*
X123990000Y-94510000D02*
X128200000Y-94510000D01*
X123990000Y-91490000D02*
X123990000Y-94510000D01*
X128200000Y-91490000D02*
X123990000Y-91490000D01*
X112440000Y-88837221D02*
X112440000Y-89162779D01*
X113460000Y-88837221D02*
X113460000Y-89162779D01*
X115537221Y-86260000D02*
X115862779Y-86260000D01*
X115537221Y-85240000D02*
X115862779Y-85240000D01*
X110890000Y-88837221D02*
X110890000Y-89162779D01*
X111910000Y-88837221D02*
X111910000Y-89162779D01*
X189550000Y-76890000D02*
X185340000Y-76890000D01*
X185340000Y-76890000D02*
X185340000Y-79910000D01*
X185340000Y-79910000D02*
X189550000Y-79910000D01*
X181110000Y-74762779D02*
X181110000Y-74437221D01*
X180090000Y-74762779D02*
X180090000Y-74437221D01*
X166490000Y-72858578D02*
X166490000Y-72341422D01*
X167910000Y-72858578D02*
X167910000Y-72341422D01*
X159390000Y-72762779D02*
X159390000Y-72437221D01*
X160410000Y-72762779D02*
X160410000Y-72437221D01*
X162010000Y-72762779D02*
X162010000Y-72437221D01*
X160990000Y-72762779D02*
X160990000Y-72437221D01*
X152437221Y-90290000D02*
X152762779Y-90290000D01*
X152437221Y-91310000D02*
X152762779Y-91310000D01*
X194440000Y-71870000D02*
X194440000Y-79610000D01*
X194440000Y-79610000D02*
X197100000Y-79610000D01*
X197100000Y-79610000D02*
X197100000Y-71870000D01*
X197100000Y-71870000D02*
X194440000Y-71870000D01*
X197100000Y-72820000D02*
X203100000Y-72820000D01*
X203100000Y-72820000D02*
X203100000Y-73580000D01*
X203100000Y-73580000D02*
X197100000Y-73580000D01*
X197100000Y-72880000D02*
X203100000Y-72880000D01*
X197100000Y-73000000D02*
X203100000Y-73000000D01*
X197100000Y-73120000D02*
X203100000Y-73120000D01*
X197100000Y-73240000D02*
X203100000Y-73240000D01*
X197100000Y-73360000D02*
X203100000Y-73360000D01*
X197100000Y-73480000D02*
X203100000Y-73480000D01*
X194110000Y-72820000D02*
X194440000Y-72820000D01*
X194110000Y-73580000D02*
X194440000Y-73580000D01*
X194440000Y-74470000D02*
X197100000Y-74470000D01*
X197100000Y-75360000D02*
X203100000Y-75360000D01*
X203100000Y-75360000D02*
X203100000Y-76120000D01*
X203100000Y-76120000D02*
X197100000Y-76120000D01*
X194042929Y-75360000D02*
X194440000Y-75360000D01*
X194042929Y-76120000D02*
X194440000Y-76120000D01*
X194440000Y-77010000D02*
X197100000Y-77010000D01*
X197100000Y-77900000D02*
X203100000Y-77900000D01*
X203100000Y-77900000D02*
X203100000Y-78660000D01*
X203100000Y-78660000D02*
X197100000Y-78660000D01*
X194042929Y-77900000D02*
X194440000Y-77900000D01*
X194042929Y-78660000D02*
X194440000Y-78660000D01*
X191730000Y-73200000D02*
X191730000Y-71930000D01*
X191730000Y-71930000D02*
X193000000Y-71930000D01*
X157900000Y-73762500D02*
X157450000Y-73762500D01*
X157900000Y-71912500D02*
X157900000Y-73762500D01*
X150100000Y-69362500D02*
X150100000Y-69612500D01*
X157900000Y-69362500D02*
X157900000Y-69612500D01*
X150100000Y-71912500D02*
X150100000Y-73762500D01*
X150100000Y-73762500D02*
X150550000Y-73762500D01*
X155700000Y-74312500D02*
X155250000Y-74312500D01*
X155700000Y-74312500D02*
X155700000Y-73862500D01*
X143670000Y-72560000D02*
X148870000Y-72560000D01*
X148870000Y-72560000D02*
X148870000Y-69900000D01*
X148870000Y-69900000D02*
X143670000Y-69900000D01*
X143670000Y-69900000D02*
X143670000Y-72560000D01*
X144620000Y-69900000D02*
X144620000Y-63900000D01*
X144620000Y-63900000D02*
X145380000Y-63900000D01*
X145380000Y-63900000D02*
X145380000Y-69900000D01*
X144680000Y-69900000D02*
X144680000Y-63900000D01*
X144800000Y-69900000D02*
X144800000Y-63900000D01*
X144920000Y-69900000D02*
X144920000Y-63900000D01*
X145040000Y-69900000D02*
X145040000Y-63900000D01*
X145160000Y-69900000D02*
X145160000Y-63900000D01*
X145280000Y-69900000D02*
X145280000Y-63900000D01*
X144620000Y-72890000D02*
X144620000Y-72560000D01*
X145380000Y-72890000D02*
X145380000Y-72560000D01*
X146270000Y-72560000D02*
X146270000Y-69900000D01*
X147160000Y-69900000D02*
X147160000Y-63900000D01*
X147160000Y-63900000D02*
X147920000Y-63900000D01*
X147920000Y-63900000D02*
X147920000Y-69900000D01*
X147160000Y-72957071D02*
X147160000Y-72560000D01*
X147920000Y-72957071D02*
X147920000Y-72560000D01*
X145000000Y-75270000D02*
X143730000Y-75270000D01*
X143730000Y-75270000D02*
X143730000Y-74000000D01*
X182150000Y-71350000D02*
X182150000Y-72350000D01*
X182150000Y-71350000D02*
X183150000Y-71350000D01*
X186650000Y-71350000D02*
X185650000Y-71350000D01*
X186650000Y-71350000D02*
X186650000Y-72350000D01*
X186650000Y-75850000D02*
X186650000Y-74850000D01*
X182150000Y-75850000D02*
X182150000Y-74850000D01*
X186650000Y-75850000D02*
X185650000Y-75850000D01*
X182150000Y-75850000D02*
X183150000Y-75850000D01*
X189800000Y-107200000D02*
X189800000Y-106800000D01*
X183200000Y-107200000D02*
X189800000Y-107200000D01*
X183600000Y-101600000D02*
X188800000Y-101600000D01*
X189960000Y-90780000D02*
X188500000Y-90780000D01*
X189960000Y-87620000D02*
X187800000Y-87620000D01*
X189960000Y-87620000D02*
X189960000Y-88550000D01*
X189960000Y-90780000D02*
X189960000Y-89850000D01*
X189960000Y-95980000D02*
X189960000Y-95050000D01*
X189960000Y-92820000D02*
X189960000Y-93750000D01*
X189960000Y-92820000D02*
X187800000Y-92820000D01*
X189960000Y-95980000D02*
X188500000Y-95980000D01*
X169010000Y-78037221D02*
X169010000Y-78362779D01*
X167990000Y-78037221D02*
X167990000Y-78362779D01*
X169590000Y-78362779D02*
X169590000Y-78037221D01*
X170610000Y-78362779D02*
X170610000Y-78037221D01*
X151310000Y-80962779D02*
X151310000Y-80637221D01*
X150290000Y-80962779D02*
X150290000Y-80637221D01*
X130162779Y-79690000D02*
X129837221Y-79690000D01*
X130162779Y-80710000D02*
X129837221Y-80710000D01*
X129837221Y-83910000D02*
X130162779Y-83910000D01*
X129837221Y-82890000D02*
X130162779Y-82890000D01*
X175410000Y-78037221D02*
X175410000Y-78362779D01*
X174390000Y-78037221D02*
X174390000Y-78362779D01*
X172790000Y-78362779D02*
X172790000Y-78037221D01*
X173810000Y-78362779D02*
X173810000Y-78037221D01*
X189437221Y-99510000D02*
X189762779Y-99510000D01*
X189437221Y-98490000D02*
X189762779Y-98490000D01*
X151437221Y-75890000D02*
X151762779Y-75890000D01*
X151437221Y-76910000D02*
X151762779Y-76910000D01*
X151437221Y-78510000D02*
X151762779Y-78510000D01*
X151437221Y-77490000D02*
X151762779Y-77490000D01*
X144110000Y-95237221D02*
X144110000Y-95562779D01*
X143090000Y-95237221D02*
X143090000Y-95562779D01*
X152762779Y-85910000D02*
X152437221Y-85910000D01*
X152762779Y-84890000D02*
X152437221Y-84890000D01*
X144110000Y-80637221D02*
X144110000Y-80962779D01*
X143090000Y-80637221D02*
X143090000Y-80962779D01*
X186090000Y-94237221D02*
X186090000Y-94562779D01*
X187110000Y-94237221D02*
X187110000Y-94562779D01*
X186090000Y-89037221D02*
X186090000Y-89362779D01*
X187110000Y-89037221D02*
X187110000Y-89362779D01*
X189049721Y-87110000D02*
X189375279Y-87110000D01*
X189049721Y-86090000D02*
X189375279Y-86090000D01*
X189037221Y-91290000D02*
X189362779Y-91290000D01*
X189037221Y-92310000D02*
X189362779Y-92310000D01*
X120162779Y-92690000D02*
X119837221Y-92690000D01*
X120162779Y-93710000D02*
X119837221Y-93710000D01*
X113460000Y-85587221D02*
X113460000Y-85912779D01*
X112440000Y-85587221D02*
X112440000Y-85912779D01*
X110310000Y-88837221D02*
X110310000Y-89162779D01*
X109290000Y-88837221D02*
X109290000Y-89162779D01*
X112490000Y-92037221D02*
X112490000Y-92362779D01*
X113510000Y-92037221D02*
X113510000Y-92362779D01*
X177837221Y-81110000D02*
X178162779Y-81110000D01*
X177837221Y-80090000D02*
X178162779Y-80090000D01*
X181037221Y-80090000D02*
X181362779Y-80090000D01*
X181037221Y-81110000D02*
X181362779Y-81110000D01*
X169510000Y-72962779D02*
X169510000Y-72637221D01*
X168490000Y-72962779D02*
X168490000Y-72637221D01*
X165100000Y-70990000D02*
X163300000Y-70990000D01*
X163300000Y-74210000D02*
X165750000Y-74210000D01*
X188500000Y-82840000D02*
X186600000Y-82840000D01*
X187100000Y-85160000D02*
X188500000Y-85160000D01*
X149085000Y-85190000D02*
X149810000Y-85190000D01*
X149810000Y-85190000D02*
X149810000Y-85915000D01*
X143315000Y-92410000D02*
X142590000Y-92410000D01*
X142590000Y-92410000D02*
X142590000Y-91685000D01*
X149085000Y-92410000D02*
X149810000Y-92410000D01*
X149810000Y-92410000D02*
X149810000Y-91685000D01*
X143315000Y-85190000D02*
X142590000Y-85190000D01*
X180900000Y-79610000D02*
X182700000Y-79610000D01*
X182700000Y-76390000D02*
X180250000Y-76390000D01*
X145900000Y-94700000D02*
X145900000Y-93300000D01*
X147300000Y-94700000D02*
X145900000Y-94700000D01*
X147300000Y-93300000D02*
X147300000Y-94700000D01*
X145900000Y-93300000D02*
X147300000Y-93300000D01*
X145900000Y-95300000D02*
X147300000Y-95300000D01*
X147300000Y-95300000D02*
X147300000Y-96700000D01*
X147300000Y-96700000D02*
X145900000Y-96700000D01*
X145900000Y-96700000D02*
X145900000Y-95300000D01*
X194440000Y-82870000D02*
X194440000Y-98230000D01*
X194440000Y-98230000D02*
X197100000Y-98230000D01*
X197100000Y-98230000D02*
X197100000Y-82870000D01*
X197100000Y-82870000D02*
X194440000Y-82870000D01*
X197100000Y-83820000D02*
X203100000Y-83820000D01*
X203100000Y-83820000D02*
X203100000Y-84580000D01*
X203100000Y-84580000D02*
X197100000Y-84580000D01*
X197100000Y-83880000D02*
X203100000Y-83880000D01*
X197100000Y-84000000D02*
X203100000Y-84000000D01*
X197100000Y-84120000D02*
X203100000Y-84120000D01*
X197100000Y-84240000D02*
X203100000Y-84240000D01*
X197100000Y-84360000D02*
X203100000Y-84360000D01*
X197100000Y-84480000D02*
X203100000Y-84480000D01*
X194110000Y-83820000D02*
X194440000Y-83820000D01*
X194110000Y-84580000D02*
X194440000Y-84580000D01*
X194440000Y-85470000D02*
X197100000Y-85470000D01*
X197100000Y-86360000D02*
X203100000Y-86360000D01*
X203100000Y-86360000D02*
X203100000Y-87120000D01*
X203100000Y-87120000D02*
X197100000Y-87120000D01*
X194042929Y-86360000D02*
X194440000Y-86360000D01*
X194042929Y-87120000D02*
X194440000Y-87120000D01*
X194440000Y-88010000D02*
X197100000Y-88010000D01*
X197100000Y-88900000D02*
X203100000Y-88900000D01*
X203100000Y-88900000D02*
X203100000Y-89660000D01*
X203100000Y-89660000D02*
X197100000Y-89660000D01*
X194042929Y-88900000D02*
X194440000Y-88900000D01*
X194042929Y-89660000D02*
X194440000Y-89660000D01*
X194440000Y-90550000D02*
X197100000Y-90550000D01*
X197100000Y-91440000D02*
X203100000Y-91440000D01*
X203100000Y-91440000D02*
X203100000Y-92200000D01*
X203100000Y-92200000D02*
X197100000Y-92200000D01*
X194042929Y-91440000D02*
X194440000Y-91440000D01*
X194042929Y-92200000D02*
X194440000Y-92200000D01*
X194440000Y-93090000D02*
X197100000Y-93090000D01*
X197100000Y-93980000D02*
X203100000Y-93980000D01*
X203100000Y-93980000D02*
X203100000Y-94740000D01*
X203100000Y-94740000D02*
X197100000Y-94740000D01*
X194042929Y-93980000D02*
X194440000Y-93980000D01*
X194042929Y-94740000D02*
X194440000Y-94740000D01*
X194440000Y-95630000D02*
X197100000Y-95630000D01*
X197100000Y-96520000D02*
X203100000Y-96520000D01*
X203100000Y-96520000D02*
X203100000Y-97280000D01*
X203100000Y-97280000D02*
X197100000Y-97280000D01*
X194042929Y-96520000D02*
X194440000Y-96520000D01*
X194042929Y-97280000D02*
X194440000Y-97280000D01*
X191730000Y-84200000D02*
X191730000Y-82930000D01*
X191730000Y-82930000D02*
X193000000Y-82930000D01*
X147000000Y-81950000D02*
X148200000Y-81950000D01*
X147000000Y-80100000D02*
X147000000Y-81950000D01*
X148200000Y-80100000D02*
X148200000Y-81950000D01*
X123930000Y-115840000D02*
X108570000Y-115840000D01*
X108570000Y-115840000D02*
X108570000Y-118500000D01*
X108570000Y-118500000D02*
X123930000Y-118500000D01*
X123930000Y-118500000D02*
X123930000Y-115840000D01*
X122980000Y-118500000D02*
X122980000Y-124500000D01*
X122980000Y-124500000D02*
X122220000Y-124500000D01*
X122220000Y-124500000D02*
X122220000Y-118500000D01*
X122920000Y-118500000D02*
X122920000Y-124500000D01*
X122800000Y-118500000D02*
X122800000Y-124500000D01*
X122680000Y-118500000D02*
X122680000Y-124500000D01*
X122560000Y-118500000D02*
X122560000Y-124500000D01*
X122440000Y-118500000D02*
X122440000Y-124500000D01*
X122320000Y-118500000D02*
X122320000Y-124500000D01*
X122980000Y-115510000D02*
X122980000Y-115840000D01*
X122220000Y-115510000D02*
X122220000Y-115840000D01*
X121330000Y-115840000D02*
X121330000Y-118500000D01*
X120440000Y-118500000D02*
X120440000Y-124500000D01*
X120440000Y-124500000D02*
X119680000Y-124500000D01*
X119680000Y-124500000D02*
X119680000Y-118500000D01*
X120440000Y-115442929D02*
X120440000Y-115840000D01*
X119680000Y-115442929D02*
X119680000Y-115840000D01*
X118790000Y-115840000D02*
X118790000Y-118500000D01*
X117900000Y-118500000D02*
X117900000Y-124500000D01*
X117900000Y-124500000D02*
X117140000Y-124500000D01*
X117140000Y-124500000D02*
X117140000Y-118500000D01*
X117900000Y-115442929D02*
X117900000Y-115840000D01*
X117140000Y-115442929D02*
X117140000Y-115840000D01*
X116250000Y-115840000D02*
X116250000Y-118500000D01*
X115360000Y-118500000D02*
X115360000Y-124500000D01*
X115360000Y-124500000D02*
X114600000Y-124500000D01*
X114600000Y-124500000D02*
X114600000Y-118500000D01*
X115360000Y-115442929D02*
X115360000Y-115840000D01*
X114600000Y-115442929D02*
X114600000Y-115840000D01*
X113710000Y-115840000D02*
X113710000Y-118500000D01*
X112820000Y-118500000D02*
X112820000Y-124500000D01*
X112820000Y-124500000D02*
X112060000Y-124500000D01*
X112060000Y-124500000D02*
X112060000Y-118500000D01*
X112820000Y-115442929D02*
X112820000Y-115840000D01*
X112060000Y-115442929D02*
X112060000Y-115840000D01*
X111170000Y-115840000D02*
X111170000Y-118500000D01*
X110280000Y-118500000D02*
X110280000Y-124500000D01*
X110280000Y-124500000D02*
X109520000Y-124500000D01*
X109520000Y-124500000D02*
X109520000Y-118500000D01*
X110280000Y-115442929D02*
X110280000Y-115840000D01*
X109520000Y-115442929D02*
X109520000Y-115840000D01*
X122600000Y-113130000D02*
X123870000Y-113130000D01*
X123870000Y-113130000D02*
X123870000Y-114400000D01*
D14*
G36*
X175396845Y-96552642D02*
G01*
X175517036Y-96603602D01*
X175615138Y-96681264D01*
X175688796Y-96779681D01*
X175735656Y-96892903D01*
X175753366Y-97014982D01*
X175739572Y-97139969D01*
X175691920Y-97261916D01*
X175608055Y-97374875D01*
X175594761Y-97388210D01*
X175483312Y-97468158D01*
X175354016Y-97513432D01*
X175216319Y-97521719D01*
X175120322Y-97504371D01*
X175055337Y-97477864D01*
X174985164Y-97438220D01*
X174969227Y-97427325D01*
X174866915Y-97331426D01*
X174799645Y-97220950D01*
X174765475Y-97101921D01*
X174762466Y-96980363D01*
X174788675Y-96862301D01*
X174842163Y-96753759D01*
X174920988Y-96660762D01*
X175023209Y-96589332D01*
X175146887Y-96545496D01*
X175256917Y-96534334D01*
X175396845Y-96552642D01*
X175396845Y-96552642D01*
G37*
X175396845Y-96552642D02*
X175517036Y-96603602D01*
X175615138Y-96681264D01*
X175688796Y-96779681D01*
X175735656Y-96892903D01*
X175753366Y-97014982D01*
X175739572Y-97139969D01*
X175691920Y-97261916D01*
X175608055Y-97374875D01*
X175594761Y-97388210D01*
X175483312Y-97468158D01*
X175354016Y-97513432D01*
X175216319Y-97521719D01*
X175120322Y-97504371D01*
X175055337Y-97477864D01*
X174985164Y-97438220D01*
X174969227Y-97427325D01*
X174866915Y-97331426D01*
X174799645Y-97220950D01*
X174765475Y-97101921D01*
X174762466Y-96980363D01*
X174788675Y-96862301D01*
X174842163Y-96753759D01*
X174920988Y-96660762D01*
X175023209Y-96589332D01*
X175146887Y-96545496D01*
X175256917Y-96534334D01*
X175396845Y-96552642D01*
G36*
X171732667Y-97740834D02*
G01*
X174251500Y-97740834D01*
X174251500Y-98375834D01*
X170780167Y-98375834D01*
X170780167Y-95645334D01*
X171732667Y-95645334D01*
X171732667Y-97740834D01*
X171732667Y-97740834D01*
G37*
X171732667Y-97740834D02*
X174251500Y-97740834D01*
X174251500Y-98375834D01*
X170780167Y-98375834D01*
X170780167Y-95645334D01*
X171732667Y-95645334D01*
X171732667Y-97740834D01*
G36*
X167367241Y-96698375D02*
G01*
X167372732Y-97740834D01*
X169891167Y-97740834D01*
X169891167Y-98375834D01*
X168154836Y-98375834D01*
X167830620Y-98375710D01*
X167546465Y-98375315D01*
X167300097Y-98374615D01*
X167089245Y-98373575D01*
X166911635Y-98372161D01*
X166764996Y-98370338D01*
X166647054Y-98368073D01*
X166555537Y-98365330D01*
X166488173Y-98362075D01*
X166442689Y-98358274D01*
X166416812Y-98353892D01*
X166408391Y-98349375D01*
X166406703Y-98324076D01*
X166405274Y-98260108D01*
X166404116Y-98161139D01*
X166403243Y-98030833D01*
X166402666Y-97872855D01*
X166402398Y-97690871D01*
X166402451Y-97488545D01*
X166402838Y-97269544D01*
X166403572Y-97037531D01*
X166403764Y-96989417D01*
X166409250Y-95655917D01*
X167361750Y-95655917D01*
X167367241Y-96698375D01*
X167367241Y-96698375D01*
G37*
X167367241Y-96698375D02*
X167372732Y-97740834D01*
X169891167Y-97740834D01*
X169891167Y-98375834D01*
X168154836Y-98375834D01*
X167830620Y-98375710D01*
X167546465Y-98375315D01*
X167300097Y-98374615D01*
X167089245Y-98373575D01*
X166911635Y-98372161D01*
X166764996Y-98370338D01*
X166647054Y-98368073D01*
X166555537Y-98365330D01*
X166488173Y-98362075D01*
X166442689Y-98358274D01*
X166416812Y-98353892D01*
X166408391Y-98349375D01*
X166406703Y-98324076D01*
X166405274Y-98260108D01*
X166404116Y-98161139D01*
X166403243Y-98030833D01*
X166402666Y-97872855D01*
X166402398Y-97690871D01*
X166402451Y-97488545D01*
X166402838Y-97269544D01*
X166403572Y-97037531D01*
X166403764Y-96989417D01*
X166409250Y-95655917D01*
X167361750Y-95655917D01*
X167367241Y-96698375D01*
G36*
X164066331Y-95669463D02*
G01*
X164200405Y-95670617D01*
X164309276Y-95672519D01*
X164396368Y-95675237D01*
X164465107Y-95678837D01*
X164518917Y-95683387D01*
X164561226Y-95688953D01*
X164595458Y-95695603D01*
X164606482Y-95698280D01*
X164765784Y-95756395D01*
X164898321Y-95844107D01*
X165008122Y-95964824D01*
X165093990Y-96111000D01*
X165160417Y-96248584D01*
X165160417Y-98386417D01*
X164689459Y-98392113D01*
X164218500Y-98397810D01*
X164218500Y-97592667D01*
X162377000Y-97592667D01*
X162377000Y-98397000D01*
X161380717Y-98397000D01*
X161386733Y-97301625D01*
X161392226Y-96301500D01*
X162377000Y-96301500D01*
X162377000Y-97000000D01*
X164218500Y-97000000D01*
X164218500Y-96301500D01*
X162377000Y-96301500D01*
X161392226Y-96301500D01*
X161392750Y-96206250D01*
X161451392Y-96086838D01*
X161539064Y-95952918D01*
X161659191Y-95835501D01*
X161802618Y-95743293D01*
X161822960Y-95733395D01*
X161943084Y-95677084D01*
X163209482Y-95671001D01*
X163478628Y-95669828D01*
X163708867Y-95669136D01*
X163903626Y-95668992D01*
X164066331Y-95669463D01*
X164066331Y-95669463D01*
G37*
X164066331Y-95669463D02*
X164200405Y-95670617D01*
X164309276Y-95672519D01*
X164396368Y-95675237D01*
X164465107Y-95678837D01*
X164518917Y-95683387D01*
X164561226Y-95688953D01*
X164595458Y-95695603D01*
X164606482Y-95698280D01*
X164765784Y-95756395D01*
X164898321Y-95844107D01*
X165008122Y-95964824D01*
X165093990Y-96111000D01*
X165160417Y-96248584D01*
X165160417Y-98386417D01*
X164689459Y-98392113D01*
X164218500Y-98397810D01*
X164218500Y-97592667D01*
X162377000Y-97592667D01*
X162377000Y-98397000D01*
X161380717Y-98397000D01*
X161386733Y-97301625D01*
X161392226Y-96301500D01*
X162377000Y-96301500D01*
X162377000Y-97000000D01*
X164218500Y-97000000D01*
X164218500Y-96301500D01*
X162377000Y-96301500D01*
X161392226Y-96301500D01*
X161392750Y-96206250D01*
X161451392Y-96086838D01*
X161539064Y-95952918D01*
X161659191Y-95835501D01*
X161802618Y-95743293D01*
X161822960Y-95733395D01*
X161943084Y-95677084D01*
X163209482Y-95671001D01*
X163478628Y-95669828D01*
X163708867Y-95669136D01*
X163903626Y-95668992D01*
X164066331Y-95669463D01*
G36*
X156556167Y-97698500D02*
G01*
X157466334Y-97698500D01*
X157466334Y-95687667D01*
X158397667Y-95687667D01*
X158397667Y-97698500D01*
X159307834Y-97698500D01*
X159307834Y-95687667D01*
X160241299Y-95687667D01*
X160234885Y-96772459D01*
X160233418Y-97014559D01*
X160232009Y-97218124D01*
X160230484Y-97386949D01*
X160228671Y-97524831D01*
X160226398Y-97635566D01*
X160223493Y-97722951D01*
X160219782Y-97790783D01*
X160215094Y-97842857D01*
X160209257Y-97882971D01*
X160202097Y-97914920D01*
X160193443Y-97942502D01*
X160183122Y-97969513D01*
X160180197Y-97976780D01*
X160096639Y-98129075D01*
X159980224Y-98255097D01*
X159832615Y-98353079D01*
X159820470Y-98359181D01*
X159679168Y-98428750D01*
X157641418Y-98434454D01*
X155603667Y-98440157D01*
X155603667Y-95687667D01*
X156556167Y-95687667D01*
X156556167Y-97698500D01*
X156556167Y-97698500D01*
G37*
X156556167Y-97698500D02*
X157466334Y-97698500D01*
X157466334Y-95687667D01*
X158397667Y-95687667D01*
X158397667Y-97698500D01*
X159307834Y-97698500D01*
X159307834Y-95687667D01*
X160241299Y-95687667D01*
X160234885Y-96772459D01*
X160233418Y-97014559D01*
X160232009Y-97218124D01*
X160230484Y-97386949D01*
X160228671Y-97524831D01*
X160226398Y-97635566D01*
X160223493Y-97722951D01*
X160219782Y-97790783D01*
X160215094Y-97842857D01*
X160209257Y-97882971D01*
X160202097Y-97914920D01*
X160193443Y-97942502D01*
X160183122Y-97969513D01*
X160180197Y-97976780D01*
X160096639Y-98129075D01*
X159980224Y-98255097D01*
X159832615Y-98353079D01*
X159820470Y-98359181D01*
X159679168Y-98428750D01*
X157641418Y-98434454D01*
X155603667Y-98440157D01*
X155603667Y-95687667D01*
X156556167Y-95687667D01*
X156556167Y-97698500D01*
G36*
X179151584Y-94427998D02*
G01*
X179491882Y-94472546D01*
X179811094Y-94553714D01*
X180109904Y-94671819D01*
X180388997Y-94827175D01*
X180649059Y-95020097D01*
X180852470Y-95210550D01*
X181072874Y-95465562D01*
X181253200Y-95733923D01*
X181393881Y-96016704D01*
X181495353Y-96314979D01*
X181558050Y-96629818D01*
X181582408Y-96962294D01*
X181582783Y-97010584D01*
X181563789Y-97345628D01*
X181506516Y-97662886D01*
X181410530Y-97963428D01*
X181275396Y-98248326D01*
X181100678Y-98518653D01*
X180885943Y-98775479D01*
X180852470Y-98810617D01*
X180606543Y-99036179D01*
X180342083Y-99223691D01*
X180059326Y-99373050D01*
X179758505Y-99484149D01*
X179439857Y-99556887D01*
X179103616Y-99591157D01*
X179090733Y-99591690D01*
X178974258Y-99593745D01*
X178853747Y-99591711D01*
X178747125Y-99586063D01*
X178698593Y-99581304D01*
X178377494Y-99520294D01*
X178070092Y-99420777D01*
X177779440Y-99285138D01*
X177508593Y-99115760D01*
X177260607Y-98915028D01*
X177038534Y-98685326D01*
X176845430Y-98429038D01*
X176791021Y-98334295D01*
X177130167Y-98334295D01*
X177611709Y-98328606D01*
X178093250Y-98322917D01*
X178093250Y-96984858D01*
X178558917Y-96984858D01*
X178558917Y-97010584D01*
X178558993Y-97210609D01*
X178559390Y-97372941D01*
X178560360Y-97502218D01*
X178562158Y-97603080D01*
X178565037Y-97680167D01*
X178569249Y-97738118D01*
X178575049Y-97781572D01*
X178582689Y-97815168D01*
X178592423Y-97843547D01*
X178604503Y-97871348D01*
X178606096Y-97874808D01*
X178699752Y-98033043D01*
X178819149Y-98157694D01*
X178882468Y-98203592D01*
X178931367Y-98233828D01*
X178978178Y-98258866D01*
X179027312Y-98279169D01*
X179083179Y-98295204D01*
X179150187Y-98307435D01*
X179232747Y-98316329D01*
X179335268Y-98322351D01*
X179462161Y-98325966D01*
X179617835Y-98327640D01*
X179806700Y-98327837D01*
X180033166Y-98327024D01*
X180051167Y-98326938D01*
X180887250Y-98322917D01*
X180893106Y-98010998D01*
X180898962Y-97699080D01*
X180205189Y-97693498D01*
X179511417Y-97687917D01*
X179511417Y-97264584D01*
X180098792Y-97258957D01*
X180686167Y-97253331D01*
X180686167Y-96703667D01*
X179500834Y-96703667D01*
X179500834Y-96280912D01*
X180887250Y-96269750D01*
X180887250Y-95698250D01*
X180063249Y-95692706D01*
X179845687Y-95691491D01*
X179666039Y-95691131D01*
X179519891Y-95691753D01*
X179402829Y-95693482D01*
X179310440Y-95696445D01*
X179238311Y-95700768D01*
X179182027Y-95706577D01*
X179137175Y-95713999D01*
X179111453Y-95719902D01*
X178943141Y-95783225D01*
X178800475Y-95880179D01*
X178683985Y-96010317D01*
X178606096Y-96146359D01*
X178593722Y-96174398D01*
X178583724Y-96202467D01*
X178575850Y-96235206D01*
X178569846Y-96277255D01*
X178565460Y-96333253D01*
X178562437Y-96407840D01*
X178560525Y-96505654D01*
X178559469Y-96631335D01*
X178559018Y-96789524D01*
X178558917Y-96984858D01*
X178093250Y-96984858D01*
X178093250Y-95698250D01*
X177611709Y-95692561D01*
X177130167Y-95686872D01*
X177130167Y-98334295D01*
X176791021Y-98334295D01*
X176684349Y-98148548D01*
X176591271Y-97936466D01*
X176495468Y-97630449D01*
X176439213Y-97314123D01*
X176422476Y-96992207D01*
X176445228Y-96669421D01*
X176507440Y-96350483D01*
X176602828Y-96055965D01*
X176734300Y-95776171D01*
X176902306Y-95511435D01*
X177102332Y-95266464D01*
X177329863Y-95045961D01*
X177580385Y-94854633D01*
X177849384Y-94697185D01*
X177953520Y-94648093D01*
X178203050Y-94554275D01*
X178468169Y-94484012D01*
X178736827Y-94439516D01*
X178996974Y-94423001D01*
X179151584Y-94427998D01*
X179151584Y-94427998D01*
G37*
X179151584Y-94427998D02*
X179491882Y-94472546D01*
X179811094Y-94553714D01*
X180109904Y-94671819D01*
X180388997Y-94827175D01*
X180649059Y-95020097D01*
X180852470Y-95210550D01*
X181072874Y-95465562D01*
X181253200Y-95733923D01*
X181393881Y-96016704D01*
X181495353Y-96314979D01*
X181558050Y-96629818D01*
X181582408Y-96962294D01*
X181582783Y-97010584D01*
X181563789Y-97345628D01*
X181506516Y-97662886D01*
X181410530Y-97963428D01*
X181275396Y-98248326D01*
X181100678Y-98518653D01*
X180885943Y-98775479D01*
X180852470Y-98810617D01*
X180606543Y-99036179D01*
X180342083Y-99223691D01*
X180059326Y-99373050D01*
X179758505Y-99484149D01*
X179439857Y-99556887D01*
X179103616Y-99591157D01*
X179090733Y-99591690D01*
X178974258Y-99593745D01*
X178853747Y-99591711D01*
X178747125Y-99586063D01*
X178698593Y-99581304D01*
X178377494Y-99520294D01*
X178070092Y-99420777D01*
X177779440Y-99285138D01*
X177508593Y-99115760D01*
X177260607Y-98915028D01*
X177038534Y-98685326D01*
X176845430Y-98429038D01*
X176791021Y-98334295D01*
X177130167Y-98334295D01*
X177611709Y-98328606D01*
X178093250Y-98322917D01*
X178093250Y-96984858D01*
X178558917Y-96984858D01*
X178558917Y-97010584D01*
X178558993Y-97210609D01*
X178559390Y-97372941D01*
X178560360Y-97502218D01*
X178562158Y-97603080D01*
X178565037Y-97680167D01*
X178569249Y-97738118D01*
X178575049Y-97781572D01*
X178582689Y-97815168D01*
X178592423Y-97843547D01*
X178604503Y-97871348D01*
X178606096Y-97874808D01*
X178699752Y-98033043D01*
X178819149Y-98157694D01*
X178882468Y-98203592D01*
X178931367Y-98233828D01*
X178978178Y-98258866D01*
X179027312Y-98279169D01*
X179083179Y-98295204D01*
X179150187Y-98307435D01*
X179232747Y-98316329D01*
X179335268Y-98322351D01*
X179462161Y-98325966D01*
X179617835Y-98327640D01*
X179806700Y-98327837D01*
X180033166Y-98327024D01*
X180051167Y-98326938D01*
X180887250Y-98322917D01*
X180893106Y-98010998D01*
X180898962Y-97699080D01*
X180205189Y-97693498D01*
X179511417Y-97687917D01*
X179511417Y-97264584D01*
X180098792Y-97258957D01*
X180686167Y-97253331D01*
X180686167Y-96703667D01*
X179500834Y-96703667D01*
X179500834Y-96280912D01*
X180887250Y-96269750D01*
X180887250Y-95698250D01*
X180063249Y-95692706D01*
X179845687Y-95691491D01*
X179666039Y-95691131D01*
X179519891Y-95691753D01*
X179402829Y-95693482D01*
X179310440Y-95696445D01*
X179238311Y-95700768D01*
X179182027Y-95706577D01*
X179137175Y-95713999D01*
X179111453Y-95719902D01*
X178943141Y-95783225D01*
X178800475Y-95880179D01*
X178683985Y-96010317D01*
X178606096Y-96146359D01*
X178593722Y-96174398D01*
X178583724Y-96202467D01*
X178575850Y-96235206D01*
X178569846Y-96277255D01*
X178565460Y-96333253D01*
X178562437Y-96407840D01*
X178560525Y-96505654D01*
X178559469Y-96631335D01*
X178559018Y-96789524D01*
X178558917Y-96984858D01*
X178093250Y-96984858D01*
X178093250Y-95698250D01*
X177611709Y-95692561D01*
X177130167Y-95686872D01*
X177130167Y-98334295D01*
X176791021Y-98334295D01*
X176684349Y-98148548D01*
X176591271Y-97936466D01*
X176495468Y-97630449D01*
X176439213Y-97314123D01*
X176422476Y-96992207D01*
X176445228Y-96669421D01*
X176507440Y-96350483D01*
X176602828Y-96055965D01*
X176734300Y-95776171D01*
X176902306Y-95511435D01*
X177102332Y-95266464D01*
X177329863Y-95045961D01*
X177580385Y-94854633D01*
X177849384Y-94697185D01*
X177953520Y-94648093D01*
X178203050Y-94554275D01*
X178468169Y-94484012D01*
X178736827Y-94439516D01*
X178996974Y-94423001D01*
X179151584Y-94427998D01*
G36*
X148746536Y-108900427D02*
G01*
X148859118Y-109497618D01*
X149274531Y-109668865D01*
X149689945Y-109840112D01*
X150188302Y-109501233D01*
X150327869Y-109406877D01*
X150454029Y-109322630D01*
X150560896Y-109252338D01*
X150642583Y-109199847D01*
X150693202Y-109169004D01*
X150706987Y-109162353D01*
X150731821Y-109179458D01*
X150784889Y-109226744D01*
X150860241Y-109298172D01*
X150951930Y-109387700D01*
X151054008Y-109489289D01*
X151160527Y-109596898D01*
X151265537Y-109704487D01*
X151363092Y-109806015D01*
X151447243Y-109895441D01*
X151512041Y-109966726D01*
X151551538Y-110013828D01*
X151560981Y-110029592D01*
X151547392Y-110058653D01*
X151509294Y-110122321D01*
X151450694Y-110214367D01*
X151375598Y-110328564D01*
X151288009Y-110458684D01*
X151237255Y-110532901D01*
X151144746Y-110668422D01*
X151062541Y-110790716D01*
X150994631Y-110893695D01*
X150945001Y-110971273D01*
X150917641Y-111017361D01*
X150913530Y-111027047D01*
X150922850Y-111054574D01*
X150948255Y-111118728D01*
X150985912Y-111210490D01*
X151031987Y-111320839D01*
X151082647Y-111440755D01*
X151134060Y-111561219D01*
X151182390Y-111673209D01*
X151223807Y-111767707D01*
X151254475Y-111835692D01*
X151270562Y-111868143D01*
X151271512Y-111869420D01*
X151296773Y-111875617D01*
X151364046Y-111889440D01*
X151466361Y-111909532D01*
X151596742Y-111934534D01*
X151748217Y-111963086D01*
X151836594Y-111979551D01*
X151998453Y-112010369D01*
X152144650Y-112039694D01*
X152267788Y-112065921D01*
X152360470Y-112087446D01*
X152415302Y-112102665D01*
X152426324Y-112107493D01*
X152437119Y-112140174D01*
X152445830Y-112213985D01*
X152452461Y-112320292D01*
X152457019Y-112450467D01*
X152459510Y-112595876D01*
X152459939Y-112747890D01*
X152458312Y-112897877D01*
X152454636Y-113037206D01*
X152448916Y-113157245D01*
X152441158Y-113249365D01*
X152431369Y-113304932D01*
X152425497Y-113316500D01*
X152390400Y-113330365D01*
X152316029Y-113350188D01*
X152212224Y-113373639D01*
X152088820Y-113398391D01*
X152045742Y-113406398D01*
X151838048Y-113444441D01*
X151673985Y-113475079D01*
X151548131Y-113499529D01*
X151455066Y-113519009D01*
X151389368Y-113534736D01*
X151345618Y-113547928D01*
X151318393Y-113559804D01*
X151302273Y-113571580D01*
X151300018Y-113573908D01*
X151277504Y-113611400D01*
X151243159Y-113684365D01*
X151200412Y-113783867D01*
X151152693Y-113900973D01*
X151103431Y-114026748D01*
X151056056Y-114152257D01*
X151013996Y-114268565D01*
X150980681Y-114366739D01*
X150959542Y-114437843D01*
X150954006Y-114472942D01*
X150954467Y-114474172D01*
X150973224Y-114502861D01*
X151015777Y-114565985D01*
X151077654Y-114656973D01*
X151154383Y-114769255D01*
X151241492Y-114896260D01*
X151266299Y-114932353D01*
X151354753Y-115063203D01*
X151432589Y-115182591D01*
X151495567Y-115283662D01*
X151539446Y-115359559D01*
X151559986Y-115403427D01*
X151560981Y-115408817D01*
X151543723Y-115437144D01*
X151496036Y-115493261D01*
X151424051Y-115571137D01*
X151333898Y-115664740D01*
X151231706Y-115768041D01*
X151123606Y-115875006D01*
X151015729Y-115979606D01*
X150914205Y-116075809D01*
X150825163Y-116157584D01*
X150754734Y-116218900D01*
X150709048Y-116253726D01*
X150696410Y-116259412D01*
X150666992Y-116246020D01*
X150606762Y-116209899D01*
X150525530Y-116157136D01*
X150463031Y-116114667D01*
X150349786Y-116036740D01*
X150215675Y-115944984D01*
X150081156Y-115853375D01*
X150008834Y-115804346D01*
X149764039Y-115638770D01*
X149558551Y-115749875D01*
X149464937Y-115798548D01*
X149385331Y-115836381D01*
X149331468Y-115857958D01*
X149317758Y-115860961D01*
X149301271Y-115838793D01*
X149268746Y-115776149D01*
X149222609Y-115678809D01*
X149165291Y-115552549D01*
X149099217Y-115403150D01*
X149026816Y-115236388D01*
X148950517Y-115058042D01*
X148872747Y-114873891D01*
X148795935Y-114689712D01*
X148722507Y-114511285D01*
X148654893Y-114344387D01*
X148595521Y-114194797D01*
X148546817Y-114068293D01*
X148511211Y-113970654D01*
X148491131Y-113907657D01*
X148487901Y-113886021D01*
X148513497Y-113858424D01*
X148569539Y-113813625D01*
X148644312Y-113760934D01*
X148650588Y-113756765D01*
X148843846Y-113602069D01*
X148999675Y-113421591D01*
X149116725Y-113221102D01*
X149193646Y-113006374D01*
X149229087Y-112783177D01*
X149221698Y-112557281D01*
X149170128Y-112334459D01*
X149073027Y-112120479D01*
X149044459Y-112073664D01*
X148895869Y-111884618D01*
X148720328Y-111732812D01*
X148523911Y-111619034D01*
X148312694Y-111544075D01*
X148092754Y-111508722D01*
X147870164Y-111513767D01*
X147651002Y-111559999D01*
X147441343Y-111648206D01*
X147247262Y-111779179D01*
X147187227Y-111832337D01*
X147034436Y-111998739D01*
X146923098Y-112173912D01*
X146846724Y-112370266D01*
X146804188Y-112564717D01*
X146793687Y-112783342D01*
X146828701Y-113003052D01*
X146905674Y-113216420D01*
X147021048Y-113416022D01*
X147171266Y-113594429D01*
X147352774Y-113744217D01*
X147376628Y-113760006D01*
X147452202Y-113811712D01*
X147509652Y-113856512D01*
X147537118Y-113885117D01*
X147537518Y-113886021D01*
X147531621Y-113916964D01*
X147508246Y-113987191D01*
X147469822Y-114090925D01*
X147418778Y-114222390D01*
X147357543Y-114375807D01*
X147288545Y-114545401D01*
X147214214Y-114725393D01*
X147136979Y-114910008D01*
X147059269Y-115093468D01*
X146983512Y-115269996D01*
X146912138Y-115433814D01*
X146847575Y-115579147D01*
X146792253Y-115700217D01*
X146748601Y-115791247D01*
X146719047Y-115846460D01*
X146707145Y-115860961D01*
X146670778Y-115849669D01*
X146602731Y-115819385D01*
X146514737Y-115775520D01*
X146466351Y-115749875D01*
X146260864Y-115638770D01*
X146016069Y-115804346D01*
X145891107Y-115889170D01*
X145754296Y-115982516D01*
X145626089Y-116070408D01*
X145561872Y-116114667D01*
X145471552Y-116175318D01*
X145395072Y-116223381D01*
X145342408Y-116252770D01*
X145325303Y-116258982D01*
X145300406Y-116242223D01*
X145245306Y-116195436D01*
X145165344Y-116123480D01*
X145065861Y-116031212D01*
X144952201Y-115923490D01*
X144880316Y-115854326D01*
X144754552Y-115730757D01*
X144645864Y-115620234D01*
X144558646Y-115527485D01*
X144497290Y-115457237D01*
X144466192Y-115414220D01*
X144463209Y-115405490D01*
X144477054Y-115372284D01*
X144515313Y-115305142D01*
X144573742Y-115210863D01*
X144648098Y-115096245D01*
X144734136Y-114968083D01*
X144758603Y-114932353D01*
X144847755Y-114802489D01*
X144927739Y-114685569D01*
X144994081Y-114588162D01*
X145042312Y-114516839D01*
X145067958Y-114478170D01*
X145070436Y-114474172D01*
X145066730Y-114443355D01*
X145047062Y-114375599D01*
X145014861Y-114279839D01*
X144973556Y-114165009D01*
X144926576Y-114040044D01*
X144877350Y-113913879D01*
X144829309Y-113795448D01*
X144785882Y-113693685D01*
X144750497Y-113617526D01*
X144726585Y-113575904D01*
X144724885Y-113573908D01*
X144710263Y-113562013D01*
X144685566Y-113550250D01*
X144645373Y-113537401D01*
X144584264Y-113522249D01*
X144496818Y-113503576D01*
X144377613Y-113480165D01*
X144221228Y-113450797D01*
X144022244Y-113414255D01*
X143979161Y-113406398D01*
X143851471Y-113381727D01*
X143740154Y-113357593D01*
X143655046Y-113336324D01*
X143605984Y-113320248D01*
X143599406Y-113316500D01*
X143588565Y-113283273D01*
X143579754Y-113209021D01*
X143572977Y-113102376D01*
X143568241Y-112971967D01*
X143565551Y-112826427D01*
X143564914Y-112674386D01*
X143566335Y-112524476D01*
X143569821Y-112385328D01*
X143575377Y-112265572D01*
X143583009Y-112173841D01*
X143592723Y-112118766D01*
X143598579Y-112107493D01*
X143631181Y-112096123D01*
X143705419Y-112077624D01*
X143813897Y-112053602D01*
X143949218Y-112025662D01*
X144103986Y-111995408D01*
X144188308Y-111979551D01*
X144348297Y-111949644D01*
X144490968Y-111922550D01*
X144609349Y-111899631D01*
X144696466Y-111882243D01*
X144745346Y-111871747D01*
X144753391Y-111869420D01*
X144766988Y-111843186D01*
X144795730Y-111779995D01*
X144835786Y-111688877D01*
X144883325Y-111578857D01*
X144934516Y-111458965D01*
X144985527Y-111338227D01*
X145032527Y-111225671D01*
X145071685Y-111130326D01*
X145099170Y-111061217D01*
X145111150Y-111027374D01*
X145111373Y-111025895D01*
X145097792Y-110999197D01*
X145059716Y-110937760D01*
X145001148Y-110847689D01*
X144926089Y-110735090D01*
X144838541Y-110606070D01*
X144787648Y-110531961D01*
X144694910Y-110396077D01*
X144612542Y-110272709D01*
X144544562Y-110168097D01*
X144494989Y-110088483D01*
X144467843Y-110040107D01*
X144463922Y-110029262D01*
X144480776Y-110004020D01*
X144527369Y-109950124D01*
X144597749Y-109873613D01*
X144685966Y-109780523D01*
X144786066Y-109676895D01*
X144892099Y-109568764D01*
X144998112Y-109462170D01*
X145098153Y-109363150D01*
X145186271Y-109277742D01*
X145256514Y-109211985D01*
X145302929Y-109171916D01*
X145318457Y-109162353D01*
X145343740Y-109175800D01*
X145404212Y-109213575D01*
X145493993Y-109271835D01*
X145607204Y-109346734D01*
X145737964Y-109434425D01*
X145836600Y-109501233D01*
X146334958Y-109840112D01*
X146750371Y-109668865D01*
X147165785Y-109497618D01*
X147278367Y-108900427D01*
X147390950Y-108303235D01*
X148633953Y-108303235D01*
X148746536Y-108900427D01*
X148746536Y-108900427D01*
G37*
X148746536Y-108900427D02*
X148859118Y-109497618D01*
X149274531Y-109668865D01*
X149689945Y-109840112D01*
X150188302Y-109501233D01*
X150327869Y-109406877D01*
X150454029Y-109322630D01*
X150560896Y-109252338D01*
X150642583Y-109199847D01*
X150693202Y-109169004D01*
X150706987Y-109162353D01*
X150731821Y-109179458D01*
X150784889Y-109226744D01*
X150860241Y-109298172D01*
X150951930Y-109387700D01*
X151054008Y-109489289D01*
X151160527Y-109596898D01*
X151265537Y-109704487D01*
X151363092Y-109806015D01*
X151447243Y-109895441D01*
X151512041Y-109966726D01*
X151551538Y-110013828D01*
X151560981Y-110029592D01*
X151547392Y-110058653D01*
X151509294Y-110122321D01*
X151450694Y-110214367D01*
X151375598Y-110328564D01*
X151288009Y-110458684D01*
X151237255Y-110532901D01*
X151144746Y-110668422D01*
X151062541Y-110790716D01*
X150994631Y-110893695D01*
X150945001Y-110971273D01*
X150917641Y-111017361D01*
X150913530Y-111027047D01*
X150922850Y-111054574D01*
X150948255Y-111118728D01*
X150985912Y-111210490D01*
X151031987Y-111320839D01*
X151082647Y-111440755D01*
X151134060Y-111561219D01*
X151182390Y-111673209D01*
X151223807Y-111767707D01*
X151254475Y-111835692D01*
X151270562Y-111868143D01*
X151271512Y-111869420D01*
X151296773Y-111875617D01*
X151364046Y-111889440D01*
X151466361Y-111909532D01*
X151596742Y-111934534D01*
X151748217Y-111963086D01*
X151836594Y-111979551D01*
X151998453Y-112010369D01*
X152144650Y-112039694D01*
X152267788Y-112065921D01*
X152360470Y-112087446D01*
X152415302Y-112102665D01*
X152426324Y-112107493D01*
X152437119Y-112140174D01*
X152445830Y-112213985D01*
X152452461Y-112320292D01*
X152457019Y-112450467D01*
X152459510Y-112595876D01*
X152459939Y-112747890D01*
X152458312Y-112897877D01*
X152454636Y-113037206D01*
X152448916Y-113157245D01*
X152441158Y-113249365D01*
X152431369Y-113304932D01*
X152425497Y-113316500D01*
X152390400Y-113330365D01*
X152316029Y-113350188D01*
X152212224Y-113373639D01*
X152088820Y-113398391D01*
X152045742Y-113406398D01*
X151838048Y-113444441D01*
X151673985Y-113475079D01*
X151548131Y-113499529D01*
X151455066Y-113519009D01*
X151389368Y-113534736D01*
X151345618Y-113547928D01*
X151318393Y-113559804D01*
X151302273Y-113571580D01*
X151300018Y-113573908D01*
X151277504Y-113611400D01*
X151243159Y-113684365D01*
X151200412Y-113783867D01*
X151152693Y-113900973D01*
X151103431Y-114026748D01*
X151056056Y-114152257D01*
X151013996Y-114268565D01*
X150980681Y-114366739D01*
X150959542Y-114437843D01*
X150954006Y-114472942D01*
X150954467Y-114474172D01*
X150973224Y-114502861D01*
X151015777Y-114565985D01*
X151077654Y-114656973D01*
X151154383Y-114769255D01*
X151241492Y-114896260D01*
X151266299Y-114932353D01*
X151354753Y-115063203D01*
X151432589Y-115182591D01*
X151495567Y-115283662D01*
X151539446Y-115359559D01*
X151559986Y-115403427D01*
X151560981Y-115408817D01*
X151543723Y-115437144D01*
X151496036Y-115493261D01*
X151424051Y-115571137D01*
X151333898Y-115664740D01*
X151231706Y-115768041D01*
X151123606Y-115875006D01*
X151015729Y-115979606D01*
X150914205Y-116075809D01*
X150825163Y-116157584D01*
X150754734Y-116218900D01*
X150709048Y-116253726D01*
X150696410Y-116259412D01*
X150666992Y-116246020D01*
X150606762Y-116209899D01*
X150525530Y-116157136D01*
X150463031Y-116114667D01*
X150349786Y-116036740D01*
X150215675Y-115944984D01*
X150081156Y-115853375D01*
X150008834Y-115804346D01*
X149764039Y-115638770D01*
X149558551Y-115749875D01*
X149464937Y-115798548D01*
X149385331Y-115836381D01*
X149331468Y-115857958D01*
X149317758Y-115860961D01*
X149301271Y-115838793D01*
X149268746Y-115776149D01*
X149222609Y-115678809D01*
X149165291Y-115552549D01*
X149099217Y-115403150D01*
X149026816Y-115236388D01*
X148950517Y-115058042D01*
X148872747Y-114873891D01*
X148795935Y-114689712D01*
X148722507Y-114511285D01*
X148654893Y-114344387D01*
X148595521Y-114194797D01*
X148546817Y-114068293D01*
X148511211Y-113970654D01*
X148491131Y-113907657D01*
X148487901Y-113886021D01*
X148513497Y-113858424D01*
X148569539Y-113813625D01*
X148644312Y-113760934D01*
X148650588Y-113756765D01*
X148843846Y-113602069D01*
X148999675Y-113421591D01*
X149116725Y-113221102D01*
X149193646Y-113006374D01*
X149229087Y-112783177D01*
X149221698Y-112557281D01*
X149170128Y-112334459D01*
X149073027Y-112120479D01*
X149044459Y-112073664D01*
X148895869Y-111884618D01*
X148720328Y-111732812D01*
X148523911Y-111619034D01*
X148312694Y-111544075D01*
X148092754Y-111508722D01*
X147870164Y-111513767D01*
X147651002Y-111559999D01*
X147441343Y-111648206D01*
X147247262Y-111779179D01*
X147187227Y-111832337D01*
X147034436Y-111998739D01*
X146923098Y-112173912D01*
X146846724Y-112370266D01*
X146804188Y-112564717D01*
X146793687Y-112783342D01*
X146828701Y-113003052D01*
X146905674Y-113216420D01*
X147021048Y-113416022D01*
X147171266Y-113594429D01*
X147352774Y-113744217D01*
X147376628Y-113760006D01*
X147452202Y-113811712D01*
X147509652Y-113856512D01*
X147537118Y-113885117D01*
X147537518Y-113886021D01*
X147531621Y-113916964D01*
X147508246Y-113987191D01*
X147469822Y-114090925D01*
X147418778Y-114222390D01*
X147357543Y-114375807D01*
X147288545Y-114545401D01*
X147214214Y-114725393D01*
X147136979Y-114910008D01*
X147059269Y-115093468D01*
X146983512Y-115269996D01*
X146912138Y-115433814D01*
X146847575Y-115579147D01*
X146792253Y-115700217D01*
X146748601Y-115791247D01*
X146719047Y-115846460D01*
X146707145Y-115860961D01*
X146670778Y-115849669D01*
X146602731Y-115819385D01*
X146514737Y-115775520D01*
X146466351Y-115749875D01*
X146260864Y-115638770D01*
X146016069Y-115804346D01*
X145891107Y-115889170D01*
X145754296Y-115982516D01*
X145626089Y-116070408D01*
X145561872Y-116114667D01*
X145471552Y-116175318D01*
X145395072Y-116223381D01*
X145342408Y-116252770D01*
X145325303Y-116258982D01*
X145300406Y-116242223D01*
X145245306Y-116195436D01*
X145165344Y-116123480D01*
X145065861Y-116031212D01*
X144952201Y-115923490D01*
X144880316Y-115854326D01*
X144754552Y-115730757D01*
X144645864Y-115620234D01*
X144558646Y-115527485D01*
X144497290Y-115457237D01*
X144466192Y-115414220D01*
X144463209Y-115405490D01*
X144477054Y-115372284D01*
X144515313Y-115305142D01*
X144573742Y-115210863D01*
X144648098Y-115096245D01*
X144734136Y-114968083D01*
X144758603Y-114932353D01*
X144847755Y-114802489D01*
X144927739Y-114685569D01*
X144994081Y-114588162D01*
X145042312Y-114516839D01*
X145067958Y-114478170D01*
X145070436Y-114474172D01*
X145066730Y-114443355D01*
X145047062Y-114375599D01*
X145014861Y-114279839D01*
X144973556Y-114165009D01*
X144926576Y-114040044D01*
X144877350Y-113913879D01*
X144829309Y-113795448D01*
X144785882Y-113693685D01*
X144750497Y-113617526D01*
X144726585Y-113575904D01*
X144724885Y-113573908D01*
X144710263Y-113562013D01*
X144685566Y-113550250D01*
X144645373Y-113537401D01*
X144584264Y-113522249D01*
X144496818Y-113503576D01*
X144377613Y-113480165D01*
X144221228Y-113450797D01*
X144022244Y-113414255D01*
X143979161Y-113406398D01*
X143851471Y-113381727D01*
X143740154Y-113357593D01*
X143655046Y-113336324D01*
X143605984Y-113320248D01*
X143599406Y-113316500D01*
X143588565Y-113283273D01*
X143579754Y-113209021D01*
X143572977Y-113102376D01*
X143568241Y-112971967D01*
X143565551Y-112826427D01*
X143564914Y-112674386D01*
X143566335Y-112524476D01*
X143569821Y-112385328D01*
X143575377Y-112265572D01*
X143583009Y-112173841D01*
X143592723Y-112118766D01*
X143598579Y-112107493D01*
X143631181Y-112096123D01*
X143705419Y-112077624D01*
X143813897Y-112053602D01*
X143949218Y-112025662D01*
X144103986Y-111995408D01*
X144188308Y-111979551D01*
X144348297Y-111949644D01*
X144490968Y-111922550D01*
X144609349Y-111899631D01*
X144696466Y-111882243D01*
X144745346Y-111871747D01*
X144753391Y-111869420D01*
X144766988Y-111843186D01*
X144795730Y-111779995D01*
X144835786Y-111688877D01*
X144883325Y-111578857D01*
X144934516Y-111458965D01*
X144985527Y-111338227D01*
X145032527Y-111225671D01*
X145071685Y-111130326D01*
X145099170Y-111061217D01*
X145111150Y-111027374D01*
X145111373Y-111025895D01*
X145097792Y-110999197D01*
X145059716Y-110937760D01*
X145001148Y-110847689D01*
X144926089Y-110735090D01*
X144838541Y-110606070D01*
X144787648Y-110531961D01*
X144694910Y-110396077D01*
X144612542Y-110272709D01*
X144544562Y-110168097D01*
X144494989Y-110088483D01*
X144467843Y-110040107D01*
X144463922Y-110029262D01*
X144480776Y-110004020D01*
X144527369Y-109950124D01*
X144597749Y-109873613D01*
X144685966Y-109780523D01*
X144786066Y-109676895D01*
X144892099Y-109568764D01*
X144998112Y-109462170D01*
X145098153Y-109363150D01*
X145186271Y-109277742D01*
X145256514Y-109211985D01*
X145302929Y-109171916D01*
X145318457Y-109162353D01*
X145343740Y-109175800D01*
X145404212Y-109213575D01*
X145493993Y-109271835D01*
X145607204Y-109346734D01*
X145737964Y-109434425D01*
X145836600Y-109501233D01*
X146334958Y-109840112D01*
X146750371Y-109668865D01*
X147165785Y-109497618D01*
X147278367Y-108900427D01*
X147390950Y-108303235D01*
X148633953Y-108303235D01*
X148746536Y-108900427D01*
D13*
X167410000Y-78037221D02*
X167410000Y-78362779D01*
X166390000Y-78037221D02*
X166390000Y-78362779D01*
X128260000Y-82250000D02*
X128260000Y-78040000D01*
X128260000Y-78040000D02*
X125240000Y-78040000D01*
X125240000Y-78040000D02*
X125240000Y-82250000D01*
X132740000Y-79710000D02*
X136950000Y-79710000D01*
X132740000Y-76690000D02*
X132740000Y-79710000D01*
X136950000Y-76690000D02*
X132740000Y-76690000D01*
X190110000Y-75550000D02*
X190110000Y-71340000D01*
X190110000Y-71340000D02*
X187090000Y-71340000D01*
X187090000Y-71340000D02*
X187090000Y-75550000D01*
D12*
X125252380Y-101238095D02*
X126061904Y-101238095D01*
X126157142Y-101190476D01*
X126204761Y-101142857D01*
X126252380Y-101047619D01*
X126252380Y-100857142D01*
X126204761Y-100761904D01*
X126157142Y-100714285D01*
X126061904Y-100666666D01*
X125252380Y-100666666D01*
X125585714Y-99761904D02*
X126252380Y-99761904D01*
X125204761Y-100000000D02*
X125919047Y-100238095D01*
X125919047Y-99619047D01*
X125347619Y-99285714D02*
X125300000Y-99238095D01*
X125252380Y-99142857D01*
X125252380Y-98904761D01*
X125300000Y-98809523D01*
X125347619Y-98761904D01*
X125442857Y-98714285D01*
X125538095Y-98714285D01*
X125680952Y-98761904D01*
X126252380Y-99333333D01*
X126252380Y-98714285D01*
X131352380Y-87214285D02*
X130352380Y-87214285D01*
X130352380Y-86976190D01*
X130400000Y-86833333D01*
X130495238Y-86738095D01*
X130590476Y-86690476D01*
X130780952Y-86642857D01*
X130923809Y-86642857D01*
X131114285Y-86690476D01*
X131209523Y-86738095D01*
X131304761Y-86833333D01*
X131352380Y-86976190D01*
X131352380Y-87214285D01*
X130352380Y-85785714D02*
X130352380Y-85976190D01*
X130400000Y-86071428D01*
X130447619Y-86119047D01*
X130590476Y-86214285D01*
X130780952Y-86261904D01*
X131161904Y-86261904D01*
X131257142Y-86214285D01*
X131304761Y-86166666D01*
X131352380Y-86071428D01*
X131352380Y-85880952D01*
X131304761Y-85785714D01*
X131257142Y-85738095D01*
X131161904Y-85690476D01*
X130923809Y-85690476D01*
X130828571Y-85738095D01*
X130780952Y-85785714D01*
X130733333Y-85880952D01*
X130733333Y-86071428D01*
X130780952Y-86166666D01*
X130828571Y-86214285D01*
X130923809Y-86261904D01*
X130447619Y-85309523D02*
X130400000Y-85261904D01*
X130352380Y-85166666D01*
X130352380Y-84928571D01*
X130400000Y-84833333D01*
X130447619Y-84785714D01*
X130542857Y-84738095D01*
X130638095Y-84738095D01*
X130780952Y-84785714D01*
X131352380Y-85357142D01*
X131352380Y-84738095D01*
X176985714Y-72252380D02*
X176985714Y-71252380D01*
X177223809Y-71252380D01*
X177366666Y-71300000D01*
X177461904Y-71395238D01*
X177509523Y-71490476D01*
X177557142Y-71680952D01*
X177557142Y-71823809D01*
X177509523Y-72014285D01*
X177461904Y-72109523D01*
X177366666Y-72204761D01*
X177223809Y-72252380D01*
X176985714Y-72252380D01*
X178414285Y-71252380D02*
X178223809Y-71252380D01*
X178128571Y-71300000D01*
X178080952Y-71347619D01*
X177985714Y-71490476D01*
X177938095Y-71680952D01*
X177938095Y-72061904D01*
X177985714Y-72157142D01*
X178033333Y-72204761D01*
X178128571Y-72252380D01*
X178319047Y-72252380D01*
X178414285Y-72204761D01*
X178461904Y-72157142D01*
X178509523Y-72061904D01*
X178509523Y-71823809D01*
X178461904Y-71728571D01*
X178414285Y-71680952D01*
X178319047Y-71633333D01*
X178128571Y-71633333D01*
X178033333Y-71680952D01*
X177985714Y-71728571D01*
X177938095Y-71823809D01*
X179366666Y-71585714D02*
X179366666Y-72252380D01*
X179128571Y-71204761D02*
X178890476Y-71919047D01*
X179509523Y-71919047D01*
X155257142Y-89452380D02*
X154780952Y-89452380D01*
X154780952Y-88452380D01*
X156019047Y-88452380D02*
X155828571Y-88452380D01*
X155733333Y-88500000D01*
X155685714Y-88547619D01*
X155590476Y-88690476D01*
X155542857Y-88880952D01*
X155542857Y-89261904D01*
X155590476Y-89357142D01*
X155638095Y-89404761D01*
X155733333Y-89452380D01*
X155923809Y-89452380D01*
X156019047Y-89404761D01*
X156066666Y-89357142D01*
X156114285Y-89261904D01*
X156114285Y-89023809D01*
X156066666Y-88928571D01*
X156019047Y-88880952D01*
X155923809Y-88833333D01*
X155733333Y-88833333D01*
X155638095Y-88880952D01*
X155590476Y-88928571D01*
X155542857Y-89023809D01*
X156447619Y-88452380D02*
X157066666Y-88452380D01*
X156733333Y-88833333D01*
X156876190Y-88833333D01*
X156971428Y-88880952D01*
X157019047Y-88928571D01*
X157066666Y-89023809D01*
X157066666Y-89261904D01*
X157019047Y-89357142D01*
X156971428Y-89404761D01*
X156876190Y-89452380D01*
X156590476Y-89452380D01*
X156495238Y-89404761D01*
X156447619Y-89357142D01*
X165652380Y-81738095D02*
X164652380Y-81738095D01*
X164652380Y-81500000D01*
X164700000Y-81357142D01*
X164795238Y-81261904D01*
X164890476Y-81214285D01*
X165080952Y-81166666D01*
X165223809Y-81166666D01*
X165414285Y-81214285D01*
X165509523Y-81261904D01*
X165604761Y-81357142D01*
X165652380Y-81500000D01*
X165652380Y-81738095D01*
X164747619Y-80785714D02*
X164700000Y-80738095D01*
X164652380Y-80642857D01*
X164652380Y-80404761D01*
X164700000Y-80309523D01*
X164747619Y-80261904D01*
X164842857Y-80214285D01*
X164938095Y-80214285D01*
X165080952Y-80261904D01*
X165652380Y-80833333D01*
X165652380Y-80214285D01*
X114561904Y-92452380D02*
X114561904Y-93261904D01*
X114609523Y-93357142D01*
X114657142Y-93404761D01*
X114752380Y-93452380D01*
X114942857Y-93452380D01*
X115038095Y-93404761D01*
X115085714Y-93357142D01*
X115133333Y-93261904D01*
X115133333Y-92452380D01*
X116038095Y-92452380D02*
X115847619Y-92452380D01*
X115752380Y-92500000D01*
X115704761Y-92547619D01*
X115609523Y-92690476D01*
X115561904Y-92880952D01*
X115561904Y-93261904D01*
X115609523Y-93357142D01*
X115657142Y-93404761D01*
X115752380Y-93452380D01*
X115942857Y-93452380D01*
X116038095Y-93404761D01*
X116085714Y-93357142D01*
X116133333Y-93261904D01*
X116133333Y-93023809D01*
X116085714Y-92928571D01*
X116038095Y-92880952D01*
X115942857Y-92833333D01*
X115752380Y-92833333D01*
X115657142Y-92880952D01*
X115609523Y-92928571D01*
X115561904Y-93023809D01*
X117085714Y-93452380D02*
X116514285Y-93452380D01*
X116800000Y-93452380D02*
X116800000Y-92452380D01*
X116704761Y-92595238D01*
X116609523Y-92690476D01*
X116514285Y-92738095D01*
X145957142Y-78566666D02*
X146004761Y-78614285D01*
X146052380Y-78757142D01*
X146052380Y-78852380D01*
X146004761Y-78995238D01*
X145909523Y-79090476D01*
X145814285Y-79138095D01*
X145623809Y-79185714D01*
X145480952Y-79185714D01*
X145290476Y-79138095D01*
X145195238Y-79090476D01*
X145100000Y-78995238D01*
X145052380Y-78852380D01*
X145052380Y-78757142D01*
X145100000Y-78614285D01*
X145147619Y-78566666D01*
X146052380Y-77614285D02*
X146052380Y-78185714D01*
X146052380Y-77900000D02*
X145052380Y-77900000D01*
X145195238Y-77995238D01*
X145290476Y-78090476D01*
X145338095Y-78185714D01*
X111402380Y-78142857D02*
X111402380Y-78619047D01*
X110402380Y-78619047D01*
X110402380Y-77380952D02*
X110402380Y-77571428D01*
X110450000Y-77666666D01*
X110497619Y-77714285D01*
X110640476Y-77809523D01*
X110830952Y-77857142D01*
X111211904Y-77857142D01*
X111307142Y-77809523D01*
X111354761Y-77761904D01*
X111402380Y-77666666D01*
X111402380Y-77476190D01*
X111354761Y-77380952D01*
X111307142Y-77333333D01*
X111211904Y-77285714D01*
X110973809Y-77285714D01*
X110878571Y-77333333D01*
X110830952Y-77380952D01*
X110783333Y-77476190D01*
X110783333Y-77666666D01*
X110830952Y-77761904D01*
X110878571Y-77809523D01*
X110973809Y-77857142D01*
X111402380Y-76333333D02*
X111402380Y-76904761D01*
X111402380Y-76619047D02*
X110402380Y-76619047D01*
X110545238Y-76714285D01*
X110640476Y-76809523D01*
X110688095Y-76904761D01*
X149657142Y-78566666D02*
X149704761Y-78614285D01*
X149752380Y-78757142D01*
X149752380Y-78852380D01*
X149704761Y-78995238D01*
X149609523Y-79090476D01*
X149514285Y-79138095D01*
X149323809Y-79185714D01*
X149180952Y-79185714D01*
X148990476Y-79138095D01*
X148895238Y-79090476D01*
X148800000Y-78995238D01*
X148752380Y-78852380D01*
X148752380Y-78757142D01*
X148800000Y-78614285D01*
X148847619Y-78566666D01*
X148847619Y-78185714D02*
X148800000Y-78138095D01*
X148752380Y-78042857D01*
X148752380Y-77804761D01*
X148800000Y-77709523D01*
X148847619Y-77661904D01*
X148942857Y-77614285D01*
X149038095Y-77614285D01*
X149180952Y-77661904D01*
X149752380Y-78233333D01*
X149752380Y-77614285D01*
X132333333Y-82157142D02*
X132285714Y-82204761D01*
X132142857Y-82252380D01*
X132047619Y-82252380D01*
X131904761Y-82204761D01*
X131809523Y-82109523D01*
X131761904Y-82014285D01*
X131714285Y-81823809D01*
X131714285Y-81680952D01*
X131761904Y-81490476D01*
X131809523Y-81395238D01*
X131904761Y-81300000D01*
X132047619Y-81252380D01*
X132142857Y-81252380D01*
X132285714Y-81300000D01*
X132333333Y-81347619D01*
X132666666Y-81252380D02*
X133285714Y-81252380D01*
X132952380Y-81633333D01*
X133095238Y-81633333D01*
X133190476Y-81680952D01*
X133238095Y-81728571D01*
X133285714Y-81823809D01*
X133285714Y-82061904D01*
X133238095Y-82157142D01*
X133190476Y-82204761D01*
X133095238Y-82252380D01*
X132809523Y-82252380D01*
X132714285Y-82204761D01*
X132666666Y-82157142D01*
X172057142Y-81166666D02*
X172104761Y-81214285D01*
X172152380Y-81357142D01*
X172152380Y-81452380D01*
X172104761Y-81595238D01*
X172009523Y-81690476D01*
X171914285Y-81738095D01*
X171723809Y-81785714D01*
X171580952Y-81785714D01*
X171390476Y-81738095D01*
X171295238Y-81690476D01*
X171200000Y-81595238D01*
X171152380Y-81452380D01*
X171152380Y-81357142D01*
X171200000Y-81214285D01*
X171247619Y-81166666D01*
X171485714Y-80309523D02*
X172152380Y-80309523D01*
X171104761Y-80547619D02*
X171819047Y-80785714D01*
X171819047Y-80166666D01*
X184557142Y-84166666D02*
X184604761Y-84214285D01*
X184652380Y-84357142D01*
X184652380Y-84452380D01*
X184604761Y-84595238D01*
X184509523Y-84690476D01*
X184414285Y-84738095D01*
X184223809Y-84785714D01*
X184080952Y-84785714D01*
X183890476Y-84738095D01*
X183795238Y-84690476D01*
X183700000Y-84595238D01*
X183652380Y-84452380D01*
X183652380Y-84357142D01*
X183700000Y-84214285D01*
X183747619Y-84166666D01*
X183652380Y-83261904D02*
X183652380Y-83738095D01*
X184128571Y-83785714D01*
X184080952Y-83738095D01*
X184033333Y-83642857D01*
X184033333Y-83404761D01*
X184080952Y-83309523D01*
X184128571Y-83261904D01*
X184223809Y-83214285D01*
X184461904Y-83214285D01*
X184557142Y-83261904D01*
X184604761Y-83309523D01*
X184652380Y-83404761D01*
X184652380Y-83642857D01*
X184604761Y-83738095D01*
X184557142Y-83785714D01*
X190557142Y-81766666D02*
X190604761Y-81814285D01*
X190652380Y-81957142D01*
X190652380Y-82052380D01*
X190604761Y-82195238D01*
X190509523Y-82290476D01*
X190414285Y-82338095D01*
X190223809Y-82385714D01*
X190080952Y-82385714D01*
X189890476Y-82338095D01*
X189795238Y-82290476D01*
X189700000Y-82195238D01*
X189652380Y-82052380D01*
X189652380Y-81957142D01*
X189700000Y-81814285D01*
X189747619Y-81766666D01*
X189652380Y-80909523D02*
X189652380Y-81100000D01*
X189700000Y-81195238D01*
X189747619Y-81242857D01*
X189890476Y-81338095D01*
X190080952Y-81385714D01*
X190461904Y-81385714D01*
X190557142Y-81338095D01*
X190604761Y-81290476D01*
X190652380Y-81195238D01*
X190652380Y-81004761D01*
X190604761Y-80909523D01*
X190557142Y-80861904D01*
X190461904Y-80814285D01*
X190223809Y-80814285D01*
X190128571Y-80861904D01*
X190080952Y-80909523D01*
X190033333Y-81004761D01*
X190033333Y-81195238D01*
X190080952Y-81290476D01*
X190128571Y-81338095D01*
X190223809Y-81385714D01*
X138557142Y-87387142D02*
X138509523Y-87434761D01*
X138366666Y-87482380D01*
X138271428Y-87482380D01*
X138128571Y-87434761D01*
X138033333Y-87339523D01*
X137985714Y-87244285D01*
X137938095Y-87053809D01*
X137938095Y-86910952D01*
X137985714Y-86720476D01*
X138033333Y-86625238D01*
X138128571Y-86530000D01*
X138271428Y-86482380D01*
X138366666Y-86482380D01*
X138509523Y-86530000D01*
X138557142Y-86577619D01*
X139414285Y-86815714D02*
X139414285Y-87482380D01*
X139176190Y-86434761D02*
X138938095Y-87149047D01*
X139557142Y-87149047D01*
X140461904Y-87482380D02*
X139890476Y-87482380D01*
X140176190Y-87482380D02*
X140176190Y-86482380D01*
X140080952Y-86625238D01*
X139985714Y-86720476D01*
X139890476Y-86768095D01*
X140557142Y-81442857D02*
X140604761Y-81490476D01*
X140652380Y-81633333D01*
X140652380Y-81728571D01*
X140604761Y-81871428D01*
X140509523Y-81966666D01*
X140414285Y-82014285D01*
X140223809Y-82061904D01*
X140080952Y-82061904D01*
X139890476Y-82014285D01*
X139795238Y-81966666D01*
X139700000Y-81871428D01*
X139652380Y-81728571D01*
X139652380Y-81633333D01*
X139700000Y-81490476D01*
X139747619Y-81442857D01*
X139985714Y-80585714D02*
X140652380Y-80585714D01*
X139604761Y-80823809D02*
X140319047Y-81061904D01*
X140319047Y-80442857D01*
X139747619Y-80109523D02*
X139700000Y-80061904D01*
X139652380Y-79966666D01*
X139652380Y-79728571D01*
X139700000Y-79633333D01*
X139747619Y-79585714D01*
X139842857Y-79538095D01*
X139938095Y-79538095D01*
X140080952Y-79585714D01*
X140652380Y-80157142D01*
X140652380Y-79538095D01*
X138569642Y-90587142D02*
X138522023Y-90634761D01*
X138379166Y-90682380D01*
X138283928Y-90682380D01*
X138141071Y-90634761D01*
X138045833Y-90539523D01*
X137998214Y-90444285D01*
X137950595Y-90253809D01*
X137950595Y-90110952D01*
X137998214Y-89920476D01*
X138045833Y-89825238D01*
X138141071Y-89730000D01*
X138283928Y-89682380D01*
X138379166Y-89682380D01*
X138522023Y-89730000D01*
X138569642Y-89777619D01*
X139426785Y-90015714D02*
X139426785Y-90682380D01*
X139188690Y-89634761D02*
X138950595Y-90349047D01*
X139569642Y-90349047D01*
X139855357Y-89682380D02*
X140474404Y-89682380D01*
X140141071Y-90063333D01*
X140283928Y-90063333D01*
X140379166Y-90110952D01*
X140426785Y-90158571D01*
X140474404Y-90253809D01*
X140474404Y-90491904D01*
X140426785Y-90587142D01*
X140379166Y-90634761D01*
X140283928Y-90682380D01*
X139998214Y-90682380D01*
X139902976Y-90634761D01*
X139855357Y-90587142D01*
X145057142Y-101842857D02*
X145104761Y-101890476D01*
X145152380Y-102033333D01*
X145152380Y-102128571D01*
X145104761Y-102271428D01*
X145009523Y-102366666D01*
X144914285Y-102414285D01*
X144723809Y-102461904D01*
X144580952Y-102461904D01*
X144390476Y-102414285D01*
X144295238Y-102366666D01*
X144200000Y-102271428D01*
X144152380Y-102128571D01*
X144152380Y-102033333D01*
X144200000Y-101890476D01*
X144247619Y-101842857D01*
X144485714Y-100985714D02*
X145152380Y-100985714D01*
X144104761Y-101223809D02*
X144819047Y-101461904D01*
X144819047Y-100842857D01*
X144485714Y-100033333D02*
X145152380Y-100033333D01*
X144104761Y-100271428D02*
X144819047Y-100509523D01*
X144819047Y-99890476D01*
X131257142Y-90242857D02*
X131304761Y-90290476D01*
X131352380Y-90433333D01*
X131352380Y-90528571D01*
X131304761Y-90671428D01*
X131209523Y-90766666D01*
X131114285Y-90814285D01*
X130923809Y-90861904D01*
X130780952Y-90861904D01*
X130590476Y-90814285D01*
X130495238Y-90766666D01*
X130400000Y-90671428D01*
X130352380Y-90528571D01*
X130352380Y-90433333D01*
X130400000Y-90290476D01*
X130447619Y-90242857D01*
X130352380Y-89385714D02*
X130352380Y-89576190D01*
X130400000Y-89671428D01*
X130447619Y-89719047D01*
X130590476Y-89814285D01*
X130780952Y-89861904D01*
X131161904Y-89861904D01*
X131257142Y-89814285D01*
X131304761Y-89766666D01*
X131352380Y-89671428D01*
X131352380Y-89480952D01*
X131304761Y-89385714D01*
X131257142Y-89338095D01*
X131161904Y-89290476D01*
X130923809Y-89290476D01*
X130828571Y-89338095D01*
X130780952Y-89385714D01*
X130733333Y-89480952D01*
X130733333Y-89671428D01*
X130780952Y-89766666D01*
X130828571Y-89814285D01*
X130923809Y-89861904D01*
X131352380Y-88338095D02*
X131352380Y-88909523D01*
X131352380Y-88623809D02*
X130352380Y-88623809D01*
X130495238Y-88719047D01*
X130590476Y-88814285D01*
X130638095Y-88909523D01*
X131257142Y-93642857D02*
X131304761Y-93690476D01*
X131352380Y-93833333D01*
X131352380Y-93928571D01*
X131304761Y-94071428D01*
X131209523Y-94166666D01*
X131114285Y-94214285D01*
X130923809Y-94261904D01*
X130780952Y-94261904D01*
X130590476Y-94214285D01*
X130495238Y-94166666D01*
X130400000Y-94071428D01*
X130352380Y-93928571D01*
X130352380Y-93833333D01*
X130400000Y-93690476D01*
X130447619Y-93642857D01*
X130352380Y-92785714D02*
X130352380Y-92976190D01*
X130400000Y-93071428D01*
X130447619Y-93119047D01*
X130590476Y-93214285D01*
X130780952Y-93261904D01*
X131161904Y-93261904D01*
X131257142Y-93214285D01*
X131304761Y-93166666D01*
X131352380Y-93071428D01*
X131352380Y-92880952D01*
X131304761Y-92785714D01*
X131257142Y-92738095D01*
X131161904Y-92690476D01*
X130923809Y-92690476D01*
X130828571Y-92738095D01*
X130780952Y-92785714D01*
X130733333Y-92880952D01*
X130733333Y-93071428D01*
X130780952Y-93166666D01*
X130828571Y-93214285D01*
X130923809Y-93261904D01*
X130447619Y-92309523D02*
X130400000Y-92261904D01*
X130352380Y-92166666D01*
X130352380Y-91928571D01*
X130400000Y-91833333D01*
X130447619Y-91785714D01*
X130542857Y-91738095D01*
X130638095Y-91738095D01*
X130780952Y-91785714D01*
X131352380Y-92357142D01*
X131352380Y-91738095D01*
X113257142Y-96642857D02*
X113304761Y-96690476D01*
X113352380Y-96833333D01*
X113352380Y-96928571D01*
X113304761Y-97071428D01*
X113209523Y-97166666D01*
X113114285Y-97214285D01*
X112923809Y-97261904D01*
X112780952Y-97261904D01*
X112590476Y-97214285D01*
X112495238Y-97166666D01*
X112400000Y-97071428D01*
X112352380Y-96928571D01*
X112352380Y-96833333D01*
X112400000Y-96690476D01*
X112447619Y-96642857D01*
X112352380Y-95785714D02*
X112352380Y-95976190D01*
X112400000Y-96071428D01*
X112447619Y-96119047D01*
X112590476Y-96214285D01*
X112780952Y-96261904D01*
X113161904Y-96261904D01*
X113257142Y-96214285D01*
X113304761Y-96166666D01*
X113352380Y-96071428D01*
X113352380Y-95880952D01*
X113304761Y-95785714D01*
X113257142Y-95738095D01*
X113161904Y-95690476D01*
X112923809Y-95690476D01*
X112828571Y-95738095D01*
X112780952Y-95785714D01*
X112733333Y-95880952D01*
X112733333Y-96071428D01*
X112780952Y-96166666D01*
X112828571Y-96214285D01*
X112923809Y-96261904D01*
X112352380Y-95357142D02*
X112352380Y-94738095D01*
X112733333Y-95071428D01*
X112733333Y-94928571D01*
X112780952Y-94833333D01*
X112828571Y-94785714D01*
X112923809Y-94738095D01*
X113161904Y-94738095D01*
X113257142Y-94785714D01*
X113304761Y-94833333D01*
X113352380Y-94928571D01*
X113352380Y-95214285D01*
X113304761Y-95309523D01*
X113257142Y-95357142D01*
X117957142Y-86157142D02*
X117909523Y-86204761D01*
X117766666Y-86252380D01*
X117671428Y-86252380D01*
X117528571Y-86204761D01*
X117433333Y-86109523D01*
X117385714Y-86014285D01*
X117338095Y-85823809D01*
X117338095Y-85680952D01*
X117385714Y-85490476D01*
X117433333Y-85395238D01*
X117528571Y-85300000D01*
X117671428Y-85252380D01*
X117766666Y-85252380D01*
X117909523Y-85300000D01*
X117957142Y-85347619D01*
X118814285Y-85252380D02*
X118623809Y-85252380D01*
X118528571Y-85300000D01*
X118480952Y-85347619D01*
X118385714Y-85490476D01*
X118338095Y-85680952D01*
X118338095Y-86061904D01*
X118385714Y-86157142D01*
X118433333Y-86204761D01*
X118528571Y-86252380D01*
X118719047Y-86252380D01*
X118814285Y-86204761D01*
X118861904Y-86157142D01*
X118909523Y-86061904D01*
X118909523Y-85823809D01*
X118861904Y-85728571D01*
X118814285Y-85680952D01*
X118719047Y-85633333D01*
X118528571Y-85633333D01*
X118433333Y-85680952D01*
X118385714Y-85728571D01*
X118338095Y-85823809D01*
X119766666Y-85585714D02*
X119766666Y-86252380D01*
X119528571Y-85204761D02*
X119290476Y-85919047D01*
X119909523Y-85919047D01*
X111857142Y-96642857D02*
X111904761Y-96690476D01*
X111952380Y-96833333D01*
X111952380Y-96928571D01*
X111904761Y-97071428D01*
X111809523Y-97166666D01*
X111714285Y-97214285D01*
X111523809Y-97261904D01*
X111380952Y-97261904D01*
X111190476Y-97214285D01*
X111095238Y-97166666D01*
X111000000Y-97071428D01*
X110952380Y-96928571D01*
X110952380Y-96833333D01*
X111000000Y-96690476D01*
X111047619Y-96642857D01*
X110952380Y-95785714D02*
X110952380Y-95976190D01*
X111000000Y-96071428D01*
X111047619Y-96119047D01*
X111190476Y-96214285D01*
X111380952Y-96261904D01*
X111761904Y-96261904D01*
X111857142Y-96214285D01*
X111904761Y-96166666D01*
X111952380Y-96071428D01*
X111952380Y-95880952D01*
X111904761Y-95785714D01*
X111857142Y-95738095D01*
X111761904Y-95690476D01*
X111523809Y-95690476D01*
X111428571Y-95738095D01*
X111380952Y-95785714D01*
X111333333Y-95880952D01*
X111333333Y-96071428D01*
X111380952Y-96166666D01*
X111428571Y-96214285D01*
X111523809Y-96261904D01*
X110952380Y-94785714D02*
X110952380Y-95261904D01*
X111428571Y-95309523D01*
X111380952Y-95261904D01*
X111333333Y-95166666D01*
X111333333Y-94928571D01*
X111380952Y-94833333D01*
X111428571Y-94785714D01*
X111523809Y-94738095D01*
X111761904Y-94738095D01*
X111857142Y-94785714D01*
X111904761Y-94833333D01*
X111952380Y-94928571D01*
X111952380Y-95166666D01*
X111904761Y-95261904D01*
X111857142Y-95309523D01*
X191357142Y-79042857D02*
X191404761Y-79090476D01*
X191452380Y-79233333D01*
X191452380Y-79328571D01*
X191404761Y-79471428D01*
X191309523Y-79566666D01*
X191214285Y-79614285D01*
X191023809Y-79661904D01*
X190880952Y-79661904D01*
X190690476Y-79614285D01*
X190595238Y-79566666D01*
X190500000Y-79471428D01*
X190452380Y-79328571D01*
X190452380Y-79233333D01*
X190500000Y-79090476D01*
X190547619Y-79042857D01*
X190452380Y-78185714D02*
X190452380Y-78376190D01*
X190500000Y-78471428D01*
X190547619Y-78519047D01*
X190690476Y-78614285D01*
X190880952Y-78661904D01*
X191261904Y-78661904D01*
X191357142Y-78614285D01*
X191404761Y-78566666D01*
X191452380Y-78471428D01*
X191452380Y-78280952D01*
X191404761Y-78185714D01*
X191357142Y-78138095D01*
X191261904Y-78090476D01*
X191023809Y-78090476D01*
X190928571Y-78138095D01*
X190880952Y-78185714D01*
X190833333Y-78280952D01*
X190833333Y-78471428D01*
X190880952Y-78566666D01*
X190928571Y-78614285D01*
X191023809Y-78661904D01*
X190880952Y-77519047D02*
X190833333Y-77614285D01*
X190785714Y-77661904D01*
X190690476Y-77709523D01*
X190642857Y-77709523D01*
X190547619Y-77661904D01*
X190500000Y-77614285D01*
X190452380Y-77519047D01*
X190452380Y-77328571D01*
X190500000Y-77233333D01*
X190547619Y-77185714D01*
X190642857Y-77138095D01*
X190690476Y-77138095D01*
X190785714Y-77185714D01*
X190833333Y-77233333D01*
X190880952Y-77328571D01*
X190880952Y-77519047D01*
X190928571Y-77614285D01*
X190976190Y-77661904D01*
X191071428Y-77709523D01*
X191261904Y-77709523D01*
X191357142Y-77661904D01*
X191404761Y-77614285D01*
X191452380Y-77519047D01*
X191452380Y-77328571D01*
X191404761Y-77233333D01*
X191357142Y-77185714D01*
X191261904Y-77138095D01*
X191071428Y-77138095D01*
X190976190Y-77185714D01*
X190928571Y-77233333D01*
X190880952Y-77328571D01*
X180957142Y-72242857D02*
X181004761Y-72290476D01*
X181052380Y-72433333D01*
X181052380Y-72528571D01*
X181004761Y-72671428D01*
X180909523Y-72766666D01*
X180814285Y-72814285D01*
X180623809Y-72861904D01*
X180480952Y-72861904D01*
X180290476Y-72814285D01*
X180195238Y-72766666D01*
X180100000Y-72671428D01*
X180052380Y-72528571D01*
X180052380Y-72433333D01*
X180100000Y-72290476D01*
X180147619Y-72242857D01*
X180052380Y-71909523D02*
X180052380Y-71242857D01*
X181052380Y-71671428D01*
X180052380Y-70671428D02*
X180052380Y-70576190D01*
X180100000Y-70480952D01*
X180147619Y-70433333D01*
X180242857Y-70385714D01*
X180433333Y-70338095D01*
X180671428Y-70338095D01*
X180861904Y-70385714D01*
X180957142Y-70433333D01*
X181004761Y-70480952D01*
X181052380Y-70576190D01*
X181052380Y-70671428D01*
X181004761Y-70766666D01*
X180957142Y-70814285D01*
X180861904Y-70861904D01*
X180671428Y-70909523D01*
X180433333Y-70909523D01*
X180242857Y-70861904D01*
X180147619Y-70814285D01*
X180100000Y-70766666D01*
X180052380Y-70671428D01*
X166557142Y-75357142D02*
X166509523Y-75404761D01*
X166366666Y-75452380D01*
X166271428Y-75452380D01*
X166128571Y-75404761D01*
X166033333Y-75309523D01*
X165985714Y-75214285D01*
X165938095Y-75023809D01*
X165938095Y-74880952D01*
X165985714Y-74690476D01*
X166033333Y-74595238D01*
X166128571Y-74500000D01*
X166271428Y-74452380D01*
X166366666Y-74452380D01*
X166509523Y-74500000D01*
X166557142Y-74547619D01*
X166890476Y-74452380D02*
X167557142Y-74452380D01*
X167128571Y-75452380D01*
X167890476Y-74547619D02*
X167938095Y-74500000D01*
X168033333Y-74452380D01*
X168271428Y-74452380D01*
X168366666Y-74500000D01*
X168414285Y-74547619D01*
X168461904Y-74642857D01*
X168461904Y-74738095D01*
X168414285Y-74880952D01*
X167842857Y-75452380D01*
X168461904Y-75452380D01*
X160257142Y-76242857D02*
X160304761Y-76290476D01*
X160352380Y-76433333D01*
X160352380Y-76528571D01*
X160304761Y-76671428D01*
X160209523Y-76766666D01*
X160114285Y-76814285D01*
X159923809Y-76861904D01*
X159780952Y-76861904D01*
X159590476Y-76814285D01*
X159495238Y-76766666D01*
X159400000Y-76671428D01*
X159352380Y-76528571D01*
X159352380Y-76433333D01*
X159400000Y-76290476D01*
X159447619Y-76242857D01*
X159352380Y-75909523D02*
X159352380Y-75242857D01*
X160352380Y-75671428D01*
X159352380Y-74957142D02*
X159352380Y-74338095D01*
X159733333Y-74671428D01*
X159733333Y-74528571D01*
X159780952Y-74433333D01*
X159828571Y-74385714D01*
X159923809Y-74338095D01*
X160161904Y-74338095D01*
X160257142Y-74385714D01*
X160304761Y-74433333D01*
X160352380Y-74528571D01*
X160352380Y-74814285D01*
X160304761Y-74909523D01*
X160257142Y-74957142D01*
X161757142Y-76242857D02*
X161804761Y-76290476D01*
X161852380Y-76433333D01*
X161852380Y-76528571D01*
X161804761Y-76671428D01*
X161709523Y-76766666D01*
X161614285Y-76814285D01*
X161423809Y-76861904D01*
X161280952Y-76861904D01*
X161090476Y-76814285D01*
X160995238Y-76766666D01*
X160900000Y-76671428D01*
X160852380Y-76528571D01*
X160852380Y-76433333D01*
X160900000Y-76290476D01*
X160947619Y-76242857D01*
X160852380Y-75909523D02*
X160852380Y-75242857D01*
X161852380Y-75671428D01*
X161185714Y-74433333D02*
X161852380Y-74433333D01*
X160804761Y-74671428D02*
X161519047Y-74909523D01*
X161519047Y-74290476D01*
X154957142Y-91207142D02*
X154909523Y-91254761D01*
X154766666Y-91302380D01*
X154671428Y-91302380D01*
X154528571Y-91254761D01*
X154433333Y-91159523D01*
X154385714Y-91064285D01*
X154338095Y-90873809D01*
X154338095Y-90730952D01*
X154385714Y-90540476D01*
X154433333Y-90445238D01*
X154528571Y-90350000D01*
X154671428Y-90302380D01*
X154766666Y-90302380D01*
X154909523Y-90350000D01*
X154957142Y-90397619D01*
X155290476Y-90302380D02*
X155957142Y-90302380D01*
X155528571Y-91302380D01*
X156814285Y-90302380D02*
X156338095Y-90302380D01*
X156290476Y-90778571D01*
X156338095Y-90730952D01*
X156433333Y-90683333D01*
X156671428Y-90683333D01*
X156766666Y-90730952D01*
X156814285Y-90778571D01*
X156861904Y-90873809D01*
X156861904Y-91111904D01*
X156814285Y-91207142D01*
X156766666Y-91254761D01*
X156671428Y-91302380D01*
X156433333Y-91302380D01*
X156338095Y-91254761D01*
X156290476Y-91207142D01*
X191666666Y-70052380D02*
X191666666Y-70766666D01*
X191619047Y-70909523D01*
X191523809Y-71004761D01*
X191380952Y-71052380D01*
X191285714Y-71052380D01*
X192095238Y-70147619D02*
X192142857Y-70100000D01*
X192238095Y-70052380D01*
X192476190Y-70052380D01*
X192571428Y-70100000D01*
X192619047Y-70147619D01*
X192666666Y-70242857D01*
X192666666Y-70338095D01*
X192619047Y-70480952D01*
X192047619Y-71052380D01*
X192666666Y-71052380D01*
X158990476Y-69852380D02*
X158990476Y-70566666D01*
X158942857Y-70709523D01*
X158847619Y-70804761D01*
X158704761Y-70852380D01*
X158609523Y-70852380D01*
X159895238Y-70185714D02*
X159895238Y-70852380D01*
X159657142Y-69804761D02*
X159419047Y-70519047D01*
X160038095Y-70519047D01*
X160942857Y-70852380D02*
X160371428Y-70852380D01*
X160657142Y-70852380D02*
X160657142Y-69852380D01*
X160561904Y-69995238D01*
X160466666Y-70090476D01*
X160371428Y-70138095D01*
X147890476Y-75452380D02*
X147890476Y-76166666D01*
X147842857Y-76309523D01*
X147747619Y-76404761D01*
X147604761Y-76452380D01*
X147509523Y-76452380D01*
X148795238Y-75785714D02*
X148795238Y-76452380D01*
X148557142Y-75404761D02*
X148319047Y-76119047D01*
X148938095Y-76119047D01*
X149223809Y-75452380D02*
X149842857Y-75452380D01*
X149509523Y-75833333D01*
X149652380Y-75833333D01*
X149747619Y-75880952D01*
X149795238Y-75928571D01*
X149842857Y-76023809D01*
X149842857Y-76261904D01*
X149795238Y-76357142D01*
X149747619Y-76404761D01*
X149652380Y-76452380D01*
X149366666Y-76452380D01*
X149271428Y-76404761D01*
X149223809Y-76357142D01*
X183757142Y-71052380D02*
X183280952Y-71052380D01*
X183280952Y-70052380D01*
X184519047Y-70052380D02*
X184328571Y-70052380D01*
X184233333Y-70100000D01*
X184185714Y-70147619D01*
X184090476Y-70290476D01*
X184042857Y-70480952D01*
X184042857Y-70861904D01*
X184090476Y-70957142D01*
X184138095Y-71004761D01*
X184233333Y-71052380D01*
X184423809Y-71052380D01*
X184519047Y-71004761D01*
X184566666Y-70957142D01*
X184614285Y-70861904D01*
X184614285Y-70623809D01*
X184566666Y-70528571D01*
X184519047Y-70480952D01*
X184423809Y-70433333D01*
X184233333Y-70433333D01*
X184138095Y-70480952D01*
X184090476Y-70528571D01*
X184042857Y-70623809D01*
X184995238Y-70147619D02*
X185042857Y-70100000D01*
X185138095Y-70052380D01*
X185376190Y-70052380D01*
X185471428Y-70100000D01*
X185519047Y-70147619D01*
X185566666Y-70242857D01*
X185566666Y-70338095D01*
X185519047Y-70480952D01*
X184947619Y-71052380D01*
X185566666Y-71052380D01*
X186104761Y-100947619D02*
X186009523Y-100900000D01*
X185914285Y-100804761D01*
X185771428Y-100661904D01*
X185676190Y-100614285D01*
X185580952Y-100614285D01*
X185628571Y-100852380D02*
X185533333Y-100804761D01*
X185438095Y-100709523D01*
X185390476Y-100519047D01*
X185390476Y-100185714D01*
X185438095Y-99995238D01*
X185533333Y-99900000D01*
X185628571Y-99852380D01*
X185819047Y-99852380D01*
X185914285Y-99900000D01*
X186009523Y-99995238D01*
X186057142Y-100185714D01*
X186057142Y-100519047D01*
X186009523Y-100709523D01*
X185914285Y-100804761D01*
X185819047Y-100852380D01*
X185628571Y-100852380D01*
X187009523Y-100852380D02*
X186438095Y-100852380D01*
X186723809Y-100852380D02*
X186723809Y-99852380D01*
X186628571Y-99995238D01*
X186533333Y-100090476D01*
X186438095Y-100138095D01*
X185747619Y-89771428D02*
X185700000Y-89866666D01*
X185604761Y-89961904D01*
X185461904Y-90104761D01*
X185414285Y-90200000D01*
X185414285Y-90295238D01*
X185652380Y-90247619D02*
X185604761Y-90342857D01*
X185509523Y-90438095D01*
X185319047Y-90485714D01*
X184985714Y-90485714D01*
X184795238Y-90438095D01*
X184700000Y-90342857D01*
X184652380Y-90247619D01*
X184652380Y-90057142D01*
X184700000Y-89961904D01*
X184795238Y-89866666D01*
X184985714Y-89819047D01*
X185319047Y-89819047D01*
X185509523Y-89866666D01*
X185604761Y-89961904D01*
X185652380Y-90057142D01*
X185652380Y-90247619D01*
X184985714Y-88961904D02*
X185652380Y-88961904D01*
X184604761Y-89200000D02*
X185319047Y-89438095D01*
X185319047Y-88819047D01*
X185652380Y-87914285D02*
X185652380Y-88485714D01*
X185652380Y-88200000D02*
X184652380Y-88200000D01*
X184795238Y-88295238D01*
X184890476Y-88390476D01*
X184938095Y-88485714D01*
X185747619Y-94971428D02*
X185700000Y-95066666D01*
X185604761Y-95161904D01*
X185461904Y-95304761D01*
X185414285Y-95400000D01*
X185414285Y-95495238D01*
X185652380Y-95447619D02*
X185604761Y-95542857D01*
X185509523Y-95638095D01*
X185319047Y-95685714D01*
X184985714Y-95685714D01*
X184795238Y-95638095D01*
X184700000Y-95542857D01*
X184652380Y-95447619D01*
X184652380Y-95257142D01*
X184700000Y-95161904D01*
X184795238Y-95066666D01*
X184985714Y-95019047D01*
X185319047Y-95019047D01*
X185509523Y-95066666D01*
X185604761Y-95161904D01*
X185652380Y-95257142D01*
X185652380Y-95447619D01*
X184985714Y-94161904D02*
X185652380Y-94161904D01*
X184604761Y-94400000D02*
X185319047Y-94638095D01*
X185319047Y-94019047D01*
X184747619Y-93685714D02*
X184700000Y-93638095D01*
X184652380Y-93542857D01*
X184652380Y-93304761D01*
X184700000Y-93209523D01*
X184747619Y-93161904D01*
X184842857Y-93114285D01*
X184938095Y-93114285D01*
X185080952Y-93161904D01*
X185652380Y-93733333D01*
X185652380Y-93114285D01*
X168952380Y-81166666D02*
X168476190Y-81500000D01*
X168952380Y-81738095D02*
X167952380Y-81738095D01*
X167952380Y-81357142D01*
X168000000Y-81261904D01*
X168047619Y-81214285D01*
X168142857Y-81166666D01*
X168285714Y-81166666D01*
X168380952Y-81214285D01*
X168428571Y-81261904D01*
X168476190Y-81357142D01*
X168476190Y-81738095D01*
X168952380Y-80214285D02*
X168952380Y-80785714D01*
X168952380Y-80500000D02*
X167952380Y-80500000D01*
X168095238Y-80595238D01*
X168190476Y-80690476D01*
X168238095Y-80785714D01*
X170552380Y-81166666D02*
X170076190Y-81500000D01*
X170552380Y-81738095D02*
X169552380Y-81738095D01*
X169552380Y-81357142D01*
X169600000Y-81261904D01*
X169647619Y-81214285D01*
X169742857Y-81166666D01*
X169885714Y-81166666D01*
X169980952Y-81214285D01*
X170028571Y-81261904D01*
X170076190Y-81357142D01*
X170076190Y-81738095D01*
X169647619Y-80785714D02*
X169600000Y-80738095D01*
X169552380Y-80642857D01*
X169552380Y-80404761D01*
X169600000Y-80309523D01*
X169647619Y-80261904D01*
X169742857Y-80214285D01*
X169838095Y-80214285D01*
X169980952Y-80261904D01*
X170552380Y-80833333D01*
X170552380Y-80214285D01*
X152752380Y-80966666D02*
X152276190Y-81300000D01*
X152752380Y-81538095D02*
X151752380Y-81538095D01*
X151752380Y-81157142D01*
X151800000Y-81061904D01*
X151847619Y-81014285D01*
X151942857Y-80966666D01*
X152085714Y-80966666D01*
X152180952Y-81014285D01*
X152228571Y-81061904D01*
X152276190Y-81157142D01*
X152276190Y-81538095D01*
X151752380Y-80633333D02*
X151752380Y-80014285D01*
X152133333Y-80347619D01*
X152133333Y-80204761D01*
X152180952Y-80109523D01*
X152228571Y-80061904D01*
X152323809Y-80014285D01*
X152561904Y-80014285D01*
X152657142Y-80061904D01*
X152704761Y-80109523D01*
X152752380Y-80204761D01*
X152752380Y-80490476D01*
X152704761Y-80585714D01*
X152657142Y-80633333D01*
X132433333Y-81052380D02*
X132100000Y-80576190D01*
X131861904Y-81052380D02*
X131861904Y-80052380D01*
X132242857Y-80052380D01*
X132338095Y-80100000D01*
X132385714Y-80147619D01*
X132433333Y-80242857D01*
X132433333Y-80385714D01*
X132385714Y-80480952D01*
X132338095Y-80528571D01*
X132242857Y-80576190D01*
X131861904Y-80576190D01*
X133290476Y-80385714D02*
X133290476Y-81052380D01*
X133052380Y-80004761D02*
X132814285Y-80719047D01*
X133433333Y-80719047D01*
X132433333Y-83852380D02*
X132100000Y-83376190D01*
X131861904Y-83852380D02*
X131861904Y-82852380D01*
X132242857Y-82852380D01*
X132338095Y-82900000D01*
X132385714Y-82947619D01*
X132433333Y-83042857D01*
X132433333Y-83185714D01*
X132385714Y-83280952D01*
X132338095Y-83328571D01*
X132242857Y-83376190D01*
X131861904Y-83376190D01*
X133338095Y-82852380D02*
X132861904Y-82852380D01*
X132814285Y-83328571D01*
X132861904Y-83280952D01*
X132957142Y-83233333D01*
X133195238Y-83233333D01*
X133290476Y-83280952D01*
X133338095Y-83328571D01*
X133385714Y-83423809D01*
X133385714Y-83661904D01*
X133338095Y-83757142D01*
X133290476Y-83804761D01*
X133195238Y-83852380D01*
X132957142Y-83852380D01*
X132861904Y-83804761D01*
X132814285Y-83757142D01*
X175352380Y-81166666D02*
X174876190Y-81500000D01*
X175352380Y-81738095D02*
X174352380Y-81738095D01*
X174352380Y-81357142D01*
X174400000Y-81261904D01*
X174447619Y-81214285D01*
X174542857Y-81166666D01*
X174685714Y-81166666D01*
X174780952Y-81214285D01*
X174828571Y-81261904D01*
X174876190Y-81357142D01*
X174876190Y-81738095D01*
X174352380Y-80309523D02*
X174352380Y-80500000D01*
X174400000Y-80595238D01*
X174447619Y-80642857D01*
X174590476Y-80738095D01*
X174780952Y-80785714D01*
X175161904Y-80785714D01*
X175257142Y-80738095D01*
X175304761Y-80690476D01*
X175352380Y-80595238D01*
X175352380Y-80404761D01*
X175304761Y-80309523D01*
X175257142Y-80261904D01*
X175161904Y-80214285D01*
X174923809Y-80214285D01*
X174828571Y-80261904D01*
X174780952Y-80309523D01*
X174733333Y-80404761D01*
X174733333Y-80595238D01*
X174780952Y-80690476D01*
X174828571Y-80738095D01*
X174923809Y-80785714D01*
X173652380Y-81166666D02*
X173176190Y-81500000D01*
X173652380Y-81738095D02*
X172652380Y-81738095D01*
X172652380Y-81357142D01*
X172700000Y-81261904D01*
X172747619Y-81214285D01*
X172842857Y-81166666D01*
X172985714Y-81166666D01*
X173080952Y-81214285D01*
X173128571Y-81261904D01*
X173176190Y-81357142D01*
X173176190Y-81738095D01*
X172652380Y-80833333D02*
X172652380Y-80166666D01*
X173652380Y-80595238D01*
X189433333Y-98152380D02*
X189100000Y-97676190D01*
X188861904Y-98152380D02*
X188861904Y-97152380D01*
X189242857Y-97152380D01*
X189338095Y-97200000D01*
X189385714Y-97247619D01*
X189433333Y-97342857D01*
X189433333Y-97485714D01*
X189385714Y-97580952D01*
X189338095Y-97628571D01*
X189242857Y-97676190D01*
X188861904Y-97676190D01*
X189909523Y-98152380D02*
X190100000Y-98152380D01*
X190195238Y-98104761D01*
X190242857Y-98057142D01*
X190338095Y-97914285D01*
X190385714Y-97723809D01*
X190385714Y-97342857D01*
X190338095Y-97247619D01*
X190290476Y-97200000D01*
X190195238Y-97152380D01*
X190004761Y-97152380D01*
X189909523Y-97200000D01*
X189861904Y-97247619D01*
X189814285Y-97342857D01*
X189814285Y-97580952D01*
X189861904Y-97676190D01*
X189909523Y-97723809D01*
X190004761Y-97771428D01*
X190195238Y-97771428D01*
X190290476Y-97723809D01*
X190338095Y-97676190D01*
X190385714Y-97580952D01*
X153857142Y-76952380D02*
X153523809Y-76476190D01*
X153285714Y-76952380D02*
X153285714Y-75952380D01*
X153666666Y-75952380D01*
X153761904Y-76000000D01*
X153809523Y-76047619D01*
X153857142Y-76142857D01*
X153857142Y-76285714D01*
X153809523Y-76380952D01*
X153761904Y-76428571D01*
X153666666Y-76476190D01*
X153285714Y-76476190D01*
X154714285Y-76285714D02*
X154714285Y-76952380D01*
X154476190Y-75904761D02*
X154238095Y-76619047D01*
X154857142Y-76619047D01*
X155761904Y-76952380D02*
X155190476Y-76952380D01*
X155476190Y-76952380D02*
X155476190Y-75952380D01*
X155380952Y-76095238D01*
X155285714Y-76190476D01*
X155190476Y-76238095D01*
X153857142Y-78452380D02*
X153523809Y-77976190D01*
X153285714Y-78452380D02*
X153285714Y-77452380D01*
X153666666Y-77452380D01*
X153761904Y-77500000D01*
X153809523Y-77547619D01*
X153857142Y-77642857D01*
X153857142Y-77785714D01*
X153809523Y-77880952D01*
X153761904Y-77928571D01*
X153666666Y-77976190D01*
X153285714Y-77976190D01*
X154714285Y-77785714D02*
X154714285Y-78452380D01*
X154476190Y-77404761D02*
X154238095Y-78119047D01*
X154857142Y-78119047D01*
X155190476Y-77547619D02*
X155238095Y-77500000D01*
X155333333Y-77452380D01*
X155571428Y-77452380D01*
X155666666Y-77500000D01*
X155714285Y-77547619D01*
X155761904Y-77642857D01*
X155761904Y-77738095D01*
X155714285Y-77880952D01*
X155142857Y-78452380D01*
X155761904Y-78452380D01*
X145482380Y-96042857D02*
X145006190Y-96376190D01*
X145482380Y-96614285D02*
X144482380Y-96614285D01*
X144482380Y-96233333D01*
X144530000Y-96138095D01*
X144577619Y-96090476D01*
X144672857Y-96042857D01*
X144815714Y-96042857D01*
X144910952Y-96090476D01*
X144958571Y-96138095D01*
X145006190Y-96233333D01*
X145006190Y-96614285D01*
X144815714Y-95185714D02*
X145482380Y-95185714D01*
X144434761Y-95423809D02*
X145149047Y-95661904D01*
X145149047Y-95042857D01*
X144482380Y-94757142D02*
X144482380Y-94138095D01*
X144863333Y-94471428D01*
X144863333Y-94328571D01*
X144910952Y-94233333D01*
X144958571Y-94185714D01*
X145053809Y-94138095D01*
X145291904Y-94138095D01*
X145387142Y-94185714D01*
X145434761Y-94233333D01*
X145482380Y-94328571D01*
X145482380Y-94614285D01*
X145434761Y-94709523D01*
X145387142Y-94757142D01*
X154957142Y-85852380D02*
X154623809Y-85376190D01*
X154385714Y-85852380D02*
X154385714Y-84852380D01*
X154766666Y-84852380D01*
X154861904Y-84900000D01*
X154909523Y-84947619D01*
X154957142Y-85042857D01*
X154957142Y-85185714D01*
X154909523Y-85280952D01*
X154861904Y-85328571D01*
X154766666Y-85376190D01*
X154385714Y-85376190D01*
X155814285Y-85185714D02*
X155814285Y-85852380D01*
X155576190Y-84804761D02*
X155338095Y-85519047D01*
X155957142Y-85519047D01*
X156766666Y-85185714D02*
X156766666Y-85852380D01*
X156528571Y-84804761D02*
X156290476Y-85519047D01*
X156909523Y-85519047D01*
X144152380Y-78542857D02*
X143676190Y-78876190D01*
X144152380Y-79114285D02*
X143152380Y-79114285D01*
X143152380Y-78733333D01*
X143200000Y-78638095D01*
X143247619Y-78590476D01*
X143342857Y-78542857D01*
X143485714Y-78542857D01*
X143580952Y-78590476D01*
X143628571Y-78638095D01*
X143676190Y-78733333D01*
X143676190Y-79114285D01*
X143485714Y-77685714D02*
X144152380Y-77685714D01*
X143104761Y-77923809D02*
X143819047Y-78161904D01*
X143819047Y-77542857D01*
X143152380Y-76685714D02*
X143152380Y-77161904D01*
X143628571Y-77209523D01*
X143580952Y-77161904D01*
X143533333Y-77066666D01*
X143533333Y-76828571D01*
X143580952Y-76733333D01*
X143628571Y-76685714D01*
X143723809Y-76638095D01*
X143961904Y-76638095D01*
X144057142Y-76685714D01*
X144104761Y-76733333D01*
X144152380Y-76828571D01*
X144152380Y-77066666D01*
X144104761Y-77161904D01*
X144057142Y-77209523D01*
X184352380Y-95042857D02*
X183876190Y-95376190D01*
X184352380Y-95614285D02*
X183352380Y-95614285D01*
X183352380Y-95233333D01*
X183400000Y-95138095D01*
X183447619Y-95090476D01*
X183542857Y-95042857D01*
X183685714Y-95042857D01*
X183780952Y-95090476D01*
X183828571Y-95138095D01*
X183876190Y-95233333D01*
X183876190Y-95614285D01*
X183685714Y-94185714D02*
X184352380Y-94185714D01*
X183304761Y-94423809D02*
X184019047Y-94661904D01*
X184019047Y-94042857D01*
X183352380Y-93233333D02*
X183352380Y-93423809D01*
X183400000Y-93519047D01*
X183447619Y-93566666D01*
X183590476Y-93661904D01*
X183780952Y-93709523D01*
X184161904Y-93709523D01*
X184257142Y-93661904D01*
X184304761Y-93614285D01*
X184352380Y-93519047D01*
X184352380Y-93328571D01*
X184304761Y-93233333D01*
X184257142Y-93185714D01*
X184161904Y-93138095D01*
X183923809Y-93138095D01*
X183828571Y-93185714D01*
X183780952Y-93233333D01*
X183733333Y-93328571D01*
X183733333Y-93519047D01*
X183780952Y-93614285D01*
X183828571Y-93661904D01*
X183923809Y-93709523D01*
X184352380Y-89842857D02*
X183876190Y-90176190D01*
X184352380Y-90414285D02*
X183352380Y-90414285D01*
X183352380Y-90033333D01*
X183400000Y-89938095D01*
X183447619Y-89890476D01*
X183542857Y-89842857D01*
X183685714Y-89842857D01*
X183780952Y-89890476D01*
X183828571Y-89938095D01*
X183876190Y-90033333D01*
X183876190Y-90414285D01*
X183685714Y-88985714D02*
X184352380Y-88985714D01*
X183304761Y-89223809D02*
X184019047Y-89461904D01*
X184019047Y-88842857D01*
X183352380Y-88557142D02*
X183352380Y-87890476D01*
X184352380Y-88319047D01*
X185557142Y-87052380D02*
X185223809Y-86576190D01*
X184985714Y-87052380D02*
X184985714Y-86052380D01*
X185366666Y-86052380D01*
X185461904Y-86100000D01*
X185509523Y-86147619D01*
X185557142Y-86242857D01*
X185557142Y-86385714D01*
X185509523Y-86480952D01*
X185461904Y-86528571D01*
X185366666Y-86576190D01*
X184985714Y-86576190D01*
X186414285Y-86385714D02*
X186414285Y-87052380D01*
X186176190Y-86004761D02*
X185938095Y-86719047D01*
X186557142Y-86719047D01*
X187080952Y-86480952D02*
X186985714Y-86433333D01*
X186938095Y-86385714D01*
X186890476Y-86290476D01*
X186890476Y-86242857D01*
X186938095Y-86147619D01*
X186985714Y-86100000D01*
X187080952Y-86052380D01*
X187271428Y-86052380D01*
X187366666Y-86100000D01*
X187414285Y-86147619D01*
X187461904Y-86242857D01*
X187461904Y-86290476D01*
X187414285Y-86385714D01*
X187366666Y-86433333D01*
X187271428Y-86480952D01*
X187080952Y-86480952D01*
X186985714Y-86528571D01*
X186938095Y-86576190D01*
X186890476Y-86671428D01*
X186890476Y-86861904D01*
X186938095Y-86957142D01*
X186985714Y-87004761D01*
X187080952Y-87052380D01*
X187271428Y-87052380D01*
X187366666Y-87004761D01*
X187414285Y-86957142D01*
X187461904Y-86861904D01*
X187461904Y-86671428D01*
X187414285Y-86576190D01*
X187366666Y-86528571D01*
X187271428Y-86480952D01*
X185557142Y-92252380D02*
X185223809Y-91776190D01*
X184985714Y-92252380D02*
X184985714Y-91252380D01*
X185366666Y-91252380D01*
X185461904Y-91300000D01*
X185509523Y-91347619D01*
X185557142Y-91442857D01*
X185557142Y-91585714D01*
X185509523Y-91680952D01*
X185461904Y-91728571D01*
X185366666Y-91776190D01*
X184985714Y-91776190D01*
X186414285Y-91585714D02*
X186414285Y-92252380D01*
X186176190Y-91204761D02*
X185938095Y-91919047D01*
X186557142Y-91919047D01*
X186985714Y-92252380D02*
X187176190Y-92252380D01*
X187271428Y-92204761D01*
X187319047Y-92157142D01*
X187414285Y-92014285D01*
X187461904Y-91823809D01*
X187461904Y-91442857D01*
X187414285Y-91347619D01*
X187366666Y-91300000D01*
X187271428Y-91252380D01*
X187080952Y-91252380D01*
X186985714Y-91300000D01*
X186938095Y-91347619D01*
X186890476Y-91442857D01*
X186890476Y-91680952D01*
X186938095Y-91776190D01*
X186985714Y-91823809D01*
X187080952Y-91871428D01*
X187271428Y-91871428D01*
X187366666Y-91823809D01*
X187414285Y-91776190D01*
X187461904Y-91680952D01*
X118557142Y-95052380D02*
X118223809Y-94576190D01*
X117985714Y-95052380D02*
X117985714Y-94052380D01*
X118366666Y-94052380D01*
X118461904Y-94100000D01*
X118509523Y-94147619D01*
X118557142Y-94242857D01*
X118557142Y-94385714D01*
X118509523Y-94480952D01*
X118461904Y-94528571D01*
X118366666Y-94576190D01*
X117985714Y-94576190D01*
X119414285Y-94052380D02*
X119223809Y-94052380D01*
X119128571Y-94100000D01*
X119080952Y-94147619D01*
X118985714Y-94290476D01*
X118938095Y-94480952D01*
X118938095Y-94861904D01*
X118985714Y-94957142D01*
X119033333Y-95004761D01*
X119128571Y-95052380D01*
X119319047Y-95052380D01*
X119414285Y-95004761D01*
X119461904Y-94957142D01*
X119509523Y-94861904D01*
X119509523Y-94623809D01*
X119461904Y-94528571D01*
X119414285Y-94480952D01*
X119319047Y-94433333D01*
X119128571Y-94433333D01*
X119033333Y-94480952D01*
X118985714Y-94528571D01*
X118938095Y-94623809D01*
X120461904Y-95052380D02*
X119890476Y-95052380D01*
X120176190Y-95052380D02*
X120176190Y-94052380D01*
X120080952Y-94195238D01*
X119985714Y-94290476D01*
X119890476Y-94338095D01*
X112052380Y-86392857D02*
X111576190Y-86726190D01*
X112052380Y-86964285D02*
X111052380Y-86964285D01*
X111052380Y-86583333D01*
X111100000Y-86488095D01*
X111147619Y-86440476D01*
X111242857Y-86392857D01*
X111385714Y-86392857D01*
X111480952Y-86440476D01*
X111528571Y-86488095D01*
X111576190Y-86583333D01*
X111576190Y-86964285D01*
X111052380Y-85535714D02*
X111052380Y-85726190D01*
X111100000Y-85821428D01*
X111147619Y-85869047D01*
X111290476Y-85964285D01*
X111480952Y-86011904D01*
X111861904Y-86011904D01*
X111957142Y-85964285D01*
X112004761Y-85916666D01*
X112052380Y-85821428D01*
X112052380Y-85630952D01*
X112004761Y-85535714D01*
X111957142Y-85488095D01*
X111861904Y-85440476D01*
X111623809Y-85440476D01*
X111528571Y-85488095D01*
X111480952Y-85535714D01*
X111433333Y-85630952D01*
X111433333Y-85821428D01*
X111480952Y-85916666D01*
X111528571Y-85964285D01*
X111623809Y-86011904D01*
X111147619Y-85059523D02*
X111100000Y-85011904D01*
X111052380Y-84916666D01*
X111052380Y-84678571D01*
X111100000Y-84583333D01*
X111147619Y-84535714D01*
X111242857Y-84488095D01*
X111338095Y-84488095D01*
X111480952Y-84535714D01*
X112052380Y-85107142D01*
X112052380Y-84488095D01*
X110452380Y-96642857D02*
X109976190Y-96976190D01*
X110452380Y-97214285D02*
X109452380Y-97214285D01*
X109452380Y-96833333D01*
X109500000Y-96738095D01*
X109547619Y-96690476D01*
X109642857Y-96642857D01*
X109785714Y-96642857D01*
X109880952Y-96690476D01*
X109928571Y-96738095D01*
X109976190Y-96833333D01*
X109976190Y-97214285D01*
X109452380Y-95785714D02*
X109452380Y-95976190D01*
X109500000Y-96071428D01*
X109547619Y-96119047D01*
X109690476Y-96214285D01*
X109880952Y-96261904D01*
X110261904Y-96261904D01*
X110357142Y-96214285D01*
X110404761Y-96166666D01*
X110452380Y-96071428D01*
X110452380Y-95880952D01*
X110404761Y-95785714D01*
X110357142Y-95738095D01*
X110261904Y-95690476D01*
X110023809Y-95690476D01*
X109928571Y-95738095D01*
X109880952Y-95785714D01*
X109833333Y-95880952D01*
X109833333Y-96071428D01*
X109880952Y-96166666D01*
X109928571Y-96214285D01*
X110023809Y-96261904D01*
X109452380Y-95357142D02*
X109452380Y-94738095D01*
X109833333Y-95071428D01*
X109833333Y-94928571D01*
X109880952Y-94833333D01*
X109928571Y-94785714D01*
X110023809Y-94738095D01*
X110261904Y-94738095D01*
X110357142Y-94785714D01*
X110404761Y-94833333D01*
X110452380Y-94928571D01*
X110452380Y-95214285D01*
X110404761Y-95309523D01*
X110357142Y-95357142D01*
X113452380Y-99742857D02*
X112976190Y-100076190D01*
X113452380Y-100314285D02*
X112452380Y-100314285D01*
X112452380Y-99933333D01*
X112500000Y-99838095D01*
X112547619Y-99790476D01*
X112642857Y-99742857D01*
X112785714Y-99742857D01*
X112880952Y-99790476D01*
X112928571Y-99838095D01*
X112976190Y-99933333D01*
X112976190Y-100314285D01*
X112452380Y-98885714D02*
X112452380Y-99076190D01*
X112500000Y-99171428D01*
X112547619Y-99219047D01*
X112690476Y-99314285D01*
X112880952Y-99361904D01*
X113261904Y-99361904D01*
X113357142Y-99314285D01*
X113404761Y-99266666D01*
X113452380Y-99171428D01*
X113452380Y-98980952D01*
X113404761Y-98885714D01*
X113357142Y-98838095D01*
X113261904Y-98790476D01*
X113023809Y-98790476D01*
X112928571Y-98838095D01*
X112880952Y-98885714D01*
X112833333Y-98980952D01*
X112833333Y-99171428D01*
X112880952Y-99266666D01*
X112928571Y-99314285D01*
X113023809Y-99361904D01*
X112785714Y-97933333D02*
X113452380Y-97933333D01*
X112404761Y-98171428D02*
X113119047Y-98409523D01*
X113119047Y-97790476D01*
X177357142Y-82452380D02*
X177023809Y-81976190D01*
X176785714Y-82452380D02*
X176785714Y-81452380D01*
X177166666Y-81452380D01*
X177261904Y-81500000D01*
X177309523Y-81547619D01*
X177357142Y-81642857D01*
X177357142Y-81785714D01*
X177309523Y-81880952D01*
X177261904Y-81928571D01*
X177166666Y-81976190D01*
X176785714Y-81976190D01*
X178214285Y-81452380D02*
X178023809Y-81452380D01*
X177928571Y-81500000D01*
X177880952Y-81547619D01*
X177785714Y-81690476D01*
X177738095Y-81880952D01*
X177738095Y-82261904D01*
X177785714Y-82357142D01*
X177833333Y-82404761D01*
X177928571Y-82452380D01*
X178119047Y-82452380D01*
X178214285Y-82404761D01*
X178261904Y-82357142D01*
X178309523Y-82261904D01*
X178309523Y-82023809D01*
X178261904Y-81928571D01*
X178214285Y-81880952D01*
X178119047Y-81833333D01*
X177928571Y-81833333D01*
X177833333Y-81880952D01*
X177785714Y-81928571D01*
X177738095Y-82023809D01*
X179166666Y-81452380D02*
X178976190Y-81452380D01*
X178880952Y-81500000D01*
X178833333Y-81547619D01*
X178738095Y-81690476D01*
X178690476Y-81880952D01*
X178690476Y-82261904D01*
X178738095Y-82357142D01*
X178785714Y-82404761D01*
X178880952Y-82452380D01*
X179071428Y-82452380D01*
X179166666Y-82404761D01*
X179214285Y-82357142D01*
X179261904Y-82261904D01*
X179261904Y-82023809D01*
X179214285Y-81928571D01*
X179166666Y-81880952D01*
X179071428Y-81833333D01*
X178880952Y-81833333D01*
X178785714Y-81880952D01*
X178738095Y-81928571D01*
X178690476Y-82023809D01*
X180557142Y-82452380D02*
X180223809Y-81976190D01*
X179985714Y-82452380D02*
X179985714Y-81452380D01*
X180366666Y-81452380D01*
X180461904Y-81500000D01*
X180509523Y-81547619D01*
X180557142Y-81642857D01*
X180557142Y-81785714D01*
X180509523Y-81880952D01*
X180461904Y-81928571D01*
X180366666Y-81976190D01*
X179985714Y-81976190D01*
X181414285Y-81452380D02*
X181223809Y-81452380D01*
X181128571Y-81500000D01*
X181080952Y-81547619D01*
X180985714Y-81690476D01*
X180938095Y-81880952D01*
X180938095Y-82261904D01*
X180985714Y-82357142D01*
X181033333Y-82404761D01*
X181128571Y-82452380D01*
X181319047Y-82452380D01*
X181414285Y-82404761D01*
X181461904Y-82357142D01*
X181509523Y-82261904D01*
X181509523Y-82023809D01*
X181461904Y-81928571D01*
X181414285Y-81880952D01*
X181319047Y-81833333D01*
X181128571Y-81833333D01*
X181033333Y-81880952D01*
X180985714Y-81928571D01*
X180938095Y-82023809D01*
X181842857Y-81452380D02*
X182509523Y-81452380D01*
X182080952Y-82452380D01*
X170852380Y-73442857D02*
X170376190Y-73776190D01*
X170852380Y-74014285D02*
X169852380Y-74014285D01*
X169852380Y-73633333D01*
X169900000Y-73538095D01*
X169947619Y-73490476D01*
X170042857Y-73442857D01*
X170185714Y-73442857D01*
X170280952Y-73490476D01*
X170328571Y-73538095D01*
X170376190Y-73633333D01*
X170376190Y-74014285D01*
X169852380Y-72585714D02*
X169852380Y-72776190D01*
X169900000Y-72871428D01*
X169947619Y-72919047D01*
X170090476Y-73014285D01*
X170280952Y-73061904D01*
X170661904Y-73061904D01*
X170757142Y-73014285D01*
X170804761Y-72966666D01*
X170852380Y-72871428D01*
X170852380Y-72680952D01*
X170804761Y-72585714D01*
X170757142Y-72538095D01*
X170661904Y-72490476D01*
X170423809Y-72490476D01*
X170328571Y-72538095D01*
X170280952Y-72585714D01*
X170233333Y-72680952D01*
X170233333Y-72871428D01*
X170280952Y-72966666D01*
X170328571Y-73014285D01*
X170423809Y-73061904D01*
X170280952Y-71919047D02*
X170233333Y-72014285D01*
X170185714Y-72061904D01*
X170090476Y-72109523D01*
X170042857Y-72109523D01*
X169947619Y-72061904D01*
X169900000Y-72014285D01*
X169852380Y-71919047D01*
X169852380Y-71728571D01*
X169900000Y-71633333D01*
X169947619Y-71585714D01*
X170042857Y-71538095D01*
X170090476Y-71538095D01*
X170185714Y-71585714D01*
X170233333Y-71633333D01*
X170280952Y-71728571D01*
X170280952Y-71919047D01*
X170328571Y-72014285D01*
X170376190Y-72061904D01*
X170471428Y-72109523D01*
X170661904Y-72109523D01*
X170757142Y-72061904D01*
X170804761Y-72014285D01*
X170852380Y-71919047D01*
X170852380Y-71728571D01*
X170804761Y-71633333D01*
X170757142Y-71585714D01*
X170661904Y-71538095D01*
X170471428Y-71538095D01*
X170376190Y-71585714D01*
X170328571Y-71633333D01*
X170280952Y-71728571D01*
X162438095Y-69652380D02*
X162438095Y-70461904D01*
X162485714Y-70557142D01*
X162533333Y-70604761D01*
X162628571Y-70652380D01*
X162819047Y-70652380D01*
X162914285Y-70604761D01*
X162961904Y-70557142D01*
X163009523Y-70461904D01*
X163009523Y-69652380D01*
X164009523Y-70652380D02*
X163438095Y-70652380D01*
X163723809Y-70652380D02*
X163723809Y-69652380D01*
X163628571Y-69795238D01*
X163533333Y-69890476D01*
X163438095Y-69938095D01*
X187038095Y-81452380D02*
X187038095Y-82261904D01*
X187085714Y-82357142D01*
X187133333Y-82404761D01*
X187228571Y-82452380D01*
X187419047Y-82452380D01*
X187514285Y-82404761D01*
X187561904Y-82357142D01*
X187609523Y-82261904D01*
X187609523Y-81452380D01*
X188038095Y-81547619D02*
X188085714Y-81500000D01*
X188180952Y-81452380D01*
X188419047Y-81452380D01*
X188514285Y-81500000D01*
X188561904Y-81547619D01*
X188609523Y-81642857D01*
X188609523Y-81738095D01*
X188561904Y-81880952D01*
X187990476Y-82452380D01*
X188609523Y-82452380D01*
X144961904Y-83432380D02*
X144961904Y-84241904D01*
X145009523Y-84337142D01*
X145057142Y-84384761D01*
X145152380Y-84432380D01*
X145342857Y-84432380D01*
X145438095Y-84384761D01*
X145485714Y-84337142D01*
X145533333Y-84241904D01*
X145533333Y-83432380D01*
X146438095Y-83765714D02*
X146438095Y-84432380D01*
X146200000Y-83384761D02*
X145961904Y-84099047D01*
X146580952Y-84099047D01*
X147485714Y-84432380D02*
X146914285Y-84432380D01*
X147200000Y-84432380D02*
X147200000Y-83432380D01*
X147104761Y-83575238D01*
X147009523Y-83670476D01*
X146914285Y-83718095D01*
X183161904Y-80852380D02*
X183161904Y-81661904D01*
X183209523Y-81757142D01*
X183257142Y-81804761D01*
X183352380Y-81852380D01*
X183542857Y-81852380D01*
X183638095Y-81804761D01*
X183685714Y-81757142D01*
X183733333Y-81661904D01*
X183733333Y-80852380D01*
X184638095Y-80852380D02*
X184447619Y-80852380D01*
X184352380Y-80900000D01*
X184304761Y-80947619D01*
X184209523Y-81090476D01*
X184161904Y-81280952D01*
X184161904Y-81661904D01*
X184209523Y-81757142D01*
X184257142Y-81804761D01*
X184352380Y-81852380D01*
X184542857Y-81852380D01*
X184638095Y-81804761D01*
X184685714Y-81757142D01*
X184733333Y-81661904D01*
X184733333Y-81423809D01*
X184685714Y-81328571D01*
X184638095Y-81280952D01*
X184542857Y-81233333D01*
X184352380Y-81233333D01*
X184257142Y-81280952D01*
X184209523Y-81328571D01*
X184161904Y-81423809D01*
X185114285Y-80947619D02*
X185161904Y-80900000D01*
X185257142Y-80852380D01*
X185495238Y-80852380D01*
X185590476Y-80900000D01*
X185638095Y-80947619D01*
X185685714Y-81042857D01*
X185685714Y-81138095D01*
X185638095Y-81280952D01*
X185066666Y-81852380D01*
X185685714Y-81852380D01*
X148633333Y-94452380D02*
X148300000Y-93976190D01*
X148061904Y-94452380D02*
X148061904Y-93452380D01*
X148442857Y-93452380D01*
X148538095Y-93500000D01*
X148585714Y-93547619D01*
X148633333Y-93642857D01*
X148633333Y-93785714D01*
X148585714Y-93880952D01*
X148538095Y-93928571D01*
X148442857Y-93976190D01*
X148061904Y-93976190D01*
X148966666Y-93452380D02*
X149633333Y-94452380D01*
X149633333Y-93452380D02*
X148966666Y-94452380D01*
X148038095Y-95452380D02*
X148609523Y-95452380D01*
X148323809Y-96452380D02*
X148323809Y-95452380D01*
X148847619Y-95452380D02*
X149514285Y-96452380D01*
X149514285Y-95452380D02*
X148847619Y-96452380D01*
X192190476Y-81252380D02*
X192190476Y-81966666D01*
X192142857Y-82109523D01*
X192047619Y-82204761D01*
X191904761Y-82252380D01*
X191809523Y-82252380D01*
X193095238Y-81585714D02*
X193095238Y-82252380D01*
X192857142Y-81204761D02*
X192619047Y-81919047D01*
X193238095Y-81919047D01*
X194047619Y-81585714D02*
X194047619Y-82252380D01*
X193809523Y-81204761D02*
X193571428Y-81919047D01*
X194190476Y-81919047D01*
X148052380Y-79138095D02*
X147052380Y-79138095D01*
X147052380Y-78900000D01*
X147100000Y-78757142D01*
X147195238Y-78661904D01*
X147290476Y-78614285D01*
X147480952Y-78566666D01*
X147623809Y-78566666D01*
X147814285Y-78614285D01*
X147909523Y-78661904D01*
X148004761Y-78757142D01*
X148052380Y-78900000D01*
X148052380Y-79138095D01*
X148052380Y-77614285D02*
X148052380Y-78185714D01*
X148052380Y-77900000D02*
X147052380Y-77900000D01*
X147195238Y-77995238D01*
X147290476Y-78090476D01*
X147338095Y-78185714D01*
X108566666Y-111352380D02*
X108566666Y-112066666D01*
X108519047Y-112209523D01*
X108423809Y-112304761D01*
X108280952Y-112352380D01*
X108185714Y-112352380D01*
X109566666Y-112352380D02*
X108995238Y-112352380D01*
X109280952Y-112352380D02*
X109280952Y-111352380D01*
X109185714Y-111495238D01*
X109090476Y-111590476D01*
X108995238Y-111638095D01*
X167352380Y-81166666D02*
X166876190Y-81500000D01*
X167352380Y-81738095D02*
X166352380Y-81738095D01*
X166352380Y-81357142D01*
X166400000Y-81261904D01*
X166447619Y-81214285D01*
X166542857Y-81166666D01*
X166685714Y-81166666D01*
X166780952Y-81214285D01*
X166828571Y-81261904D01*
X166876190Y-81357142D01*
X166876190Y-81738095D01*
X166780952Y-80595238D02*
X166733333Y-80690476D01*
X166685714Y-80738095D01*
X166590476Y-80785714D01*
X166542857Y-80785714D01*
X166447619Y-80738095D01*
X166400000Y-80690476D01*
X166352380Y-80595238D01*
X166352380Y-80404761D01*
X166400000Y-80309523D01*
X166447619Y-80261904D01*
X166542857Y-80214285D01*
X166590476Y-80214285D01*
X166685714Y-80261904D01*
X166733333Y-80309523D01*
X166780952Y-80404761D01*
X166780952Y-80595238D01*
X166828571Y-80690476D01*
X166876190Y-80738095D01*
X166971428Y-80785714D01*
X167161904Y-80785714D01*
X167257142Y-80738095D01*
X167304761Y-80690476D01*
X167352380Y-80595238D01*
X167352380Y-80404761D01*
X167304761Y-80309523D01*
X167257142Y-80261904D01*
X167161904Y-80214285D01*
X166971428Y-80214285D01*
X166876190Y-80261904D01*
X166828571Y-80309523D01*
X166780952Y-80404761D01*
X126057142Y-77657142D02*
X126009523Y-77704761D01*
X125866666Y-77752380D01*
X125771428Y-77752380D01*
X125628571Y-77704761D01*
X125533333Y-77609523D01*
X125485714Y-77514285D01*
X125438095Y-77323809D01*
X125438095Y-77180952D01*
X125485714Y-76990476D01*
X125533333Y-76895238D01*
X125628571Y-76800000D01*
X125771428Y-76752380D01*
X125866666Y-76752380D01*
X126009523Y-76800000D01*
X126057142Y-76847619D01*
X126914285Y-76752380D02*
X126723809Y-76752380D01*
X126628571Y-76800000D01*
X126580952Y-76847619D01*
X126485714Y-76990476D01*
X126438095Y-77180952D01*
X126438095Y-77561904D01*
X126485714Y-77657142D01*
X126533333Y-77704761D01*
X126628571Y-77752380D01*
X126819047Y-77752380D01*
X126914285Y-77704761D01*
X126961904Y-77657142D01*
X127009523Y-77561904D01*
X127009523Y-77323809D01*
X126961904Y-77228571D01*
X126914285Y-77180952D01*
X126819047Y-77133333D01*
X126628571Y-77133333D01*
X126533333Y-77180952D01*
X126485714Y-77228571D01*
X126438095Y-77323809D01*
X127866666Y-76752380D02*
X127676190Y-76752380D01*
X127580952Y-76800000D01*
X127533333Y-76847619D01*
X127438095Y-76990476D01*
X127390476Y-77180952D01*
X127390476Y-77561904D01*
X127438095Y-77657142D01*
X127485714Y-77704761D01*
X127580952Y-77752380D01*
X127771428Y-77752380D01*
X127866666Y-77704761D01*
X127914285Y-77657142D01*
X127961904Y-77561904D01*
X127961904Y-77323809D01*
X127914285Y-77228571D01*
X127866666Y-77180952D01*
X127771428Y-77133333D01*
X127580952Y-77133333D01*
X127485714Y-77180952D01*
X127438095Y-77228571D01*
X127390476Y-77323809D01*
X134557142Y-76207142D02*
X134509523Y-76254761D01*
X134366666Y-76302380D01*
X134271428Y-76302380D01*
X134128571Y-76254761D01*
X134033333Y-76159523D01*
X133985714Y-76064285D01*
X133938095Y-75873809D01*
X133938095Y-75730952D01*
X133985714Y-75540476D01*
X134033333Y-75445238D01*
X134128571Y-75350000D01*
X134271428Y-75302380D01*
X134366666Y-75302380D01*
X134509523Y-75350000D01*
X134557142Y-75397619D01*
X135414285Y-75302380D02*
X135223809Y-75302380D01*
X135128571Y-75350000D01*
X135080952Y-75397619D01*
X134985714Y-75540476D01*
X134938095Y-75730952D01*
X134938095Y-76111904D01*
X134985714Y-76207142D01*
X135033333Y-76254761D01*
X135128571Y-76302380D01*
X135319047Y-76302380D01*
X135414285Y-76254761D01*
X135461904Y-76207142D01*
X135509523Y-76111904D01*
X135509523Y-75873809D01*
X135461904Y-75778571D01*
X135414285Y-75730952D01*
X135319047Y-75683333D01*
X135128571Y-75683333D01*
X135033333Y-75730952D01*
X134985714Y-75778571D01*
X134938095Y-75873809D01*
X135842857Y-75302380D02*
X136509523Y-75302380D01*
X136080952Y-76302380D01*
X187957142Y-70957142D02*
X187909523Y-71004761D01*
X187766666Y-71052380D01*
X187671428Y-71052380D01*
X187528571Y-71004761D01*
X187433333Y-70909523D01*
X187385714Y-70814285D01*
X187338095Y-70623809D01*
X187338095Y-70480952D01*
X187385714Y-70290476D01*
X187433333Y-70195238D01*
X187528571Y-70100000D01*
X187671428Y-70052380D01*
X187766666Y-70052380D01*
X187909523Y-70100000D01*
X187957142Y-70147619D01*
X188290476Y-70052380D02*
X188957142Y-70052380D01*
X188528571Y-71052380D01*
X189861904Y-71052380D02*
X189290476Y-71052380D01*
X189576190Y-71052380D02*
X189576190Y-70052380D01*
X189480952Y-70195238D01*
X189385714Y-70290476D01*
X189290476Y-70338095D01*
M02*
