M48
; DRILL file {KiCad 5.1.2-f72e74a~84~ubuntu18.04.1} date Sun 12 May 2019 20:09:14 BST
; FORMAT={-:-/ absolute / inch / decimal}
; #@! TF.CreationDate,2019-05-12T20:09:14+01:00
; #@! TF.GenerationSoftware,Kicad,Pcbnew,5.1.2-f72e74a~84~ubuntu18.04.1
; #@! TF.FileFunction,Plated,1,2,PTH
FMAT,2
INCH
T1C0.0118
T2C0.0157
T3C0.0197
T4C0.0236
T5C0.0300
T6C0.0335
T7C0.0394
T8C0.1260
%
G90
G05
T1
X4.6201Y-3.4528
X4.6201Y-3.5
X4.6201Y-3.5512
X4.6201Y-3.5945
X4.6673Y-3.4528
X4.6673Y-3.5
X4.6673Y-3.5512
X4.6673Y-3.5945
T2
X4.7677Y-3.7126
X4.8189Y-3.5354
X4.8189Y-3.5984
X4.8189Y-3.6614
X4.8504Y-3.5039
X4.8504Y-3.5669
X4.8504Y-3.6299
X4.9764Y-4.189
X5.0866Y-3.1024
X5.1102Y-3.3543
X5.1102Y-3.4016
X5.1102Y-3.4488
X5.1102Y-3.4961
X5.1102Y-3.5433
X5.1102Y-3.5906
X5.1102Y-3.6378
X5.1102Y-3.685
X5.1102Y-3.7323
X5.2992Y-3.7874
X5.3307Y-3.7559
X5.3898Y-3.7283
X5.4016Y-3.4724
X5.4094Y-3.8189
X5.4409Y-3.8504
X5.4646Y-2.9764
X5.4646Y-3.0157
X5.5039Y-2.9764
X5.5039Y-3.0157
X5.5433Y-2.7717
X5.5433Y-2.8583
X5.5433Y-2.9055
X5.5433Y-2.9528
X5.5433Y-3.7874
X5.5709Y-3.3661
X5.5748Y-3.1024
X5.5827Y-2.7717
X5.5827Y-2.811
X5.5827Y-2.8583
X5.5827Y-2.9055
X5.5827Y-2.9528
X5.5827Y-3.7559
X5.6181Y-3.3071
X5.6614Y-3.3073
X5.7244Y-3.685
X5.7323Y-3.1024
X5.748Y-3.2598
X5.811Y-3.1024
X5.811Y-3.2677
X5.8661Y-3.7205
X5.8661Y-3.8071
X5.8937Y-3.6417
X5.8976Y-3.2677
X5.9154Y-3.3071
X5.9291Y-3.4961
X5.947Y-3.6402
X5.9764Y-3.3071
X5.9921Y-3.1811
X5.9961Y-3.6378
X6.0Y-3.2717
X6.0866Y-3.3465
X6.0866Y-3.5748
X6.1024Y-3.0079
X6.1122Y-3.5039
X6.1319Y-2.9528
X6.3386Y-3.3858
X6.5079Y-2.9961
X6.5433Y-2.7638
X6.5827Y-2.7638
X6.622Y-2.7638
X6.7244Y-2.7953
X6.7244Y-2.8346
X6.8189Y-3.0
X6.9528Y-4.3543
X7.0079Y-4.3543
X7.0157Y-3.0157
X7.0394Y-4.4016
X7.063Y-4.3543
X7.0866Y-4.4016
X7.1102Y-4.3543
X7.1339Y-4.4016
X7.1417Y-3.252
X7.1496Y-3.3228
X7.1575Y-4.3543
X7.1811Y-4.4016
X7.2047Y-4.3543
X7.2283Y-4.4016
X7.252Y-4.3543
X7.2598Y-3.0827
X7.2598Y-3.1457
X7.2756Y-4.4016
X7.2795Y-3.0512
X7.2795Y-3.1142
X7.2992Y-4.3543
X7.3228Y-4.4016
X7.3465Y-3.4252
X7.3465Y-3.6457
X7.3465Y-4.3543
X7.3701Y-4.4016
X7.3937Y-4.3543
X7.4173Y-4.4016
X7.4409Y-4.252
X7.4409Y-4.2913
X7.4409Y-4.3543
X7.4646Y-4.4016
X7.4803Y-3.9764
X7.4803Y-4.252
X7.4803Y-4.2913
X7.4882Y-4.3543
X7.5118Y-4.4016
X7.5197Y-3.9764
X7.5197Y-4.0157
X7.5197Y-4.0551
X7.5197Y-4.0945
X7.5197Y-4.1339
X7.5197Y-4.1732
X7.5197Y-4.2126
X7.5197Y-4.252
X7.5197Y-4.2913
X7.5354Y-4.3543
X7.5591Y-3.9764
X7.5591Y-4.0157
X7.5591Y-4.252
X7.5591Y-4.2913
X7.5591Y-4.4016
X7.5827Y-4.3543
X7.5984Y-3.9764
X7.5984Y-4.0157
X7.5984Y-4.252
X7.5984Y-4.2913
X7.6063Y-4.4016
X7.6299Y-4.3543
X7.6378Y-3.9764
X7.6378Y-4.0157
X7.6378Y-4.252
X7.6378Y-4.2913
X7.6535Y-4.4016
X7.6772Y-4.3543
X7.7008Y-4.4016
X7.7244Y-4.3543
T3
X4.4724Y-4.0945
X4.5001Y-4.0277
X4.5001Y-4.1613
X4.5669Y-4.0
X4.5669Y-4.189
X4.6337Y-4.0277
X4.6337Y-4.1613
X4.6614Y-4.0945
X5.8504Y-4.0945
X5.8781Y-4.0277
X5.8781Y-4.1613
X5.9449Y-4.0
X5.9449Y-4.189
X6.0117Y-4.0277
X6.0117Y-4.1613
X6.0394Y-4.0945
X6.7953Y-3.5039
X6.823Y-3.4371
X6.823Y-3.5708
X6.8898Y-3.4094
X6.8898Y-3.5984
X6.9566Y-3.4371
X6.9566Y-3.5708
X6.9843Y-3.5039
T5
X5.2118Y-3.937
X5.2118Y-4.037
X5.3118Y-3.937
X5.3118Y-4.037
X5.4118Y-3.937
X5.4118Y-4.037
X5.5118Y-3.937
X5.5118Y-4.037
T6
X5.9646Y-2.8922
X6.1614Y-2.8922
T7
X5.7087Y-2.9134
X5.8087Y-2.9134
X4.3268Y-4.5039
X4.4268Y-4.5039
X4.5268Y-4.5039
X4.6268Y-4.5039
X4.7268Y-4.5039
X4.8268Y-4.5039
X7.5984Y-2.8819
X7.5984Y-2.9819
X7.5984Y-3.0819
X7.5984Y-3.315
X7.5984Y-3.415
X7.5984Y-3.515
X7.5984Y-3.615
X7.5984Y-3.715
X7.5984Y-3.815
T8
X4.5669Y-4.0945
X5.9449Y-4.0945
X6.8898Y-3.5039
T4
G00X5.9252Y-2.7997
M15
G01X5.9252Y-2.7721
M16
G05
G00X6.2008Y-2.7721
M15
G01X6.2008Y-2.7997
M16
G05
T0
M30
