G04 #@! TF.GenerationSoftware,KiCad,Pcbnew,5.1.2-f72e74a~84~ubuntu18.04.1*
G04 #@! TF.CreationDate,2019-05-12T20:09:00+01:00*
G04 #@! TF.ProjectId,cutoff-hardware,6375746f-6666-42d6-9861-726477617265,1.1*
G04 #@! TF.SameCoordinates,Original*
G04 #@! TF.FileFunction,Soldermask,Top*
G04 #@! TF.FilePolarity,Negative*
%FSLAX46Y46*%
G04 Gerber Fmt 4.6, Leading zero omitted, Abs format (unit mm)*
G04 Created by KiCad (PCBNEW 5.1.2-f72e74a~84~ubuntu18.04.1) date 2019-05-12 20:09:00*
%MOMM*%
%LPD*%
G04 APERTURE LIST*
%ADD10C,0.150000*%
%ADD11C,0.100000*%
G04 APERTURE END LIST*
D10*
G36*
X142400000Y-75000000D02*
G01*
X126400000Y-75000000D01*
X126400000Y-69000000D01*
X142400000Y-69000000D01*
X142400000Y-75000000D01*
G37*
X142400000Y-75000000D02*
X126400000Y-75000000D01*
X126400000Y-69000000D01*
X142400000Y-69000000D01*
X142400000Y-75000000D01*
G36*
X197000000Y-109200000D02*
G01*
X190600000Y-109200000D01*
X190600000Y-100600000D01*
X197000000Y-100600000D01*
X197000000Y-109200000D01*
G37*
X197000000Y-109200000D02*
X190600000Y-109200000D01*
X190600000Y-100600000D01*
X197000000Y-100600000D01*
X197000000Y-109200000D01*
G36*
X174600000Y-119000000D02*
G01*
X154400000Y-119000000D01*
X154400000Y-112600000D01*
X174600000Y-112600000D01*
X174600000Y-119000000D01*
G37*
X174600000Y-119000000D02*
X154400000Y-119000000D01*
X154400000Y-112600000D01*
X174600000Y-112600000D01*
X174600000Y-119000000D01*
G36*
X197000000Y-119000000D02*
G01*
X176800000Y-119000000D01*
X176800000Y-112600000D01*
X197000000Y-112600000D01*
X197000000Y-119000000D01*
G37*
X197000000Y-119000000D02*
X176800000Y-119000000D01*
X176800000Y-112600000D01*
X197000000Y-112600000D01*
X197000000Y-119000000D01*
D11*
G36*
X123501000Y-115301000D02*
G01*
X121699000Y-115301000D01*
X121699000Y-113499000D01*
X123501000Y-113499000D01*
X123501000Y-115301000D01*
X123501000Y-115301000D01*
G37*
G36*
X120170443Y-113505519D02*
G01*
X120236627Y-113512037D01*
X120406466Y-113563557D01*
X120562991Y-113647222D01*
X120598729Y-113676552D01*
X120700186Y-113759814D01*
X120783448Y-113861271D01*
X120812778Y-113897009D01*
X120896443Y-114053534D01*
X120947963Y-114223373D01*
X120965359Y-114400000D01*
X120947963Y-114576627D01*
X120896443Y-114746466D01*
X120812778Y-114902991D01*
X120783448Y-114938729D01*
X120700186Y-115040186D01*
X120598729Y-115123448D01*
X120562991Y-115152778D01*
X120406466Y-115236443D01*
X120236627Y-115287963D01*
X120170442Y-115294482D01*
X120104260Y-115301000D01*
X120015740Y-115301000D01*
X119949558Y-115294482D01*
X119883373Y-115287963D01*
X119713534Y-115236443D01*
X119557009Y-115152778D01*
X119521271Y-115123448D01*
X119419814Y-115040186D01*
X119336552Y-114938729D01*
X119307222Y-114902991D01*
X119223557Y-114746466D01*
X119172037Y-114576627D01*
X119154641Y-114400000D01*
X119172037Y-114223373D01*
X119223557Y-114053534D01*
X119307222Y-113897009D01*
X119336552Y-113861271D01*
X119419814Y-113759814D01*
X119521271Y-113676552D01*
X119557009Y-113647222D01*
X119713534Y-113563557D01*
X119883373Y-113512037D01*
X119949557Y-113505519D01*
X120015740Y-113499000D01*
X120104260Y-113499000D01*
X120170443Y-113505519D01*
X120170443Y-113505519D01*
G37*
G36*
X110010443Y-113505519D02*
G01*
X110076627Y-113512037D01*
X110246466Y-113563557D01*
X110402991Y-113647222D01*
X110438729Y-113676552D01*
X110540186Y-113759814D01*
X110623448Y-113861271D01*
X110652778Y-113897009D01*
X110736443Y-114053534D01*
X110787963Y-114223373D01*
X110805359Y-114400000D01*
X110787963Y-114576627D01*
X110736443Y-114746466D01*
X110652778Y-114902991D01*
X110623448Y-114938729D01*
X110540186Y-115040186D01*
X110438729Y-115123448D01*
X110402991Y-115152778D01*
X110246466Y-115236443D01*
X110076627Y-115287963D01*
X110010442Y-115294482D01*
X109944260Y-115301000D01*
X109855740Y-115301000D01*
X109789558Y-115294482D01*
X109723373Y-115287963D01*
X109553534Y-115236443D01*
X109397009Y-115152778D01*
X109361271Y-115123448D01*
X109259814Y-115040186D01*
X109176552Y-114938729D01*
X109147222Y-114902991D01*
X109063557Y-114746466D01*
X109012037Y-114576627D01*
X108994641Y-114400000D01*
X109012037Y-114223373D01*
X109063557Y-114053534D01*
X109147222Y-113897009D01*
X109176552Y-113861271D01*
X109259814Y-113759814D01*
X109361271Y-113676552D01*
X109397009Y-113647222D01*
X109553534Y-113563557D01*
X109723373Y-113512037D01*
X109789557Y-113505519D01*
X109855740Y-113499000D01*
X109944260Y-113499000D01*
X110010443Y-113505519D01*
X110010443Y-113505519D01*
G37*
G36*
X112550443Y-113505519D02*
G01*
X112616627Y-113512037D01*
X112786466Y-113563557D01*
X112942991Y-113647222D01*
X112978729Y-113676552D01*
X113080186Y-113759814D01*
X113163448Y-113861271D01*
X113192778Y-113897009D01*
X113276443Y-114053534D01*
X113327963Y-114223373D01*
X113345359Y-114400000D01*
X113327963Y-114576627D01*
X113276443Y-114746466D01*
X113192778Y-114902991D01*
X113163448Y-114938729D01*
X113080186Y-115040186D01*
X112978729Y-115123448D01*
X112942991Y-115152778D01*
X112786466Y-115236443D01*
X112616627Y-115287963D01*
X112550442Y-115294482D01*
X112484260Y-115301000D01*
X112395740Y-115301000D01*
X112329558Y-115294482D01*
X112263373Y-115287963D01*
X112093534Y-115236443D01*
X111937009Y-115152778D01*
X111901271Y-115123448D01*
X111799814Y-115040186D01*
X111716552Y-114938729D01*
X111687222Y-114902991D01*
X111603557Y-114746466D01*
X111552037Y-114576627D01*
X111534641Y-114400000D01*
X111552037Y-114223373D01*
X111603557Y-114053534D01*
X111687222Y-113897009D01*
X111716552Y-113861271D01*
X111799814Y-113759814D01*
X111901271Y-113676552D01*
X111937009Y-113647222D01*
X112093534Y-113563557D01*
X112263373Y-113512037D01*
X112329557Y-113505519D01*
X112395740Y-113499000D01*
X112484260Y-113499000D01*
X112550443Y-113505519D01*
X112550443Y-113505519D01*
G37*
G36*
X117630443Y-113505519D02*
G01*
X117696627Y-113512037D01*
X117866466Y-113563557D01*
X118022991Y-113647222D01*
X118058729Y-113676552D01*
X118160186Y-113759814D01*
X118243448Y-113861271D01*
X118272778Y-113897009D01*
X118356443Y-114053534D01*
X118407963Y-114223373D01*
X118425359Y-114400000D01*
X118407963Y-114576627D01*
X118356443Y-114746466D01*
X118272778Y-114902991D01*
X118243448Y-114938729D01*
X118160186Y-115040186D01*
X118058729Y-115123448D01*
X118022991Y-115152778D01*
X117866466Y-115236443D01*
X117696627Y-115287963D01*
X117630442Y-115294482D01*
X117564260Y-115301000D01*
X117475740Y-115301000D01*
X117409558Y-115294482D01*
X117343373Y-115287963D01*
X117173534Y-115236443D01*
X117017009Y-115152778D01*
X116981271Y-115123448D01*
X116879814Y-115040186D01*
X116796552Y-114938729D01*
X116767222Y-114902991D01*
X116683557Y-114746466D01*
X116632037Y-114576627D01*
X116614641Y-114400000D01*
X116632037Y-114223373D01*
X116683557Y-114053534D01*
X116767222Y-113897009D01*
X116796552Y-113861271D01*
X116879814Y-113759814D01*
X116981271Y-113676552D01*
X117017009Y-113647222D01*
X117173534Y-113563557D01*
X117343373Y-113512037D01*
X117409557Y-113505519D01*
X117475740Y-113499000D01*
X117564260Y-113499000D01*
X117630443Y-113505519D01*
X117630443Y-113505519D01*
G37*
G36*
X115090443Y-113505519D02*
G01*
X115156627Y-113512037D01*
X115326466Y-113563557D01*
X115482991Y-113647222D01*
X115518729Y-113676552D01*
X115620186Y-113759814D01*
X115703448Y-113861271D01*
X115732778Y-113897009D01*
X115816443Y-114053534D01*
X115867963Y-114223373D01*
X115885359Y-114400000D01*
X115867963Y-114576627D01*
X115816443Y-114746466D01*
X115732778Y-114902991D01*
X115703448Y-114938729D01*
X115620186Y-115040186D01*
X115518729Y-115123448D01*
X115482991Y-115152778D01*
X115326466Y-115236443D01*
X115156627Y-115287963D01*
X115090442Y-115294482D01*
X115024260Y-115301000D01*
X114935740Y-115301000D01*
X114869558Y-115294482D01*
X114803373Y-115287963D01*
X114633534Y-115236443D01*
X114477009Y-115152778D01*
X114441271Y-115123448D01*
X114339814Y-115040186D01*
X114256552Y-114938729D01*
X114227222Y-114902991D01*
X114143557Y-114746466D01*
X114092037Y-114576627D01*
X114074641Y-114400000D01*
X114092037Y-114223373D01*
X114143557Y-114053534D01*
X114227222Y-113897009D01*
X114256552Y-113861271D01*
X114339814Y-113759814D01*
X114441271Y-113676552D01*
X114477009Y-113647222D01*
X114633534Y-113563557D01*
X114803373Y-113512037D01*
X114869557Y-113505519D01*
X114935740Y-113499000D01*
X115024260Y-113499000D01*
X115090443Y-113505519D01*
X115090443Y-113505519D01*
G37*
G36*
X151484877Y-100781757D02*
G01*
X151948282Y-100873934D01*
X152539926Y-101119001D01*
X153072392Y-101474784D01*
X153525216Y-101927608D01*
X153880999Y-102460074D01*
X154126066Y-103051718D01*
X154185995Y-103353000D01*
X154251000Y-103679803D01*
X154251000Y-104320197D01*
X154212450Y-104514001D01*
X154126066Y-104948282D01*
X153880999Y-105539926D01*
X153525216Y-106072392D01*
X153072392Y-106525216D01*
X152539926Y-106880999D01*
X151948282Y-107126066D01*
X151634239Y-107188533D01*
X151320197Y-107251000D01*
X150679803Y-107251000D01*
X150365761Y-107188533D01*
X150051718Y-107126066D01*
X149460074Y-106880999D01*
X148927608Y-106525216D01*
X148474784Y-106072392D01*
X148119001Y-105539926D01*
X147873934Y-104948282D01*
X147787550Y-104514001D01*
X147749000Y-104320197D01*
X147749000Y-103679803D01*
X147814005Y-103353000D01*
X147873934Y-103051718D01*
X148119001Y-102460074D01*
X148474784Y-101927608D01*
X148927608Y-101474784D01*
X149460074Y-101119001D01*
X150051718Y-100873934D01*
X150515123Y-100781757D01*
X150679803Y-100749000D01*
X151320197Y-100749000D01*
X151484877Y-100781757D01*
X151484877Y-100781757D01*
G37*
G36*
X116484877Y-100781757D02*
G01*
X116948282Y-100873934D01*
X117539926Y-101119001D01*
X118072392Y-101474784D01*
X118525216Y-101927608D01*
X118880999Y-102460074D01*
X119126066Y-103051718D01*
X119185995Y-103353000D01*
X119251000Y-103679803D01*
X119251000Y-104320197D01*
X119212450Y-104514001D01*
X119126066Y-104948282D01*
X118880999Y-105539926D01*
X118525216Y-106072392D01*
X118072392Y-106525216D01*
X117539926Y-106880999D01*
X116948282Y-107126066D01*
X116634239Y-107188533D01*
X116320197Y-107251000D01*
X115679803Y-107251000D01*
X115365761Y-107188533D01*
X115051718Y-107126066D01*
X114460074Y-106880999D01*
X113927608Y-106525216D01*
X113474784Y-106072392D01*
X113119001Y-105539926D01*
X112873934Y-104948282D01*
X112787550Y-104514001D01*
X112749000Y-104320197D01*
X112749000Y-103679803D01*
X112814005Y-103353000D01*
X112873934Y-103051718D01*
X113119001Y-102460074D01*
X113474784Y-101927608D01*
X113927608Y-101474784D01*
X114460074Y-101119001D01*
X115051718Y-100873934D01*
X115515123Y-100781757D01*
X115679803Y-100749000D01*
X116320197Y-100749000D01*
X116484877Y-100781757D01*
X116484877Y-100781757D01*
G37*
G36*
X183978164Y-102089485D02*
G01*
X184001613Y-102096598D01*
X184025999Y-102099000D01*
X187896000Y-102099000D01*
X187896000Y-106701000D01*
X184025999Y-106701000D01*
X184001613Y-106703402D01*
X183978164Y-106710515D01*
X183977257Y-106711000D01*
X182999000Y-106711000D01*
X182999000Y-105909000D01*
X183379001Y-105909000D01*
X183403387Y-105906598D01*
X183426836Y-105899485D01*
X183448447Y-105887934D01*
X183467389Y-105872389D01*
X183482934Y-105853447D01*
X183494485Y-105831836D01*
X183501598Y-105808387D01*
X183504000Y-105784001D01*
X183504000Y-105565999D01*
X183501598Y-105541613D01*
X183494485Y-105518164D01*
X183482934Y-105496553D01*
X183467389Y-105477611D01*
X183448447Y-105462066D01*
X183426836Y-105450515D01*
X183403387Y-105443402D01*
X183379001Y-105441000D01*
X182999000Y-105441000D01*
X182999000Y-104639000D01*
X183379001Y-104639000D01*
X183403387Y-104636598D01*
X183426836Y-104629485D01*
X183448447Y-104617934D01*
X183467389Y-104602389D01*
X183482934Y-104583447D01*
X183494485Y-104561836D01*
X183501598Y-104538387D01*
X183504000Y-104514001D01*
X183504000Y-104285999D01*
X183501598Y-104261613D01*
X183494485Y-104238164D01*
X183482934Y-104216553D01*
X183467389Y-104197611D01*
X183448447Y-104182066D01*
X183426836Y-104170515D01*
X183403387Y-104163402D01*
X183379001Y-104161000D01*
X182999000Y-104161000D01*
X182999000Y-103359000D01*
X183379001Y-103359000D01*
X183403387Y-103356598D01*
X183426836Y-103349485D01*
X183448447Y-103337934D01*
X183467389Y-103322389D01*
X183482934Y-103303447D01*
X183494485Y-103281836D01*
X183501598Y-103258387D01*
X183504000Y-103234001D01*
X183504000Y-103015999D01*
X183501598Y-102991613D01*
X183494485Y-102968164D01*
X183482934Y-102946553D01*
X183467389Y-102927611D01*
X183448447Y-102912066D01*
X183426836Y-102900515D01*
X183403387Y-102893402D01*
X183379001Y-102891000D01*
X182999000Y-102891000D01*
X182999000Y-102089000D01*
X183977257Y-102089000D01*
X183978164Y-102089485D01*
X183978164Y-102089485D01*
G37*
G36*
X189401000Y-106711000D02*
G01*
X188499000Y-106711000D01*
X188499000Y-105909000D01*
X189401000Y-105909000D01*
X189401000Y-106711000D01*
X189401000Y-106711000D01*
G37*
G36*
X189401000Y-105441000D02*
G01*
X188499000Y-105441000D01*
X188499000Y-104639000D01*
X189401000Y-104639000D01*
X189401000Y-105441000D01*
X189401000Y-105441000D01*
G37*
G36*
X189401000Y-104161000D02*
G01*
X188499000Y-104161000D01*
X188499000Y-103359000D01*
X189401000Y-103359000D01*
X189401000Y-104161000D01*
X189401000Y-104161000D01*
G37*
G36*
X135157142Y-101758242D02*
G01*
X135305101Y-101819529D01*
X135438255Y-101908499D01*
X135551501Y-102021745D01*
X135640471Y-102154899D01*
X135701758Y-102302858D01*
X135733000Y-102459925D01*
X135733000Y-102620075D01*
X135701758Y-102777142D01*
X135640471Y-102925101D01*
X135551501Y-103058255D01*
X135438255Y-103171501D01*
X135305101Y-103260471D01*
X135157142Y-103321758D01*
X135000075Y-103353000D01*
X134839925Y-103353000D01*
X134682858Y-103321758D01*
X134534899Y-103260471D01*
X134401745Y-103171501D01*
X134288499Y-103058255D01*
X134199529Y-102925101D01*
X134138242Y-102777142D01*
X134107000Y-102620075D01*
X134107000Y-102459925D01*
X134138242Y-102302858D01*
X134199529Y-102154899D01*
X134288499Y-102021745D01*
X134401745Y-101908499D01*
X134534899Y-101819529D01*
X134682858Y-101758242D01*
X134839925Y-101727000D01*
X135000075Y-101727000D01*
X135157142Y-101758242D01*
X135157142Y-101758242D01*
G37*
G36*
X132617142Y-101758242D02*
G01*
X132765101Y-101819529D01*
X132898255Y-101908499D01*
X133011501Y-102021745D01*
X133100471Y-102154899D01*
X133161758Y-102302858D01*
X133193000Y-102459925D01*
X133193000Y-102620075D01*
X133161758Y-102777142D01*
X133100471Y-102925101D01*
X133011501Y-103058255D01*
X132898255Y-103171501D01*
X132765101Y-103260471D01*
X132617142Y-103321758D01*
X132460075Y-103353000D01*
X132299925Y-103353000D01*
X132142858Y-103321758D01*
X131994899Y-103260471D01*
X131861745Y-103171501D01*
X131748499Y-103058255D01*
X131659529Y-102925101D01*
X131598242Y-102777142D01*
X131567000Y-102620075D01*
X131567000Y-102459925D01*
X131598242Y-102302858D01*
X131659529Y-102154899D01*
X131748499Y-102021745D01*
X131861745Y-101908499D01*
X131994899Y-101819529D01*
X132142858Y-101758242D01*
X132299925Y-101727000D01*
X132460075Y-101727000D01*
X132617142Y-101758242D01*
X132617142Y-101758242D01*
G37*
G36*
X137697142Y-101758242D02*
G01*
X137845101Y-101819529D01*
X137978255Y-101908499D01*
X138091501Y-102021745D01*
X138180471Y-102154899D01*
X138241758Y-102302858D01*
X138273000Y-102459925D01*
X138273000Y-102620075D01*
X138241758Y-102777142D01*
X138180471Y-102925101D01*
X138091501Y-103058255D01*
X137978255Y-103171501D01*
X137845101Y-103260471D01*
X137697142Y-103321758D01*
X137540075Y-103353000D01*
X137379925Y-103353000D01*
X137222858Y-103321758D01*
X137074899Y-103260471D01*
X136941745Y-103171501D01*
X136828499Y-103058255D01*
X136739529Y-102925101D01*
X136678242Y-102777142D01*
X136647000Y-102620075D01*
X136647000Y-102459925D01*
X136678242Y-102302858D01*
X136739529Y-102154899D01*
X136828499Y-102021745D01*
X136941745Y-101908499D01*
X137074899Y-101819529D01*
X137222858Y-101758242D01*
X137379925Y-101727000D01*
X137540075Y-101727000D01*
X137697142Y-101758242D01*
X137697142Y-101758242D01*
G37*
G36*
X140237142Y-101758242D02*
G01*
X140385101Y-101819529D01*
X140518255Y-101908499D01*
X140631501Y-102021745D01*
X140720471Y-102154899D01*
X140781758Y-102302858D01*
X140813000Y-102459925D01*
X140813000Y-102620075D01*
X140781758Y-102777142D01*
X140720471Y-102925101D01*
X140631501Y-103058255D01*
X140518255Y-103171501D01*
X140385101Y-103260471D01*
X140237142Y-103321758D01*
X140080075Y-103353000D01*
X139919925Y-103353000D01*
X139762858Y-103321758D01*
X139614899Y-103260471D01*
X139481745Y-103171501D01*
X139368499Y-103058255D01*
X139279529Y-102925101D01*
X139218242Y-102777142D01*
X139187000Y-102620075D01*
X139187000Y-102459925D01*
X139218242Y-102302858D01*
X139279529Y-102154899D01*
X139368499Y-102021745D01*
X139481745Y-101908499D01*
X139614899Y-101819529D01*
X139762858Y-101758242D01*
X139919925Y-101727000D01*
X140080075Y-101727000D01*
X140237142Y-101758242D01*
X140237142Y-101758242D01*
G37*
G36*
X189401000Y-102891000D02*
G01*
X188499000Y-102891000D01*
X188499000Y-102089000D01*
X189401000Y-102089000D01*
X189401000Y-102891000D01*
X189401000Y-102891000D01*
G37*
G36*
X143579591Y-101503085D02*
G01*
X143613569Y-101513393D01*
X143644890Y-101530134D01*
X143672339Y-101552661D01*
X143694866Y-101580110D01*
X143711607Y-101611431D01*
X143721915Y-101645409D01*
X143726000Y-101686890D01*
X143726000Y-102288110D01*
X143721915Y-102329591D01*
X143711607Y-102363569D01*
X143694866Y-102394890D01*
X143672339Y-102422339D01*
X143644890Y-102444866D01*
X143613569Y-102461607D01*
X143579591Y-102471915D01*
X143538110Y-102476000D01*
X142861890Y-102476000D01*
X142820409Y-102471915D01*
X142786431Y-102461607D01*
X142755110Y-102444866D01*
X142727661Y-102422339D01*
X142705134Y-102394890D01*
X142688393Y-102363569D01*
X142678085Y-102329591D01*
X142674000Y-102288110D01*
X142674000Y-101686890D01*
X142678085Y-101645409D01*
X142688393Y-101611431D01*
X142705134Y-101580110D01*
X142727661Y-101552661D01*
X142755110Y-101530134D01*
X142786431Y-101513393D01*
X142820409Y-101503085D01*
X142861890Y-101499000D01*
X143538110Y-101499000D01*
X143579591Y-101503085D01*
X143579591Y-101503085D01*
G37*
G36*
X143579591Y-99928085D02*
G01*
X143613569Y-99938393D01*
X143644890Y-99955134D01*
X143672339Y-99977661D01*
X143694866Y-100005110D01*
X143711607Y-100036431D01*
X143721915Y-100070409D01*
X143726000Y-100111890D01*
X143726000Y-100713110D01*
X143721915Y-100754591D01*
X143711607Y-100788569D01*
X143694866Y-100819890D01*
X143672339Y-100847339D01*
X143644890Y-100869866D01*
X143613569Y-100886607D01*
X143579591Y-100896915D01*
X143538110Y-100901000D01*
X142861890Y-100901000D01*
X142820409Y-100896915D01*
X142786431Y-100886607D01*
X142755110Y-100869866D01*
X142727661Y-100847339D01*
X142705134Y-100819890D01*
X142688393Y-100788569D01*
X142678085Y-100754591D01*
X142674000Y-100713110D01*
X142674000Y-100111890D01*
X142678085Y-100070409D01*
X142688393Y-100036431D01*
X142705134Y-100005110D01*
X142727661Y-99977661D01*
X142755110Y-99955134D01*
X142786431Y-99938393D01*
X142820409Y-99928085D01*
X142861890Y-99924000D01*
X143538110Y-99924000D01*
X143579591Y-99928085D01*
X143579591Y-99928085D01*
G37*
G36*
X132617142Y-99218242D02*
G01*
X132765101Y-99279529D01*
X132898255Y-99368499D01*
X133011501Y-99481745D01*
X133100471Y-99614899D01*
X133161758Y-99762858D01*
X133193000Y-99919925D01*
X133193000Y-100080075D01*
X133161758Y-100237142D01*
X133100471Y-100385101D01*
X133011501Y-100518255D01*
X132898255Y-100631501D01*
X132765101Y-100720471D01*
X132617142Y-100781758D01*
X132460075Y-100813000D01*
X132299925Y-100813000D01*
X132142858Y-100781758D01*
X131994899Y-100720471D01*
X131861745Y-100631501D01*
X131748499Y-100518255D01*
X131659529Y-100385101D01*
X131598242Y-100237142D01*
X131567000Y-100080075D01*
X131567000Y-99919925D01*
X131598242Y-99762858D01*
X131659529Y-99614899D01*
X131748499Y-99481745D01*
X131861745Y-99368499D01*
X131994899Y-99279529D01*
X132142858Y-99218242D01*
X132299925Y-99187000D01*
X132460075Y-99187000D01*
X132617142Y-99218242D01*
X132617142Y-99218242D01*
G37*
G36*
X135157142Y-99218242D02*
G01*
X135305101Y-99279529D01*
X135438255Y-99368499D01*
X135551501Y-99481745D01*
X135640471Y-99614899D01*
X135701758Y-99762858D01*
X135733000Y-99919925D01*
X135733000Y-100080075D01*
X135701758Y-100237142D01*
X135640471Y-100385101D01*
X135551501Y-100518255D01*
X135438255Y-100631501D01*
X135305101Y-100720471D01*
X135157142Y-100781758D01*
X135000075Y-100813000D01*
X134839925Y-100813000D01*
X134682858Y-100781758D01*
X134534899Y-100720471D01*
X134401745Y-100631501D01*
X134288499Y-100518255D01*
X134199529Y-100385101D01*
X134138242Y-100237142D01*
X134107000Y-100080075D01*
X134107000Y-99919925D01*
X134138242Y-99762858D01*
X134199529Y-99614899D01*
X134288499Y-99481745D01*
X134401745Y-99368499D01*
X134534899Y-99279529D01*
X134682858Y-99218242D01*
X134839925Y-99187000D01*
X135000075Y-99187000D01*
X135157142Y-99218242D01*
X135157142Y-99218242D01*
G37*
G36*
X137697142Y-99218242D02*
G01*
X137845101Y-99279529D01*
X137978255Y-99368499D01*
X138091501Y-99481745D01*
X138180471Y-99614899D01*
X138241758Y-99762858D01*
X138273000Y-99919925D01*
X138273000Y-100080075D01*
X138241758Y-100237142D01*
X138180471Y-100385101D01*
X138091501Y-100518255D01*
X137978255Y-100631501D01*
X137845101Y-100720471D01*
X137697142Y-100781758D01*
X137540075Y-100813000D01*
X137379925Y-100813000D01*
X137222858Y-100781758D01*
X137074899Y-100720471D01*
X136941745Y-100631501D01*
X136828499Y-100518255D01*
X136739529Y-100385101D01*
X136678242Y-100237142D01*
X136647000Y-100080075D01*
X136647000Y-99919925D01*
X136678242Y-99762858D01*
X136739529Y-99614899D01*
X136828499Y-99481745D01*
X136941745Y-99368499D01*
X137074899Y-99279529D01*
X137222858Y-99218242D01*
X137379925Y-99187000D01*
X137540075Y-99187000D01*
X137697142Y-99218242D01*
X137697142Y-99218242D01*
G37*
G36*
X140813000Y-100813000D02*
G01*
X139187000Y-100813000D01*
X139187000Y-99187000D01*
X140813000Y-99187000D01*
X140813000Y-100813000D01*
X140813000Y-100813000D01*
G37*
G36*
X190729591Y-98478085D02*
G01*
X190763569Y-98488393D01*
X190794890Y-98505134D01*
X190822339Y-98527661D01*
X190844866Y-98555110D01*
X190861607Y-98586431D01*
X190871915Y-98620409D01*
X190876000Y-98661890D01*
X190876000Y-99338110D01*
X190871915Y-99379591D01*
X190861607Y-99413569D01*
X190844866Y-99444890D01*
X190822339Y-99472339D01*
X190794890Y-99494866D01*
X190763569Y-99511607D01*
X190729591Y-99521915D01*
X190688110Y-99526000D01*
X190086890Y-99526000D01*
X190045409Y-99521915D01*
X190011431Y-99511607D01*
X189980110Y-99494866D01*
X189952661Y-99472339D01*
X189930134Y-99444890D01*
X189913393Y-99413569D01*
X189903085Y-99379591D01*
X189899000Y-99338110D01*
X189899000Y-98661890D01*
X189903085Y-98620409D01*
X189913393Y-98586431D01*
X189930134Y-98555110D01*
X189952661Y-98527661D01*
X189980110Y-98505134D01*
X190011431Y-98488393D01*
X190045409Y-98478085D01*
X190086890Y-98474000D01*
X190688110Y-98474000D01*
X190729591Y-98478085D01*
X190729591Y-98478085D01*
G37*
G36*
X189154591Y-98478085D02*
G01*
X189188569Y-98488393D01*
X189219890Y-98505134D01*
X189247339Y-98527661D01*
X189269866Y-98555110D01*
X189286607Y-98586431D01*
X189296915Y-98620409D01*
X189301000Y-98661890D01*
X189301000Y-99338110D01*
X189296915Y-99379591D01*
X189286607Y-99413569D01*
X189269866Y-99444890D01*
X189247339Y-99472339D01*
X189219890Y-99494866D01*
X189188569Y-99511607D01*
X189154591Y-99521915D01*
X189113110Y-99526000D01*
X188511890Y-99526000D01*
X188470409Y-99521915D01*
X188436431Y-99511607D01*
X188405110Y-99494866D01*
X188377661Y-99472339D01*
X188355134Y-99444890D01*
X188338393Y-99413569D01*
X188328085Y-99379591D01*
X188324000Y-99338110D01*
X188324000Y-98661890D01*
X188328085Y-98620409D01*
X188338393Y-98586431D01*
X188355134Y-98555110D01*
X188377661Y-98527661D01*
X188405110Y-98505134D01*
X188436431Y-98488393D01*
X188470409Y-98478085D01*
X188511890Y-98474000D01*
X189113110Y-98474000D01*
X189154591Y-98478085D01*
X189154591Y-98478085D01*
G37*
G36*
X193110443Y-96005519D02*
G01*
X193176627Y-96012037D01*
X193346466Y-96063557D01*
X193502991Y-96147222D01*
X193538729Y-96176552D01*
X193640186Y-96259814D01*
X193723448Y-96361271D01*
X193752778Y-96397009D01*
X193836443Y-96553534D01*
X193887963Y-96723373D01*
X193905359Y-96900000D01*
X193887963Y-97076627D01*
X193836443Y-97246466D01*
X193752778Y-97402991D01*
X193723448Y-97438729D01*
X193640186Y-97540186D01*
X193538729Y-97623448D01*
X193502991Y-97652778D01*
X193346466Y-97736443D01*
X193176627Y-97787963D01*
X193110443Y-97794481D01*
X193044260Y-97801000D01*
X192955740Y-97801000D01*
X192889557Y-97794481D01*
X192823373Y-97787963D01*
X192653534Y-97736443D01*
X192497009Y-97652778D01*
X192461271Y-97623448D01*
X192359814Y-97540186D01*
X192276552Y-97438729D01*
X192247222Y-97402991D01*
X192163557Y-97246466D01*
X192112037Y-97076627D01*
X192094641Y-96900000D01*
X192112037Y-96723373D01*
X192163557Y-96553534D01*
X192247222Y-96397009D01*
X192276552Y-96361271D01*
X192359814Y-96259814D01*
X192461271Y-96176552D01*
X192497009Y-96147222D01*
X192653534Y-96063557D01*
X192823373Y-96012037D01*
X192889557Y-96005519D01*
X192955740Y-95999000D01*
X193044260Y-95999000D01*
X193110443Y-96005519D01*
X193110443Y-96005519D01*
G37*
G36*
X143979591Y-95703085D02*
G01*
X144013569Y-95713393D01*
X144044890Y-95730134D01*
X144072339Y-95752661D01*
X144094866Y-95780110D01*
X144111607Y-95811431D01*
X144121915Y-95845409D01*
X144126000Y-95886890D01*
X144126000Y-96488110D01*
X144121915Y-96529591D01*
X144111607Y-96563569D01*
X144094866Y-96594890D01*
X144072339Y-96622339D01*
X144044890Y-96644866D01*
X144013569Y-96661607D01*
X143979591Y-96671915D01*
X143938110Y-96676000D01*
X143261890Y-96676000D01*
X143220409Y-96671915D01*
X143186431Y-96661607D01*
X143155110Y-96644866D01*
X143127661Y-96622339D01*
X143105134Y-96594890D01*
X143088393Y-96563569D01*
X143078085Y-96529591D01*
X143074000Y-96488110D01*
X143074000Y-95886890D01*
X143078085Y-95845409D01*
X143088393Y-95811431D01*
X143105134Y-95780110D01*
X143127661Y-95752661D01*
X143155110Y-95730134D01*
X143186431Y-95713393D01*
X143220409Y-95703085D01*
X143261890Y-95699000D01*
X143938110Y-95699000D01*
X143979591Y-95703085D01*
X143979591Y-95703085D01*
G37*
G36*
X147151000Y-96551000D02*
G01*
X146049000Y-96551000D01*
X146049000Y-95449000D01*
X147151000Y-95449000D01*
X147151000Y-96551000D01*
X147151000Y-96551000D01*
G37*
G36*
X188701000Y-95801000D02*
G01*
X187699000Y-95801000D01*
X187699000Y-94899000D01*
X188701000Y-94899000D01*
X188701000Y-95801000D01*
X188701000Y-95801000D01*
G37*
G36*
X186979591Y-94703085D02*
G01*
X187013569Y-94713393D01*
X187044890Y-94730134D01*
X187072339Y-94752661D01*
X187094866Y-94780110D01*
X187111607Y-94811431D01*
X187121915Y-94845409D01*
X187126000Y-94886890D01*
X187126000Y-95488110D01*
X187121915Y-95529591D01*
X187111607Y-95563569D01*
X187094866Y-95594890D01*
X187072339Y-95622339D01*
X187044890Y-95644866D01*
X187013569Y-95661607D01*
X186979591Y-95671915D01*
X186938110Y-95676000D01*
X186261890Y-95676000D01*
X186220409Y-95671915D01*
X186186431Y-95661607D01*
X186155110Y-95644866D01*
X186127661Y-95622339D01*
X186105134Y-95594890D01*
X186088393Y-95563569D01*
X186078085Y-95529591D01*
X186074000Y-95488110D01*
X186074000Y-94886890D01*
X186078085Y-94845409D01*
X186088393Y-94811431D01*
X186105134Y-94780110D01*
X186127661Y-94752661D01*
X186155110Y-94730134D01*
X186186431Y-94713393D01*
X186220409Y-94703085D01*
X186261890Y-94699000D01*
X186938110Y-94699000D01*
X186979591Y-94703085D01*
X186979591Y-94703085D01*
G37*
G36*
X193110443Y-93465519D02*
G01*
X193176627Y-93472037D01*
X193346466Y-93523557D01*
X193502991Y-93607222D01*
X193515451Y-93617448D01*
X193640186Y-93719814D01*
X193723448Y-93821271D01*
X193752778Y-93857009D01*
X193836443Y-94013534D01*
X193887963Y-94183373D01*
X193905359Y-94360000D01*
X193887963Y-94536627D01*
X193836443Y-94706466D01*
X193752778Y-94862991D01*
X193733164Y-94886890D01*
X193640186Y-95000186D01*
X193567501Y-95059836D01*
X193502991Y-95112778D01*
X193346466Y-95196443D01*
X193176627Y-95247963D01*
X193110442Y-95254482D01*
X193044260Y-95261000D01*
X192955740Y-95261000D01*
X192889557Y-95254481D01*
X192823373Y-95247963D01*
X192653534Y-95196443D01*
X192497009Y-95112778D01*
X192432499Y-95059836D01*
X192359814Y-95000186D01*
X192266836Y-94886890D01*
X192247222Y-94862991D01*
X192163557Y-94706466D01*
X192112037Y-94536627D01*
X192094641Y-94360000D01*
X192112037Y-94183373D01*
X192163557Y-94013534D01*
X192247222Y-93857009D01*
X192276552Y-93821271D01*
X192359814Y-93719814D01*
X192484549Y-93617448D01*
X192497009Y-93607222D01*
X192653534Y-93523557D01*
X192823373Y-93472037D01*
X192889557Y-93465519D01*
X192955740Y-93459000D01*
X193044260Y-93459000D01*
X193110443Y-93465519D01*
X193110443Y-93465519D01*
G37*
G36*
X143979591Y-94128085D02*
G01*
X144013569Y-94138393D01*
X144044890Y-94155134D01*
X144072339Y-94177661D01*
X144094866Y-94205110D01*
X144111607Y-94236431D01*
X144121915Y-94270409D01*
X144126000Y-94311890D01*
X144126000Y-94913110D01*
X144121915Y-94954591D01*
X144111607Y-94988569D01*
X144094866Y-95019890D01*
X144072339Y-95047339D01*
X144044890Y-95069866D01*
X144013569Y-95086607D01*
X143979591Y-95096915D01*
X143938110Y-95101000D01*
X143261890Y-95101000D01*
X143220409Y-95096915D01*
X143186431Y-95086607D01*
X143155110Y-95069866D01*
X143127661Y-95047339D01*
X143105134Y-95019890D01*
X143088393Y-94988569D01*
X143078085Y-94954591D01*
X143074000Y-94913110D01*
X143074000Y-94311890D01*
X143078085Y-94270409D01*
X143088393Y-94236431D01*
X143105134Y-94205110D01*
X143127661Y-94177661D01*
X143155110Y-94155134D01*
X143186431Y-94138393D01*
X143220409Y-94128085D01*
X143261890Y-94124000D01*
X143938110Y-94124000D01*
X143979591Y-94128085D01*
X143979591Y-94128085D01*
G37*
G36*
X190701000Y-94851000D02*
G01*
X189699000Y-94851000D01*
X189699000Y-93949000D01*
X190701000Y-93949000D01*
X190701000Y-94851000D01*
X190701000Y-94851000D01*
G37*
G36*
X147151000Y-94551000D02*
G01*
X146049000Y-94551000D01*
X146049000Y-93449000D01*
X147151000Y-93449000D01*
X147151000Y-94551000D01*
X147151000Y-94551000D01*
G37*
G36*
X128546811Y-91778271D02*
G01*
X128582603Y-91789129D01*
X128615595Y-91806763D01*
X128644508Y-91830492D01*
X128668237Y-91859405D01*
X128685871Y-91892397D01*
X128696729Y-91928189D01*
X128701000Y-91971555D01*
X128701000Y-94028445D01*
X128696729Y-94071811D01*
X128685871Y-94107603D01*
X128668237Y-94140595D01*
X128644508Y-94169508D01*
X128615595Y-94193237D01*
X128582603Y-94210871D01*
X128546811Y-94221729D01*
X128503445Y-94226000D01*
X127471555Y-94226000D01*
X127428189Y-94221729D01*
X127392397Y-94210871D01*
X127359405Y-94193237D01*
X127330492Y-94169508D01*
X127306763Y-94140595D01*
X127289129Y-94107603D01*
X127278271Y-94071811D01*
X127274000Y-94028445D01*
X127274000Y-91971555D01*
X127278271Y-91928189D01*
X127289129Y-91892397D01*
X127306763Y-91859405D01*
X127330492Y-91830492D01*
X127359405Y-91806763D01*
X127392397Y-91789129D01*
X127428189Y-91778271D01*
X127471555Y-91774000D01*
X128503445Y-91774000D01*
X128546811Y-91778271D01*
X128546811Y-91778271D01*
G37*
G36*
X125471811Y-91778271D02*
G01*
X125507603Y-91789129D01*
X125540595Y-91806763D01*
X125569508Y-91830492D01*
X125593237Y-91859405D01*
X125610871Y-91892397D01*
X125621729Y-91928189D01*
X125626000Y-91971555D01*
X125626000Y-94028445D01*
X125621729Y-94071811D01*
X125610871Y-94107603D01*
X125593237Y-94140595D01*
X125569508Y-94169508D01*
X125540595Y-94193237D01*
X125507603Y-94210871D01*
X125471811Y-94221729D01*
X125428445Y-94226000D01*
X124396555Y-94226000D01*
X124353189Y-94221729D01*
X124317397Y-94210871D01*
X124284405Y-94193237D01*
X124255492Y-94169508D01*
X124231763Y-94140595D01*
X124214129Y-94107603D01*
X124203271Y-94071811D01*
X124199000Y-94028445D01*
X124199000Y-91971555D01*
X124203271Y-91928189D01*
X124214129Y-91892397D01*
X124231763Y-91859405D01*
X124255492Y-91830492D01*
X124284405Y-91806763D01*
X124317397Y-91789129D01*
X124353189Y-91778271D01*
X124396555Y-91774000D01*
X125428445Y-91774000D01*
X125471811Y-91778271D01*
X125471811Y-91778271D01*
G37*
G36*
X186979591Y-93128085D02*
G01*
X187013569Y-93138393D01*
X187044890Y-93155134D01*
X187072339Y-93177661D01*
X187094866Y-93205110D01*
X187111607Y-93236431D01*
X187121915Y-93270409D01*
X187126000Y-93311890D01*
X187126000Y-93913110D01*
X187121915Y-93954591D01*
X187111607Y-93988569D01*
X187094866Y-94019890D01*
X187072339Y-94047339D01*
X187044890Y-94069866D01*
X187013569Y-94086607D01*
X186979591Y-94096915D01*
X186938110Y-94101000D01*
X186261890Y-94101000D01*
X186220409Y-94096915D01*
X186186431Y-94086607D01*
X186155110Y-94069866D01*
X186127661Y-94047339D01*
X186105134Y-94019890D01*
X186088393Y-93988569D01*
X186078085Y-93954591D01*
X186074000Y-93913110D01*
X186074000Y-93311890D01*
X186078085Y-93270409D01*
X186088393Y-93236431D01*
X186105134Y-93205110D01*
X186127661Y-93177661D01*
X186155110Y-93155134D01*
X186186431Y-93138393D01*
X186220409Y-93128085D01*
X186261890Y-93124000D01*
X186938110Y-93124000D01*
X186979591Y-93128085D01*
X186979591Y-93128085D01*
G37*
G36*
X188701000Y-93901000D02*
G01*
X187699000Y-93901000D01*
X187699000Y-92999000D01*
X188701000Y-92999000D01*
X188701000Y-93901000D01*
X188701000Y-93901000D01*
G37*
G36*
X121129591Y-92678085D02*
G01*
X121163569Y-92688393D01*
X121194890Y-92705134D01*
X121222339Y-92727661D01*
X121244866Y-92755110D01*
X121261607Y-92786431D01*
X121271915Y-92820409D01*
X121276000Y-92861890D01*
X121276000Y-93538110D01*
X121271915Y-93579591D01*
X121261607Y-93613569D01*
X121244866Y-93644890D01*
X121222339Y-93672339D01*
X121194890Y-93694866D01*
X121163569Y-93711607D01*
X121129591Y-93721915D01*
X121088110Y-93726000D01*
X120486890Y-93726000D01*
X120445409Y-93721915D01*
X120411431Y-93711607D01*
X120380110Y-93694866D01*
X120352661Y-93672339D01*
X120330134Y-93644890D01*
X120313393Y-93613569D01*
X120303085Y-93579591D01*
X120299000Y-93538110D01*
X120299000Y-92861890D01*
X120303085Y-92820409D01*
X120313393Y-92786431D01*
X120330134Y-92755110D01*
X120352661Y-92727661D01*
X120380110Y-92705134D01*
X120411431Y-92688393D01*
X120445409Y-92678085D01*
X120486890Y-92674000D01*
X121088110Y-92674000D01*
X121129591Y-92678085D01*
X121129591Y-92678085D01*
G37*
G36*
X119554591Y-92678085D02*
G01*
X119588569Y-92688393D01*
X119619890Y-92705134D01*
X119647339Y-92727661D01*
X119669866Y-92755110D01*
X119686607Y-92786431D01*
X119696915Y-92820409D01*
X119701000Y-92861890D01*
X119701000Y-93538110D01*
X119696915Y-93579591D01*
X119686607Y-93613569D01*
X119669866Y-93644890D01*
X119647339Y-93672339D01*
X119619890Y-93694866D01*
X119588569Y-93711607D01*
X119554591Y-93721915D01*
X119513110Y-93726000D01*
X118911890Y-93726000D01*
X118870409Y-93721915D01*
X118836431Y-93711607D01*
X118805110Y-93694866D01*
X118777661Y-93672339D01*
X118755134Y-93644890D01*
X118738393Y-93613569D01*
X118728085Y-93579591D01*
X118724000Y-93538110D01*
X118724000Y-92861890D01*
X118728085Y-92820409D01*
X118738393Y-92786431D01*
X118755134Y-92755110D01*
X118777661Y-92727661D01*
X118805110Y-92705134D01*
X118836431Y-92688393D01*
X118870409Y-92678085D01*
X118911890Y-92674000D01*
X119513110Y-92674000D01*
X119554591Y-92678085D01*
X119554591Y-92678085D01*
G37*
G36*
X113379591Y-92503085D02*
G01*
X113413569Y-92513393D01*
X113444890Y-92530134D01*
X113472339Y-92552661D01*
X113494866Y-92580110D01*
X113511607Y-92611431D01*
X113521915Y-92645409D01*
X113526000Y-92686890D01*
X113526000Y-93288110D01*
X113521915Y-93329591D01*
X113511607Y-93363569D01*
X113494866Y-93394890D01*
X113472339Y-93422339D01*
X113444890Y-93444866D01*
X113413569Y-93461607D01*
X113379591Y-93471915D01*
X113338110Y-93476000D01*
X112661890Y-93476000D01*
X112620409Y-93471915D01*
X112586431Y-93461607D01*
X112555110Y-93444866D01*
X112527661Y-93422339D01*
X112505134Y-93394890D01*
X112488393Y-93363569D01*
X112478085Y-93329591D01*
X112474000Y-93288110D01*
X112474000Y-92686890D01*
X112478085Y-92645409D01*
X112488393Y-92611431D01*
X112505134Y-92580110D01*
X112527661Y-92552661D01*
X112555110Y-92530134D01*
X112586431Y-92513393D01*
X112620409Y-92503085D01*
X112661890Y-92499000D01*
X113338110Y-92499000D01*
X113379591Y-92503085D01*
X113379591Y-92503085D01*
G37*
G36*
X143855355Y-84875083D02*
G01*
X143860029Y-84876501D01*
X143864330Y-84878800D01*
X143870702Y-84884029D01*
X143891076Y-84897643D01*
X143913715Y-84907020D01*
X143937749Y-84911800D01*
X143962253Y-84911800D01*
X143986286Y-84907019D01*
X144008925Y-84897642D01*
X144029298Y-84884029D01*
X144035670Y-84878800D01*
X144039971Y-84876501D01*
X144044645Y-84875083D01*
X144055641Y-84874000D01*
X144344359Y-84874000D01*
X144355355Y-84875083D01*
X144360029Y-84876501D01*
X144364330Y-84878800D01*
X144370702Y-84884029D01*
X144391076Y-84897643D01*
X144413715Y-84907020D01*
X144437749Y-84911800D01*
X144462253Y-84911800D01*
X144486286Y-84907019D01*
X144508925Y-84897642D01*
X144529298Y-84884029D01*
X144535670Y-84878800D01*
X144539971Y-84876501D01*
X144544645Y-84875083D01*
X144555641Y-84874000D01*
X144844359Y-84874000D01*
X144855355Y-84875083D01*
X144860029Y-84876501D01*
X144864330Y-84878800D01*
X144870702Y-84884029D01*
X144891076Y-84897643D01*
X144913715Y-84907020D01*
X144937749Y-84911800D01*
X144962253Y-84911800D01*
X144986286Y-84907019D01*
X145008925Y-84897642D01*
X145029298Y-84884029D01*
X145035670Y-84878800D01*
X145039971Y-84876501D01*
X145044645Y-84875083D01*
X145055641Y-84874000D01*
X145344359Y-84874000D01*
X145355355Y-84875083D01*
X145360029Y-84876501D01*
X145364330Y-84878800D01*
X145370702Y-84884029D01*
X145391076Y-84897643D01*
X145413715Y-84907020D01*
X145437749Y-84911800D01*
X145462253Y-84911800D01*
X145486286Y-84907019D01*
X145508925Y-84897642D01*
X145529298Y-84884029D01*
X145535670Y-84878800D01*
X145539971Y-84876501D01*
X145544645Y-84875083D01*
X145555641Y-84874000D01*
X145844359Y-84874000D01*
X145855355Y-84875083D01*
X145860029Y-84876501D01*
X145864330Y-84878800D01*
X145870702Y-84884029D01*
X145891076Y-84897643D01*
X145913715Y-84907020D01*
X145937749Y-84911800D01*
X145962253Y-84911800D01*
X145986286Y-84907019D01*
X146008925Y-84897642D01*
X146029298Y-84884029D01*
X146035670Y-84878800D01*
X146039971Y-84876501D01*
X146044645Y-84875083D01*
X146055641Y-84874000D01*
X146344359Y-84874000D01*
X146355355Y-84875083D01*
X146360029Y-84876501D01*
X146364330Y-84878800D01*
X146370702Y-84884029D01*
X146391076Y-84897643D01*
X146413715Y-84907020D01*
X146437749Y-84911800D01*
X146462253Y-84911800D01*
X146486286Y-84907019D01*
X146508925Y-84897642D01*
X146529298Y-84884029D01*
X146535670Y-84878800D01*
X146539971Y-84876501D01*
X146544645Y-84875083D01*
X146555641Y-84874000D01*
X146844359Y-84874000D01*
X146855355Y-84875083D01*
X146860029Y-84876501D01*
X146864330Y-84878800D01*
X146870702Y-84884029D01*
X146891076Y-84897643D01*
X146913715Y-84907020D01*
X146937749Y-84911800D01*
X146962253Y-84911800D01*
X146986286Y-84907019D01*
X147008925Y-84897642D01*
X147029298Y-84884029D01*
X147035670Y-84878800D01*
X147039971Y-84876501D01*
X147044645Y-84875083D01*
X147055641Y-84874000D01*
X147344359Y-84874000D01*
X147355355Y-84875083D01*
X147360029Y-84876501D01*
X147364330Y-84878800D01*
X147370702Y-84884029D01*
X147391076Y-84897643D01*
X147413715Y-84907020D01*
X147437749Y-84911800D01*
X147462253Y-84911800D01*
X147486286Y-84907019D01*
X147508925Y-84897642D01*
X147529298Y-84884029D01*
X147535670Y-84878800D01*
X147539971Y-84876501D01*
X147544645Y-84875083D01*
X147555641Y-84874000D01*
X147844359Y-84874000D01*
X147855355Y-84875083D01*
X147860029Y-84876501D01*
X147864330Y-84878800D01*
X147870702Y-84884029D01*
X147891076Y-84897643D01*
X147913715Y-84907020D01*
X147937749Y-84911800D01*
X147962253Y-84911800D01*
X147986286Y-84907019D01*
X148008925Y-84897642D01*
X148029298Y-84884029D01*
X148035670Y-84878800D01*
X148039971Y-84876501D01*
X148044645Y-84875083D01*
X148055641Y-84874000D01*
X148344359Y-84874000D01*
X148355355Y-84875083D01*
X148360029Y-84876501D01*
X148364330Y-84878800D01*
X148370702Y-84884029D01*
X148391076Y-84897643D01*
X148413715Y-84907020D01*
X148437749Y-84911800D01*
X148462253Y-84911800D01*
X148486286Y-84907019D01*
X148508925Y-84897642D01*
X148529298Y-84884029D01*
X148535670Y-84878800D01*
X148539971Y-84876501D01*
X148544645Y-84875083D01*
X148555641Y-84874000D01*
X148844359Y-84874000D01*
X148855355Y-84875083D01*
X148860029Y-84876501D01*
X148864331Y-84878800D01*
X148868104Y-84881896D01*
X148871200Y-84885669D01*
X148873499Y-84889971D01*
X148874917Y-84894645D01*
X148876000Y-84905641D01*
X148876000Y-85999001D01*
X148878402Y-86023387D01*
X148885515Y-86046836D01*
X148897066Y-86068447D01*
X148912611Y-86087389D01*
X148931553Y-86102934D01*
X148953164Y-86114485D01*
X148976613Y-86121598D01*
X149000999Y-86124000D01*
X150094359Y-86124000D01*
X150105355Y-86125083D01*
X150110029Y-86126501D01*
X150114331Y-86128800D01*
X150118104Y-86131896D01*
X150121200Y-86135669D01*
X150123499Y-86139971D01*
X150124917Y-86144645D01*
X150126000Y-86155641D01*
X150126000Y-86444359D01*
X150124917Y-86455355D01*
X150123499Y-86460029D01*
X150121200Y-86464330D01*
X150115971Y-86470702D01*
X150102357Y-86491076D01*
X150092980Y-86513715D01*
X150088200Y-86537749D01*
X150088200Y-86562253D01*
X150092981Y-86586286D01*
X150102358Y-86608925D01*
X150115971Y-86629298D01*
X150121200Y-86635670D01*
X150123499Y-86639971D01*
X150124917Y-86644645D01*
X150126000Y-86655641D01*
X150126000Y-86944359D01*
X150124917Y-86955355D01*
X150123499Y-86960029D01*
X150121200Y-86964330D01*
X150115971Y-86970702D01*
X150102357Y-86991076D01*
X150092980Y-87013715D01*
X150088200Y-87037749D01*
X150088200Y-87062253D01*
X150092981Y-87086286D01*
X150102358Y-87108925D01*
X150115971Y-87129298D01*
X150121200Y-87135670D01*
X150123499Y-87139971D01*
X150124917Y-87144645D01*
X150126000Y-87155641D01*
X150126000Y-87444359D01*
X150124917Y-87455355D01*
X150123499Y-87460029D01*
X150121200Y-87464330D01*
X150115971Y-87470702D01*
X150102357Y-87491076D01*
X150092980Y-87513715D01*
X150088200Y-87537749D01*
X150088200Y-87562253D01*
X150092981Y-87586286D01*
X150102358Y-87608925D01*
X150115971Y-87629298D01*
X150121200Y-87635670D01*
X150123499Y-87639971D01*
X150124917Y-87644645D01*
X150126000Y-87655641D01*
X150126000Y-87944359D01*
X150124917Y-87955355D01*
X150123499Y-87960029D01*
X150121200Y-87964330D01*
X150115971Y-87970702D01*
X150102357Y-87991076D01*
X150092980Y-88013715D01*
X150088200Y-88037749D01*
X150088200Y-88062253D01*
X150092981Y-88086286D01*
X150102358Y-88108925D01*
X150115971Y-88129298D01*
X150121200Y-88135670D01*
X150123499Y-88139971D01*
X150124917Y-88144645D01*
X150126000Y-88155641D01*
X150126000Y-88444359D01*
X150124917Y-88455355D01*
X150123499Y-88460029D01*
X150121200Y-88464330D01*
X150115971Y-88470702D01*
X150102357Y-88491076D01*
X150092980Y-88513715D01*
X150088200Y-88537749D01*
X150088200Y-88562253D01*
X150092981Y-88586286D01*
X150102358Y-88608925D01*
X150115971Y-88629298D01*
X150121200Y-88635670D01*
X150123499Y-88639971D01*
X150124917Y-88644645D01*
X150126000Y-88655641D01*
X150126000Y-88944359D01*
X150124917Y-88955355D01*
X150123499Y-88960029D01*
X150121200Y-88964330D01*
X150115971Y-88970702D01*
X150102357Y-88991076D01*
X150092980Y-89013715D01*
X150088200Y-89037749D01*
X150088200Y-89062253D01*
X150092981Y-89086286D01*
X150102358Y-89108925D01*
X150115971Y-89129298D01*
X150121200Y-89135670D01*
X150123499Y-89139971D01*
X150124917Y-89144645D01*
X150126000Y-89155641D01*
X150126000Y-89444359D01*
X150124917Y-89455355D01*
X150123499Y-89460029D01*
X150121200Y-89464330D01*
X150115971Y-89470702D01*
X150102357Y-89491076D01*
X150092980Y-89513715D01*
X150088200Y-89537749D01*
X150088200Y-89562253D01*
X150092981Y-89586286D01*
X150102358Y-89608925D01*
X150115971Y-89629298D01*
X150121200Y-89635670D01*
X150123499Y-89639971D01*
X150124917Y-89644645D01*
X150126000Y-89655641D01*
X150126000Y-89944359D01*
X150124917Y-89955355D01*
X150123499Y-89960029D01*
X150121200Y-89964330D01*
X150115971Y-89970702D01*
X150102357Y-89991076D01*
X150092980Y-90013715D01*
X150088200Y-90037749D01*
X150088200Y-90062253D01*
X150092981Y-90086286D01*
X150102358Y-90108925D01*
X150115971Y-90129298D01*
X150121200Y-90135670D01*
X150123499Y-90139971D01*
X150124917Y-90144645D01*
X150126000Y-90155641D01*
X150126000Y-90444359D01*
X150124917Y-90455355D01*
X150123499Y-90460029D01*
X150121200Y-90464330D01*
X150115971Y-90470702D01*
X150102357Y-90491076D01*
X150092980Y-90513715D01*
X150088200Y-90537749D01*
X150088200Y-90562253D01*
X150092981Y-90586286D01*
X150102358Y-90608925D01*
X150115971Y-90629298D01*
X150121200Y-90635670D01*
X150123499Y-90639971D01*
X150124917Y-90644645D01*
X150126000Y-90655641D01*
X150126000Y-90944359D01*
X150124917Y-90955355D01*
X150123499Y-90960029D01*
X150121200Y-90964330D01*
X150115971Y-90970702D01*
X150102357Y-90991076D01*
X150092980Y-91013715D01*
X150088200Y-91037749D01*
X150088200Y-91062253D01*
X150092981Y-91086286D01*
X150102358Y-91108925D01*
X150115971Y-91129298D01*
X150121200Y-91135670D01*
X150123499Y-91139971D01*
X150124917Y-91144645D01*
X150126000Y-91155641D01*
X150126000Y-91444359D01*
X150124917Y-91455355D01*
X150123499Y-91460029D01*
X150121200Y-91464331D01*
X150118104Y-91468104D01*
X150114331Y-91471200D01*
X150110029Y-91473499D01*
X150105355Y-91474917D01*
X150094359Y-91476000D01*
X149000999Y-91476000D01*
X148976613Y-91478402D01*
X148953164Y-91485515D01*
X148931553Y-91497066D01*
X148912611Y-91512611D01*
X148897066Y-91531553D01*
X148885515Y-91553164D01*
X148878402Y-91576613D01*
X148876000Y-91600999D01*
X148876000Y-92694359D01*
X148874917Y-92705355D01*
X148873499Y-92710029D01*
X148871200Y-92714331D01*
X148868104Y-92718104D01*
X148864331Y-92721200D01*
X148860029Y-92723499D01*
X148855355Y-92724917D01*
X148844359Y-92726000D01*
X148555641Y-92726000D01*
X148544645Y-92724917D01*
X148539971Y-92723499D01*
X148535670Y-92721200D01*
X148529298Y-92715971D01*
X148508924Y-92702357D01*
X148486285Y-92692980D01*
X148462251Y-92688200D01*
X148437747Y-92688200D01*
X148413714Y-92692981D01*
X148391075Y-92702358D01*
X148370702Y-92715971D01*
X148364330Y-92721200D01*
X148360029Y-92723499D01*
X148355355Y-92724917D01*
X148344359Y-92726000D01*
X148055641Y-92726000D01*
X148044645Y-92724917D01*
X148039971Y-92723499D01*
X148035670Y-92721200D01*
X148029298Y-92715971D01*
X148008924Y-92702357D01*
X147986285Y-92692980D01*
X147962251Y-92688200D01*
X147937747Y-92688200D01*
X147913714Y-92692981D01*
X147891075Y-92702358D01*
X147870702Y-92715971D01*
X147864330Y-92721200D01*
X147860029Y-92723499D01*
X147855355Y-92724917D01*
X147844359Y-92726000D01*
X147555641Y-92726000D01*
X147544645Y-92724917D01*
X147539971Y-92723499D01*
X147535670Y-92721200D01*
X147529298Y-92715971D01*
X147508924Y-92702357D01*
X147486285Y-92692980D01*
X147462251Y-92688200D01*
X147437747Y-92688200D01*
X147413714Y-92692981D01*
X147391075Y-92702358D01*
X147370702Y-92715971D01*
X147364330Y-92721200D01*
X147360029Y-92723499D01*
X147355355Y-92724917D01*
X147344359Y-92726000D01*
X147055641Y-92726000D01*
X147044645Y-92724917D01*
X147039971Y-92723499D01*
X147035670Y-92721200D01*
X147029298Y-92715971D01*
X147008924Y-92702357D01*
X146986285Y-92692980D01*
X146962251Y-92688200D01*
X146937747Y-92688200D01*
X146913714Y-92692981D01*
X146891075Y-92702358D01*
X146870702Y-92715971D01*
X146864330Y-92721200D01*
X146860029Y-92723499D01*
X146855355Y-92724917D01*
X146844359Y-92726000D01*
X146555641Y-92726000D01*
X146544645Y-92724917D01*
X146539971Y-92723499D01*
X146535670Y-92721200D01*
X146529298Y-92715971D01*
X146508924Y-92702357D01*
X146486285Y-92692980D01*
X146462251Y-92688200D01*
X146437747Y-92688200D01*
X146413714Y-92692981D01*
X146391075Y-92702358D01*
X146370702Y-92715971D01*
X146364330Y-92721200D01*
X146360029Y-92723499D01*
X146355355Y-92724917D01*
X146344359Y-92726000D01*
X146055641Y-92726000D01*
X146044645Y-92724917D01*
X146039971Y-92723499D01*
X146035670Y-92721200D01*
X146029298Y-92715971D01*
X146008924Y-92702357D01*
X145986285Y-92692980D01*
X145962251Y-92688200D01*
X145937747Y-92688200D01*
X145913714Y-92692981D01*
X145891075Y-92702358D01*
X145870702Y-92715971D01*
X145864330Y-92721200D01*
X145860029Y-92723499D01*
X145855355Y-92724917D01*
X145844359Y-92726000D01*
X145555641Y-92726000D01*
X145544645Y-92724917D01*
X145539971Y-92723499D01*
X145535670Y-92721200D01*
X145529298Y-92715971D01*
X145508924Y-92702357D01*
X145486285Y-92692980D01*
X145462251Y-92688200D01*
X145437747Y-92688200D01*
X145413714Y-92692981D01*
X145391075Y-92702358D01*
X145370702Y-92715971D01*
X145364330Y-92721200D01*
X145360029Y-92723499D01*
X145355355Y-92724917D01*
X145344359Y-92726000D01*
X145055641Y-92726000D01*
X145044645Y-92724917D01*
X145039971Y-92723499D01*
X145035670Y-92721200D01*
X145029298Y-92715971D01*
X145008924Y-92702357D01*
X144986285Y-92692980D01*
X144962251Y-92688200D01*
X144937747Y-92688200D01*
X144913714Y-92692981D01*
X144891075Y-92702358D01*
X144870702Y-92715971D01*
X144864330Y-92721200D01*
X144860029Y-92723499D01*
X144855355Y-92724917D01*
X144844359Y-92726000D01*
X144555641Y-92726000D01*
X144544645Y-92724917D01*
X144539971Y-92723499D01*
X144535670Y-92721200D01*
X144529298Y-92715971D01*
X144508924Y-92702357D01*
X144486285Y-92692980D01*
X144462251Y-92688200D01*
X144437747Y-92688200D01*
X144413714Y-92692981D01*
X144391075Y-92702358D01*
X144370702Y-92715971D01*
X144364330Y-92721200D01*
X144360029Y-92723499D01*
X144355355Y-92724917D01*
X144344359Y-92726000D01*
X144055641Y-92726000D01*
X144044645Y-92724917D01*
X144039971Y-92723499D01*
X144035670Y-92721200D01*
X144029298Y-92715971D01*
X144008924Y-92702357D01*
X143986285Y-92692980D01*
X143962251Y-92688200D01*
X143937747Y-92688200D01*
X143913714Y-92692981D01*
X143891075Y-92702358D01*
X143870702Y-92715971D01*
X143864330Y-92721200D01*
X143860029Y-92723499D01*
X143855355Y-92724917D01*
X143844359Y-92726000D01*
X143555641Y-92726000D01*
X143544645Y-92724917D01*
X143539971Y-92723499D01*
X143535669Y-92721200D01*
X143531896Y-92718104D01*
X143528800Y-92714331D01*
X143526501Y-92710029D01*
X143525083Y-92705355D01*
X143524000Y-92694359D01*
X143524000Y-91600999D01*
X143521598Y-91576613D01*
X143514485Y-91553164D01*
X143502934Y-91531553D01*
X143487389Y-91512611D01*
X143468447Y-91497066D01*
X143446836Y-91485515D01*
X143423387Y-91478402D01*
X143399001Y-91476000D01*
X142305641Y-91476000D01*
X142294645Y-91474917D01*
X142289971Y-91473499D01*
X142285669Y-91471200D01*
X142281896Y-91468104D01*
X142278800Y-91464331D01*
X142276501Y-91460029D01*
X142275083Y-91455355D01*
X142274000Y-91444359D01*
X142274000Y-91155641D01*
X142275083Y-91144645D01*
X142276501Y-91139971D01*
X142278800Y-91135670D01*
X142284029Y-91129298D01*
X142297643Y-91108924D01*
X142307020Y-91086285D01*
X142311800Y-91062251D01*
X142311800Y-91037747D01*
X142307019Y-91013714D01*
X142297642Y-90991075D01*
X142284029Y-90970702D01*
X142278800Y-90964330D01*
X142276501Y-90960029D01*
X142275083Y-90955355D01*
X142274000Y-90944359D01*
X142274000Y-90655641D01*
X142275083Y-90644645D01*
X142276501Y-90639971D01*
X142278800Y-90635670D01*
X142284029Y-90629298D01*
X142297643Y-90608924D01*
X142307020Y-90586285D01*
X142311800Y-90562251D01*
X142311800Y-90537747D01*
X142307019Y-90513714D01*
X142297642Y-90491075D01*
X142284029Y-90470702D01*
X142278800Y-90464330D01*
X142276501Y-90460029D01*
X142275083Y-90455355D01*
X142274000Y-90444359D01*
X142274000Y-90155641D01*
X142275083Y-90144645D01*
X142276501Y-90139971D01*
X142278800Y-90135670D01*
X142284029Y-90129298D01*
X142297643Y-90108924D01*
X142307020Y-90086285D01*
X142311800Y-90062251D01*
X142311800Y-90037747D01*
X142307019Y-90013714D01*
X142297642Y-89991075D01*
X142284029Y-89970702D01*
X142278800Y-89964330D01*
X142276501Y-89960029D01*
X142275083Y-89955355D01*
X142274000Y-89944359D01*
X142274000Y-89655641D01*
X142275083Y-89644645D01*
X142276501Y-89639971D01*
X142278800Y-89635670D01*
X142284029Y-89629298D01*
X142297643Y-89608924D01*
X142307020Y-89586285D01*
X142311800Y-89562251D01*
X142311800Y-89537747D01*
X142307019Y-89513714D01*
X142297642Y-89491075D01*
X142284029Y-89470702D01*
X142278800Y-89464330D01*
X142276501Y-89460029D01*
X142275083Y-89455355D01*
X142274000Y-89444359D01*
X142274000Y-89155641D01*
X142275083Y-89144645D01*
X142276501Y-89139971D01*
X142278800Y-89135670D01*
X142284029Y-89129298D01*
X142297643Y-89108924D01*
X142307020Y-89086285D01*
X142311800Y-89062251D01*
X142311800Y-89037747D01*
X142307019Y-89013714D01*
X142297642Y-88991075D01*
X142284029Y-88970702D01*
X142278800Y-88964330D01*
X142276501Y-88960029D01*
X142275083Y-88955355D01*
X142274000Y-88944359D01*
X142274000Y-88655641D01*
X142275083Y-88644645D01*
X142276501Y-88639971D01*
X142278800Y-88635670D01*
X142284029Y-88629298D01*
X142297643Y-88608924D01*
X142307020Y-88586285D01*
X142311800Y-88562251D01*
X142311800Y-88537747D01*
X142307019Y-88513714D01*
X142297642Y-88491075D01*
X142284029Y-88470702D01*
X142278800Y-88464330D01*
X142276501Y-88460029D01*
X142275083Y-88455355D01*
X142274000Y-88444359D01*
X142274000Y-88155641D01*
X142275083Y-88144645D01*
X142276501Y-88139971D01*
X142278800Y-88135670D01*
X142284029Y-88129298D01*
X142297643Y-88108924D01*
X142307020Y-88086285D01*
X142311800Y-88062251D01*
X142311800Y-88037747D01*
X142307019Y-88013714D01*
X142297642Y-87991075D01*
X142284029Y-87970702D01*
X142278800Y-87964330D01*
X142276501Y-87960029D01*
X142275083Y-87955355D01*
X142274000Y-87944359D01*
X142274000Y-87655641D01*
X142275083Y-87644645D01*
X142276501Y-87639971D01*
X142278800Y-87635670D01*
X142284029Y-87629298D01*
X142297643Y-87608924D01*
X142307020Y-87586285D01*
X142311800Y-87562251D01*
X142311800Y-87537747D01*
X142307019Y-87513714D01*
X142297642Y-87491075D01*
X142284029Y-87470702D01*
X142278800Y-87464330D01*
X142276501Y-87460029D01*
X142275083Y-87455355D01*
X142274000Y-87444359D01*
X142274000Y-87155641D01*
X142275083Y-87144645D01*
X142276501Y-87139971D01*
X142278800Y-87135670D01*
X142284029Y-87129298D01*
X142297643Y-87108924D01*
X142307020Y-87086285D01*
X142311800Y-87062251D01*
X142311800Y-87037747D01*
X142307019Y-87013714D01*
X142297642Y-86991075D01*
X142284029Y-86970702D01*
X142278800Y-86964330D01*
X142276501Y-86960029D01*
X142275083Y-86955355D01*
X142274000Y-86944359D01*
X142274000Y-86655641D01*
X142275083Y-86644645D01*
X142276501Y-86639971D01*
X142278800Y-86635670D01*
X142284029Y-86629298D01*
X142297643Y-86608924D01*
X142307020Y-86586285D01*
X142311800Y-86562251D01*
X142311800Y-86537747D01*
X142307019Y-86513714D01*
X142297642Y-86491075D01*
X142284029Y-86470702D01*
X142278800Y-86464330D01*
X142276501Y-86460029D01*
X142275083Y-86455355D01*
X142274000Y-86444359D01*
X142274000Y-86155641D01*
X142275083Y-86144645D01*
X142276501Y-86139971D01*
X142278800Y-86135669D01*
X142281896Y-86131896D01*
X142285669Y-86128800D01*
X142289971Y-86126501D01*
X142294645Y-86125083D01*
X142305641Y-86124000D01*
X143399001Y-86124000D01*
X143423387Y-86121598D01*
X143446836Y-86114485D01*
X143468447Y-86102934D01*
X143487389Y-86087389D01*
X143502934Y-86068447D01*
X143514485Y-86046836D01*
X143521598Y-86023387D01*
X143524000Y-85999001D01*
X143524000Y-84905641D01*
X143525083Y-84894645D01*
X143526501Y-84889971D01*
X143528800Y-84885669D01*
X143531896Y-84881896D01*
X143535669Y-84878800D01*
X143539971Y-84876501D01*
X143544645Y-84875083D01*
X143555641Y-84874000D01*
X143844359Y-84874000D01*
X143855355Y-84875083D01*
X143855355Y-84875083D01*
G37*
G36*
X193095025Y-90924000D02*
G01*
X193176627Y-90932037D01*
X193346466Y-90983557D01*
X193346468Y-90983558D01*
X193360531Y-90991075D01*
X193502991Y-91067222D01*
X193512200Y-91074780D01*
X193640186Y-91179814D01*
X193701446Y-91254461D01*
X193752778Y-91317009D01*
X193752779Y-91317011D01*
X193835196Y-91471200D01*
X193836443Y-91473534D01*
X193887963Y-91643373D01*
X193905359Y-91820000D01*
X193887963Y-91996627D01*
X193836443Y-92166466D01*
X193836442Y-92166468D01*
X193811266Y-92213569D01*
X193752778Y-92322991D01*
X193723448Y-92358729D01*
X193640186Y-92460186D01*
X193542731Y-92540164D01*
X193502991Y-92572778D01*
X193346466Y-92656443D01*
X193176627Y-92707963D01*
X193111971Y-92714331D01*
X193044260Y-92721000D01*
X192955740Y-92721000D01*
X192888029Y-92714331D01*
X192823373Y-92707963D01*
X192653534Y-92656443D01*
X192497009Y-92572778D01*
X192457269Y-92540164D01*
X192359814Y-92460186D01*
X192276552Y-92358729D01*
X192247222Y-92322991D01*
X192188734Y-92213569D01*
X192163558Y-92166468D01*
X192163557Y-92166466D01*
X192112037Y-91996627D01*
X192094641Y-91820000D01*
X192112037Y-91643373D01*
X192163557Y-91473534D01*
X192164805Y-91471200D01*
X192247221Y-91317011D01*
X192247222Y-91317009D01*
X192298554Y-91254461D01*
X192359814Y-91179814D01*
X192487800Y-91074780D01*
X192497009Y-91067222D01*
X192639469Y-90991075D01*
X192653532Y-90983558D01*
X192653534Y-90983557D01*
X192823373Y-90932037D01*
X192904975Y-90924000D01*
X192955740Y-90919000D01*
X193044260Y-90919000D01*
X193095025Y-90924000D01*
X193095025Y-90924000D01*
G37*
G36*
X188754591Y-91278085D02*
G01*
X188788569Y-91288393D01*
X188819890Y-91305134D01*
X188847339Y-91327661D01*
X188869866Y-91355110D01*
X188886607Y-91386431D01*
X188896915Y-91420409D01*
X188901000Y-91461890D01*
X188901000Y-92138110D01*
X188896915Y-92179591D01*
X188886607Y-92213569D01*
X188869866Y-92244890D01*
X188847339Y-92272339D01*
X188819890Y-92294866D01*
X188788569Y-92311607D01*
X188754591Y-92321915D01*
X188713110Y-92326000D01*
X188111890Y-92326000D01*
X188070409Y-92321915D01*
X188036431Y-92311607D01*
X188005110Y-92294866D01*
X187977661Y-92272339D01*
X187955134Y-92244890D01*
X187938393Y-92213569D01*
X187928085Y-92179591D01*
X187924000Y-92138110D01*
X187924000Y-91461890D01*
X187928085Y-91420409D01*
X187938393Y-91386431D01*
X187955134Y-91355110D01*
X187977661Y-91327661D01*
X188005110Y-91305134D01*
X188036431Y-91288393D01*
X188070409Y-91278085D01*
X188111890Y-91274000D01*
X188713110Y-91274000D01*
X188754591Y-91278085D01*
X188754591Y-91278085D01*
G37*
G36*
X190329591Y-91278085D02*
G01*
X190363569Y-91288393D01*
X190394890Y-91305134D01*
X190422339Y-91327661D01*
X190444866Y-91355110D01*
X190461607Y-91386431D01*
X190471915Y-91420409D01*
X190476000Y-91461890D01*
X190476000Y-92138110D01*
X190471915Y-92179591D01*
X190461607Y-92213569D01*
X190444866Y-92244890D01*
X190422339Y-92272339D01*
X190394890Y-92294866D01*
X190363569Y-92311607D01*
X190329591Y-92321915D01*
X190288110Y-92326000D01*
X189686890Y-92326000D01*
X189645409Y-92321915D01*
X189611431Y-92311607D01*
X189580110Y-92294866D01*
X189552661Y-92272339D01*
X189530134Y-92244890D01*
X189513393Y-92213569D01*
X189503085Y-92179591D01*
X189499000Y-92138110D01*
X189499000Y-91461890D01*
X189503085Y-91420409D01*
X189513393Y-91386431D01*
X189530134Y-91355110D01*
X189552661Y-91327661D01*
X189580110Y-91305134D01*
X189611431Y-91288393D01*
X189645409Y-91278085D01*
X189686890Y-91274000D01*
X190288110Y-91274000D01*
X190329591Y-91278085D01*
X190329591Y-91278085D01*
G37*
G36*
X175634239Y-85811467D02*
G01*
X175948282Y-85873934D01*
X176539926Y-86119001D01*
X176891888Y-86354175D01*
X177072391Y-86474783D01*
X177525217Y-86927609D01*
X177573367Y-86999671D01*
X177880999Y-87460074D01*
X178126066Y-88051718D01*
X178170281Y-88274000D01*
X178251000Y-88679803D01*
X178251000Y-89320197D01*
X178207726Y-89537749D01*
X178126066Y-89948282D01*
X177880999Y-90539926D01*
X177603565Y-90955134D01*
X177528671Y-91067222D01*
X177525216Y-91072392D01*
X177072392Y-91525216D01*
X176539926Y-91880999D01*
X175948282Y-92126066D01*
X175745177Y-92166466D01*
X175320197Y-92251000D01*
X174679803Y-92251000D01*
X174254823Y-92166466D01*
X174051718Y-92126066D01*
X173460074Y-91880999D01*
X172927608Y-91525216D01*
X172474784Y-91072392D01*
X172471330Y-91067222D01*
X172396435Y-90955134D01*
X172119001Y-90539926D01*
X171873934Y-89948282D01*
X171792274Y-89537749D01*
X171749000Y-89320197D01*
X171749000Y-88679803D01*
X171829719Y-88274000D01*
X171873934Y-88051718D01*
X172119001Y-87460074D01*
X172426633Y-86999671D01*
X172474783Y-86927609D01*
X172927609Y-86474783D01*
X173108112Y-86354175D01*
X173460074Y-86119001D01*
X174051718Y-85873934D01*
X174365761Y-85811467D01*
X174679803Y-85749000D01*
X175320197Y-85749000D01*
X175634239Y-85811467D01*
X175634239Y-85811467D01*
G37*
G36*
X113379591Y-90928085D02*
G01*
X113413569Y-90938393D01*
X113444890Y-90955134D01*
X113472339Y-90977661D01*
X113494866Y-91005110D01*
X113511607Y-91036431D01*
X113521915Y-91070409D01*
X113526000Y-91111890D01*
X113526000Y-91713110D01*
X113521915Y-91754591D01*
X113511607Y-91788569D01*
X113494866Y-91819890D01*
X113472339Y-91847339D01*
X113444890Y-91869866D01*
X113413569Y-91886607D01*
X113379591Y-91896915D01*
X113338110Y-91901000D01*
X112661890Y-91901000D01*
X112620409Y-91896915D01*
X112586431Y-91886607D01*
X112555110Y-91869866D01*
X112527661Y-91847339D01*
X112505134Y-91819890D01*
X112488393Y-91788569D01*
X112478085Y-91754591D01*
X112474000Y-91713110D01*
X112474000Y-91111890D01*
X112478085Y-91070409D01*
X112488393Y-91036431D01*
X112505134Y-91005110D01*
X112527661Y-90977661D01*
X112555110Y-90955134D01*
X112586431Y-90938393D01*
X112620409Y-90928085D01*
X112661890Y-90924000D01*
X113338110Y-90924000D01*
X113379591Y-90928085D01*
X113379591Y-90928085D01*
G37*
G36*
X116076000Y-91756000D02*
G01*
X114424000Y-91756000D01*
X114424000Y-91054000D01*
X116076000Y-91054000D01*
X116076000Y-91756000D01*
X116076000Y-91756000D01*
G37*
G36*
X121476000Y-91756000D02*
G01*
X119824000Y-91756000D01*
X119824000Y-91054000D01*
X121476000Y-91054000D01*
X121476000Y-91756000D01*
X121476000Y-91756000D01*
G37*
G36*
X153729591Y-90278085D02*
G01*
X153763569Y-90288393D01*
X153794890Y-90305134D01*
X153822339Y-90327661D01*
X153844866Y-90355110D01*
X153861607Y-90386431D01*
X153871915Y-90420409D01*
X153876000Y-90461890D01*
X153876000Y-91138110D01*
X153871915Y-91179591D01*
X153861607Y-91213569D01*
X153844866Y-91244890D01*
X153822339Y-91272339D01*
X153794890Y-91294866D01*
X153763569Y-91311607D01*
X153729591Y-91321915D01*
X153688110Y-91326000D01*
X153086890Y-91326000D01*
X153045409Y-91321915D01*
X153011431Y-91311607D01*
X152980110Y-91294866D01*
X152952661Y-91272339D01*
X152930134Y-91244890D01*
X152913393Y-91213569D01*
X152903085Y-91179591D01*
X152899000Y-91138110D01*
X152899000Y-90461890D01*
X152903085Y-90420409D01*
X152913393Y-90386431D01*
X152930134Y-90355110D01*
X152952661Y-90327661D01*
X152980110Y-90305134D01*
X153011431Y-90288393D01*
X153045409Y-90278085D01*
X153086890Y-90274000D01*
X153688110Y-90274000D01*
X153729591Y-90278085D01*
X153729591Y-90278085D01*
G37*
G36*
X152154591Y-90278085D02*
G01*
X152188569Y-90288393D01*
X152219890Y-90305134D01*
X152247339Y-90327661D01*
X152269866Y-90355110D01*
X152286607Y-90386431D01*
X152296915Y-90420409D01*
X152301000Y-90461890D01*
X152301000Y-91138110D01*
X152296915Y-91179591D01*
X152286607Y-91213569D01*
X152269866Y-91244890D01*
X152247339Y-91272339D01*
X152219890Y-91294866D01*
X152188569Y-91311607D01*
X152154591Y-91321915D01*
X152113110Y-91326000D01*
X151511890Y-91326000D01*
X151470409Y-91321915D01*
X151436431Y-91311607D01*
X151405110Y-91294866D01*
X151377661Y-91272339D01*
X151355134Y-91244890D01*
X151338393Y-91213569D01*
X151328085Y-91179591D01*
X151324000Y-91138110D01*
X151324000Y-90461890D01*
X151328085Y-90420409D01*
X151338393Y-90386431D01*
X151355134Y-90355110D01*
X151377661Y-90327661D01*
X151405110Y-90305134D01*
X151436431Y-90288393D01*
X151470409Y-90278085D01*
X151511890Y-90274000D01*
X152113110Y-90274000D01*
X152154591Y-90278085D01*
X152154591Y-90278085D01*
G37*
G36*
X119301000Y-91101000D02*
G01*
X116599000Y-91101000D01*
X116599000Y-87899000D01*
X119301000Y-87899000D01*
X119301000Y-91101000D01*
X119301000Y-91101000D01*
G37*
G36*
X128546811Y-88278271D02*
G01*
X128582603Y-88289129D01*
X128615595Y-88306763D01*
X128644508Y-88330492D01*
X128668237Y-88359405D01*
X128685871Y-88392397D01*
X128696729Y-88428189D01*
X128701000Y-88471555D01*
X128701000Y-90528445D01*
X128696729Y-90571811D01*
X128685871Y-90607603D01*
X128668237Y-90640595D01*
X128644508Y-90669508D01*
X128615595Y-90693237D01*
X128582603Y-90710871D01*
X128546811Y-90721729D01*
X128503445Y-90726000D01*
X127471555Y-90726000D01*
X127428189Y-90721729D01*
X127392397Y-90710871D01*
X127359405Y-90693237D01*
X127330492Y-90669508D01*
X127306763Y-90640595D01*
X127289129Y-90607603D01*
X127278271Y-90571811D01*
X127274000Y-90528445D01*
X127274000Y-88471555D01*
X127278271Y-88428189D01*
X127289129Y-88392397D01*
X127306763Y-88359405D01*
X127330492Y-88330492D01*
X127359405Y-88306763D01*
X127392397Y-88289129D01*
X127428189Y-88278271D01*
X127471555Y-88274000D01*
X128503445Y-88274000D01*
X128546811Y-88278271D01*
X128546811Y-88278271D01*
G37*
G36*
X125471811Y-88278271D02*
G01*
X125507603Y-88289129D01*
X125540595Y-88306763D01*
X125569508Y-88330492D01*
X125593237Y-88359405D01*
X125610871Y-88392397D01*
X125621729Y-88428189D01*
X125626000Y-88471555D01*
X125626000Y-90528445D01*
X125621729Y-90571811D01*
X125610871Y-90607603D01*
X125593237Y-90640595D01*
X125569508Y-90669508D01*
X125540595Y-90693237D01*
X125507603Y-90710871D01*
X125471811Y-90721729D01*
X125428445Y-90726000D01*
X124396555Y-90726000D01*
X124353189Y-90721729D01*
X124317397Y-90710871D01*
X124284405Y-90693237D01*
X124255492Y-90669508D01*
X124231763Y-90640595D01*
X124214129Y-90607603D01*
X124203271Y-90571811D01*
X124199000Y-90528445D01*
X124199000Y-88471555D01*
X124203271Y-88428189D01*
X124214129Y-88392397D01*
X124231763Y-88359405D01*
X124255492Y-88330492D01*
X124284405Y-88306763D01*
X124317397Y-88289129D01*
X124353189Y-88278271D01*
X124396555Y-88274000D01*
X125428445Y-88274000D01*
X125471811Y-88278271D01*
X125471811Y-88278271D01*
G37*
G36*
X188701000Y-90601000D02*
G01*
X187699000Y-90601000D01*
X187699000Y-89699000D01*
X188701000Y-89699000D01*
X188701000Y-90601000D01*
X188701000Y-90601000D01*
G37*
G36*
X121476000Y-90486000D02*
G01*
X119824000Y-90486000D01*
X119824000Y-89784000D01*
X121476000Y-89784000D01*
X121476000Y-90486000D01*
X121476000Y-90486000D01*
G37*
G36*
X116076000Y-90486000D02*
G01*
X114424000Y-90486000D01*
X114424000Y-89784000D01*
X116076000Y-89784000D01*
X116076000Y-90486000D01*
X116076000Y-90486000D01*
G37*
G36*
X186979591Y-89503085D02*
G01*
X187013569Y-89513393D01*
X187044890Y-89530134D01*
X187072339Y-89552661D01*
X187094866Y-89580110D01*
X187111607Y-89611431D01*
X187121915Y-89645409D01*
X187126000Y-89686890D01*
X187126000Y-90288110D01*
X187121915Y-90329591D01*
X187111607Y-90363569D01*
X187094866Y-90394890D01*
X187072339Y-90422339D01*
X187044890Y-90444866D01*
X187013569Y-90461607D01*
X186979591Y-90471915D01*
X186938110Y-90476000D01*
X186261890Y-90476000D01*
X186220409Y-90471915D01*
X186186431Y-90461607D01*
X186155110Y-90444866D01*
X186127661Y-90422339D01*
X186105134Y-90394890D01*
X186088393Y-90363569D01*
X186078085Y-90329591D01*
X186074000Y-90288110D01*
X186074000Y-89686890D01*
X186078085Y-89645409D01*
X186088393Y-89611431D01*
X186105134Y-89580110D01*
X186127661Y-89552661D01*
X186155110Y-89530134D01*
X186186431Y-89513393D01*
X186220409Y-89503085D01*
X186261890Y-89499000D01*
X186938110Y-89499000D01*
X186979591Y-89503085D01*
X186979591Y-89503085D01*
G37*
G36*
X110179591Y-89303085D02*
G01*
X110213569Y-89313393D01*
X110244890Y-89330134D01*
X110272339Y-89352661D01*
X110294866Y-89380110D01*
X110311607Y-89411431D01*
X110321915Y-89445409D01*
X110326000Y-89486890D01*
X110326000Y-90088110D01*
X110321915Y-90129591D01*
X110311607Y-90163569D01*
X110294866Y-90194890D01*
X110272339Y-90222339D01*
X110244890Y-90244866D01*
X110213569Y-90261607D01*
X110179591Y-90271915D01*
X110138110Y-90276000D01*
X109461890Y-90276000D01*
X109420409Y-90271915D01*
X109386431Y-90261607D01*
X109355110Y-90244866D01*
X109327661Y-90222339D01*
X109305134Y-90194890D01*
X109288393Y-90163569D01*
X109278085Y-90129591D01*
X109274000Y-90088110D01*
X109274000Y-89486890D01*
X109278085Y-89445409D01*
X109288393Y-89411431D01*
X109305134Y-89380110D01*
X109327661Y-89352661D01*
X109355110Y-89330134D01*
X109386431Y-89313393D01*
X109420409Y-89303085D01*
X109461890Y-89299000D01*
X110138110Y-89299000D01*
X110179591Y-89303085D01*
X110179591Y-89303085D01*
G37*
G36*
X113329591Y-89303085D02*
G01*
X113363569Y-89313393D01*
X113394890Y-89330134D01*
X113422339Y-89352661D01*
X113444866Y-89380110D01*
X113461607Y-89411431D01*
X113471915Y-89445409D01*
X113476000Y-89486890D01*
X113476000Y-90088110D01*
X113471915Y-90129591D01*
X113461607Y-90163569D01*
X113444866Y-90194890D01*
X113422339Y-90222339D01*
X113394890Y-90244866D01*
X113363569Y-90261607D01*
X113329591Y-90271915D01*
X113288110Y-90276000D01*
X112611890Y-90276000D01*
X112570409Y-90271915D01*
X112536431Y-90261607D01*
X112505110Y-90244866D01*
X112477661Y-90222339D01*
X112455134Y-90194890D01*
X112438393Y-90163569D01*
X112428085Y-90129591D01*
X112424000Y-90088110D01*
X112424000Y-89486890D01*
X112428085Y-89445409D01*
X112438393Y-89411431D01*
X112455134Y-89380110D01*
X112477661Y-89352661D01*
X112505110Y-89330134D01*
X112536431Y-89313393D01*
X112570409Y-89303085D01*
X112611890Y-89299000D01*
X113288110Y-89299000D01*
X113329591Y-89303085D01*
X113329591Y-89303085D01*
G37*
G36*
X111779591Y-89303085D02*
G01*
X111813569Y-89313393D01*
X111844890Y-89330134D01*
X111872339Y-89352661D01*
X111894866Y-89380110D01*
X111911607Y-89411431D01*
X111921915Y-89445409D01*
X111926000Y-89486890D01*
X111926000Y-90088110D01*
X111921915Y-90129591D01*
X111911607Y-90163569D01*
X111894866Y-90194890D01*
X111872339Y-90222339D01*
X111844890Y-90244866D01*
X111813569Y-90261607D01*
X111779591Y-90271915D01*
X111738110Y-90276000D01*
X111061890Y-90276000D01*
X111020409Y-90271915D01*
X110986431Y-90261607D01*
X110955110Y-90244866D01*
X110927661Y-90222339D01*
X110905134Y-90194890D01*
X110888393Y-90163569D01*
X110878085Y-90129591D01*
X110874000Y-90088110D01*
X110874000Y-89486890D01*
X110878085Y-89445409D01*
X110888393Y-89411431D01*
X110905134Y-89380110D01*
X110927661Y-89352661D01*
X110955110Y-89330134D01*
X110986431Y-89313393D01*
X111020409Y-89303085D01*
X111061890Y-89299000D01*
X111738110Y-89299000D01*
X111779591Y-89303085D01*
X111779591Y-89303085D01*
G37*
G36*
X193110442Y-88385518D02*
G01*
X193176627Y-88392037D01*
X193346466Y-88443557D01*
X193346468Y-88443558D01*
X193394629Y-88469301D01*
X193502991Y-88527222D01*
X193529527Y-88549000D01*
X193640186Y-88639814D01*
X193723448Y-88741271D01*
X193752778Y-88777009D01*
X193836443Y-88933534D01*
X193887963Y-89103373D01*
X193905359Y-89280000D01*
X193887963Y-89456627D01*
X193836443Y-89626466D01*
X193752778Y-89782991D01*
X193723448Y-89818729D01*
X193640186Y-89920186D01*
X193572175Y-89976000D01*
X193502991Y-90032778D01*
X193346466Y-90116443D01*
X193176627Y-90167963D01*
X193110442Y-90174482D01*
X193044260Y-90181000D01*
X192955740Y-90181000D01*
X192889558Y-90174482D01*
X192823373Y-90167963D01*
X192653534Y-90116443D01*
X192497009Y-90032778D01*
X192427825Y-89976000D01*
X192359814Y-89920186D01*
X192276552Y-89818729D01*
X192247222Y-89782991D01*
X192163557Y-89626466D01*
X192112037Y-89456627D01*
X192094641Y-89280000D01*
X192112037Y-89103373D01*
X192163557Y-88933534D01*
X192247222Y-88777009D01*
X192276552Y-88741271D01*
X192359814Y-88639814D01*
X192470473Y-88549000D01*
X192497009Y-88527222D01*
X192605371Y-88469301D01*
X192653532Y-88443558D01*
X192653534Y-88443557D01*
X192823373Y-88392037D01*
X192889558Y-88385518D01*
X192955740Y-88379000D01*
X193044260Y-88379000D01*
X193110442Y-88385518D01*
X193110442Y-88385518D01*
G37*
G36*
X154109468Y-88253565D02*
G01*
X154148138Y-88265296D01*
X154183777Y-88284346D01*
X154215017Y-88309983D01*
X154240654Y-88341223D01*
X154259704Y-88376862D01*
X154271435Y-88415532D01*
X154276000Y-88461888D01*
X154276000Y-89538112D01*
X154271435Y-89584468D01*
X154259704Y-89623138D01*
X154240654Y-89658777D01*
X154215017Y-89690017D01*
X154183777Y-89715654D01*
X154148138Y-89734704D01*
X154109468Y-89746435D01*
X154063112Y-89751000D01*
X153411888Y-89751000D01*
X153365532Y-89746435D01*
X153326862Y-89734704D01*
X153291223Y-89715654D01*
X153259983Y-89690017D01*
X153234346Y-89658777D01*
X153215296Y-89623138D01*
X153203565Y-89584468D01*
X153199000Y-89538112D01*
X153199000Y-88461888D01*
X153203565Y-88415532D01*
X153215296Y-88376862D01*
X153234346Y-88341223D01*
X153259983Y-88309983D01*
X153291223Y-88284346D01*
X153326862Y-88265296D01*
X153365532Y-88253565D01*
X153411888Y-88249000D01*
X154063112Y-88249000D01*
X154109468Y-88253565D01*
X154109468Y-88253565D01*
G37*
G36*
X152234468Y-88253565D02*
G01*
X152273138Y-88265296D01*
X152308777Y-88284346D01*
X152340017Y-88309983D01*
X152365654Y-88341223D01*
X152384704Y-88376862D01*
X152396435Y-88415532D01*
X152401000Y-88461888D01*
X152401000Y-89538112D01*
X152396435Y-89584468D01*
X152384704Y-89623138D01*
X152365654Y-89658777D01*
X152340017Y-89690017D01*
X152308777Y-89715654D01*
X152273138Y-89734704D01*
X152234468Y-89746435D01*
X152188112Y-89751000D01*
X151536888Y-89751000D01*
X151490532Y-89746435D01*
X151451862Y-89734704D01*
X151416223Y-89715654D01*
X151384983Y-89690017D01*
X151359346Y-89658777D01*
X151340296Y-89623138D01*
X151328565Y-89584468D01*
X151324000Y-89538112D01*
X151324000Y-88461888D01*
X151328565Y-88415532D01*
X151340296Y-88376862D01*
X151359346Y-88341223D01*
X151384983Y-88309983D01*
X151416223Y-88284346D01*
X151451862Y-88265296D01*
X151490532Y-88253565D01*
X151536888Y-88249000D01*
X152188112Y-88249000D01*
X152234468Y-88253565D01*
X152234468Y-88253565D01*
G37*
G36*
X190701000Y-89651000D02*
G01*
X189699000Y-89651000D01*
X189699000Y-88749000D01*
X190701000Y-88749000D01*
X190701000Y-89651000D01*
X190701000Y-89651000D01*
G37*
G36*
X138767091Y-88278085D02*
G01*
X138801069Y-88288393D01*
X138832390Y-88305134D01*
X138859839Y-88327661D01*
X138882366Y-88355110D01*
X138899107Y-88386431D01*
X138909415Y-88420409D01*
X138913500Y-88461890D01*
X138913500Y-89138110D01*
X138909415Y-89179591D01*
X138899107Y-89213569D01*
X138882366Y-89244890D01*
X138859839Y-89272339D01*
X138832390Y-89294866D01*
X138801069Y-89311607D01*
X138767091Y-89321915D01*
X138725610Y-89326000D01*
X138124390Y-89326000D01*
X138082909Y-89321915D01*
X138048931Y-89311607D01*
X138017610Y-89294866D01*
X137990161Y-89272339D01*
X137967634Y-89244890D01*
X137950893Y-89213569D01*
X137940585Y-89179591D01*
X137936500Y-89138110D01*
X137936500Y-88461890D01*
X137940585Y-88420409D01*
X137950893Y-88386431D01*
X137967634Y-88355110D01*
X137990161Y-88327661D01*
X138017610Y-88305134D01*
X138048931Y-88288393D01*
X138082909Y-88278085D01*
X138124390Y-88274000D01*
X138725610Y-88274000D01*
X138767091Y-88278085D01*
X138767091Y-88278085D01*
G37*
G36*
X140342091Y-88278085D02*
G01*
X140376069Y-88288393D01*
X140407390Y-88305134D01*
X140434839Y-88327661D01*
X140457366Y-88355110D01*
X140474107Y-88386431D01*
X140484415Y-88420409D01*
X140488500Y-88461890D01*
X140488500Y-89138110D01*
X140484415Y-89179591D01*
X140474107Y-89213569D01*
X140457366Y-89244890D01*
X140434839Y-89272339D01*
X140407390Y-89294866D01*
X140376069Y-89311607D01*
X140342091Y-89321915D01*
X140300610Y-89326000D01*
X139699390Y-89326000D01*
X139657909Y-89321915D01*
X139623931Y-89311607D01*
X139592610Y-89294866D01*
X139565161Y-89272339D01*
X139542634Y-89244890D01*
X139525893Y-89213569D01*
X139515585Y-89179591D01*
X139511500Y-89138110D01*
X139511500Y-88461890D01*
X139515585Y-88420409D01*
X139525893Y-88386431D01*
X139542634Y-88355110D01*
X139565161Y-88327661D01*
X139592610Y-88305134D01*
X139623931Y-88288393D01*
X139657909Y-88278085D01*
X139699390Y-88274000D01*
X140300610Y-88274000D01*
X140342091Y-88278085D01*
X140342091Y-88278085D01*
G37*
G36*
X116076000Y-89216000D02*
G01*
X114424000Y-89216000D01*
X114424000Y-88514000D01*
X116076000Y-88514000D01*
X116076000Y-89216000D01*
X116076000Y-89216000D01*
G37*
G36*
X121476000Y-89216000D02*
G01*
X119824000Y-89216000D01*
X119824000Y-88514000D01*
X121476000Y-88514000D01*
X121476000Y-89216000D01*
X121476000Y-89216000D01*
G37*
G36*
X186979591Y-87928085D02*
G01*
X187013569Y-87938393D01*
X187044890Y-87955134D01*
X187072339Y-87977661D01*
X187094866Y-88005110D01*
X187111607Y-88036431D01*
X187121915Y-88070409D01*
X187126000Y-88111890D01*
X187126000Y-88713110D01*
X187121915Y-88754591D01*
X187111607Y-88788569D01*
X187094866Y-88819890D01*
X187072339Y-88847339D01*
X187044890Y-88869866D01*
X187013569Y-88886607D01*
X186979591Y-88896915D01*
X186938110Y-88901000D01*
X186261890Y-88901000D01*
X186220409Y-88896915D01*
X186186431Y-88886607D01*
X186155110Y-88869866D01*
X186127661Y-88847339D01*
X186105134Y-88819890D01*
X186088393Y-88788569D01*
X186078085Y-88754591D01*
X186074000Y-88713110D01*
X186074000Y-88111890D01*
X186078085Y-88070409D01*
X186088393Y-88036431D01*
X186105134Y-88005110D01*
X186127661Y-87977661D01*
X186155110Y-87955134D01*
X186186431Y-87938393D01*
X186220409Y-87928085D01*
X186261890Y-87924000D01*
X186938110Y-87924000D01*
X186979591Y-87928085D01*
X186979591Y-87928085D01*
G37*
G36*
X188701000Y-88701000D02*
G01*
X187699000Y-88701000D01*
X187699000Y-87799000D01*
X188701000Y-87799000D01*
X188701000Y-88701000D01*
X188701000Y-88701000D01*
G37*
G36*
X110179591Y-87728085D02*
G01*
X110213569Y-87738393D01*
X110244890Y-87755134D01*
X110272339Y-87777661D01*
X110294866Y-87805110D01*
X110311607Y-87836431D01*
X110321915Y-87870409D01*
X110326000Y-87911890D01*
X110326000Y-88513110D01*
X110321915Y-88554591D01*
X110311607Y-88588569D01*
X110294866Y-88619890D01*
X110272339Y-88647339D01*
X110244890Y-88669866D01*
X110213569Y-88686607D01*
X110179591Y-88696915D01*
X110138110Y-88701000D01*
X109461890Y-88701000D01*
X109420409Y-88696915D01*
X109386431Y-88686607D01*
X109355110Y-88669866D01*
X109327661Y-88647339D01*
X109305134Y-88619890D01*
X109288393Y-88588569D01*
X109278085Y-88554591D01*
X109274000Y-88513110D01*
X109274000Y-87911890D01*
X109278085Y-87870409D01*
X109288393Y-87836431D01*
X109305134Y-87805110D01*
X109327661Y-87777661D01*
X109355110Y-87755134D01*
X109386431Y-87738393D01*
X109420409Y-87728085D01*
X109461890Y-87724000D01*
X110138110Y-87724000D01*
X110179591Y-87728085D01*
X110179591Y-87728085D01*
G37*
G36*
X111779591Y-87728085D02*
G01*
X111813569Y-87738393D01*
X111844890Y-87755134D01*
X111872339Y-87777661D01*
X111894866Y-87805110D01*
X111911607Y-87836431D01*
X111921915Y-87870409D01*
X111926000Y-87911890D01*
X111926000Y-88513110D01*
X111921915Y-88554591D01*
X111911607Y-88588569D01*
X111894866Y-88619890D01*
X111872339Y-88647339D01*
X111844890Y-88669866D01*
X111813569Y-88686607D01*
X111779591Y-88696915D01*
X111738110Y-88701000D01*
X111061890Y-88701000D01*
X111020409Y-88696915D01*
X110986431Y-88686607D01*
X110955110Y-88669866D01*
X110927661Y-88647339D01*
X110905134Y-88619890D01*
X110888393Y-88588569D01*
X110878085Y-88554591D01*
X110874000Y-88513110D01*
X110874000Y-87911890D01*
X110878085Y-87870409D01*
X110888393Y-87836431D01*
X110905134Y-87805110D01*
X110927661Y-87777661D01*
X110955110Y-87755134D01*
X110986431Y-87738393D01*
X111020409Y-87728085D01*
X111061890Y-87724000D01*
X111738110Y-87724000D01*
X111779591Y-87728085D01*
X111779591Y-87728085D01*
G37*
G36*
X113329591Y-87728085D02*
G01*
X113363569Y-87738393D01*
X113394890Y-87755134D01*
X113422339Y-87777661D01*
X113444866Y-87805110D01*
X113461607Y-87836431D01*
X113471915Y-87870409D01*
X113476000Y-87911890D01*
X113476000Y-88513110D01*
X113471915Y-88554591D01*
X113461607Y-88588569D01*
X113444866Y-88619890D01*
X113422339Y-88647339D01*
X113394890Y-88669866D01*
X113363569Y-88686607D01*
X113329591Y-88696915D01*
X113288110Y-88701000D01*
X112611890Y-88701000D01*
X112570409Y-88696915D01*
X112536431Y-88686607D01*
X112505110Y-88669866D01*
X112477661Y-88647339D01*
X112455134Y-88619890D01*
X112438393Y-88588569D01*
X112428085Y-88554591D01*
X112424000Y-88513110D01*
X112424000Y-87911890D01*
X112428085Y-87870409D01*
X112438393Y-87836431D01*
X112455134Y-87805110D01*
X112477661Y-87777661D01*
X112505110Y-87755134D01*
X112536431Y-87738393D01*
X112570409Y-87728085D01*
X112611890Y-87724000D01*
X113288110Y-87724000D01*
X113329591Y-87728085D01*
X113329591Y-87728085D01*
G37*
G36*
X121476000Y-87946000D02*
G01*
X119824000Y-87946000D01*
X119824000Y-87244000D01*
X121476000Y-87244000D01*
X121476000Y-87946000D01*
X121476000Y-87946000D01*
G37*
G36*
X116076000Y-87946000D02*
G01*
X114424000Y-87946000D01*
X114424000Y-87244000D01*
X116076000Y-87244000D01*
X116076000Y-87946000D01*
X116076000Y-87946000D01*
G37*
G36*
X193104061Y-85844890D02*
G01*
X193176627Y-85852037D01*
X193346466Y-85903557D01*
X193502991Y-85987222D01*
X193518835Y-86000225D01*
X193640186Y-86099814D01*
X193715806Y-86191959D01*
X193752778Y-86237009D01*
X193836443Y-86393534D01*
X193887963Y-86563373D01*
X193905359Y-86740000D01*
X193887963Y-86916627D01*
X193836443Y-87086466D01*
X193836442Y-87086468D01*
X193813549Y-87129298D01*
X193752778Y-87242991D01*
X193740030Y-87258524D01*
X193640186Y-87380186D01*
X193542841Y-87460074D01*
X193502991Y-87492778D01*
X193502989Y-87492779D01*
X193373014Y-87562253D01*
X193346466Y-87576443D01*
X193176627Y-87627963D01*
X193110442Y-87634482D01*
X193044260Y-87641000D01*
X192955740Y-87641000D01*
X192889558Y-87634482D01*
X192823373Y-87627963D01*
X192653534Y-87576443D01*
X192626987Y-87562253D01*
X192497011Y-87492779D01*
X192497009Y-87492778D01*
X192457159Y-87460074D01*
X192359814Y-87380186D01*
X192259970Y-87258524D01*
X192247222Y-87242991D01*
X192186451Y-87129298D01*
X192163558Y-87086468D01*
X192163557Y-87086466D01*
X192112037Y-86916627D01*
X192094641Y-86740000D01*
X192112037Y-86563373D01*
X192163557Y-86393534D01*
X192247222Y-86237009D01*
X192284194Y-86191959D01*
X192359814Y-86099814D01*
X192481165Y-86000225D01*
X192497009Y-85987222D01*
X192653534Y-85903557D01*
X192823373Y-85852037D01*
X192895939Y-85844890D01*
X192955740Y-85839000D01*
X193044260Y-85839000D01*
X193104061Y-85844890D01*
X193104061Y-85844890D01*
G37*
G36*
X190342091Y-86078085D02*
G01*
X190376069Y-86088393D01*
X190407390Y-86105134D01*
X190434839Y-86127661D01*
X190457366Y-86155110D01*
X190474107Y-86186431D01*
X190484415Y-86220409D01*
X190488500Y-86261890D01*
X190488500Y-86938110D01*
X190484415Y-86979591D01*
X190474107Y-87013569D01*
X190457366Y-87044890D01*
X190434839Y-87072339D01*
X190407390Y-87094866D01*
X190376069Y-87111607D01*
X190342091Y-87121915D01*
X190300610Y-87126000D01*
X189699390Y-87126000D01*
X189657909Y-87121915D01*
X189623931Y-87111607D01*
X189592610Y-87094866D01*
X189565161Y-87072339D01*
X189542634Y-87044890D01*
X189525893Y-87013569D01*
X189515585Y-86979591D01*
X189511500Y-86938110D01*
X189511500Y-86261890D01*
X189515585Y-86220409D01*
X189525893Y-86186431D01*
X189542634Y-86155110D01*
X189565161Y-86127661D01*
X189592610Y-86105134D01*
X189623931Y-86088393D01*
X189657909Y-86078085D01*
X189699390Y-86074000D01*
X190300610Y-86074000D01*
X190342091Y-86078085D01*
X190342091Y-86078085D01*
G37*
G36*
X188767091Y-86078085D02*
G01*
X188801069Y-86088393D01*
X188832390Y-86105134D01*
X188859839Y-86127661D01*
X188882366Y-86155110D01*
X188899107Y-86186431D01*
X188909415Y-86220409D01*
X188913500Y-86261890D01*
X188913500Y-86938110D01*
X188909415Y-86979591D01*
X188899107Y-87013569D01*
X188882366Y-87044890D01*
X188859839Y-87072339D01*
X188832390Y-87094866D01*
X188801069Y-87111607D01*
X188767091Y-87121915D01*
X188725610Y-87126000D01*
X188124390Y-87126000D01*
X188082909Y-87121915D01*
X188048931Y-87111607D01*
X188017610Y-87094866D01*
X187990161Y-87072339D01*
X187967634Y-87044890D01*
X187950893Y-87013569D01*
X187940585Y-86979591D01*
X187936500Y-86938110D01*
X187936500Y-86261890D01*
X187940585Y-86220409D01*
X187950893Y-86186431D01*
X187967634Y-86155110D01*
X187990161Y-86127661D01*
X188017610Y-86105134D01*
X188048931Y-86088393D01*
X188082909Y-86078085D01*
X188124390Y-86074000D01*
X188725610Y-86074000D01*
X188767091Y-86078085D01*
X188767091Y-86078085D01*
G37*
G36*
X124501000Y-87051000D02*
G01*
X122999000Y-87051000D01*
X122999000Y-84949000D01*
X124501000Y-84949000D01*
X124501000Y-87051000D01*
X124501000Y-87051000D01*
G37*
G36*
X128901000Y-87051000D02*
G01*
X127399000Y-87051000D01*
X127399000Y-84949000D01*
X128901000Y-84949000D01*
X128901000Y-87051000D01*
X128901000Y-87051000D01*
G37*
G36*
X113329591Y-86053085D02*
G01*
X113363569Y-86063393D01*
X113394890Y-86080134D01*
X113422339Y-86102661D01*
X113444866Y-86130110D01*
X113461607Y-86161431D01*
X113471915Y-86195409D01*
X113476000Y-86236890D01*
X113476000Y-86838110D01*
X113471915Y-86879591D01*
X113461607Y-86913569D01*
X113444866Y-86944890D01*
X113422339Y-86972339D01*
X113394890Y-86994866D01*
X113363569Y-87011607D01*
X113329591Y-87021915D01*
X113288110Y-87026000D01*
X112611890Y-87026000D01*
X112570409Y-87021915D01*
X112536431Y-87011607D01*
X112505110Y-86994866D01*
X112477661Y-86972339D01*
X112455134Y-86944890D01*
X112438393Y-86913569D01*
X112428085Y-86879591D01*
X112424000Y-86838110D01*
X112424000Y-86236890D01*
X112428085Y-86195409D01*
X112438393Y-86161431D01*
X112455134Y-86130110D01*
X112477661Y-86102661D01*
X112505110Y-86080134D01*
X112536431Y-86063393D01*
X112570409Y-86053085D01*
X112611890Y-86049000D01*
X113288110Y-86049000D01*
X113329591Y-86053085D01*
X113329591Y-86053085D01*
G37*
G36*
X115254591Y-85228085D02*
G01*
X115288569Y-85238393D01*
X115319890Y-85255134D01*
X115347339Y-85277661D01*
X115369866Y-85305110D01*
X115386607Y-85336431D01*
X115396915Y-85370409D01*
X115401000Y-85411890D01*
X115401000Y-86088110D01*
X115396915Y-86129591D01*
X115386607Y-86163569D01*
X115369866Y-86194890D01*
X115347339Y-86222339D01*
X115319890Y-86244866D01*
X115288569Y-86261607D01*
X115254591Y-86271915D01*
X115213110Y-86276000D01*
X114611890Y-86276000D01*
X114570409Y-86271915D01*
X114536431Y-86261607D01*
X114505110Y-86244866D01*
X114477661Y-86222339D01*
X114455134Y-86194890D01*
X114438393Y-86163569D01*
X114428085Y-86129591D01*
X114424000Y-86088110D01*
X114424000Y-85411890D01*
X114428085Y-85370409D01*
X114438393Y-85336431D01*
X114455134Y-85305110D01*
X114477661Y-85277661D01*
X114505110Y-85255134D01*
X114536431Y-85238393D01*
X114570409Y-85228085D01*
X114611890Y-85224000D01*
X115213110Y-85224000D01*
X115254591Y-85228085D01*
X115254591Y-85228085D01*
G37*
G36*
X116829591Y-85228085D02*
G01*
X116863569Y-85238393D01*
X116894890Y-85255134D01*
X116922339Y-85277661D01*
X116944866Y-85305110D01*
X116961607Y-85336431D01*
X116971915Y-85370409D01*
X116976000Y-85411890D01*
X116976000Y-86088110D01*
X116971915Y-86129591D01*
X116961607Y-86163569D01*
X116944866Y-86194890D01*
X116922339Y-86222339D01*
X116894890Y-86244866D01*
X116863569Y-86261607D01*
X116829591Y-86271915D01*
X116788110Y-86276000D01*
X116186890Y-86276000D01*
X116145409Y-86271915D01*
X116111431Y-86261607D01*
X116080110Y-86244866D01*
X116052661Y-86222339D01*
X116030134Y-86194890D01*
X116013393Y-86163569D01*
X116003085Y-86129591D01*
X115999000Y-86088110D01*
X115999000Y-85411890D01*
X116003085Y-85370409D01*
X116013393Y-85336431D01*
X116030134Y-85305110D01*
X116052661Y-85277661D01*
X116080110Y-85255134D01*
X116111431Y-85238393D01*
X116145409Y-85228085D01*
X116186890Y-85224000D01*
X116788110Y-85224000D01*
X116829591Y-85228085D01*
X116829591Y-85228085D01*
G37*
G36*
X140329591Y-85078085D02*
G01*
X140363569Y-85088393D01*
X140394890Y-85105134D01*
X140422339Y-85127661D01*
X140444866Y-85155110D01*
X140461607Y-85186431D01*
X140471915Y-85220409D01*
X140476000Y-85261890D01*
X140476000Y-85938110D01*
X140471915Y-85979591D01*
X140461607Y-86013569D01*
X140444866Y-86044890D01*
X140422339Y-86072339D01*
X140394890Y-86094866D01*
X140363569Y-86111607D01*
X140329591Y-86121915D01*
X140288110Y-86126000D01*
X139686890Y-86126000D01*
X139645409Y-86121915D01*
X139611431Y-86111607D01*
X139580110Y-86094866D01*
X139552661Y-86072339D01*
X139530134Y-86044890D01*
X139513393Y-86013569D01*
X139503085Y-85979591D01*
X139499000Y-85938110D01*
X139499000Y-85261890D01*
X139503085Y-85220409D01*
X139513393Y-85186431D01*
X139530134Y-85155110D01*
X139552661Y-85127661D01*
X139580110Y-85105134D01*
X139611431Y-85088393D01*
X139645409Y-85078085D01*
X139686890Y-85074000D01*
X140288110Y-85074000D01*
X140329591Y-85078085D01*
X140329591Y-85078085D01*
G37*
G36*
X138754591Y-85078085D02*
G01*
X138788569Y-85088393D01*
X138819890Y-85105134D01*
X138847339Y-85127661D01*
X138869866Y-85155110D01*
X138886607Y-85186431D01*
X138896915Y-85220409D01*
X138901000Y-85261890D01*
X138901000Y-85938110D01*
X138896915Y-85979591D01*
X138886607Y-86013569D01*
X138869866Y-86044890D01*
X138847339Y-86072339D01*
X138819890Y-86094866D01*
X138788569Y-86111607D01*
X138754591Y-86121915D01*
X138713110Y-86126000D01*
X138111890Y-86126000D01*
X138070409Y-86121915D01*
X138036431Y-86111607D01*
X138005110Y-86094866D01*
X137977661Y-86072339D01*
X137955134Y-86044890D01*
X137938393Y-86013569D01*
X137928085Y-85979591D01*
X137924000Y-85938110D01*
X137924000Y-85261890D01*
X137928085Y-85220409D01*
X137938393Y-85186431D01*
X137955134Y-85155110D01*
X137977661Y-85127661D01*
X138005110Y-85105134D01*
X138036431Y-85088393D01*
X138070409Y-85078085D01*
X138111890Y-85074000D01*
X138713110Y-85074000D01*
X138754591Y-85078085D01*
X138754591Y-85078085D01*
G37*
G36*
X153729591Y-84878085D02*
G01*
X153763569Y-84888393D01*
X153794890Y-84905134D01*
X153822339Y-84927661D01*
X153844866Y-84955110D01*
X153861607Y-84986431D01*
X153871915Y-85020409D01*
X153876000Y-85061890D01*
X153876000Y-85738110D01*
X153871915Y-85779591D01*
X153861607Y-85813569D01*
X153844866Y-85844890D01*
X153822339Y-85872339D01*
X153794890Y-85894866D01*
X153763569Y-85911607D01*
X153729591Y-85921915D01*
X153688110Y-85926000D01*
X153086890Y-85926000D01*
X153045409Y-85921915D01*
X153011431Y-85911607D01*
X152980110Y-85894866D01*
X152952661Y-85872339D01*
X152930134Y-85844890D01*
X152913393Y-85813569D01*
X152903085Y-85779591D01*
X152899000Y-85738110D01*
X152899000Y-85061890D01*
X152903085Y-85020409D01*
X152913393Y-84986431D01*
X152930134Y-84955110D01*
X152952661Y-84927661D01*
X152980110Y-84905134D01*
X153011431Y-84888393D01*
X153045409Y-84878085D01*
X153086890Y-84874000D01*
X153688110Y-84874000D01*
X153729591Y-84878085D01*
X153729591Y-84878085D01*
G37*
G36*
X152154591Y-84878085D02*
G01*
X152188569Y-84888393D01*
X152219890Y-84905134D01*
X152247339Y-84927661D01*
X152269866Y-84955110D01*
X152286607Y-84986431D01*
X152296915Y-85020409D01*
X152301000Y-85061890D01*
X152301000Y-85738110D01*
X152296915Y-85779591D01*
X152286607Y-85813569D01*
X152269866Y-85844890D01*
X152247339Y-85872339D01*
X152219890Y-85894866D01*
X152188569Y-85911607D01*
X152154591Y-85921915D01*
X152113110Y-85926000D01*
X151511890Y-85926000D01*
X151470409Y-85921915D01*
X151436431Y-85911607D01*
X151405110Y-85894866D01*
X151377661Y-85872339D01*
X151355134Y-85844890D01*
X151338393Y-85813569D01*
X151328085Y-85779591D01*
X151324000Y-85738110D01*
X151324000Y-85061890D01*
X151328085Y-85020409D01*
X151338393Y-84986431D01*
X151355134Y-84955110D01*
X151377661Y-84927661D01*
X151405110Y-84905134D01*
X151436431Y-84888393D01*
X151470409Y-84878085D01*
X151511890Y-84874000D01*
X152113110Y-84874000D01*
X152154591Y-84878085D01*
X152154591Y-84878085D01*
G37*
G36*
X113329591Y-84478085D02*
G01*
X113363569Y-84488393D01*
X113394890Y-84505134D01*
X113422339Y-84527661D01*
X113444866Y-84555110D01*
X113461607Y-84586431D01*
X113471915Y-84620409D01*
X113476000Y-84661890D01*
X113476000Y-85263110D01*
X113471915Y-85304591D01*
X113461607Y-85338569D01*
X113444866Y-85369890D01*
X113422339Y-85397339D01*
X113394890Y-85419866D01*
X113363569Y-85436607D01*
X113329591Y-85446915D01*
X113288110Y-85451000D01*
X112611890Y-85451000D01*
X112570409Y-85446915D01*
X112536431Y-85436607D01*
X112505110Y-85419866D01*
X112477661Y-85397339D01*
X112455134Y-85369890D01*
X112438393Y-85338569D01*
X112428085Y-85304591D01*
X112424000Y-85263110D01*
X112424000Y-84661890D01*
X112428085Y-84620409D01*
X112438393Y-84586431D01*
X112455134Y-84555110D01*
X112477661Y-84527661D01*
X112505110Y-84505134D01*
X112536431Y-84488393D01*
X112570409Y-84478085D01*
X112611890Y-84474000D01*
X113288110Y-84474000D01*
X113329591Y-84478085D01*
X113329591Y-84478085D01*
G37*
G36*
X190579591Y-84303085D02*
G01*
X190613569Y-84313393D01*
X190644890Y-84330134D01*
X190672339Y-84352661D01*
X190694866Y-84380110D01*
X190711607Y-84411431D01*
X190721915Y-84445409D01*
X190726000Y-84486890D01*
X190726000Y-85088110D01*
X190721915Y-85129591D01*
X190711607Y-85163569D01*
X190694866Y-85194890D01*
X190672339Y-85222339D01*
X190644890Y-85244866D01*
X190613569Y-85261607D01*
X190579591Y-85271915D01*
X190538110Y-85276000D01*
X189861890Y-85276000D01*
X189820409Y-85271915D01*
X189786431Y-85261607D01*
X189755110Y-85244866D01*
X189727661Y-85222339D01*
X189705134Y-85194890D01*
X189688393Y-85163569D01*
X189678085Y-85129591D01*
X189674000Y-85088110D01*
X189674000Y-84486890D01*
X189678085Y-84445409D01*
X189688393Y-84411431D01*
X189705134Y-84380110D01*
X189727661Y-84352661D01*
X189755110Y-84330134D01*
X189786431Y-84313393D01*
X189820409Y-84303085D01*
X189861890Y-84299000D01*
X190538110Y-84299000D01*
X190579591Y-84303085D01*
X190579591Y-84303085D01*
G37*
G36*
X185779591Y-84303085D02*
G01*
X185813569Y-84313393D01*
X185844890Y-84330134D01*
X185872339Y-84352661D01*
X185894866Y-84380110D01*
X185911607Y-84411431D01*
X185921915Y-84445409D01*
X185926000Y-84486890D01*
X185926000Y-85088110D01*
X185921915Y-85129591D01*
X185911607Y-85163569D01*
X185894866Y-85194890D01*
X185872339Y-85222339D01*
X185844890Y-85244866D01*
X185813569Y-85261607D01*
X185779591Y-85271915D01*
X185738110Y-85276000D01*
X185061890Y-85276000D01*
X185020409Y-85271915D01*
X184986431Y-85261607D01*
X184955110Y-85244866D01*
X184927661Y-85222339D01*
X184905134Y-85194890D01*
X184888393Y-85163569D01*
X184878085Y-85129591D01*
X184874000Y-85088110D01*
X184874000Y-84486890D01*
X184878085Y-84445409D01*
X184888393Y-84411431D01*
X184905134Y-84380110D01*
X184927661Y-84352661D01*
X184955110Y-84330134D01*
X184986431Y-84313393D01*
X185020409Y-84303085D01*
X185061890Y-84299000D01*
X185738110Y-84299000D01*
X185779591Y-84303085D01*
X185779591Y-84303085D01*
G37*
G36*
X193901000Y-85101000D02*
G01*
X192099000Y-85101000D01*
X192099000Y-83299000D01*
X193901000Y-83299000D01*
X193901000Y-85101000D01*
X193901000Y-85101000D01*
G37*
G36*
X189126000Y-84901000D02*
G01*
X188374000Y-84901000D01*
X188374000Y-84399000D01*
X189126000Y-84399000D01*
X189126000Y-84901000D01*
X189126000Y-84901000D01*
G37*
G36*
X187226000Y-84901000D02*
G01*
X186474000Y-84901000D01*
X186474000Y-83099000D01*
X187226000Y-83099000D01*
X187226000Y-84901000D01*
X187226000Y-84901000D01*
G37*
G36*
X120751000Y-84651000D02*
G01*
X115649000Y-84651000D01*
X115649000Y-81449000D01*
X120751000Y-81449000D01*
X120751000Y-84651000D01*
X120751000Y-84651000D01*
G37*
G36*
X131129591Y-82878085D02*
G01*
X131163569Y-82888393D01*
X131194890Y-82905134D01*
X131222339Y-82927661D01*
X131244866Y-82955110D01*
X131261607Y-82986431D01*
X131271915Y-83020409D01*
X131276000Y-83061890D01*
X131276000Y-83738110D01*
X131271915Y-83779591D01*
X131261607Y-83813569D01*
X131244866Y-83844890D01*
X131222339Y-83872339D01*
X131194890Y-83894866D01*
X131163569Y-83911607D01*
X131129591Y-83921915D01*
X131088110Y-83926000D01*
X130486890Y-83926000D01*
X130445409Y-83921915D01*
X130411431Y-83911607D01*
X130380110Y-83894866D01*
X130352661Y-83872339D01*
X130330134Y-83844890D01*
X130313393Y-83813569D01*
X130303085Y-83779591D01*
X130299000Y-83738110D01*
X130299000Y-83061890D01*
X130303085Y-83020409D01*
X130313393Y-82986431D01*
X130330134Y-82955110D01*
X130352661Y-82927661D01*
X130380110Y-82905134D01*
X130411431Y-82888393D01*
X130445409Y-82878085D01*
X130486890Y-82874000D01*
X131088110Y-82874000D01*
X131129591Y-82878085D01*
X131129591Y-82878085D01*
G37*
G36*
X129554591Y-82878085D02*
G01*
X129588569Y-82888393D01*
X129619890Y-82905134D01*
X129647339Y-82927661D01*
X129669866Y-82955110D01*
X129686607Y-82986431D01*
X129696915Y-83020409D01*
X129701000Y-83061890D01*
X129701000Y-83738110D01*
X129696915Y-83779591D01*
X129686607Y-83813569D01*
X129669866Y-83844890D01*
X129647339Y-83872339D01*
X129619890Y-83894866D01*
X129588569Y-83911607D01*
X129554591Y-83921915D01*
X129513110Y-83926000D01*
X128911890Y-83926000D01*
X128870409Y-83921915D01*
X128836431Y-83911607D01*
X128805110Y-83894866D01*
X128777661Y-83872339D01*
X128755134Y-83844890D01*
X128738393Y-83813569D01*
X128728085Y-83779591D01*
X128724000Y-83738110D01*
X128724000Y-83061890D01*
X128728085Y-83020409D01*
X128738393Y-82986431D01*
X128755134Y-82955110D01*
X128777661Y-82927661D01*
X128805110Y-82905134D01*
X128836431Y-82888393D01*
X128870409Y-82878085D01*
X128911890Y-82874000D01*
X129513110Y-82874000D01*
X129554591Y-82878085D01*
X129554591Y-82878085D01*
G37*
G36*
X190579591Y-82728085D02*
G01*
X190613569Y-82738393D01*
X190644890Y-82755134D01*
X190672339Y-82777661D01*
X190694866Y-82805110D01*
X190711607Y-82836431D01*
X190721915Y-82870409D01*
X190726000Y-82911890D01*
X190726000Y-83513110D01*
X190721915Y-83554591D01*
X190711607Y-83588569D01*
X190694866Y-83619890D01*
X190672339Y-83647339D01*
X190644890Y-83669866D01*
X190613569Y-83686607D01*
X190579591Y-83696915D01*
X190538110Y-83701000D01*
X189861890Y-83701000D01*
X189820409Y-83696915D01*
X189786431Y-83686607D01*
X189755110Y-83669866D01*
X189727661Y-83647339D01*
X189705134Y-83619890D01*
X189688393Y-83588569D01*
X189678085Y-83554591D01*
X189674000Y-83513110D01*
X189674000Y-82911890D01*
X189678085Y-82870409D01*
X189688393Y-82836431D01*
X189705134Y-82805110D01*
X189727661Y-82777661D01*
X189755110Y-82755134D01*
X189786431Y-82738393D01*
X189820409Y-82728085D01*
X189861890Y-82724000D01*
X190538110Y-82724000D01*
X190579591Y-82728085D01*
X190579591Y-82728085D01*
G37*
G36*
X185779591Y-82728085D02*
G01*
X185813569Y-82738393D01*
X185844890Y-82755134D01*
X185872339Y-82777661D01*
X185894866Y-82805110D01*
X185911607Y-82836431D01*
X185921915Y-82870409D01*
X185926000Y-82911890D01*
X185926000Y-83513110D01*
X185921915Y-83554591D01*
X185911607Y-83588569D01*
X185894866Y-83619890D01*
X185872339Y-83647339D01*
X185844890Y-83669866D01*
X185813569Y-83686607D01*
X185779591Y-83696915D01*
X185738110Y-83701000D01*
X185061890Y-83701000D01*
X185020409Y-83696915D01*
X184986431Y-83686607D01*
X184955110Y-83669866D01*
X184927661Y-83647339D01*
X184905134Y-83619890D01*
X184888393Y-83588569D01*
X184878085Y-83554591D01*
X184874000Y-83513110D01*
X184874000Y-82911890D01*
X184878085Y-82870409D01*
X184888393Y-82836431D01*
X184905134Y-82805110D01*
X184927661Y-82777661D01*
X184955110Y-82755134D01*
X184986431Y-82738393D01*
X185020409Y-82728085D01*
X185061890Y-82724000D01*
X185738110Y-82724000D01*
X185779591Y-82728085D01*
X185779591Y-82728085D01*
G37*
G36*
X189126000Y-83601000D02*
G01*
X188374000Y-83601000D01*
X188374000Y-83099000D01*
X189126000Y-83099000D01*
X189126000Y-83601000D01*
X189126000Y-83601000D01*
G37*
G36*
X127821811Y-81328271D02*
G01*
X127857603Y-81339129D01*
X127890595Y-81356763D01*
X127919508Y-81380492D01*
X127943237Y-81409405D01*
X127960871Y-81442397D01*
X127971729Y-81478189D01*
X127976000Y-81521555D01*
X127976000Y-82553445D01*
X127971729Y-82596811D01*
X127960871Y-82632603D01*
X127943237Y-82665595D01*
X127919508Y-82694508D01*
X127890595Y-82718237D01*
X127857603Y-82735871D01*
X127821811Y-82746729D01*
X127778445Y-82751000D01*
X125721555Y-82751000D01*
X125678189Y-82746729D01*
X125642397Y-82735871D01*
X125609405Y-82718237D01*
X125580492Y-82694508D01*
X125556763Y-82665595D01*
X125539129Y-82632603D01*
X125528271Y-82596811D01*
X125524000Y-82553445D01*
X125524000Y-81521555D01*
X125528271Y-81478189D01*
X125539129Y-81442397D01*
X125556763Y-81409405D01*
X125580492Y-81380492D01*
X125609405Y-81356763D01*
X125642397Y-81339129D01*
X125678189Y-81328271D01*
X125721555Y-81324000D01*
X127778445Y-81324000D01*
X127821811Y-81328271D01*
X127821811Y-81328271D01*
G37*
G36*
X131129591Y-81278085D02*
G01*
X131163569Y-81288393D01*
X131194890Y-81305134D01*
X131222339Y-81327661D01*
X131244866Y-81355110D01*
X131261607Y-81386431D01*
X131271915Y-81420409D01*
X131276000Y-81461890D01*
X131276000Y-82138110D01*
X131271915Y-82179591D01*
X131261607Y-82213569D01*
X131244866Y-82244890D01*
X131222339Y-82272339D01*
X131194890Y-82294866D01*
X131163569Y-82311607D01*
X131129591Y-82321915D01*
X131088110Y-82326000D01*
X130486890Y-82326000D01*
X130445409Y-82321915D01*
X130411431Y-82311607D01*
X130380110Y-82294866D01*
X130352661Y-82272339D01*
X130330134Y-82244890D01*
X130313393Y-82213569D01*
X130303085Y-82179591D01*
X130299000Y-82138110D01*
X130299000Y-81461890D01*
X130303085Y-81420409D01*
X130313393Y-81386431D01*
X130330134Y-81355110D01*
X130352661Y-81327661D01*
X130380110Y-81305134D01*
X130411431Y-81288393D01*
X130445409Y-81278085D01*
X130486890Y-81274000D01*
X131088110Y-81274000D01*
X131129591Y-81278085D01*
X131129591Y-81278085D01*
G37*
G36*
X129554591Y-81278085D02*
G01*
X129588569Y-81288393D01*
X129619890Y-81305134D01*
X129647339Y-81327661D01*
X129669866Y-81355110D01*
X129686607Y-81386431D01*
X129696915Y-81420409D01*
X129701000Y-81461890D01*
X129701000Y-82138110D01*
X129696915Y-82179591D01*
X129686607Y-82213569D01*
X129669866Y-82244890D01*
X129647339Y-82272339D01*
X129619890Y-82294866D01*
X129588569Y-82311607D01*
X129554591Y-82321915D01*
X129513110Y-82326000D01*
X128911890Y-82326000D01*
X128870409Y-82321915D01*
X128836431Y-82311607D01*
X128805110Y-82294866D01*
X128777661Y-82272339D01*
X128755134Y-82244890D01*
X128738393Y-82213569D01*
X128728085Y-82179591D01*
X128724000Y-82138110D01*
X128724000Y-81461890D01*
X128728085Y-81420409D01*
X128738393Y-81386431D01*
X128755134Y-81355110D01*
X128777661Y-81327661D01*
X128805110Y-81305134D01*
X128836431Y-81288393D01*
X128870409Y-81278085D01*
X128911890Y-81274000D01*
X129513110Y-81274000D01*
X129554591Y-81278085D01*
X129554591Y-81278085D01*
G37*
G36*
X141979591Y-81103085D02*
G01*
X142013569Y-81113393D01*
X142044890Y-81130134D01*
X142072339Y-81152661D01*
X142094866Y-81180110D01*
X142111607Y-81211431D01*
X142121915Y-81245409D01*
X142126000Y-81286890D01*
X142126000Y-81888110D01*
X142121915Y-81929591D01*
X142111607Y-81963569D01*
X142094866Y-81994890D01*
X142072339Y-82022339D01*
X142044890Y-82044866D01*
X142013569Y-82061607D01*
X141979591Y-82071915D01*
X141938110Y-82076000D01*
X141261890Y-82076000D01*
X141220409Y-82071915D01*
X141186431Y-82061607D01*
X141155110Y-82044866D01*
X141127661Y-82022339D01*
X141105134Y-81994890D01*
X141088393Y-81963569D01*
X141078085Y-81929591D01*
X141074000Y-81888110D01*
X141074000Y-81286890D01*
X141078085Y-81245409D01*
X141088393Y-81211431D01*
X141105134Y-81180110D01*
X141127661Y-81152661D01*
X141155110Y-81130134D01*
X141186431Y-81113393D01*
X141220409Y-81103085D01*
X141261890Y-81099000D01*
X141938110Y-81099000D01*
X141979591Y-81103085D01*
X141979591Y-81103085D01*
G37*
G36*
X151179591Y-81103085D02*
G01*
X151213569Y-81113393D01*
X151244890Y-81130134D01*
X151272339Y-81152661D01*
X151294866Y-81180110D01*
X151311607Y-81211431D01*
X151321915Y-81245409D01*
X151326000Y-81286890D01*
X151326000Y-81888110D01*
X151321915Y-81929591D01*
X151311607Y-81963569D01*
X151294866Y-81994890D01*
X151272339Y-82022339D01*
X151244890Y-82044866D01*
X151213569Y-82061607D01*
X151179591Y-82071915D01*
X151138110Y-82076000D01*
X150461890Y-82076000D01*
X150420409Y-82071915D01*
X150386431Y-82061607D01*
X150355110Y-82044866D01*
X150327661Y-82022339D01*
X150305134Y-81994890D01*
X150288393Y-81963569D01*
X150278085Y-81929591D01*
X150274000Y-81888110D01*
X150274000Y-81286890D01*
X150278085Y-81245409D01*
X150288393Y-81211431D01*
X150305134Y-81180110D01*
X150327661Y-81152661D01*
X150355110Y-81130134D01*
X150386431Y-81113393D01*
X150420409Y-81103085D01*
X150461890Y-81099000D01*
X151138110Y-81099000D01*
X151179591Y-81103085D01*
X151179591Y-81103085D01*
G37*
G36*
X145979591Y-81103085D02*
G01*
X146013569Y-81113393D01*
X146044890Y-81130134D01*
X146072339Y-81152661D01*
X146094866Y-81180110D01*
X146111607Y-81211431D01*
X146121915Y-81245409D01*
X146126000Y-81286890D01*
X146126000Y-81888110D01*
X146121915Y-81929591D01*
X146111607Y-81963569D01*
X146094866Y-81994890D01*
X146072339Y-82022339D01*
X146044890Y-82044866D01*
X146013569Y-82061607D01*
X145979591Y-82071915D01*
X145938110Y-82076000D01*
X145261890Y-82076000D01*
X145220409Y-82071915D01*
X145186431Y-82061607D01*
X145155110Y-82044866D01*
X145127661Y-82022339D01*
X145105134Y-81994890D01*
X145088393Y-81963569D01*
X145078085Y-81929591D01*
X145074000Y-81888110D01*
X145074000Y-81286890D01*
X145078085Y-81245409D01*
X145088393Y-81211431D01*
X145105134Y-81180110D01*
X145127661Y-81152661D01*
X145155110Y-81130134D01*
X145186431Y-81113393D01*
X145220409Y-81103085D01*
X145261890Y-81099000D01*
X145938110Y-81099000D01*
X145979591Y-81103085D01*
X145979591Y-81103085D01*
G37*
G36*
X143979591Y-81103085D02*
G01*
X144013569Y-81113393D01*
X144044890Y-81130134D01*
X144072339Y-81152661D01*
X144094866Y-81180110D01*
X144111607Y-81211431D01*
X144121915Y-81245409D01*
X144126000Y-81286890D01*
X144126000Y-81888110D01*
X144121915Y-81929591D01*
X144111607Y-81963569D01*
X144094866Y-81994890D01*
X144072339Y-82022339D01*
X144044890Y-82044866D01*
X144013569Y-82061607D01*
X143979591Y-82071915D01*
X143938110Y-82076000D01*
X143261890Y-82076000D01*
X143220409Y-82071915D01*
X143186431Y-82061607D01*
X143155110Y-82044866D01*
X143127661Y-82022339D01*
X143105134Y-81994890D01*
X143088393Y-81963569D01*
X143078085Y-81929591D01*
X143074000Y-81888110D01*
X143074000Y-81286890D01*
X143078085Y-81245409D01*
X143088393Y-81211431D01*
X143105134Y-81180110D01*
X143127661Y-81152661D01*
X143155110Y-81130134D01*
X143186431Y-81113393D01*
X143220409Y-81103085D01*
X143261890Y-81099000D01*
X143938110Y-81099000D01*
X143979591Y-81103085D01*
X143979591Y-81103085D01*
G37*
G36*
X149579591Y-81103085D02*
G01*
X149613569Y-81113393D01*
X149644890Y-81130134D01*
X149672339Y-81152661D01*
X149694866Y-81180110D01*
X149711607Y-81211431D01*
X149721915Y-81245409D01*
X149726000Y-81286890D01*
X149726000Y-81888110D01*
X149721915Y-81929591D01*
X149711607Y-81963569D01*
X149694866Y-81994890D01*
X149672339Y-82022339D01*
X149644890Y-82044866D01*
X149613569Y-82061607D01*
X149579591Y-82071915D01*
X149538110Y-82076000D01*
X148861890Y-82076000D01*
X148820409Y-82071915D01*
X148786431Y-82061607D01*
X148755110Y-82044866D01*
X148727661Y-82022339D01*
X148705134Y-81994890D01*
X148688393Y-81963569D01*
X148678085Y-81929591D01*
X148674000Y-81888110D01*
X148674000Y-81286890D01*
X148678085Y-81245409D01*
X148688393Y-81211431D01*
X148705134Y-81180110D01*
X148727661Y-81152661D01*
X148755110Y-81130134D01*
X148786431Y-81113393D01*
X148820409Y-81103085D01*
X148861890Y-81099000D01*
X149538110Y-81099000D01*
X149579591Y-81103085D01*
X149579591Y-81103085D01*
G37*
G36*
X148001000Y-81851000D02*
G01*
X147199000Y-81851000D01*
X147199000Y-81149000D01*
X148001000Y-81149000D01*
X148001000Y-81851000D01*
X148001000Y-81851000D01*
G37*
G36*
X182329591Y-80078085D02*
G01*
X182363569Y-80088393D01*
X182394890Y-80105134D01*
X182422339Y-80127661D01*
X182444866Y-80155110D01*
X182461607Y-80186431D01*
X182471915Y-80220409D01*
X182476000Y-80261890D01*
X182476000Y-80938110D01*
X182471915Y-80979591D01*
X182461607Y-81013569D01*
X182444866Y-81044890D01*
X182422339Y-81072339D01*
X182394890Y-81094866D01*
X182363569Y-81111607D01*
X182329591Y-81121915D01*
X182288110Y-81126000D01*
X181686890Y-81126000D01*
X181645409Y-81121915D01*
X181611431Y-81111607D01*
X181580110Y-81094866D01*
X181552661Y-81072339D01*
X181530134Y-81044890D01*
X181513393Y-81013569D01*
X181503085Y-80979591D01*
X181499000Y-80938110D01*
X181499000Y-80261890D01*
X181503085Y-80220409D01*
X181513393Y-80186431D01*
X181530134Y-80155110D01*
X181552661Y-80127661D01*
X181580110Y-80105134D01*
X181611431Y-80088393D01*
X181645409Y-80078085D01*
X181686890Y-80074000D01*
X182288110Y-80074000D01*
X182329591Y-80078085D01*
X182329591Y-80078085D01*
G37*
G36*
X180754591Y-80078085D02*
G01*
X180788569Y-80088393D01*
X180819890Y-80105134D01*
X180847339Y-80127661D01*
X180869866Y-80155110D01*
X180886607Y-80186431D01*
X180896915Y-80220409D01*
X180901000Y-80261890D01*
X180901000Y-80938110D01*
X180896915Y-80979591D01*
X180886607Y-81013569D01*
X180869866Y-81044890D01*
X180847339Y-81072339D01*
X180819890Y-81094866D01*
X180788569Y-81111607D01*
X180754591Y-81121915D01*
X180713110Y-81126000D01*
X180111890Y-81126000D01*
X180070409Y-81121915D01*
X180036431Y-81111607D01*
X180005110Y-81094866D01*
X179977661Y-81072339D01*
X179955134Y-81044890D01*
X179938393Y-81013569D01*
X179928085Y-80979591D01*
X179924000Y-80938110D01*
X179924000Y-80261890D01*
X179928085Y-80220409D01*
X179938393Y-80186431D01*
X179955134Y-80155110D01*
X179977661Y-80127661D01*
X180005110Y-80105134D01*
X180036431Y-80088393D01*
X180070409Y-80078085D01*
X180111890Y-80074000D01*
X180713110Y-80074000D01*
X180754591Y-80078085D01*
X180754591Y-80078085D01*
G37*
G36*
X177554591Y-80078085D02*
G01*
X177588569Y-80088393D01*
X177619890Y-80105134D01*
X177647339Y-80127661D01*
X177669866Y-80155110D01*
X177686607Y-80186431D01*
X177696915Y-80220409D01*
X177701000Y-80261890D01*
X177701000Y-80938110D01*
X177696915Y-80979591D01*
X177686607Y-81013569D01*
X177669866Y-81044890D01*
X177647339Y-81072339D01*
X177619890Y-81094866D01*
X177588569Y-81111607D01*
X177554591Y-81121915D01*
X177513110Y-81126000D01*
X176911890Y-81126000D01*
X176870409Y-81121915D01*
X176836431Y-81111607D01*
X176805110Y-81094866D01*
X176777661Y-81072339D01*
X176755134Y-81044890D01*
X176738393Y-81013569D01*
X176728085Y-80979591D01*
X176724000Y-80938110D01*
X176724000Y-80261890D01*
X176728085Y-80220409D01*
X176738393Y-80186431D01*
X176755134Y-80155110D01*
X176777661Y-80127661D01*
X176805110Y-80105134D01*
X176836431Y-80088393D01*
X176870409Y-80078085D01*
X176911890Y-80074000D01*
X177513110Y-80074000D01*
X177554591Y-80078085D01*
X177554591Y-80078085D01*
G37*
G36*
X179129591Y-80078085D02*
G01*
X179163569Y-80088393D01*
X179194890Y-80105134D01*
X179222339Y-80127661D01*
X179244866Y-80155110D01*
X179261607Y-80186431D01*
X179271915Y-80220409D01*
X179276000Y-80261890D01*
X179276000Y-80938110D01*
X179271915Y-80979591D01*
X179261607Y-81013569D01*
X179244866Y-81044890D01*
X179222339Y-81072339D01*
X179194890Y-81094866D01*
X179163569Y-81111607D01*
X179129591Y-81121915D01*
X179088110Y-81126000D01*
X178486890Y-81126000D01*
X178445409Y-81121915D01*
X178411431Y-81111607D01*
X178380110Y-81094866D01*
X178352661Y-81072339D01*
X178330134Y-81044890D01*
X178313393Y-81013569D01*
X178303085Y-80979591D01*
X178299000Y-80938110D01*
X178299000Y-80261890D01*
X178303085Y-80220409D01*
X178313393Y-80186431D01*
X178330134Y-80155110D01*
X178352661Y-80127661D01*
X178380110Y-80105134D01*
X178411431Y-80088393D01*
X178445409Y-80078085D01*
X178486890Y-80074000D01*
X179088110Y-80074000D01*
X179129591Y-80078085D01*
X179129591Y-80078085D01*
G37*
G36*
X131129591Y-79678085D02*
G01*
X131163569Y-79688393D01*
X131194890Y-79705134D01*
X131222339Y-79727661D01*
X131244866Y-79755110D01*
X131261607Y-79786431D01*
X131271915Y-79820409D01*
X131276000Y-79861890D01*
X131276000Y-80538110D01*
X131271915Y-80579591D01*
X131261607Y-80613569D01*
X131244866Y-80644890D01*
X131222339Y-80672339D01*
X131194890Y-80694866D01*
X131163569Y-80711607D01*
X131129591Y-80721915D01*
X131088110Y-80726000D01*
X130486890Y-80726000D01*
X130445409Y-80721915D01*
X130411431Y-80711607D01*
X130380110Y-80694866D01*
X130352661Y-80672339D01*
X130330134Y-80644890D01*
X130313393Y-80613569D01*
X130303085Y-80579591D01*
X130299000Y-80538110D01*
X130299000Y-79861890D01*
X130303085Y-79820409D01*
X130313393Y-79786431D01*
X130330134Y-79755110D01*
X130352661Y-79727661D01*
X130380110Y-79705134D01*
X130411431Y-79688393D01*
X130445409Y-79678085D01*
X130486890Y-79674000D01*
X131088110Y-79674000D01*
X131129591Y-79678085D01*
X131129591Y-79678085D01*
G37*
G36*
X129554591Y-79678085D02*
G01*
X129588569Y-79688393D01*
X129619890Y-79705134D01*
X129647339Y-79727661D01*
X129669866Y-79755110D01*
X129686607Y-79786431D01*
X129696915Y-79820409D01*
X129701000Y-79861890D01*
X129701000Y-80538110D01*
X129696915Y-80579591D01*
X129686607Y-80613569D01*
X129669866Y-80644890D01*
X129647339Y-80672339D01*
X129619890Y-80694866D01*
X129588569Y-80711607D01*
X129554591Y-80721915D01*
X129513110Y-80726000D01*
X128911890Y-80726000D01*
X128870409Y-80721915D01*
X128836431Y-80711607D01*
X128805110Y-80694866D01*
X128777661Y-80672339D01*
X128755134Y-80644890D01*
X128738393Y-80613569D01*
X128728085Y-80579591D01*
X128724000Y-80538110D01*
X128724000Y-79861890D01*
X128728085Y-79820409D01*
X128738393Y-79786431D01*
X128755134Y-79755110D01*
X128777661Y-79727661D01*
X128805110Y-79705134D01*
X128836431Y-79688393D01*
X128870409Y-79678085D01*
X128911890Y-79674000D01*
X129513110Y-79674000D01*
X129554591Y-79678085D01*
X129554591Y-79678085D01*
G37*
G36*
X141979591Y-79528085D02*
G01*
X142013569Y-79538393D01*
X142044890Y-79555134D01*
X142072339Y-79577661D01*
X142094866Y-79605110D01*
X142111607Y-79636431D01*
X142121915Y-79670409D01*
X142126000Y-79711890D01*
X142126000Y-80313110D01*
X142121915Y-80354591D01*
X142111607Y-80388569D01*
X142094866Y-80419890D01*
X142072339Y-80447339D01*
X142044890Y-80469866D01*
X142013569Y-80486607D01*
X141979591Y-80496915D01*
X141938110Y-80501000D01*
X141261890Y-80501000D01*
X141220409Y-80496915D01*
X141186431Y-80486607D01*
X141155110Y-80469866D01*
X141127661Y-80447339D01*
X141105134Y-80419890D01*
X141088393Y-80388569D01*
X141078085Y-80354591D01*
X141074000Y-80313110D01*
X141074000Y-79711890D01*
X141078085Y-79670409D01*
X141088393Y-79636431D01*
X141105134Y-79605110D01*
X141127661Y-79577661D01*
X141155110Y-79555134D01*
X141186431Y-79538393D01*
X141220409Y-79528085D01*
X141261890Y-79524000D01*
X141938110Y-79524000D01*
X141979591Y-79528085D01*
X141979591Y-79528085D01*
G37*
G36*
X143979591Y-79528085D02*
G01*
X144013569Y-79538393D01*
X144044890Y-79555134D01*
X144072339Y-79577661D01*
X144094866Y-79605110D01*
X144111607Y-79636431D01*
X144121915Y-79670409D01*
X144126000Y-79711890D01*
X144126000Y-80313110D01*
X144121915Y-80354591D01*
X144111607Y-80388569D01*
X144094866Y-80419890D01*
X144072339Y-80447339D01*
X144044890Y-80469866D01*
X144013569Y-80486607D01*
X143979591Y-80496915D01*
X143938110Y-80501000D01*
X143261890Y-80501000D01*
X143220409Y-80496915D01*
X143186431Y-80486607D01*
X143155110Y-80469866D01*
X143127661Y-80447339D01*
X143105134Y-80419890D01*
X143088393Y-80388569D01*
X143078085Y-80354591D01*
X143074000Y-80313110D01*
X143074000Y-79711890D01*
X143078085Y-79670409D01*
X143088393Y-79636431D01*
X143105134Y-79605110D01*
X143127661Y-79577661D01*
X143155110Y-79555134D01*
X143186431Y-79538393D01*
X143220409Y-79528085D01*
X143261890Y-79524000D01*
X143938110Y-79524000D01*
X143979591Y-79528085D01*
X143979591Y-79528085D01*
G37*
G36*
X151179591Y-79528085D02*
G01*
X151213569Y-79538393D01*
X151244890Y-79555134D01*
X151272339Y-79577661D01*
X151294866Y-79605110D01*
X151311607Y-79636431D01*
X151321915Y-79670409D01*
X151326000Y-79711890D01*
X151326000Y-80313110D01*
X151321915Y-80354591D01*
X151311607Y-80388569D01*
X151294866Y-80419890D01*
X151272339Y-80447339D01*
X151244890Y-80469866D01*
X151213569Y-80486607D01*
X151179591Y-80496915D01*
X151138110Y-80501000D01*
X150461890Y-80501000D01*
X150420409Y-80496915D01*
X150386431Y-80486607D01*
X150355110Y-80469866D01*
X150327661Y-80447339D01*
X150305134Y-80419890D01*
X150288393Y-80388569D01*
X150278085Y-80354591D01*
X150274000Y-80313110D01*
X150274000Y-79711890D01*
X150278085Y-79670409D01*
X150288393Y-79636431D01*
X150305134Y-79605110D01*
X150327661Y-79577661D01*
X150355110Y-79555134D01*
X150386431Y-79538393D01*
X150420409Y-79528085D01*
X150461890Y-79524000D01*
X151138110Y-79524000D01*
X151179591Y-79528085D01*
X151179591Y-79528085D01*
G37*
G36*
X145979591Y-79528085D02*
G01*
X146013569Y-79538393D01*
X146044890Y-79555134D01*
X146072339Y-79577661D01*
X146094866Y-79605110D01*
X146111607Y-79636431D01*
X146121915Y-79670409D01*
X146126000Y-79711890D01*
X146126000Y-80313110D01*
X146121915Y-80354591D01*
X146111607Y-80388569D01*
X146094866Y-80419890D01*
X146072339Y-80447339D01*
X146044890Y-80469866D01*
X146013569Y-80486607D01*
X145979591Y-80496915D01*
X145938110Y-80501000D01*
X145261890Y-80501000D01*
X145220409Y-80496915D01*
X145186431Y-80486607D01*
X145155110Y-80469866D01*
X145127661Y-80447339D01*
X145105134Y-80419890D01*
X145088393Y-80388569D01*
X145078085Y-80354591D01*
X145074000Y-80313110D01*
X145074000Y-79711890D01*
X145078085Y-79670409D01*
X145088393Y-79636431D01*
X145105134Y-79605110D01*
X145127661Y-79577661D01*
X145155110Y-79555134D01*
X145186431Y-79538393D01*
X145220409Y-79528085D01*
X145261890Y-79524000D01*
X145938110Y-79524000D01*
X145979591Y-79528085D01*
X145979591Y-79528085D01*
G37*
G36*
X149579591Y-79528085D02*
G01*
X149613569Y-79538393D01*
X149644890Y-79555134D01*
X149672339Y-79577661D01*
X149694866Y-79605110D01*
X149711607Y-79636431D01*
X149721915Y-79670409D01*
X149726000Y-79711890D01*
X149726000Y-80313110D01*
X149721915Y-80354591D01*
X149711607Y-80388569D01*
X149694866Y-80419890D01*
X149672339Y-80447339D01*
X149644890Y-80469866D01*
X149613569Y-80486607D01*
X149579591Y-80496915D01*
X149538110Y-80501000D01*
X148861890Y-80501000D01*
X148820409Y-80496915D01*
X148786431Y-80486607D01*
X148755110Y-80469866D01*
X148727661Y-80447339D01*
X148705134Y-80419890D01*
X148688393Y-80388569D01*
X148678085Y-80354591D01*
X148674000Y-80313110D01*
X148674000Y-79711890D01*
X148678085Y-79670409D01*
X148688393Y-79636431D01*
X148705134Y-79605110D01*
X148727661Y-79577661D01*
X148755110Y-79555134D01*
X148786431Y-79538393D01*
X148820409Y-79528085D01*
X148861890Y-79524000D01*
X149538110Y-79524000D01*
X149579591Y-79528085D01*
X149579591Y-79528085D01*
G37*
G36*
X148001000Y-80451000D02*
G01*
X147199000Y-80451000D01*
X147199000Y-79749000D01*
X148001000Y-79749000D01*
X148001000Y-80451000D01*
X148001000Y-80451000D01*
G37*
G36*
X127821811Y-78253271D02*
G01*
X127857603Y-78264129D01*
X127890595Y-78281763D01*
X127919508Y-78305492D01*
X127943237Y-78334405D01*
X127960871Y-78367397D01*
X127971729Y-78403189D01*
X127976000Y-78446555D01*
X127976000Y-79478445D01*
X127971729Y-79521811D01*
X127960871Y-79557603D01*
X127943237Y-79590595D01*
X127919508Y-79619508D01*
X127890595Y-79643237D01*
X127857603Y-79660871D01*
X127821811Y-79671729D01*
X127778445Y-79676000D01*
X125721555Y-79676000D01*
X125678189Y-79671729D01*
X125642397Y-79660871D01*
X125609405Y-79643237D01*
X125580492Y-79619508D01*
X125556763Y-79590595D01*
X125539129Y-79557603D01*
X125528271Y-79521811D01*
X125524000Y-79478445D01*
X125524000Y-78446555D01*
X125528271Y-78403189D01*
X125539129Y-78367397D01*
X125556763Y-78334405D01*
X125580492Y-78305492D01*
X125609405Y-78281763D01*
X125642397Y-78264129D01*
X125678189Y-78253271D01*
X125721555Y-78249000D01*
X127778445Y-78249000D01*
X127821811Y-78253271D01*
X127821811Y-78253271D01*
G37*
G36*
X189896811Y-77178271D02*
G01*
X189932603Y-77189129D01*
X189965595Y-77206763D01*
X189994508Y-77230492D01*
X190018237Y-77259405D01*
X190035871Y-77292397D01*
X190046729Y-77328189D01*
X190051000Y-77371555D01*
X190051000Y-79428445D01*
X190046729Y-79471811D01*
X190035871Y-79507603D01*
X190018237Y-79540595D01*
X189994508Y-79569508D01*
X189965595Y-79593237D01*
X189932603Y-79610871D01*
X189896811Y-79621729D01*
X189853445Y-79626000D01*
X188821555Y-79626000D01*
X188778189Y-79621729D01*
X188742397Y-79610871D01*
X188709405Y-79593237D01*
X188680492Y-79569508D01*
X188656763Y-79540595D01*
X188639129Y-79507603D01*
X188628271Y-79471811D01*
X188624000Y-79428445D01*
X188624000Y-77371555D01*
X188628271Y-77328189D01*
X188639129Y-77292397D01*
X188656763Y-77259405D01*
X188680492Y-77230492D01*
X188709405Y-77206763D01*
X188742397Y-77189129D01*
X188778189Y-77178271D01*
X188821555Y-77174000D01*
X189853445Y-77174000D01*
X189896811Y-77178271D01*
X189896811Y-77178271D01*
G37*
G36*
X186821811Y-77178271D02*
G01*
X186857603Y-77189129D01*
X186890595Y-77206763D01*
X186919508Y-77230492D01*
X186943237Y-77259405D01*
X186960871Y-77292397D01*
X186971729Y-77328189D01*
X186976000Y-77371555D01*
X186976000Y-79428445D01*
X186971729Y-79471811D01*
X186960871Y-79507603D01*
X186943237Y-79540595D01*
X186919508Y-79569508D01*
X186890595Y-79593237D01*
X186857603Y-79610871D01*
X186821811Y-79621729D01*
X186778445Y-79626000D01*
X185746555Y-79626000D01*
X185703189Y-79621729D01*
X185667397Y-79610871D01*
X185634405Y-79593237D01*
X185605492Y-79569508D01*
X185581763Y-79540595D01*
X185564129Y-79507603D01*
X185553271Y-79471811D01*
X185549000Y-79428445D01*
X185549000Y-77371555D01*
X185553271Y-77328189D01*
X185564129Y-77292397D01*
X185581763Y-77259405D01*
X185605492Y-77230492D01*
X185634405Y-77206763D01*
X185667397Y-77189129D01*
X185703189Y-77178271D01*
X185746555Y-77174000D01*
X186778445Y-77174000D01*
X186821811Y-77178271D01*
X186821811Y-77178271D01*
G37*
G36*
X165679591Y-78503085D02*
G01*
X165713569Y-78513393D01*
X165744890Y-78530134D01*
X165772339Y-78552661D01*
X165794866Y-78580110D01*
X165811607Y-78611431D01*
X165821915Y-78645409D01*
X165826000Y-78686890D01*
X165826000Y-79288110D01*
X165821915Y-79329591D01*
X165811607Y-79363569D01*
X165794866Y-79394890D01*
X165772339Y-79422339D01*
X165744890Y-79444866D01*
X165713569Y-79461607D01*
X165679591Y-79471915D01*
X165638110Y-79476000D01*
X164961890Y-79476000D01*
X164920409Y-79471915D01*
X164886431Y-79461607D01*
X164855110Y-79444866D01*
X164827661Y-79422339D01*
X164805134Y-79394890D01*
X164788393Y-79363569D01*
X164778085Y-79329591D01*
X164774000Y-79288110D01*
X164774000Y-78686890D01*
X164778085Y-78645409D01*
X164788393Y-78611431D01*
X164805134Y-78580110D01*
X164827661Y-78552661D01*
X164855110Y-78530134D01*
X164886431Y-78513393D01*
X164920409Y-78503085D01*
X164961890Y-78499000D01*
X165638110Y-78499000D01*
X165679591Y-78503085D01*
X165679591Y-78503085D01*
G37*
G36*
X173679591Y-78503085D02*
G01*
X173713569Y-78513393D01*
X173744890Y-78530134D01*
X173772339Y-78552661D01*
X173794866Y-78580110D01*
X173811607Y-78611431D01*
X173821915Y-78645409D01*
X173826000Y-78686890D01*
X173826000Y-79288110D01*
X173821915Y-79329591D01*
X173811607Y-79363569D01*
X173794866Y-79394890D01*
X173772339Y-79422339D01*
X173744890Y-79444866D01*
X173713569Y-79461607D01*
X173679591Y-79471915D01*
X173638110Y-79476000D01*
X172961890Y-79476000D01*
X172920409Y-79471915D01*
X172886431Y-79461607D01*
X172855110Y-79444866D01*
X172827661Y-79422339D01*
X172805134Y-79394890D01*
X172788393Y-79363569D01*
X172778085Y-79329591D01*
X172774000Y-79288110D01*
X172774000Y-78686890D01*
X172778085Y-78645409D01*
X172788393Y-78611431D01*
X172805134Y-78580110D01*
X172827661Y-78552661D01*
X172855110Y-78530134D01*
X172886431Y-78513393D01*
X172920409Y-78503085D01*
X172961890Y-78499000D01*
X173638110Y-78499000D01*
X173679591Y-78503085D01*
X173679591Y-78503085D01*
G37*
G36*
X167279591Y-78503085D02*
G01*
X167313569Y-78513393D01*
X167344890Y-78530134D01*
X167372339Y-78552661D01*
X167394866Y-78580110D01*
X167411607Y-78611431D01*
X167421915Y-78645409D01*
X167426000Y-78686890D01*
X167426000Y-79288110D01*
X167421915Y-79329591D01*
X167411607Y-79363569D01*
X167394866Y-79394890D01*
X167372339Y-79422339D01*
X167344890Y-79444866D01*
X167313569Y-79461607D01*
X167279591Y-79471915D01*
X167238110Y-79476000D01*
X166561890Y-79476000D01*
X166520409Y-79471915D01*
X166486431Y-79461607D01*
X166455110Y-79444866D01*
X166427661Y-79422339D01*
X166405134Y-79394890D01*
X166388393Y-79363569D01*
X166378085Y-79329591D01*
X166374000Y-79288110D01*
X166374000Y-78686890D01*
X166378085Y-78645409D01*
X166388393Y-78611431D01*
X166405134Y-78580110D01*
X166427661Y-78552661D01*
X166455110Y-78530134D01*
X166486431Y-78513393D01*
X166520409Y-78503085D01*
X166561890Y-78499000D01*
X167238110Y-78499000D01*
X167279591Y-78503085D01*
X167279591Y-78503085D01*
G37*
G36*
X168879591Y-78503085D02*
G01*
X168913569Y-78513393D01*
X168944890Y-78530134D01*
X168972339Y-78552661D01*
X168994866Y-78580110D01*
X169011607Y-78611431D01*
X169021915Y-78645409D01*
X169026000Y-78686890D01*
X169026000Y-79288110D01*
X169021915Y-79329591D01*
X169011607Y-79363569D01*
X168994866Y-79394890D01*
X168972339Y-79422339D01*
X168944890Y-79444866D01*
X168913569Y-79461607D01*
X168879591Y-79471915D01*
X168838110Y-79476000D01*
X168161890Y-79476000D01*
X168120409Y-79471915D01*
X168086431Y-79461607D01*
X168055110Y-79444866D01*
X168027661Y-79422339D01*
X168005134Y-79394890D01*
X167988393Y-79363569D01*
X167978085Y-79329591D01*
X167974000Y-79288110D01*
X167974000Y-78686890D01*
X167978085Y-78645409D01*
X167988393Y-78611431D01*
X168005134Y-78580110D01*
X168027661Y-78552661D01*
X168055110Y-78530134D01*
X168086431Y-78513393D01*
X168120409Y-78503085D01*
X168161890Y-78499000D01*
X168838110Y-78499000D01*
X168879591Y-78503085D01*
X168879591Y-78503085D01*
G37*
G36*
X172079591Y-78503085D02*
G01*
X172113569Y-78513393D01*
X172144890Y-78530134D01*
X172172339Y-78552661D01*
X172194866Y-78580110D01*
X172211607Y-78611431D01*
X172221915Y-78645409D01*
X172226000Y-78686890D01*
X172226000Y-79288110D01*
X172221915Y-79329591D01*
X172211607Y-79363569D01*
X172194866Y-79394890D01*
X172172339Y-79422339D01*
X172144890Y-79444866D01*
X172113569Y-79461607D01*
X172079591Y-79471915D01*
X172038110Y-79476000D01*
X171361890Y-79476000D01*
X171320409Y-79471915D01*
X171286431Y-79461607D01*
X171255110Y-79444866D01*
X171227661Y-79422339D01*
X171205134Y-79394890D01*
X171188393Y-79363569D01*
X171178085Y-79329591D01*
X171174000Y-79288110D01*
X171174000Y-78686890D01*
X171178085Y-78645409D01*
X171188393Y-78611431D01*
X171205134Y-78580110D01*
X171227661Y-78552661D01*
X171255110Y-78530134D01*
X171286431Y-78513393D01*
X171320409Y-78503085D01*
X171361890Y-78499000D01*
X172038110Y-78499000D01*
X172079591Y-78503085D01*
X172079591Y-78503085D01*
G37*
G36*
X175279591Y-78503085D02*
G01*
X175313569Y-78513393D01*
X175344890Y-78530134D01*
X175372339Y-78552661D01*
X175394866Y-78580110D01*
X175411607Y-78611431D01*
X175421915Y-78645409D01*
X175426000Y-78686890D01*
X175426000Y-79288110D01*
X175421915Y-79329591D01*
X175411607Y-79363569D01*
X175394866Y-79394890D01*
X175372339Y-79422339D01*
X175344890Y-79444866D01*
X175313569Y-79461607D01*
X175279591Y-79471915D01*
X175238110Y-79476000D01*
X174561890Y-79476000D01*
X174520409Y-79471915D01*
X174486431Y-79461607D01*
X174455110Y-79444866D01*
X174427661Y-79422339D01*
X174405134Y-79394890D01*
X174388393Y-79363569D01*
X174378085Y-79329591D01*
X174374000Y-79288110D01*
X174374000Y-78686890D01*
X174378085Y-78645409D01*
X174388393Y-78611431D01*
X174405134Y-78580110D01*
X174427661Y-78552661D01*
X174455110Y-78530134D01*
X174486431Y-78513393D01*
X174520409Y-78503085D01*
X174561890Y-78499000D01*
X175238110Y-78499000D01*
X175279591Y-78503085D01*
X175279591Y-78503085D01*
G37*
G36*
X170479591Y-78503085D02*
G01*
X170513569Y-78513393D01*
X170544890Y-78530134D01*
X170572339Y-78552661D01*
X170594866Y-78580110D01*
X170611607Y-78611431D01*
X170621915Y-78645409D01*
X170626000Y-78686890D01*
X170626000Y-79288110D01*
X170621915Y-79329591D01*
X170611607Y-79363569D01*
X170594866Y-79394890D01*
X170572339Y-79422339D01*
X170544890Y-79444866D01*
X170513569Y-79461607D01*
X170479591Y-79471915D01*
X170438110Y-79476000D01*
X169761890Y-79476000D01*
X169720409Y-79471915D01*
X169686431Y-79461607D01*
X169655110Y-79444866D01*
X169627661Y-79422339D01*
X169605134Y-79394890D01*
X169588393Y-79363569D01*
X169578085Y-79329591D01*
X169574000Y-79288110D01*
X169574000Y-78686890D01*
X169578085Y-78645409D01*
X169588393Y-78611431D01*
X169605134Y-78580110D01*
X169627661Y-78552661D01*
X169655110Y-78530134D01*
X169686431Y-78513393D01*
X169720409Y-78503085D01*
X169761890Y-78499000D01*
X170438110Y-78499000D01*
X170479591Y-78503085D01*
X170479591Y-78503085D01*
G37*
G36*
X134221811Y-76978271D02*
G01*
X134257603Y-76989129D01*
X134290595Y-77006763D01*
X134319508Y-77030492D01*
X134343237Y-77059405D01*
X134360871Y-77092397D01*
X134371729Y-77128189D01*
X134376000Y-77171555D01*
X134376000Y-79228445D01*
X134371729Y-79271811D01*
X134360871Y-79307603D01*
X134343237Y-79340595D01*
X134319508Y-79369508D01*
X134290595Y-79393237D01*
X134257603Y-79410871D01*
X134221811Y-79421729D01*
X134178445Y-79426000D01*
X133146555Y-79426000D01*
X133103189Y-79421729D01*
X133067397Y-79410871D01*
X133034405Y-79393237D01*
X133005492Y-79369508D01*
X132981763Y-79340595D01*
X132964129Y-79307603D01*
X132953271Y-79271811D01*
X132949000Y-79228445D01*
X132949000Y-77171555D01*
X132953271Y-77128189D01*
X132964129Y-77092397D01*
X132981763Y-77059405D01*
X133005492Y-77030492D01*
X133034405Y-77006763D01*
X133067397Y-76989129D01*
X133103189Y-76978271D01*
X133146555Y-76974000D01*
X134178445Y-76974000D01*
X134221811Y-76978271D01*
X134221811Y-76978271D01*
G37*
G36*
X137296811Y-76978271D02*
G01*
X137332603Y-76989129D01*
X137365595Y-77006763D01*
X137394508Y-77030492D01*
X137418237Y-77059405D01*
X137435871Y-77092397D01*
X137446729Y-77128189D01*
X137451000Y-77171555D01*
X137451000Y-79228445D01*
X137446729Y-79271811D01*
X137435871Y-79307603D01*
X137418237Y-79340595D01*
X137394508Y-79369508D01*
X137365595Y-79393237D01*
X137332603Y-79410871D01*
X137296811Y-79421729D01*
X137253445Y-79426000D01*
X136221555Y-79426000D01*
X136178189Y-79421729D01*
X136142397Y-79410871D01*
X136109405Y-79393237D01*
X136080492Y-79369508D01*
X136056763Y-79340595D01*
X136039129Y-79307603D01*
X136028271Y-79271811D01*
X136024000Y-79228445D01*
X136024000Y-77171555D01*
X136028271Y-77128189D01*
X136039129Y-77092397D01*
X136056763Y-77059405D01*
X136080492Y-77030492D01*
X136109405Y-77006763D01*
X136142397Y-76989129D01*
X136178189Y-76978271D01*
X136221555Y-76974000D01*
X137253445Y-76974000D01*
X137296811Y-76978271D01*
X137296811Y-76978271D01*
G37*
G36*
X183481000Y-79326000D02*
G01*
X182319000Y-79326000D01*
X182319000Y-76674000D01*
X183481000Y-76674000D01*
X183481000Y-79326000D01*
X183481000Y-79326000D01*
G37*
G36*
X181281000Y-79326000D02*
G01*
X180119000Y-79326000D01*
X180119000Y-76674000D01*
X181281000Y-76674000D01*
X181281000Y-79326000D01*
X181281000Y-79326000D01*
G37*
G36*
X193110443Y-77385519D02*
G01*
X193176627Y-77392037D01*
X193346466Y-77443557D01*
X193502991Y-77527222D01*
X193525310Y-77545539D01*
X193640186Y-77639814D01*
X193723448Y-77741271D01*
X193752778Y-77777009D01*
X193836443Y-77933534D01*
X193887963Y-78103373D01*
X193905359Y-78280000D01*
X193887963Y-78456627D01*
X193836443Y-78626466D01*
X193752778Y-78782991D01*
X193723448Y-78818729D01*
X193640186Y-78920186D01*
X193538729Y-79003448D01*
X193502991Y-79032778D01*
X193346466Y-79116443D01*
X193176627Y-79167963D01*
X193110442Y-79174482D01*
X193044260Y-79181000D01*
X192955740Y-79181000D01*
X192889558Y-79174482D01*
X192823373Y-79167963D01*
X192653534Y-79116443D01*
X192497009Y-79032778D01*
X192461271Y-79003448D01*
X192359814Y-78920186D01*
X192276552Y-78818729D01*
X192247222Y-78782991D01*
X192163557Y-78626466D01*
X192112037Y-78456627D01*
X192094641Y-78280000D01*
X192112037Y-78103373D01*
X192163557Y-77933534D01*
X192247222Y-77777009D01*
X192276552Y-77741271D01*
X192359814Y-77639814D01*
X192474690Y-77545539D01*
X192497009Y-77527222D01*
X192653534Y-77443557D01*
X192823373Y-77392037D01*
X192889557Y-77385519D01*
X192955740Y-77379000D01*
X193044260Y-77379000D01*
X193110443Y-77385519D01*
X193110443Y-77385519D01*
G37*
G36*
X179251000Y-78751000D02*
G01*
X177149000Y-78751000D01*
X177149000Y-77249000D01*
X179251000Y-77249000D01*
X179251000Y-78751000D01*
X179251000Y-78751000D01*
G37*
G36*
X151154591Y-77478085D02*
G01*
X151188569Y-77488393D01*
X151219890Y-77505134D01*
X151247339Y-77527661D01*
X151269866Y-77555110D01*
X151286607Y-77586431D01*
X151296915Y-77620409D01*
X151301000Y-77661890D01*
X151301000Y-78338110D01*
X151296915Y-78379591D01*
X151286607Y-78413569D01*
X151269866Y-78444890D01*
X151247339Y-78472339D01*
X151219890Y-78494866D01*
X151188569Y-78511607D01*
X151154591Y-78521915D01*
X151113110Y-78526000D01*
X150511890Y-78526000D01*
X150470409Y-78521915D01*
X150436431Y-78511607D01*
X150405110Y-78494866D01*
X150377661Y-78472339D01*
X150355134Y-78444890D01*
X150338393Y-78413569D01*
X150328085Y-78379591D01*
X150324000Y-78338110D01*
X150324000Y-77661890D01*
X150328085Y-77620409D01*
X150338393Y-77586431D01*
X150355134Y-77555110D01*
X150377661Y-77527661D01*
X150405110Y-77505134D01*
X150436431Y-77488393D01*
X150470409Y-77478085D01*
X150511890Y-77474000D01*
X151113110Y-77474000D01*
X151154591Y-77478085D01*
X151154591Y-77478085D01*
G37*
G36*
X152729591Y-77478085D02*
G01*
X152763569Y-77488393D01*
X152794890Y-77505134D01*
X152822339Y-77527661D01*
X152844866Y-77555110D01*
X152861607Y-77586431D01*
X152871915Y-77620409D01*
X152876000Y-77661890D01*
X152876000Y-78338110D01*
X152871915Y-78379591D01*
X152861607Y-78413569D01*
X152844866Y-78444890D01*
X152822339Y-78472339D01*
X152794890Y-78494866D01*
X152763569Y-78511607D01*
X152729591Y-78521915D01*
X152688110Y-78526000D01*
X152086890Y-78526000D01*
X152045409Y-78521915D01*
X152011431Y-78511607D01*
X151980110Y-78494866D01*
X151952661Y-78472339D01*
X151930134Y-78444890D01*
X151913393Y-78413569D01*
X151903085Y-78379591D01*
X151899000Y-78338110D01*
X151899000Y-77661890D01*
X151903085Y-77620409D01*
X151913393Y-77586431D01*
X151930134Y-77555110D01*
X151952661Y-77527661D01*
X151980110Y-77505134D01*
X152011431Y-77488393D01*
X152045409Y-77478085D01*
X152086890Y-77474000D01*
X152688110Y-77474000D01*
X152729591Y-77478085D01*
X152729591Y-77478085D01*
G37*
G36*
X168879591Y-76928085D02*
G01*
X168913569Y-76938393D01*
X168944890Y-76955134D01*
X168972339Y-76977661D01*
X168994866Y-77005110D01*
X169011607Y-77036431D01*
X169021915Y-77070409D01*
X169026000Y-77111890D01*
X169026000Y-77713110D01*
X169021915Y-77754591D01*
X169011607Y-77788569D01*
X168994866Y-77819890D01*
X168972339Y-77847339D01*
X168944890Y-77869866D01*
X168913569Y-77886607D01*
X168879591Y-77896915D01*
X168838110Y-77901000D01*
X168161890Y-77901000D01*
X168120409Y-77896915D01*
X168086431Y-77886607D01*
X168055110Y-77869866D01*
X168027661Y-77847339D01*
X168005134Y-77819890D01*
X167988393Y-77788569D01*
X167978085Y-77754591D01*
X167974000Y-77713110D01*
X167974000Y-77111890D01*
X167978085Y-77070409D01*
X167988393Y-77036431D01*
X168005134Y-77005110D01*
X168027661Y-76977661D01*
X168055110Y-76955134D01*
X168086431Y-76938393D01*
X168120409Y-76928085D01*
X168161890Y-76924000D01*
X168838110Y-76924000D01*
X168879591Y-76928085D01*
X168879591Y-76928085D01*
G37*
G36*
X175279591Y-76928085D02*
G01*
X175313569Y-76938393D01*
X175344890Y-76955134D01*
X175372339Y-76977661D01*
X175394866Y-77005110D01*
X175411607Y-77036431D01*
X175421915Y-77070409D01*
X175426000Y-77111890D01*
X175426000Y-77713110D01*
X175421915Y-77754591D01*
X175411607Y-77788569D01*
X175394866Y-77819890D01*
X175372339Y-77847339D01*
X175344890Y-77869866D01*
X175313569Y-77886607D01*
X175279591Y-77896915D01*
X175238110Y-77901000D01*
X174561890Y-77901000D01*
X174520409Y-77896915D01*
X174486431Y-77886607D01*
X174455110Y-77869866D01*
X174427661Y-77847339D01*
X174405134Y-77819890D01*
X174388393Y-77788569D01*
X174378085Y-77754591D01*
X174374000Y-77713110D01*
X174374000Y-77111890D01*
X174378085Y-77070409D01*
X174388393Y-77036431D01*
X174405134Y-77005110D01*
X174427661Y-76977661D01*
X174455110Y-76955134D01*
X174486431Y-76938393D01*
X174520409Y-76928085D01*
X174561890Y-76924000D01*
X175238110Y-76924000D01*
X175279591Y-76928085D01*
X175279591Y-76928085D01*
G37*
G36*
X172079591Y-76928085D02*
G01*
X172113569Y-76938393D01*
X172144890Y-76955134D01*
X172172339Y-76977661D01*
X172194866Y-77005110D01*
X172211607Y-77036431D01*
X172221915Y-77070409D01*
X172226000Y-77111890D01*
X172226000Y-77713110D01*
X172221915Y-77754591D01*
X172211607Y-77788569D01*
X172194866Y-77819890D01*
X172172339Y-77847339D01*
X172144890Y-77869866D01*
X172113569Y-77886607D01*
X172079591Y-77896915D01*
X172038110Y-77901000D01*
X171361890Y-77901000D01*
X171320409Y-77896915D01*
X171286431Y-77886607D01*
X171255110Y-77869866D01*
X171227661Y-77847339D01*
X171205134Y-77819890D01*
X171188393Y-77788569D01*
X171178085Y-77754591D01*
X171174000Y-77713110D01*
X171174000Y-77111890D01*
X171178085Y-77070409D01*
X171188393Y-77036431D01*
X171205134Y-77005110D01*
X171227661Y-76977661D01*
X171255110Y-76955134D01*
X171286431Y-76938393D01*
X171320409Y-76928085D01*
X171361890Y-76924000D01*
X172038110Y-76924000D01*
X172079591Y-76928085D01*
X172079591Y-76928085D01*
G37*
G36*
X173679591Y-76928085D02*
G01*
X173713569Y-76938393D01*
X173744890Y-76955134D01*
X173772339Y-76977661D01*
X173794866Y-77005110D01*
X173811607Y-77036431D01*
X173821915Y-77070409D01*
X173826000Y-77111890D01*
X173826000Y-77713110D01*
X173821915Y-77754591D01*
X173811607Y-77788569D01*
X173794866Y-77819890D01*
X173772339Y-77847339D01*
X173744890Y-77869866D01*
X173713569Y-77886607D01*
X173679591Y-77896915D01*
X173638110Y-77901000D01*
X172961890Y-77901000D01*
X172920409Y-77896915D01*
X172886431Y-77886607D01*
X172855110Y-77869866D01*
X172827661Y-77847339D01*
X172805134Y-77819890D01*
X172788393Y-77788569D01*
X172778085Y-77754591D01*
X172774000Y-77713110D01*
X172774000Y-77111890D01*
X172778085Y-77070409D01*
X172788393Y-77036431D01*
X172805134Y-77005110D01*
X172827661Y-76977661D01*
X172855110Y-76955134D01*
X172886431Y-76938393D01*
X172920409Y-76928085D01*
X172961890Y-76924000D01*
X173638110Y-76924000D01*
X173679591Y-76928085D01*
X173679591Y-76928085D01*
G37*
G36*
X167279591Y-76928085D02*
G01*
X167313569Y-76938393D01*
X167344890Y-76955134D01*
X167372339Y-76977661D01*
X167394866Y-77005110D01*
X167411607Y-77036431D01*
X167421915Y-77070409D01*
X167426000Y-77111890D01*
X167426000Y-77713110D01*
X167421915Y-77754591D01*
X167411607Y-77788569D01*
X167394866Y-77819890D01*
X167372339Y-77847339D01*
X167344890Y-77869866D01*
X167313569Y-77886607D01*
X167279591Y-77896915D01*
X167238110Y-77901000D01*
X166561890Y-77901000D01*
X166520409Y-77896915D01*
X166486431Y-77886607D01*
X166455110Y-77869866D01*
X166427661Y-77847339D01*
X166405134Y-77819890D01*
X166388393Y-77788569D01*
X166378085Y-77754591D01*
X166374000Y-77713110D01*
X166374000Y-77111890D01*
X166378085Y-77070409D01*
X166388393Y-77036431D01*
X166405134Y-77005110D01*
X166427661Y-76977661D01*
X166455110Y-76955134D01*
X166486431Y-76938393D01*
X166520409Y-76928085D01*
X166561890Y-76924000D01*
X167238110Y-76924000D01*
X167279591Y-76928085D01*
X167279591Y-76928085D01*
G37*
G36*
X170479591Y-76928085D02*
G01*
X170513569Y-76938393D01*
X170544890Y-76955134D01*
X170572339Y-76977661D01*
X170594866Y-77005110D01*
X170611607Y-77036431D01*
X170621915Y-77070409D01*
X170626000Y-77111890D01*
X170626000Y-77713110D01*
X170621915Y-77754591D01*
X170611607Y-77788569D01*
X170594866Y-77819890D01*
X170572339Y-77847339D01*
X170544890Y-77869866D01*
X170513569Y-77886607D01*
X170479591Y-77896915D01*
X170438110Y-77901000D01*
X169761890Y-77901000D01*
X169720409Y-77896915D01*
X169686431Y-77886607D01*
X169655110Y-77869866D01*
X169627661Y-77847339D01*
X169605134Y-77819890D01*
X169588393Y-77788569D01*
X169578085Y-77754591D01*
X169574000Y-77713110D01*
X169574000Y-77111890D01*
X169578085Y-77070409D01*
X169588393Y-77036431D01*
X169605134Y-77005110D01*
X169627661Y-76977661D01*
X169655110Y-76955134D01*
X169686431Y-76938393D01*
X169720409Y-76928085D01*
X169761890Y-76924000D01*
X170438110Y-76924000D01*
X170479591Y-76928085D01*
X170479591Y-76928085D01*
G37*
G36*
X165679591Y-76928085D02*
G01*
X165713569Y-76938393D01*
X165744890Y-76955134D01*
X165772339Y-76977661D01*
X165794866Y-77005110D01*
X165811607Y-77036431D01*
X165821915Y-77070409D01*
X165826000Y-77111890D01*
X165826000Y-77713110D01*
X165821915Y-77754591D01*
X165811607Y-77788569D01*
X165794866Y-77819890D01*
X165772339Y-77847339D01*
X165744890Y-77869866D01*
X165713569Y-77886607D01*
X165679591Y-77896915D01*
X165638110Y-77901000D01*
X164961890Y-77901000D01*
X164920409Y-77896915D01*
X164886431Y-77886607D01*
X164855110Y-77869866D01*
X164827661Y-77847339D01*
X164805134Y-77819890D01*
X164788393Y-77788569D01*
X164778085Y-77754591D01*
X164774000Y-77713110D01*
X164774000Y-77111890D01*
X164778085Y-77070409D01*
X164788393Y-77036431D01*
X164805134Y-77005110D01*
X164827661Y-76977661D01*
X164855110Y-76955134D01*
X164886431Y-76938393D01*
X164920409Y-76928085D01*
X164961890Y-76924000D01*
X165638110Y-76924000D01*
X165679591Y-76928085D01*
X165679591Y-76928085D01*
G37*
G36*
X152729591Y-75878085D02*
G01*
X152763569Y-75888393D01*
X152794890Y-75905134D01*
X152822339Y-75927661D01*
X152844866Y-75955110D01*
X152861607Y-75986431D01*
X152871915Y-76020409D01*
X152876000Y-76061890D01*
X152876000Y-76738110D01*
X152871915Y-76779591D01*
X152861607Y-76813569D01*
X152844866Y-76844890D01*
X152822339Y-76872339D01*
X152794890Y-76894866D01*
X152763569Y-76911607D01*
X152729591Y-76921915D01*
X152688110Y-76926000D01*
X152086890Y-76926000D01*
X152045409Y-76921915D01*
X152011431Y-76911607D01*
X151980110Y-76894866D01*
X151952661Y-76872339D01*
X151930134Y-76844890D01*
X151913393Y-76813569D01*
X151903085Y-76779591D01*
X151899000Y-76738110D01*
X151899000Y-76061890D01*
X151903085Y-76020409D01*
X151913393Y-75986431D01*
X151930134Y-75955110D01*
X151952661Y-75927661D01*
X151980110Y-75905134D01*
X152011431Y-75888393D01*
X152045409Y-75878085D01*
X152086890Y-75874000D01*
X152688110Y-75874000D01*
X152729591Y-75878085D01*
X152729591Y-75878085D01*
G37*
G36*
X151154591Y-75878085D02*
G01*
X151188569Y-75888393D01*
X151219890Y-75905134D01*
X151247339Y-75927661D01*
X151269866Y-75955110D01*
X151286607Y-75986431D01*
X151296915Y-76020409D01*
X151301000Y-76061890D01*
X151301000Y-76738110D01*
X151296915Y-76779591D01*
X151286607Y-76813569D01*
X151269866Y-76844890D01*
X151247339Y-76872339D01*
X151219890Y-76894866D01*
X151188569Y-76911607D01*
X151154591Y-76921915D01*
X151113110Y-76926000D01*
X150511890Y-76926000D01*
X150470409Y-76921915D01*
X150436431Y-76911607D01*
X150405110Y-76894866D01*
X150377661Y-76872339D01*
X150355134Y-76844890D01*
X150338393Y-76813569D01*
X150328085Y-76779591D01*
X150324000Y-76738110D01*
X150324000Y-76061890D01*
X150328085Y-76020409D01*
X150338393Y-75986431D01*
X150355134Y-75955110D01*
X150377661Y-75927661D01*
X150405110Y-75905134D01*
X150436431Y-75888393D01*
X150470409Y-75878085D01*
X150511890Y-75874000D01*
X151113110Y-75874000D01*
X151154591Y-75878085D01*
X151154591Y-75878085D01*
G37*
G36*
X193110443Y-74845519D02*
G01*
X193176627Y-74852037D01*
X193346466Y-74903557D01*
X193346468Y-74903558D01*
X193396188Y-74930134D01*
X193502991Y-74987222D01*
X193538729Y-75016552D01*
X193640186Y-75099814D01*
X193723448Y-75201271D01*
X193752778Y-75237009D01*
X193836443Y-75393534D01*
X193887963Y-75563373D01*
X193905359Y-75740000D01*
X193887963Y-75916627D01*
X193836443Y-76086466D01*
X193752778Y-76242991D01*
X193723448Y-76278729D01*
X193640186Y-76380186D01*
X193538729Y-76463448D01*
X193502991Y-76492778D01*
X193346466Y-76576443D01*
X193176627Y-76627963D01*
X193110443Y-76634481D01*
X193044260Y-76641000D01*
X192955740Y-76641000D01*
X192889557Y-76634481D01*
X192823373Y-76627963D01*
X192653534Y-76576443D01*
X192497009Y-76492778D01*
X192461271Y-76463448D01*
X192359814Y-76380186D01*
X192276552Y-76278729D01*
X192247222Y-76242991D01*
X192163557Y-76086466D01*
X192112037Y-75916627D01*
X192094641Y-75740000D01*
X192112037Y-75563373D01*
X192163557Y-75393534D01*
X192247222Y-75237009D01*
X192276552Y-75201271D01*
X192359814Y-75099814D01*
X192461271Y-75016552D01*
X192497009Y-74987222D01*
X192603812Y-74930134D01*
X192653532Y-74903558D01*
X192653534Y-74903557D01*
X192823373Y-74852037D01*
X192889557Y-74845519D01*
X192955740Y-74839000D01*
X193044260Y-74839000D01*
X193110443Y-74845519D01*
X193110443Y-74845519D01*
G37*
G36*
X189671811Y-74628271D02*
G01*
X189707603Y-74639129D01*
X189740595Y-74656763D01*
X189769508Y-74680492D01*
X189793237Y-74709405D01*
X189810871Y-74742397D01*
X189821729Y-74778189D01*
X189826000Y-74821555D01*
X189826000Y-75853445D01*
X189821729Y-75896811D01*
X189810871Y-75932603D01*
X189793237Y-75965595D01*
X189769508Y-75994508D01*
X189740595Y-76018237D01*
X189707603Y-76035871D01*
X189671811Y-76046729D01*
X189628445Y-76051000D01*
X187571555Y-76051000D01*
X187528189Y-76046729D01*
X187492397Y-76035871D01*
X187459405Y-76018237D01*
X187430492Y-75994508D01*
X187406763Y-75965595D01*
X187389129Y-75932603D01*
X187378271Y-75896811D01*
X187374000Y-75853445D01*
X187374000Y-74821555D01*
X187378271Y-74778189D01*
X187389129Y-74742397D01*
X187406763Y-74709405D01*
X187430492Y-74680492D01*
X187459405Y-74656763D01*
X187492397Y-74639129D01*
X187528189Y-74628271D01*
X187571555Y-74624000D01*
X189628445Y-74624000D01*
X189671811Y-74628271D01*
X189671811Y-74628271D01*
G37*
G36*
X180979591Y-74903085D02*
G01*
X181013569Y-74913393D01*
X181044890Y-74930134D01*
X181072339Y-74952661D01*
X181094866Y-74980110D01*
X181111607Y-75011431D01*
X181121915Y-75045409D01*
X181126000Y-75086890D01*
X181126000Y-75688110D01*
X181121915Y-75729591D01*
X181111607Y-75763569D01*
X181094866Y-75794890D01*
X181072339Y-75822339D01*
X181044890Y-75844866D01*
X181013569Y-75861607D01*
X180979591Y-75871915D01*
X180938110Y-75876000D01*
X180261890Y-75876000D01*
X180220409Y-75871915D01*
X180186431Y-75861607D01*
X180155110Y-75844866D01*
X180127661Y-75822339D01*
X180105134Y-75794890D01*
X180088393Y-75763569D01*
X180078085Y-75729591D01*
X180074000Y-75688110D01*
X180074000Y-75086890D01*
X180078085Y-75045409D01*
X180088393Y-75011431D01*
X180105134Y-74980110D01*
X180127661Y-74952661D01*
X180155110Y-74930134D01*
X180186431Y-74913393D01*
X180220409Y-74903085D01*
X180261890Y-74899000D01*
X180938110Y-74899000D01*
X180979591Y-74903085D01*
X180979591Y-74903085D01*
G37*
G36*
X186551000Y-75751000D02*
G01*
X184949000Y-75751000D01*
X184949000Y-71449000D01*
X186551000Y-71449000D01*
X186551000Y-75751000D01*
X186551000Y-75751000D01*
G37*
G36*
X183851000Y-75751000D02*
G01*
X182249000Y-75751000D01*
X182249000Y-71449000D01*
X183851000Y-71449000D01*
X183851000Y-75751000D01*
X183851000Y-75751000D01*
G37*
G36*
X145901000Y-74901000D02*
G01*
X144099000Y-74901000D01*
X144099000Y-73099000D01*
X145901000Y-73099000D01*
X145901000Y-74901000D01*
X145901000Y-74901000D01*
G37*
G36*
X147631908Y-73103693D02*
G01*
X147716627Y-73112037D01*
X147886466Y-73163557D01*
X148042991Y-73247222D01*
X148078729Y-73276552D01*
X148180186Y-73359814D01*
X148243063Y-73436431D01*
X148292778Y-73497009D01*
X148376443Y-73653534D01*
X148427963Y-73823373D01*
X148445359Y-74000000D01*
X148427963Y-74176627D01*
X148376443Y-74346466D01*
X148292778Y-74502991D01*
X148263448Y-74538729D01*
X148180186Y-74640186D01*
X148103816Y-74702860D01*
X148042991Y-74752778D01*
X147886466Y-74836443D01*
X147716627Y-74887963D01*
X147663007Y-74893244D01*
X147584260Y-74901000D01*
X147495740Y-74901000D01*
X147416993Y-74893244D01*
X147363373Y-74887963D01*
X147193534Y-74836443D01*
X147037009Y-74752778D01*
X146976184Y-74702860D01*
X146899814Y-74640186D01*
X146816552Y-74538729D01*
X146787222Y-74502991D01*
X146703557Y-74346466D01*
X146652037Y-74176627D01*
X146634641Y-74000000D01*
X146652037Y-73823373D01*
X146703557Y-73653534D01*
X146787222Y-73497009D01*
X146836937Y-73436431D01*
X146899814Y-73359814D01*
X147001271Y-73276552D01*
X147037009Y-73247222D01*
X147193534Y-73163557D01*
X147363373Y-73112037D01*
X147448092Y-73103693D01*
X147495740Y-73099000D01*
X147584260Y-73099000D01*
X147631908Y-73103693D01*
X147631908Y-73103693D01*
G37*
G36*
X179251000Y-74351000D02*
G01*
X177149000Y-74351000D01*
X177149000Y-72849000D01*
X179251000Y-72849000D01*
X179251000Y-74351000D01*
X179251000Y-74351000D01*
G37*
G36*
X180979591Y-73328085D02*
G01*
X181013569Y-73338393D01*
X181044890Y-73355134D01*
X181072339Y-73377661D01*
X181094866Y-73405110D01*
X181111607Y-73436431D01*
X181121915Y-73470409D01*
X181126000Y-73511890D01*
X181126000Y-74113110D01*
X181121915Y-74154591D01*
X181111607Y-74188569D01*
X181094866Y-74219890D01*
X181072339Y-74247339D01*
X181044890Y-74269866D01*
X181013569Y-74286607D01*
X180979591Y-74296915D01*
X180938110Y-74301000D01*
X180261890Y-74301000D01*
X180220409Y-74296915D01*
X180186431Y-74286607D01*
X180155110Y-74269866D01*
X180127661Y-74247339D01*
X180105134Y-74219890D01*
X180088393Y-74188569D01*
X180078085Y-74154591D01*
X180074000Y-74113110D01*
X180074000Y-73511890D01*
X180078085Y-73470409D01*
X180088393Y-73436431D01*
X180105134Y-73405110D01*
X180127661Y-73377661D01*
X180155110Y-73355134D01*
X180186431Y-73338393D01*
X180220409Y-73328085D01*
X180261890Y-73324000D01*
X180938110Y-73324000D01*
X180979591Y-73328085D01*
X180979591Y-73328085D01*
G37*
G36*
X151726348Y-72716320D02*
G01*
X151726350Y-72716321D01*
X151726351Y-72716321D01*
X151867574Y-72774817D01*
X151867577Y-72774819D01*
X151994669Y-72859739D01*
X152102761Y-72967831D01*
X152153907Y-73044377D01*
X152187683Y-73094926D01*
X152206421Y-73140164D01*
X152208517Y-73145225D01*
X152220068Y-73166836D01*
X152235614Y-73185778D01*
X152254556Y-73201323D01*
X152276166Y-73212874D01*
X152299615Y-73219987D01*
X152324001Y-73222389D01*
X152348387Y-73219987D01*
X152371836Y-73212874D01*
X152393447Y-73201323D01*
X152412389Y-73185777D01*
X152427934Y-73166835D01*
X152439485Y-73145225D01*
X152446598Y-73121776D01*
X152449000Y-73097390D01*
X152449000Y-72736500D01*
X155551000Y-72736500D01*
X155551000Y-73097390D01*
X155553402Y-73121776D01*
X155560515Y-73145225D01*
X155572066Y-73166836D01*
X155587611Y-73185778D01*
X155606553Y-73201323D01*
X155628164Y-73212874D01*
X155651613Y-73219987D01*
X155675999Y-73222389D01*
X155700385Y-73219987D01*
X155723834Y-73212874D01*
X155745445Y-73201323D01*
X155764387Y-73185778D01*
X155779932Y-73166836D01*
X155791483Y-73145225D01*
X155793579Y-73140164D01*
X155812317Y-73094926D01*
X155846093Y-73044377D01*
X155897239Y-72967831D01*
X156005331Y-72859739D01*
X156132423Y-72774819D01*
X156132426Y-72774817D01*
X156273649Y-72716321D01*
X156273650Y-72716321D01*
X156273652Y-72716320D01*
X156423569Y-72686500D01*
X156576431Y-72686500D01*
X156726348Y-72716320D01*
X156726350Y-72716321D01*
X156726351Y-72716321D01*
X156867574Y-72774817D01*
X156867577Y-72774819D01*
X156994669Y-72859739D01*
X157102761Y-72967831D01*
X157185209Y-73091223D01*
X157187683Y-73094926D01*
X157240479Y-73222389D01*
X157246180Y-73236152D01*
X157276000Y-73386069D01*
X157276000Y-73538931D01*
X157246327Y-73688110D01*
X157246179Y-73688851D01*
X157187683Y-73830074D01*
X157187682Y-73830075D01*
X157187681Y-73830077D01*
X157102761Y-73957169D01*
X156994669Y-74065261D01*
X156867577Y-74150181D01*
X156867574Y-74150183D01*
X156726351Y-74208679D01*
X156726350Y-74208679D01*
X156726348Y-74208680D01*
X156576431Y-74238500D01*
X156423569Y-74238500D01*
X156273652Y-74208680D01*
X156273650Y-74208679D01*
X156273649Y-74208679D01*
X156132426Y-74150183D01*
X156132423Y-74150181D01*
X156005331Y-74065261D01*
X155897239Y-73957169D01*
X155812318Y-73830075D01*
X155812317Y-73830074D01*
X155791481Y-73779772D01*
X155779932Y-73758164D01*
X155764386Y-73739222D01*
X155745444Y-73723677D01*
X155723834Y-73712126D01*
X155700385Y-73705013D01*
X155675999Y-73702611D01*
X155651613Y-73705013D01*
X155628164Y-73712126D01*
X155606553Y-73723677D01*
X155587611Y-73739223D01*
X155572066Y-73758165D01*
X155560515Y-73779775D01*
X155553402Y-73803224D01*
X155551000Y-73827610D01*
X155551000Y-74188500D01*
X152449000Y-74188500D01*
X152449000Y-73827610D01*
X152446598Y-73803224D01*
X152439485Y-73779775D01*
X152427934Y-73758164D01*
X152412389Y-73739222D01*
X152393447Y-73723677D01*
X152371836Y-73712126D01*
X152348387Y-73705013D01*
X152324001Y-73702611D01*
X152299615Y-73705013D01*
X152276166Y-73712126D01*
X152254555Y-73723677D01*
X152235613Y-73739222D01*
X152220068Y-73758164D01*
X152208519Y-73779772D01*
X152187683Y-73830074D01*
X152187682Y-73830075D01*
X152102761Y-73957169D01*
X151994669Y-74065261D01*
X151867577Y-74150181D01*
X151867574Y-74150183D01*
X151726351Y-74208679D01*
X151726350Y-74208679D01*
X151726348Y-74208680D01*
X151576431Y-74238500D01*
X151423569Y-74238500D01*
X151273652Y-74208680D01*
X151273650Y-74208679D01*
X151273649Y-74208679D01*
X151132426Y-74150183D01*
X151132423Y-74150181D01*
X151005331Y-74065261D01*
X150897239Y-73957169D01*
X150812319Y-73830077D01*
X150812318Y-73830075D01*
X150812317Y-73830074D01*
X150753821Y-73688851D01*
X150753674Y-73688110D01*
X150724000Y-73538931D01*
X150724000Y-73386069D01*
X150753820Y-73236152D01*
X150759521Y-73222389D01*
X150812317Y-73094926D01*
X150814791Y-73091223D01*
X150897239Y-72967831D01*
X151005331Y-72859739D01*
X151132423Y-72774819D01*
X151132426Y-72774817D01*
X151273649Y-72716321D01*
X151273650Y-72716321D01*
X151273652Y-72716320D01*
X151423569Y-72686500D01*
X151576431Y-72686500D01*
X151726348Y-72716320D01*
X151726348Y-72716320D01*
G37*
G36*
X193901000Y-74101000D02*
G01*
X192099000Y-74101000D01*
X192099000Y-72299000D01*
X193901000Y-72299000D01*
X193901000Y-74101000D01*
X193901000Y-74101000D01*
G37*
G36*
X167784468Y-73003565D02*
G01*
X167823138Y-73015296D01*
X167858777Y-73034346D01*
X167890017Y-73059983D01*
X167915654Y-73091223D01*
X167934704Y-73126862D01*
X167946435Y-73165532D01*
X167951000Y-73211888D01*
X167951000Y-73863112D01*
X167946435Y-73909468D01*
X167934704Y-73948138D01*
X167915654Y-73983777D01*
X167890017Y-74015017D01*
X167858777Y-74040654D01*
X167823138Y-74059704D01*
X167784468Y-74071435D01*
X167738112Y-74076000D01*
X166661888Y-74076000D01*
X166615532Y-74071435D01*
X166576862Y-74059704D01*
X166541223Y-74040654D01*
X166509983Y-74015017D01*
X166484346Y-73983777D01*
X166465296Y-73948138D01*
X166453565Y-73909468D01*
X166449000Y-73863112D01*
X166449000Y-73211888D01*
X166453565Y-73165532D01*
X166465296Y-73126862D01*
X166484346Y-73091223D01*
X166509983Y-73059983D01*
X166541223Y-73034346D01*
X166576862Y-73015296D01*
X166615532Y-73003565D01*
X166661888Y-72999000D01*
X167738112Y-72999000D01*
X167784468Y-73003565D01*
X167784468Y-73003565D01*
G37*
G36*
X169379591Y-73103085D02*
G01*
X169413569Y-73113393D01*
X169444890Y-73130134D01*
X169472339Y-73152661D01*
X169494866Y-73180110D01*
X169511607Y-73211431D01*
X169521915Y-73245409D01*
X169526000Y-73286890D01*
X169526000Y-73888110D01*
X169521915Y-73929591D01*
X169511607Y-73963569D01*
X169494866Y-73994890D01*
X169472339Y-74022339D01*
X169444890Y-74044866D01*
X169413569Y-74061607D01*
X169379591Y-74071915D01*
X169338110Y-74076000D01*
X168661890Y-74076000D01*
X168620409Y-74071915D01*
X168586431Y-74061607D01*
X168555110Y-74044866D01*
X168527661Y-74022339D01*
X168505134Y-73994890D01*
X168488393Y-73963569D01*
X168478085Y-73929591D01*
X168474000Y-73888110D01*
X168474000Y-73286890D01*
X168478085Y-73245409D01*
X168488393Y-73211431D01*
X168505134Y-73180110D01*
X168527661Y-73152661D01*
X168555110Y-73130134D01*
X168586431Y-73113393D01*
X168620409Y-73103085D01*
X168661890Y-73099000D01*
X169338110Y-73099000D01*
X169379591Y-73103085D01*
X169379591Y-73103085D01*
G37*
G36*
X165881000Y-73926000D02*
G01*
X164719000Y-73926000D01*
X164719000Y-71274000D01*
X165881000Y-71274000D01*
X165881000Y-73926000D01*
X165881000Y-73926000D01*
G37*
G36*
X163681000Y-73926000D02*
G01*
X162519000Y-73926000D01*
X162519000Y-73174000D01*
X163681000Y-73174000D01*
X163681000Y-73926000D01*
X163681000Y-73926000D01*
G37*
G36*
X161879591Y-72903085D02*
G01*
X161913569Y-72913393D01*
X161944890Y-72930134D01*
X161972339Y-72952661D01*
X161994866Y-72980110D01*
X162011607Y-73011431D01*
X162021915Y-73045409D01*
X162026000Y-73086890D01*
X162026000Y-73688110D01*
X162021915Y-73729591D01*
X162011607Y-73763569D01*
X161994866Y-73794890D01*
X161972339Y-73822339D01*
X161944890Y-73844866D01*
X161913569Y-73861607D01*
X161879591Y-73871915D01*
X161838110Y-73876000D01*
X161161890Y-73876000D01*
X161120409Y-73871915D01*
X161086431Y-73861607D01*
X161055110Y-73844866D01*
X161027661Y-73822339D01*
X161005134Y-73794890D01*
X160988393Y-73763569D01*
X160978085Y-73729591D01*
X160974000Y-73688110D01*
X160974000Y-73086890D01*
X160978085Y-73045409D01*
X160988393Y-73011431D01*
X161005134Y-72980110D01*
X161027661Y-72952661D01*
X161055110Y-72930134D01*
X161086431Y-72913393D01*
X161120409Y-72903085D01*
X161161890Y-72899000D01*
X161838110Y-72899000D01*
X161879591Y-72903085D01*
X161879591Y-72903085D01*
G37*
G36*
X160279591Y-72903085D02*
G01*
X160313569Y-72913393D01*
X160344890Y-72930134D01*
X160372339Y-72952661D01*
X160394866Y-72980110D01*
X160411607Y-73011431D01*
X160421915Y-73045409D01*
X160426000Y-73086890D01*
X160426000Y-73688110D01*
X160421915Y-73729591D01*
X160411607Y-73763569D01*
X160394866Y-73794890D01*
X160372339Y-73822339D01*
X160344890Y-73844866D01*
X160313569Y-73861607D01*
X160279591Y-73871915D01*
X160238110Y-73876000D01*
X159561890Y-73876000D01*
X159520409Y-73871915D01*
X159486431Y-73861607D01*
X159455110Y-73844866D01*
X159427661Y-73822339D01*
X159405134Y-73794890D01*
X159388393Y-73763569D01*
X159378085Y-73729591D01*
X159374000Y-73688110D01*
X159374000Y-73086890D01*
X159378085Y-73045409D01*
X159388393Y-73011431D01*
X159405134Y-72980110D01*
X159427661Y-72952661D01*
X159455110Y-72930134D01*
X159486431Y-72913393D01*
X159520409Y-72903085D01*
X159561890Y-72899000D01*
X160238110Y-72899000D01*
X160279591Y-72903085D01*
X160279591Y-72903085D01*
G37*
G36*
X120751000Y-73551000D02*
G01*
X115649000Y-73551000D01*
X115649000Y-70349000D01*
X120751000Y-70349000D01*
X120751000Y-73551000D01*
X120751000Y-73551000D01*
G37*
G36*
X189671811Y-71553271D02*
G01*
X189707603Y-71564129D01*
X189740595Y-71581763D01*
X189769508Y-71605492D01*
X189793237Y-71634405D01*
X189810871Y-71667397D01*
X189821729Y-71703189D01*
X189826000Y-71746555D01*
X189826000Y-72778445D01*
X189821729Y-72821811D01*
X189810871Y-72857603D01*
X189793237Y-72890595D01*
X189769508Y-72919508D01*
X189740595Y-72943237D01*
X189707603Y-72960871D01*
X189671811Y-72971729D01*
X189628445Y-72976000D01*
X187571555Y-72976000D01*
X187528189Y-72971729D01*
X187492397Y-72960871D01*
X187459405Y-72943237D01*
X187430492Y-72919508D01*
X187406763Y-72890595D01*
X187389129Y-72857603D01*
X187378271Y-72821811D01*
X187374000Y-72778445D01*
X187374000Y-71746555D01*
X187378271Y-71703189D01*
X187389129Y-71667397D01*
X187406763Y-71634405D01*
X187430492Y-71605492D01*
X187459405Y-71581763D01*
X187492397Y-71564129D01*
X187528189Y-71553271D01*
X187571555Y-71549000D01*
X189628445Y-71549000D01*
X189671811Y-71553271D01*
X189671811Y-71553271D01*
G37*
G36*
X169379591Y-71528085D02*
G01*
X169413569Y-71538393D01*
X169444890Y-71555134D01*
X169472339Y-71577661D01*
X169494866Y-71605110D01*
X169511607Y-71636431D01*
X169521915Y-71670409D01*
X169526000Y-71711890D01*
X169526000Y-72313110D01*
X169521915Y-72354591D01*
X169511607Y-72388569D01*
X169494866Y-72419890D01*
X169472339Y-72447339D01*
X169444890Y-72469866D01*
X169413569Y-72486607D01*
X169379591Y-72496915D01*
X169338110Y-72501000D01*
X168661890Y-72501000D01*
X168620409Y-72496915D01*
X168586431Y-72486607D01*
X168555110Y-72469866D01*
X168527661Y-72447339D01*
X168505134Y-72419890D01*
X168488393Y-72388569D01*
X168478085Y-72354591D01*
X168474000Y-72313110D01*
X168474000Y-71711890D01*
X168478085Y-71670409D01*
X168488393Y-71636431D01*
X168505134Y-71605110D01*
X168527661Y-71577661D01*
X168555110Y-71555134D01*
X168586431Y-71538393D01*
X168620409Y-71528085D01*
X168661890Y-71524000D01*
X169338110Y-71524000D01*
X169379591Y-71528085D01*
X169379591Y-71528085D01*
G37*
G36*
X160279591Y-71328085D02*
G01*
X160313569Y-71338393D01*
X160344890Y-71355134D01*
X160372339Y-71377661D01*
X160394866Y-71405110D01*
X160411607Y-71436431D01*
X160421915Y-71470409D01*
X160426000Y-71511890D01*
X160426000Y-72113110D01*
X160421915Y-72154591D01*
X160411607Y-72188569D01*
X160394866Y-72219890D01*
X160372339Y-72247339D01*
X160344890Y-72269866D01*
X160313569Y-72286607D01*
X160279591Y-72296915D01*
X160238110Y-72301000D01*
X159561890Y-72301000D01*
X159520409Y-72296915D01*
X159486431Y-72286607D01*
X159455110Y-72269866D01*
X159427661Y-72247339D01*
X159405134Y-72219890D01*
X159388393Y-72188569D01*
X159378085Y-72154591D01*
X159374000Y-72113110D01*
X159374000Y-71511890D01*
X159378085Y-71470409D01*
X159388393Y-71436431D01*
X159405134Y-71405110D01*
X159427661Y-71377661D01*
X159455110Y-71355134D01*
X159486431Y-71338393D01*
X159520409Y-71328085D01*
X159561890Y-71324000D01*
X160238110Y-71324000D01*
X160279591Y-71328085D01*
X160279591Y-71328085D01*
G37*
G36*
X161879591Y-71328085D02*
G01*
X161913569Y-71338393D01*
X161944890Y-71355134D01*
X161972339Y-71377661D01*
X161994866Y-71405110D01*
X162011607Y-71436431D01*
X162021915Y-71470409D01*
X162026000Y-71511890D01*
X162026000Y-72113110D01*
X162021915Y-72154591D01*
X162011607Y-72188569D01*
X161994866Y-72219890D01*
X161972339Y-72247339D01*
X161944890Y-72269866D01*
X161913569Y-72286607D01*
X161879591Y-72296915D01*
X161838110Y-72301000D01*
X161161890Y-72301000D01*
X161120409Y-72296915D01*
X161086431Y-72286607D01*
X161055110Y-72269866D01*
X161027661Y-72247339D01*
X161005134Y-72219890D01*
X160988393Y-72188569D01*
X160978085Y-72154591D01*
X160974000Y-72113110D01*
X160974000Y-71511890D01*
X160978085Y-71470409D01*
X160988393Y-71436431D01*
X161005134Y-71405110D01*
X161027661Y-71377661D01*
X161055110Y-71355134D01*
X161086431Y-71338393D01*
X161120409Y-71328085D01*
X161161890Y-71324000D01*
X161838110Y-71324000D01*
X161879591Y-71328085D01*
X161879591Y-71328085D01*
G37*
G36*
X167784468Y-71128565D02*
G01*
X167823138Y-71140296D01*
X167858777Y-71159346D01*
X167890017Y-71184983D01*
X167915654Y-71216223D01*
X167934704Y-71251862D01*
X167946435Y-71290532D01*
X167951000Y-71336888D01*
X167951000Y-71988112D01*
X167946435Y-72034468D01*
X167934704Y-72073138D01*
X167915654Y-72108777D01*
X167890017Y-72140017D01*
X167858777Y-72165654D01*
X167823138Y-72184704D01*
X167784468Y-72196435D01*
X167738112Y-72201000D01*
X166661888Y-72201000D01*
X166615532Y-72196435D01*
X166576862Y-72184704D01*
X166541223Y-72165654D01*
X166509983Y-72140017D01*
X166484346Y-72108777D01*
X166465296Y-72073138D01*
X166453565Y-72034468D01*
X166449000Y-71988112D01*
X166449000Y-71336888D01*
X166453565Y-71290532D01*
X166465296Y-71251862D01*
X166484346Y-71216223D01*
X166509983Y-71184983D01*
X166541223Y-71159346D01*
X166576862Y-71140296D01*
X166615532Y-71128565D01*
X166661888Y-71124000D01*
X167738112Y-71124000D01*
X167784468Y-71128565D01*
X167784468Y-71128565D01*
G37*
G36*
X163681000Y-72026000D02*
G01*
X162519000Y-72026000D01*
X162519000Y-71274000D01*
X163681000Y-71274000D01*
X163681000Y-72026000D01*
X163681000Y-72026000D01*
G37*
G36*
X150525862Y-69760898D02*
G01*
X150538114Y-69761500D01*
X151751000Y-69761500D01*
X151751000Y-71763500D01*
X150538114Y-71763500D01*
X150525862Y-71764102D01*
X150500000Y-71766649D01*
X150474138Y-71764102D01*
X150461886Y-71763500D01*
X150388594Y-71763500D01*
X150371836Y-71754543D01*
X150360299Y-71750415D01*
X150262010Y-71720599D01*
X150249664Y-71716854D01*
X150136575Y-71656406D01*
X150037447Y-71575054D01*
X149956094Y-71475924D01*
X149895646Y-71362835D01*
X149883866Y-71324000D01*
X149858420Y-71240117D01*
X149849000Y-71144472D01*
X149849000Y-70380527D01*
X149858420Y-70284882D01*
X149895645Y-70162168D01*
X149956096Y-70049074D01*
X150037447Y-69949946D01*
X150136576Y-69868594D01*
X150249666Y-69808146D01*
X150249669Y-69808145D01*
X150360290Y-69774588D01*
X150382925Y-69765212D01*
X150388481Y-69761500D01*
X150461886Y-69761500D01*
X150474138Y-69760898D01*
X150500000Y-69758351D01*
X150525862Y-69760898D01*
X150525862Y-69760898D01*
G37*
G36*
X157525862Y-69760898D02*
G01*
X157538114Y-69761500D01*
X157611406Y-69761500D01*
X157628164Y-69770457D01*
X157639707Y-69774587D01*
X157750331Y-69808145D01*
X157750334Y-69808146D01*
X157863424Y-69868594D01*
X157962554Y-69949947D01*
X158043906Y-70049075D01*
X158104354Y-70162164D01*
X158114040Y-70194096D01*
X158141580Y-70284882D01*
X158151000Y-70380527D01*
X158151000Y-71144473D01*
X158141580Y-71240118D01*
X158138017Y-71251862D01*
X158104354Y-71362836D01*
X158043906Y-71475925D01*
X157962554Y-71575054D01*
X157863425Y-71656406D01*
X157750336Y-71716854D01*
X157737990Y-71720599D01*
X157639708Y-71750413D01*
X157617075Y-71759787D01*
X157611518Y-71763500D01*
X157538114Y-71763500D01*
X157525862Y-71764102D01*
X157500000Y-71766649D01*
X157474138Y-71764102D01*
X157461886Y-71763500D01*
X156249000Y-71763500D01*
X156249000Y-69761500D01*
X157461886Y-69761500D01*
X157474138Y-69760898D01*
X157500000Y-69758351D01*
X157525862Y-69760898D01*
X157525862Y-69760898D01*
G37*
G36*
X153801000Y-71763500D02*
G01*
X152199000Y-71763500D01*
X152199000Y-69761500D01*
X153801000Y-69761500D01*
X153801000Y-71763500D01*
X153801000Y-71763500D01*
G37*
G36*
X155801000Y-71763500D02*
G01*
X154199000Y-71763500D01*
X154199000Y-69761500D01*
X155801000Y-69761500D01*
X155801000Y-71763500D01*
X155801000Y-71763500D01*
G37*
M02*
